M48
; DRILL file {KiCad 5.1.10} date Fri Oct 22 01:17:50 2021
; FORMAT={-:-/ absolute / metric / decimal}
; #@! TF.CreationDate,2021-10-22T01:17:50+03:00
; #@! TF.GenerationSoftware,Kicad,Pcbnew,5.1.10
; #@! TF.FileFunction,Plated,1,2,PTH
FMAT,2
METRIC
T1C0.650
%
G90
G05
T1
X111.125Y-69.215
X111.125Y-70.485
X111.125Y-71.755
X111.125Y-73.025
X118.11Y-61.595
X118.11Y-62.865
X118.11Y-64.135
X118.11Y-65.405
X118.11Y-66.675
X118.11Y-67.945
X118.11Y-69.215
X118.11Y-70.485
X118.11Y-71.755
X118.11Y-73.025
X118.11Y-74.295
X118.11Y-75.565
X118.11Y-76.835
X118.11Y-78.105
X118.11Y-79.375
X118.11Y-80.645
X121.285Y-58.42
X121.285Y-83.82
X122.555Y-58.42
X122.555Y-83.82
X123.825Y-58.42
X123.825Y-83.82
X125.095Y-58.42
X125.095Y-83.82
X126.365Y-58.42
X126.365Y-83.82
X127.635Y-58.42
X127.635Y-83.82
X128.905Y-50.8
X128.905Y-58.42
X128.905Y-83.82
X128.905Y-91.44
X130.175Y-50.8
X130.175Y-58.42
X130.175Y-83.82
X130.175Y-91.44
X131.445Y-50.8
X131.445Y-58.42
X131.445Y-83.82
X131.445Y-91.44
X132.715Y-50.8
X132.715Y-58.42
X132.715Y-83.82
X132.715Y-91.44
X133.985Y-58.42
X133.985Y-83.82
X135.255Y-58.42
X135.255Y-83.82
X136.525Y-58.42
X136.525Y-83.82
X137.795Y-58.42
X137.795Y-83.82
X139.065Y-58.42
X139.065Y-83.82
X140.335Y-58.42
X140.335Y-83.82
X143.51Y-61.595
X143.51Y-62.865
X143.51Y-64.135
X143.51Y-65.405
X143.51Y-66.675
X143.51Y-67.945
X143.51Y-69.215
X143.51Y-70.485
X143.51Y-71.755
X143.51Y-73.025
X143.51Y-74.295
X143.51Y-75.565
X143.51Y-76.835
X143.51Y-78.105
X143.51Y-79.375
X143.51Y-80.645
X151.13Y-69.215
X151.13Y-70.485
X151.13Y-71.755
X151.13Y-73.025
T0
M30
