%TF.GenerationSoftware,KiCad,Pcbnew,5.1.10*%
%TF.CreationDate,2021-10-22T01:17:49+03:00*%
%TF.ProjectId,breakouts_qfp,62726561-6b6f-4757-9473-5f7166702e6b,rev?*%
%TF.SameCoordinates,Original*%
%TF.FileFunction,Paste,Bot*%
%TF.FilePolarity,Positive*%
%FSLAX46Y46*%
G04 Gerber Fmt 4.6, Leading zero omitted, Abs format (unit mm)*
G04 Created by KiCad (PCBNEW 5.1.10) date 2021-10-22 01:17:49*
%MOMM*%
%LPD*%
G01*
G04 APERTURE LIST*
G04 APERTURE END LIST*
%TO.C,JP64*%
G36*
G01*
X140490000Y-86160000D02*
X140180000Y-86160000D01*
G75*
G02*
X140025000Y-86005000I0J155000D01*
G01*
X140025000Y-85580000D01*
G75*
G02*
X140180000Y-85425000I155000J0D01*
G01*
X140490000Y-85425000D01*
G75*
G02*
X140645000Y-85580000I0J-155000D01*
G01*
X140645000Y-86005000D01*
G75*
G02*
X140490000Y-86160000I-155000J0D01*
G01*
G37*
G36*
G01*
X140490000Y-87295000D02*
X140180000Y-87295000D01*
G75*
G02*
X140025000Y-87140000I0J155000D01*
G01*
X140025000Y-86715000D01*
G75*
G02*
X140180000Y-86560000I155000J0D01*
G01*
X140490000Y-86560000D01*
G75*
G02*
X140645000Y-86715000I0J-155000D01*
G01*
X140645000Y-87140000D01*
G75*
G02*
X140490000Y-87295000I-155000J0D01*
G01*
G37*
%TD*%
%TO.C,JP63*%
G36*
G01*
X139220000Y-86160000D02*
X138910000Y-86160000D01*
G75*
G02*
X138755000Y-86005000I0J155000D01*
G01*
X138755000Y-85580000D01*
G75*
G02*
X138910000Y-85425000I155000J0D01*
G01*
X139220000Y-85425000D01*
G75*
G02*
X139375000Y-85580000I0J-155000D01*
G01*
X139375000Y-86005000D01*
G75*
G02*
X139220000Y-86160000I-155000J0D01*
G01*
G37*
G36*
G01*
X139220000Y-87295000D02*
X138910000Y-87295000D01*
G75*
G02*
X138755000Y-87140000I0J155000D01*
G01*
X138755000Y-86715000D01*
G75*
G02*
X138910000Y-86560000I155000J0D01*
G01*
X139220000Y-86560000D01*
G75*
G02*
X139375000Y-86715000I0J-155000D01*
G01*
X139375000Y-87140000D01*
G75*
G02*
X139220000Y-87295000I-155000J0D01*
G01*
G37*
%TD*%
%TO.C,JP62*%
G36*
G01*
X137950000Y-86160000D02*
X137640000Y-86160000D01*
G75*
G02*
X137485000Y-86005000I0J155000D01*
G01*
X137485000Y-85580000D01*
G75*
G02*
X137640000Y-85425000I155000J0D01*
G01*
X137950000Y-85425000D01*
G75*
G02*
X138105000Y-85580000I0J-155000D01*
G01*
X138105000Y-86005000D01*
G75*
G02*
X137950000Y-86160000I-155000J0D01*
G01*
G37*
G36*
G01*
X137950000Y-87295000D02*
X137640000Y-87295000D01*
G75*
G02*
X137485000Y-87140000I0J155000D01*
G01*
X137485000Y-86715000D01*
G75*
G02*
X137640000Y-86560000I155000J0D01*
G01*
X137950000Y-86560000D01*
G75*
G02*
X138105000Y-86715000I0J-155000D01*
G01*
X138105000Y-87140000D01*
G75*
G02*
X137950000Y-87295000I-155000J0D01*
G01*
G37*
%TD*%
%TO.C,JP61*%
G36*
G01*
X136680000Y-86160000D02*
X136370000Y-86160000D01*
G75*
G02*
X136215000Y-86005000I0J155000D01*
G01*
X136215000Y-85580000D01*
G75*
G02*
X136370000Y-85425000I155000J0D01*
G01*
X136680000Y-85425000D01*
G75*
G02*
X136835000Y-85580000I0J-155000D01*
G01*
X136835000Y-86005000D01*
G75*
G02*
X136680000Y-86160000I-155000J0D01*
G01*
G37*
G36*
G01*
X136680000Y-87295000D02*
X136370000Y-87295000D01*
G75*
G02*
X136215000Y-87140000I0J155000D01*
G01*
X136215000Y-86715000D01*
G75*
G02*
X136370000Y-86560000I155000J0D01*
G01*
X136680000Y-86560000D01*
G75*
G02*
X136835000Y-86715000I0J-155000D01*
G01*
X136835000Y-87140000D01*
G75*
G02*
X136680000Y-87295000I-155000J0D01*
G01*
G37*
%TD*%
%TO.C,JP60*%
G36*
G01*
X135410000Y-86160000D02*
X135100000Y-86160000D01*
G75*
G02*
X134945000Y-86005000I0J155000D01*
G01*
X134945000Y-85580000D01*
G75*
G02*
X135100000Y-85425000I155000J0D01*
G01*
X135410000Y-85425000D01*
G75*
G02*
X135565000Y-85580000I0J-155000D01*
G01*
X135565000Y-86005000D01*
G75*
G02*
X135410000Y-86160000I-155000J0D01*
G01*
G37*
G36*
G01*
X135410000Y-87295000D02*
X135100000Y-87295000D01*
G75*
G02*
X134945000Y-87140000I0J155000D01*
G01*
X134945000Y-86715000D01*
G75*
G02*
X135100000Y-86560000I155000J0D01*
G01*
X135410000Y-86560000D01*
G75*
G02*
X135565000Y-86715000I0J-155000D01*
G01*
X135565000Y-87140000D01*
G75*
G02*
X135410000Y-87295000I-155000J0D01*
G01*
G37*
%TD*%
%TO.C,JP59*%
G36*
G01*
X134140000Y-86160000D02*
X133830000Y-86160000D01*
G75*
G02*
X133675000Y-86005000I0J155000D01*
G01*
X133675000Y-85580000D01*
G75*
G02*
X133830000Y-85425000I155000J0D01*
G01*
X134140000Y-85425000D01*
G75*
G02*
X134295000Y-85580000I0J-155000D01*
G01*
X134295000Y-86005000D01*
G75*
G02*
X134140000Y-86160000I-155000J0D01*
G01*
G37*
G36*
G01*
X134140000Y-87295000D02*
X133830000Y-87295000D01*
G75*
G02*
X133675000Y-87140000I0J155000D01*
G01*
X133675000Y-86715000D01*
G75*
G02*
X133830000Y-86560000I155000J0D01*
G01*
X134140000Y-86560000D01*
G75*
G02*
X134295000Y-86715000I0J-155000D01*
G01*
X134295000Y-87140000D01*
G75*
G02*
X134140000Y-87295000I-155000J0D01*
G01*
G37*
%TD*%
%TO.C,JP58*%
G36*
G01*
X132870000Y-86160000D02*
X132560000Y-86160000D01*
G75*
G02*
X132405000Y-86005000I0J155000D01*
G01*
X132405000Y-85580000D01*
G75*
G02*
X132560000Y-85425000I155000J0D01*
G01*
X132870000Y-85425000D01*
G75*
G02*
X133025000Y-85580000I0J-155000D01*
G01*
X133025000Y-86005000D01*
G75*
G02*
X132870000Y-86160000I-155000J0D01*
G01*
G37*
G36*
G01*
X132870000Y-87295000D02*
X132560000Y-87295000D01*
G75*
G02*
X132405000Y-87140000I0J155000D01*
G01*
X132405000Y-86715000D01*
G75*
G02*
X132560000Y-86560000I155000J0D01*
G01*
X132870000Y-86560000D01*
G75*
G02*
X133025000Y-86715000I0J-155000D01*
G01*
X133025000Y-87140000D01*
G75*
G02*
X132870000Y-87295000I-155000J0D01*
G01*
G37*
%TD*%
%TO.C,JP57*%
G36*
G01*
X131600000Y-86160000D02*
X131290000Y-86160000D01*
G75*
G02*
X131135000Y-86005000I0J155000D01*
G01*
X131135000Y-85580000D01*
G75*
G02*
X131290000Y-85425000I155000J0D01*
G01*
X131600000Y-85425000D01*
G75*
G02*
X131755000Y-85580000I0J-155000D01*
G01*
X131755000Y-86005000D01*
G75*
G02*
X131600000Y-86160000I-155000J0D01*
G01*
G37*
G36*
G01*
X131600000Y-87295000D02*
X131290000Y-87295000D01*
G75*
G02*
X131135000Y-87140000I0J155000D01*
G01*
X131135000Y-86715000D01*
G75*
G02*
X131290000Y-86560000I155000J0D01*
G01*
X131600000Y-86560000D01*
G75*
G02*
X131755000Y-86715000I0J-155000D01*
G01*
X131755000Y-87140000D01*
G75*
G02*
X131600000Y-87295000I-155000J0D01*
G01*
G37*
%TD*%
%TO.C,JP56*%
G36*
G01*
X130330000Y-86160000D02*
X130020000Y-86160000D01*
G75*
G02*
X129865000Y-86005000I0J155000D01*
G01*
X129865000Y-85580000D01*
G75*
G02*
X130020000Y-85425000I155000J0D01*
G01*
X130330000Y-85425000D01*
G75*
G02*
X130485000Y-85580000I0J-155000D01*
G01*
X130485000Y-86005000D01*
G75*
G02*
X130330000Y-86160000I-155000J0D01*
G01*
G37*
G36*
G01*
X130330000Y-87295000D02*
X130020000Y-87295000D01*
G75*
G02*
X129865000Y-87140000I0J155000D01*
G01*
X129865000Y-86715000D01*
G75*
G02*
X130020000Y-86560000I155000J0D01*
G01*
X130330000Y-86560000D01*
G75*
G02*
X130485000Y-86715000I0J-155000D01*
G01*
X130485000Y-87140000D01*
G75*
G02*
X130330000Y-87295000I-155000J0D01*
G01*
G37*
%TD*%
%TO.C,JP55*%
G36*
G01*
X129060000Y-86160000D02*
X128750000Y-86160000D01*
G75*
G02*
X128595000Y-86005000I0J155000D01*
G01*
X128595000Y-85580000D01*
G75*
G02*
X128750000Y-85425000I155000J0D01*
G01*
X129060000Y-85425000D01*
G75*
G02*
X129215000Y-85580000I0J-155000D01*
G01*
X129215000Y-86005000D01*
G75*
G02*
X129060000Y-86160000I-155000J0D01*
G01*
G37*
G36*
G01*
X129060000Y-87295000D02*
X128750000Y-87295000D01*
G75*
G02*
X128595000Y-87140000I0J155000D01*
G01*
X128595000Y-86715000D01*
G75*
G02*
X128750000Y-86560000I155000J0D01*
G01*
X129060000Y-86560000D01*
G75*
G02*
X129215000Y-86715000I0J-155000D01*
G01*
X129215000Y-87140000D01*
G75*
G02*
X129060000Y-87295000I-155000J0D01*
G01*
G37*
%TD*%
%TO.C,JP54*%
G36*
G01*
X127790000Y-86160000D02*
X127480000Y-86160000D01*
G75*
G02*
X127325000Y-86005000I0J155000D01*
G01*
X127325000Y-85580000D01*
G75*
G02*
X127480000Y-85425000I155000J0D01*
G01*
X127790000Y-85425000D01*
G75*
G02*
X127945000Y-85580000I0J-155000D01*
G01*
X127945000Y-86005000D01*
G75*
G02*
X127790000Y-86160000I-155000J0D01*
G01*
G37*
G36*
G01*
X127790000Y-87295000D02*
X127480000Y-87295000D01*
G75*
G02*
X127325000Y-87140000I0J155000D01*
G01*
X127325000Y-86715000D01*
G75*
G02*
X127480000Y-86560000I155000J0D01*
G01*
X127790000Y-86560000D01*
G75*
G02*
X127945000Y-86715000I0J-155000D01*
G01*
X127945000Y-87140000D01*
G75*
G02*
X127790000Y-87295000I-155000J0D01*
G01*
G37*
%TD*%
%TO.C,JP53*%
G36*
G01*
X126520000Y-86160000D02*
X126210000Y-86160000D01*
G75*
G02*
X126055000Y-86005000I0J155000D01*
G01*
X126055000Y-85580000D01*
G75*
G02*
X126210000Y-85425000I155000J0D01*
G01*
X126520000Y-85425000D01*
G75*
G02*
X126675000Y-85580000I0J-155000D01*
G01*
X126675000Y-86005000D01*
G75*
G02*
X126520000Y-86160000I-155000J0D01*
G01*
G37*
G36*
G01*
X126520000Y-87295000D02*
X126210000Y-87295000D01*
G75*
G02*
X126055000Y-87140000I0J155000D01*
G01*
X126055000Y-86715000D01*
G75*
G02*
X126210000Y-86560000I155000J0D01*
G01*
X126520000Y-86560000D01*
G75*
G02*
X126675000Y-86715000I0J-155000D01*
G01*
X126675000Y-87140000D01*
G75*
G02*
X126520000Y-87295000I-155000J0D01*
G01*
G37*
%TD*%
%TO.C,JP52*%
G36*
G01*
X125250000Y-86160000D02*
X124940000Y-86160000D01*
G75*
G02*
X124785000Y-86005000I0J155000D01*
G01*
X124785000Y-85580000D01*
G75*
G02*
X124940000Y-85425000I155000J0D01*
G01*
X125250000Y-85425000D01*
G75*
G02*
X125405000Y-85580000I0J-155000D01*
G01*
X125405000Y-86005000D01*
G75*
G02*
X125250000Y-86160000I-155000J0D01*
G01*
G37*
G36*
G01*
X125250000Y-87295000D02*
X124940000Y-87295000D01*
G75*
G02*
X124785000Y-87140000I0J155000D01*
G01*
X124785000Y-86715000D01*
G75*
G02*
X124940000Y-86560000I155000J0D01*
G01*
X125250000Y-86560000D01*
G75*
G02*
X125405000Y-86715000I0J-155000D01*
G01*
X125405000Y-87140000D01*
G75*
G02*
X125250000Y-87295000I-155000J0D01*
G01*
G37*
%TD*%
%TO.C,JP51*%
G36*
G01*
X123980000Y-86160000D02*
X123670000Y-86160000D01*
G75*
G02*
X123515000Y-86005000I0J155000D01*
G01*
X123515000Y-85580000D01*
G75*
G02*
X123670000Y-85425000I155000J0D01*
G01*
X123980000Y-85425000D01*
G75*
G02*
X124135000Y-85580000I0J-155000D01*
G01*
X124135000Y-86005000D01*
G75*
G02*
X123980000Y-86160000I-155000J0D01*
G01*
G37*
G36*
G01*
X123980000Y-87295000D02*
X123670000Y-87295000D01*
G75*
G02*
X123515000Y-87140000I0J155000D01*
G01*
X123515000Y-86715000D01*
G75*
G02*
X123670000Y-86560000I155000J0D01*
G01*
X123980000Y-86560000D01*
G75*
G02*
X124135000Y-86715000I0J-155000D01*
G01*
X124135000Y-87140000D01*
G75*
G02*
X123980000Y-87295000I-155000J0D01*
G01*
G37*
%TD*%
%TO.C,JP50*%
G36*
G01*
X122710000Y-86160000D02*
X122400000Y-86160000D01*
G75*
G02*
X122245000Y-86005000I0J155000D01*
G01*
X122245000Y-85580000D01*
G75*
G02*
X122400000Y-85425000I155000J0D01*
G01*
X122710000Y-85425000D01*
G75*
G02*
X122865000Y-85580000I0J-155000D01*
G01*
X122865000Y-86005000D01*
G75*
G02*
X122710000Y-86160000I-155000J0D01*
G01*
G37*
G36*
G01*
X122710000Y-87295000D02*
X122400000Y-87295000D01*
G75*
G02*
X122245000Y-87140000I0J155000D01*
G01*
X122245000Y-86715000D01*
G75*
G02*
X122400000Y-86560000I155000J0D01*
G01*
X122710000Y-86560000D01*
G75*
G02*
X122865000Y-86715000I0J-155000D01*
G01*
X122865000Y-87140000D01*
G75*
G02*
X122710000Y-87295000I-155000J0D01*
G01*
G37*
%TD*%
%TO.C,JP49*%
G36*
G01*
X121440000Y-86160000D02*
X121130000Y-86160000D01*
G75*
G02*
X120975000Y-86005000I0J155000D01*
G01*
X120975000Y-85580000D01*
G75*
G02*
X121130000Y-85425000I155000J0D01*
G01*
X121440000Y-85425000D01*
G75*
G02*
X121595000Y-85580000I0J-155000D01*
G01*
X121595000Y-86005000D01*
G75*
G02*
X121440000Y-86160000I-155000J0D01*
G01*
G37*
G36*
G01*
X121440000Y-87295000D02*
X121130000Y-87295000D01*
G75*
G02*
X120975000Y-87140000I0J155000D01*
G01*
X120975000Y-86715000D01*
G75*
G02*
X121130000Y-86560000I155000J0D01*
G01*
X121440000Y-86560000D01*
G75*
G02*
X121595000Y-86715000I0J-155000D01*
G01*
X121595000Y-87140000D01*
G75*
G02*
X121440000Y-87295000I-155000J0D01*
G01*
G37*
%TD*%
%TO.C,JP48*%
G36*
G01*
X145850000Y-80490000D02*
X145850000Y-80800000D01*
G75*
G02*
X145695000Y-80955000I-155000J0D01*
G01*
X145270000Y-80955000D01*
G75*
G02*
X145115000Y-80800000I0J155000D01*
G01*
X145115000Y-80490000D01*
G75*
G02*
X145270000Y-80335000I155000J0D01*
G01*
X145695000Y-80335000D01*
G75*
G02*
X145850000Y-80490000I0J-155000D01*
G01*
G37*
G36*
G01*
X146985000Y-80490000D02*
X146985000Y-80800000D01*
G75*
G02*
X146830000Y-80955000I-155000J0D01*
G01*
X146405000Y-80955000D01*
G75*
G02*
X146250000Y-80800000I0J155000D01*
G01*
X146250000Y-80490000D01*
G75*
G02*
X146405000Y-80335000I155000J0D01*
G01*
X146830000Y-80335000D01*
G75*
G02*
X146985000Y-80490000I0J-155000D01*
G01*
G37*
%TD*%
%TO.C,JP47*%
G36*
G01*
X115770000Y-80800000D02*
X115770000Y-80490000D01*
G75*
G02*
X115925000Y-80335000I155000J0D01*
G01*
X116350000Y-80335000D01*
G75*
G02*
X116505000Y-80490000I0J-155000D01*
G01*
X116505000Y-80800000D01*
G75*
G02*
X116350000Y-80955000I-155000J0D01*
G01*
X115925000Y-80955000D01*
G75*
G02*
X115770000Y-80800000I0J155000D01*
G01*
G37*
G36*
G01*
X114635000Y-80800000D02*
X114635000Y-80490000D01*
G75*
G02*
X114790000Y-80335000I155000J0D01*
G01*
X115215000Y-80335000D01*
G75*
G02*
X115370000Y-80490000I0J-155000D01*
G01*
X115370000Y-80800000D01*
G75*
G02*
X115215000Y-80955000I-155000J0D01*
G01*
X114790000Y-80955000D01*
G75*
G02*
X114635000Y-80800000I0J155000D01*
G01*
G37*
%TD*%
%TO.C,JP46*%
G36*
G01*
X145850000Y-79220000D02*
X145850000Y-79530000D01*
G75*
G02*
X145695000Y-79685000I-155000J0D01*
G01*
X145270000Y-79685000D01*
G75*
G02*
X145115000Y-79530000I0J155000D01*
G01*
X145115000Y-79220000D01*
G75*
G02*
X145270000Y-79065000I155000J0D01*
G01*
X145695000Y-79065000D01*
G75*
G02*
X145850000Y-79220000I0J-155000D01*
G01*
G37*
G36*
G01*
X146985000Y-79220000D02*
X146985000Y-79530000D01*
G75*
G02*
X146830000Y-79685000I-155000J0D01*
G01*
X146405000Y-79685000D01*
G75*
G02*
X146250000Y-79530000I0J155000D01*
G01*
X146250000Y-79220000D01*
G75*
G02*
X146405000Y-79065000I155000J0D01*
G01*
X146830000Y-79065000D01*
G75*
G02*
X146985000Y-79220000I0J-155000D01*
G01*
G37*
%TD*%
%TO.C,JP45*%
G36*
G01*
X115770000Y-79530000D02*
X115770000Y-79220000D01*
G75*
G02*
X115925000Y-79065000I155000J0D01*
G01*
X116350000Y-79065000D01*
G75*
G02*
X116505000Y-79220000I0J-155000D01*
G01*
X116505000Y-79530000D01*
G75*
G02*
X116350000Y-79685000I-155000J0D01*
G01*
X115925000Y-79685000D01*
G75*
G02*
X115770000Y-79530000I0J155000D01*
G01*
G37*
G36*
G01*
X114635000Y-79530000D02*
X114635000Y-79220000D01*
G75*
G02*
X114790000Y-79065000I155000J0D01*
G01*
X115215000Y-79065000D01*
G75*
G02*
X115370000Y-79220000I0J-155000D01*
G01*
X115370000Y-79530000D01*
G75*
G02*
X115215000Y-79685000I-155000J0D01*
G01*
X114790000Y-79685000D01*
G75*
G02*
X114635000Y-79530000I0J155000D01*
G01*
G37*
%TD*%
%TO.C,JP44*%
G36*
G01*
X145850000Y-77950000D02*
X145850000Y-78260000D01*
G75*
G02*
X145695000Y-78415000I-155000J0D01*
G01*
X145270000Y-78415000D01*
G75*
G02*
X145115000Y-78260000I0J155000D01*
G01*
X145115000Y-77950000D01*
G75*
G02*
X145270000Y-77795000I155000J0D01*
G01*
X145695000Y-77795000D01*
G75*
G02*
X145850000Y-77950000I0J-155000D01*
G01*
G37*
G36*
G01*
X146985000Y-77950000D02*
X146985000Y-78260000D01*
G75*
G02*
X146830000Y-78415000I-155000J0D01*
G01*
X146405000Y-78415000D01*
G75*
G02*
X146250000Y-78260000I0J155000D01*
G01*
X146250000Y-77950000D01*
G75*
G02*
X146405000Y-77795000I155000J0D01*
G01*
X146830000Y-77795000D01*
G75*
G02*
X146985000Y-77950000I0J-155000D01*
G01*
G37*
%TD*%
%TO.C,JP43*%
G36*
G01*
X115770000Y-78260000D02*
X115770000Y-77950000D01*
G75*
G02*
X115925000Y-77795000I155000J0D01*
G01*
X116350000Y-77795000D01*
G75*
G02*
X116505000Y-77950000I0J-155000D01*
G01*
X116505000Y-78260000D01*
G75*
G02*
X116350000Y-78415000I-155000J0D01*
G01*
X115925000Y-78415000D01*
G75*
G02*
X115770000Y-78260000I0J155000D01*
G01*
G37*
G36*
G01*
X114635000Y-78260000D02*
X114635000Y-77950000D01*
G75*
G02*
X114790000Y-77795000I155000J0D01*
G01*
X115215000Y-77795000D01*
G75*
G02*
X115370000Y-77950000I0J-155000D01*
G01*
X115370000Y-78260000D01*
G75*
G02*
X115215000Y-78415000I-155000J0D01*
G01*
X114790000Y-78415000D01*
G75*
G02*
X114635000Y-78260000I0J155000D01*
G01*
G37*
%TD*%
%TO.C,JP42*%
G36*
G01*
X145850000Y-76680000D02*
X145850000Y-76990000D01*
G75*
G02*
X145695000Y-77145000I-155000J0D01*
G01*
X145270000Y-77145000D01*
G75*
G02*
X145115000Y-76990000I0J155000D01*
G01*
X145115000Y-76680000D01*
G75*
G02*
X145270000Y-76525000I155000J0D01*
G01*
X145695000Y-76525000D01*
G75*
G02*
X145850000Y-76680000I0J-155000D01*
G01*
G37*
G36*
G01*
X146985000Y-76680000D02*
X146985000Y-76990000D01*
G75*
G02*
X146830000Y-77145000I-155000J0D01*
G01*
X146405000Y-77145000D01*
G75*
G02*
X146250000Y-76990000I0J155000D01*
G01*
X146250000Y-76680000D01*
G75*
G02*
X146405000Y-76525000I155000J0D01*
G01*
X146830000Y-76525000D01*
G75*
G02*
X146985000Y-76680000I0J-155000D01*
G01*
G37*
%TD*%
%TO.C,JP41*%
G36*
G01*
X115770000Y-76990000D02*
X115770000Y-76680000D01*
G75*
G02*
X115925000Y-76525000I155000J0D01*
G01*
X116350000Y-76525000D01*
G75*
G02*
X116505000Y-76680000I0J-155000D01*
G01*
X116505000Y-76990000D01*
G75*
G02*
X116350000Y-77145000I-155000J0D01*
G01*
X115925000Y-77145000D01*
G75*
G02*
X115770000Y-76990000I0J155000D01*
G01*
G37*
G36*
G01*
X114635000Y-76990000D02*
X114635000Y-76680000D01*
G75*
G02*
X114790000Y-76525000I155000J0D01*
G01*
X115215000Y-76525000D01*
G75*
G02*
X115370000Y-76680000I0J-155000D01*
G01*
X115370000Y-76990000D01*
G75*
G02*
X115215000Y-77145000I-155000J0D01*
G01*
X114790000Y-77145000D01*
G75*
G02*
X114635000Y-76990000I0J155000D01*
G01*
G37*
%TD*%
%TO.C,JP40*%
G36*
G01*
X145850000Y-75410000D02*
X145850000Y-75720000D01*
G75*
G02*
X145695000Y-75875000I-155000J0D01*
G01*
X145270000Y-75875000D01*
G75*
G02*
X145115000Y-75720000I0J155000D01*
G01*
X145115000Y-75410000D01*
G75*
G02*
X145270000Y-75255000I155000J0D01*
G01*
X145695000Y-75255000D01*
G75*
G02*
X145850000Y-75410000I0J-155000D01*
G01*
G37*
G36*
G01*
X146985000Y-75410000D02*
X146985000Y-75720000D01*
G75*
G02*
X146830000Y-75875000I-155000J0D01*
G01*
X146405000Y-75875000D01*
G75*
G02*
X146250000Y-75720000I0J155000D01*
G01*
X146250000Y-75410000D01*
G75*
G02*
X146405000Y-75255000I155000J0D01*
G01*
X146830000Y-75255000D01*
G75*
G02*
X146985000Y-75410000I0J-155000D01*
G01*
G37*
%TD*%
%TO.C,JP39*%
G36*
G01*
X115770000Y-75720000D02*
X115770000Y-75410000D01*
G75*
G02*
X115925000Y-75255000I155000J0D01*
G01*
X116350000Y-75255000D01*
G75*
G02*
X116505000Y-75410000I0J-155000D01*
G01*
X116505000Y-75720000D01*
G75*
G02*
X116350000Y-75875000I-155000J0D01*
G01*
X115925000Y-75875000D01*
G75*
G02*
X115770000Y-75720000I0J155000D01*
G01*
G37*
G36*
G01*
X114635000Y-75720000D02*
X114635000Y-75410000D01*
G75*
G02*
X114790000Y-75255000I155000J0D01*
G01*
X115215000Y-75255000D01*
G75*
G02*
X115370000Y-75410000I0J-155000D01*
G01*
X115370000Y-75720000D01*
G75*
G02*
X115215000Y-75875000I-155000J0D01*
G01*
X114790000Y-75875000D01*
G75*
G02*
X114635000Y-75720000I0J155000D01*
G01*
G37*
%TD*%
%TO.C,JP38*%
G36*
G01*
X145850000Y-74140000D02*
X145850000Y-74450000D01*
G75*
G02*
X145695000Y-74605000I-155000J0D01*
G01*
X145270000Y-74605000D01*
G75*
G02*
X145115000Y-74450000I0J155000D01*
G01*
X145115000Y-74140000D01*
G75*
G02*
X145270000Y-73985000I155000J0D01*
G01*
X145695000Y-73985000D01*
G75*
G02*
X145850000Y-74140000I0J-155000D01*
G01*
G37*
G36*
G01*
X146985000Y-74140000D02*
X146985000Y-74450000D01*
G75*
G02*
X146830000Y-74605000I-155000J0D01*
G01*
X146405000Y-74605000D01*
G75*
G02*
X146250000Y-74450000I0J155000D01*
G01*
X146250000Y-74140000D01*
G75*
G02*
X146405000Y-73985000I155000J0D01*
G01*
X146830000Y-73985000D01*
G75*
G02*
X146985000Y-74140000I0J-155000D01*
G01*
G37*
%TD*%
%TO.C,JP37*%
G36*
G01*
X115770000Y-74450000D02*
X115770000Y-74140000D01*
G75*
G02*
X115925000Y-73985000I155000J0D01*
G01*
X116350000Y-73985000D01*
G75*
G02*
X116505000Y-74140000I0J-155000D01*
G01*
X116505000Y-74450000D01*
G75*
G02*
X116350000Y-74605000I-155000J0D01*
G01*
X115925000Y-74605000D01*
G75*
G02*
X115770000Y-74450000I0J155000D01*
G01*
G37*
G36*
G01*
X114635000Y-74450000D02*
X114635000Y-74140000D01*
G75*
G02*
X114790000Y-73985000I155000J0D01*
G01*
X115215000Y-73985000D01*
G75*
G02*
X115370000Y-74140000I0J-155000D01*
G01*
X115370000Y-74450000D01*
G75*
G02*
X115215000Y-74605000I-155000J0D01*
G01*
X114790000Y-74605000D01*
G75*
G02*
X114635000Y-74450000I0J155000D01*
G01*
G37*
%TD*%
%TO.C,JP36*%
G36*
G01*
X145850000Y-72870000D02*
X145850000Y-73180000D01*
G75*
G02*
X145695000Y-73335000I-155000J0D01*
G01*
X145270000Y-73335000D01*
G75*
G02*
X145115000Y-73180000I0J155000D01*
G01*
X145115000Y-72870000D01*
G75*
G02*
X145270000Y-72715000I155000J0D01*
G01*
X145695000Y-72715000D01*
G75*
G02*
X145850000Y-72870000I0J-155000D01*
G01*
G37*
G36*
G01*
X146985000Y-72870000D02*
X146985000Y-73180000D01*
G75*
G02*
X146830000Y-73335000I-155000J0D01*
G01*
X146405000Y-73335000D01*
G75*
G02*
X146250000Y-73180000I0J155000D01*
G01*
X146250000Y-72870000D01*
G75*
G02*
X146405000Y-72715000I155000J0D01*
G01*
X146830000Y-72715000D01*
G75*
G02*
X146985000Y-72870000I0J-155000D01*
G01*
G37*
%TD*%
%TO.C,JP35*%
G36*
G01*
X115770000Y-73180000D02*
X115770000Y-72870000D01*
G75*
G02*
X115925000Y-72715000I155000J0D01*
G01*
X116350000Y-72715000D01*
G75*
G02*
X116505000Y-72870000I0J-155000D01*
G01*
X116505000Y-73180000D01*
G75*
G02*
X116350000Y-73335000I-155000J0D01*
G01*
X115925000Y-73335000D01*
G75*
G02*
X115770000Y-73180000I0J155000D01*
G01*
G37*
G36*
G01*
X114635000Y-73180000D02*
X114635000Y-72870000D01*
G75*
G02*
X114790000Y-72715000I155000J0D01*
G01*
X115215000Y-72715000D01*
G75*
G02*
X115370000Y-72870000I0J-155000D01*
G01*
X115370000Y-73180000D01*
G75*
G02*
X115215000Y-73335000I-155000J0D01*
G01*
X114790000Y-73335000D01*
G75*
G02*
X114635000Y-73180000I0J155000D01*
G01*
G37*
%TD*%
%TO.C,JP34*%
G36*
G01*
X145850000Y-71600000D02*
X145850000Y-71910000D01*
G75*
G02*
X145695000Y-72065000I-155000J0D01*
G01*
X145270000Y-72065000D01*
G75*
G02*
X145115000Y-71910000I0J155000D01*
G01*
X145115000Y-71600000D01*
G75*
G02*
X145270000Y-71445000I155000J0D01*
G01*
X145695000Y-71445000D01*
G75*
G02*
X145850000Y-71600000I0J-155000D01*
G01*
G37*
G36*
G01*
X146985000Y-71600000D02*
X146985000Y-71910000D01*
G75*
G02*
X146830000Y-72065000I-155000J0D01*
G01*
X146405000Y-72065000D01*
G75*
G02*
X146250000Y-71910000I0J155000D01*
G01*
X146250000Y-71600000D01*
G75*
G02*
X146405000Y-71445000I155000J0D01*
G01*
X146830000Y-71445000D01*
G75*
G02*
X146985000Y-71600000I0J-155000D01*
G01*
G37*
%TD*%
%TO.C,JP33*%
G36*
G01*
X115770000Y-71910000D02*
X115770000Y-71600000D01*
G75*
G02*
X115925000Y-71445000I155000J0D01*
G01*
X116350000Y-71445000D01*
G75*
G02*
X116505000Y-71600000I0J-155000D01*
G01*
X116505000Y-71910000D01*
G75*
G02*
X116350000Y-72065000I-155000J0D01*
G01*
X115925000Y-72065000D01*
G75*
G02*
X115770000Y-71910000I0J155000D01*
G01*
G37*
G36*
G01*
X114635000Y-71910000D02*
X114635000Y-71600000D01*
G75*
G02*
X114790000Y-71445000I155000J0D01*
G01*
X115215000Y-71445000D01*
G75*
G02*
X115370000Y-71600000I0J-155000D01*
G01*
X115370000Y-71910000D01*
G75*
G02*
X115215000Y-72065000I-155000J0D01*
G01*
X114790000Y-72065000D01*
G75*
G02*
X114635000Y-71910000I0J155000D01*
G01*
G37*
%TD*%
%TO.C,JP32*%
G36*
G01*
X145850000Y-70330000D02*
X145850000Y-70640000D01*
G75*
G02*
X145695000Y-70795000I-155000J0D01*
G01*
X145270000Y-70795000D01*
G75*
G02*
X145115000Y-70640000I0J155000D01*
G01*
X145115000Y-70330000D01*
G75*
G02*
X145270000Y-70175000I155000J0D01*
G01*
X145695000Y-70175000D01*
G75*
G02*
X145850000Y-70330000I0J-155000D01*
G01*
G37*
G36*
G01*
X146985000Y-70330000D02*
X146985000Y-70640000D01*
G75*
G02*
X146830000Y-70795000I-155000J0D01*
G01*
X146405000Y-70795000D01*
G75*
G02*
X146250000Y-70640000I0J155000D01*
G01*
X146250000Y-70330000D01*
G75*
G02*
X146405000Y-70175000I155000J0D01*
G01*
X146830000Y-70175000D01*
G75*
G02*
X146985000Y-70330000I0J-155000D01*
G01*
G37*
%TD*%
%TO.C,JP31*%
G36*
G01*
X115770000Y-70640000D02*
X115770000Y-70330000D01*
G75*
G02*
X115925000Y-70175000I155000J0D01*
G01*
X116350000Y-70175000D01*
G75*
G02*
X116505000Y-70330000I0J-155000D01*
G01*
X116505000Y-70640000D01*
G75*
G02*
X116350000Y-70795000I-155000J0D01*
G01*
X115925000Y-70795000D01*
G75*
G02*
X115770000Y-70640000I0J155000D01*
G01*
G37*
G36*
G01*
X114635000Y-70640000D02*
X114635000Y-70330000D01*
G75*
G02*
X114790000Y-70175000I155000J0D01*
G01*
X115215000Y-70175000D01*
G75*
G02*
X115370000Y-70330000I0J-155000D01*
G01*
X115370000Y-70640000D01*
G75*
G02*
X115215000Y-70795000I-155000J0D01*
G01*
X114790000Y-70795000D01*
G75*
G02*
X114635000Y-70640000I0J155000D01*
G01*
G37*
%TD*%
%TO.C,JP30*%
G36*
G01*
X145850000Y-69060000D02*
X145850000Y-69370000D01*
G75*
G02*
X145695000Y-69525000I-155000J0D01*
G01*
X145270000Y-69525000D01*
G75*
G02*
X145115000Y-69370000I0J155000D01*
G01*
X145115000Y-69060000D01*
G75*
G02*
X145270000Y-68905000I155000J0D01*
G01*
X145695000Y-68905000D01*
G75*
G02*
X145850000Y-69060000I0J-155000D01*
G01*
G37*
G36*
G01*
X146985000Y-69060000D02*
X146985000Y-69370000D01*
G75*
G02*
X146830000Y-69525000I-155000J0D01*
G01*
X146405000Y-69525000D01*
G75*
G02*
X146250000Y-69370000I0J155000D01*
G01*
X146250000Y-69060000D01*
G75*
G02*
X146405000Y-68905000I155000J0D01*
G01*
X146830000Y-68905000D01*
G75*
G02*
X146985000Y-69060000I0J-155000D01*
G01*
G37*
%TD*%
%TO.C,JP29*%
G36*
G01*
X115770000Y-69370000D02*
X115770000Y-69060000D01*
G75*
G02*
X115925000Y-68905000I155000J0D01*
G01*
X116350000Y-68905000D01*
G75*
G02*
X116505000Y-69060000I0J-155000D01*
G01*
X116505000Y-69370000D01*
G75*
G02*
X116350000Y-69525000I-155000J0D01*
G01*
X115925000Y-69525000D01*
G75*
G02*
X115770000Y-69370000I0J155000D01*
G01*
G37*
G36*
G01*
X114635000Y-69370000D02*
X114635000Y-69060000D01*
G75*
G02*
X114790000Y-68905000I155000J0D01*
G01*
X115215000Y-68905000D01*
G75*
G02*
X115370000Y-69060000I0J-155000D01*
G01*
X115370000Y-69370000D01*
G75*
G02*
X115215000Y-69525000I-155000J0D01*
G01*
X114790000Y-69525000D01*
G75*
G02*
X114635000Y-69370000I0J155000D01*
G01*
G37*
%TD*%
%TO.C,JP28*%
G36*
G01*
X145850000Y-67790000D02*
X145850000Y-68100000D01*
G75*
G02*
X145695000Y-68255000I-155000J0D01*
G01*
X145270000Y-68255000D01*
G75*
G02*
X145115000Y-68100000I0J155000D01*
G01*
X145115000Y-67790000D01*
G75*
G02*
X145270000Y-67635000I155000J0D01*
G01*
X145695000Y-67635000D01*
G75*
G02*
X145850000Y-67790000I0J-155000D01*
G01*
G37*
G36*
G01*
X146985000Y-67790000D02*
X146985000Y-68100000D01*
G75*
G02*
X146830000Y-68255000I-155000J0D01*
G01*
X146405000Y-68255000D01*
G75*
G02*
X146250000Y-68100000I0J155000D01*
G01*
X146250000Y-67790000D01*
G75*
G02*
X146405000Y-67635000I155000J0D01*
G01*
X146830000Y-67635000D01*
G75*
G02*
X146985000Y-67790000I0J-155000D01*
G01*
G37*
%TD*%
%TO.C,JP27*%
G36*
G01*
X115770000Y-68100000D02*
X115770000Y-67790000D01*
G75*
G02*
X115925000Y-67635000I155000J0D01*
G01*
X116350000Y-67635000D01*
G75*
G02*
X116505000Y-67790000I0J-155000D01*
G01*
X116505000Y-68100000D01*
G75*
G02*
X116350000Y-68255000I-155000J0D01*
G01*
X115925000Y-68255000D01*
G75*
G02*
X115770000Y-68100000I0J155000D01*
G01*
G37*
G36*
G01*
X114635000Y-68100000D02*
X114635000Y-67790000D01*
G75*
G02*
X114790000Y-67635000I155000J0D01*
G01*
X115215000Y-67635000D01*
G75*
G02*
X115370000Y-67790000I0J-155000D01*
G01*
X115370000Y-68100000D01*
G75*
G02*
X115215000Y-68255000I-155000J0D01*
G01*
X114790000Y-68255000D01*
G75*
G02*
X114635000Y-68100000I0J155000D01*
G01*
G37*
%TD*%
%TO.C,JP26*%
G36*
G01*
X145850000Y-66520000D02*
X145850000Y-66830000D01*
G75*
G02*
X145695000Y-66985000I-155000J0D01*
G01*
X145270000Y-66985000D01*
G75*
G02*
X145115000Y-66830000I0J155000D01*
G01*
X145115000Y-66520000D01*
G75*
G02*
X145270000Y-66365000I155000J0D01*
G01*
X145695000Y-66365000D01*
G75*
G02*
X145850000Y-66520000I0J-155000D01*
G01*
G37*
G36*
G01*
X146985000Y-66520000D02*
X146985000Y-66830000D01*
G75*
G02*
X146830000Y-66985000I-155000J0D01*
G01*
X146405000Y-66985000D01*
G75*
G02*
X146250000Y-66830000I0J155000D01*
G01*
X146250000Y-66520000D01*
G75*
G02*
X146405000Y-66365000I155000J0D01*
G01*
X146830000Y-66365000D01*
G75*
G02*
X146985000Y-66520000I0J-155000D01*
G01*
G37*
%TD*%
%TO.C,JP25*%
G36*
G01*
X115770000Y-66830000D02*
X115770000Y-66520000D01*
G75*
G02*
X115925000Y-66365000I155000J0D01*
G01*
X116350000Y-66365000D01*
G75*
G02*
X116505000Y-66520000I0J-155000D01*
G01*
X116505000Y-66830000D01*
G75*
G02*
X116350000Y-66985000I-155000J0D01*
G01*
X115925000Y-66985000D01*
G75*
G02*
X115770000Y-66830000I0J155000D01*
G01*
G37*
G36*
G01*
X114635000Y-66830000D02*
X114635000Y-66520000D01*
G75*
G02*
X114790000Y-66365000I155000J0D01*
G01*
X115215000Y-66365000D01*
G75*
G02*
X115370000Y-66520000I0J-155000D01*
G01*
X115370000Y-66830000D01*
G75*
G02*
X115215000Y-66985000I-155000J0D01*
G01*
X114790000Y-66985000D01*
G75*
G02*
X114635000Y-66830000I0J155000D01*
G01*
G37*
%TD*%
%TO.C,JP24*%
G36*
G01*
X145850000Y-65250000D02*
X145850000Y-65560000D01*
G75*
G02*
X145695000Y-65715000I-155000J0D01*
G01*
X145270000Y-65715000D01*
G75*
G02*
X145115000Y-65560000I0J155000D01*
G01*
X145115000Y-65250000D01*
G75*
G02*
X145270000Y-65095000I155000J0D01*
G01*
X145695000Y-65095000D01*
G75*
G02*
X145850000Y-65250000I0J-155000D01*
G01*
G37*
G36*
G01*
X146985000Y-65250000D02*
X146985000Y-65560000D01*
G75*
G02*
X146830000Y-65715000I-155000J0D01*
G01*
X146405000Y-65715000D01*
G75*
G02*
X146250000Y-65560000I0J155000D01*
G01*
X146250000Y-65250000D01*
G75*
G02*
X146405000Y-65095000I155000J0D01*
G01*
X146830000Y-65095000D01*
G75*
G02*
X146985000Y-65250000I0J-155000D01*
G01*
G37*
%TD*%
%TO.C,JP23*%
G36*
G01*
X115770000Y-65560000D02*
X115770000Y-65250000D01*
G75*
G02*
X115925000Y-65095000I155000J0D01*
G01*
X116350000Y-65095000D01*
G75*
G02*
X116505000Y-65250000I0J-155000D01*
G01*
X116505000Y-65560000D01*
G75*
G02*
X116350000Y-65715000I-155000J0D01*
G01*
X115925000Y-65715000D01*
G75*
G02*
X115770000Y-65560000I0J155000D01*
G01*
G37*
G36*
G01*
X114635000Y-65560000D02*
X114635000Y-65250000D01*
G75*
G02*
X114790000Y-65095000I155000J0D01*
G01*
X115215000Y-65095000D01*
G75*
G02*
X115370000Y-65250000I0J-155000D01*
G01*
X115370000Y-65560000D01*
G75*
G02*
X115215000Y-65715000I-155000J0D01*
G01*
X114790000Y-65715000D01*
G75*
G02*
X114635000Y-65560000I0J155000D01*
G01*
G37*
%TD*%
%TO.C,JP22*%
G36*
G01*
X145850000Y-63980000D02*
X145850000Y-64290000D01*
G75*
G02*
X145695000Y-64445000I-155000J0D01*
G01*
X145270000Y-64445000D01*
G75*
G02*
X145115000Y-64290000I0J155000D01*
G01*
X145115000Y-63980000D01*
G75*
G02*
X145270000Y-63825000I155000J0D01*
G01*
X145695000Y-63825000D01*
G75*
G02*
X145850000Y-63980000I0J-155000D01*
G01*
G37*
G36*
G01*
X146985000Y-63980000D02*
X146985000Y-64290000D01*
G75*
G02*
X146830000Y-64445000I-155000J0D01*
G01*
X146405000Y-64445000D01*
G75*
G02*
X146250000Y-64290000I0J155000D01*
G01*
X146250000Y-63980000D01*
G75*
G02*
X146405000Y-63825000I155000J0D01*
G01*
X146830000Y-63825000D01*
G75*
G02*
X146985000Y-63980000I0J-155000D01*
G01*
G37*
%TD*%
%TO.C,JP21*%
G36*
G01*
X115770000Y-64290000D02*
X115770000Y-63980000D01*
G75*
G02*
X115925000Y-63825000I155000J0D01*
G01*
X116350000Y-63825000D01*
G75*
G02*
X116505000Y-63980000I0J-155000D01*
G01*
X116505000Y-64290000D01*
G75*
G02*
X116350000Y-64445000I-155000J0D01*
G01*
X115925000Y-64445000D01*
G75*
G02*
X115770000Y-64290000I0J155000D01*
G01*
G37*
G36*
G01*
X114635000Y-64290000D02*
X114635000Y-63980000D01*
G75*
G02*
X114790000Y-63825000I155000J0D01*
G01*
X115215000Y-63825000D01*
G75*
G02*
X115370000Y-63980000I0J-155000D01*
G01*
X115370000Y-64290000D01*
G75*
G02*
X115215000Y-64445000I-155000J0D01*
G01*
X114790000Y-64445000D01*
G75*
G02*
X114635000Y-64290000I0J155000D01*
G01*
G37*
%TD*%
%TO.C,JP20*%
G36*
G01*
X145850000Y-62710000D02*
X145850000Y-63020000D01*
G75*
G02*
X145695000Y-63175000I-155000J0D01*
G01*
X145270000Y-63175000D01*
G75*
G02*
X145115000Y-63020000I0J155000D01*
G01*
X145115000Y-62710000D01*
G75*
G02*
X145270000Y-62555000I155000J0D01*
G01*
X145695000Y-62555000D01*
G75*
G02*
X145850000Y-62710000I0J-155000D01*
G01*
G37*
G36*
G01*
X146985000Y-62710000D02*
X146985000Y-63020000D01*
G75*
G02*
X146830000Y-63175000I-155000J0D01*
G01*
X146405000Y-63175000D01*
G75*
G02*
X146250000Y-63020000I0J155000D01*
G01*
X146250000Y-62710000D01*
G75*
G02*
X146405000Y-62555000I155000J0D01*
G01*
X146830000Y-62555000D01*
G75*
G02*
X146985000Y-62710000I0J-155000D01*
G01*
G37*
%TD*%
%TO.C,JP19*%
G36*
G01*
X115770000Y-63020000D02*
X115770000Y-62710000D01*
G75*
G02*
X115925000Y-62555000I155000J0D01*
G01*
X116350000Y-62555000D01*
G75*
G02*
X116505000Y-62710000I0J-155000D01*
G01*
X116505000Y-63020000D01*
G75*
G02*
X116350000Y-63175000I-155000J0D01*
G01*
X115925000Y-63175000D01*
G75*
G02*
X115770000Y-63020000I0J155000D01*
G01*
G37*
G36*
G01*
X114635000Y-63020000D02*
X114635000Y-62710000D01*
G75*
G02*
X114790000Y-62555000I155000J0D01*
G01*
X115215000Y-62555000D01*
G75*
G02*
X115370000Y-62710000I0J-155000D01*
G01*
X115370000Y-63020000D01*
G75*
G02*
X115215000Y-63175000I-155000J0D01*
G01*
X114790000Y-63175000D01*
G75*
G02*
X114635000Y-63020000I0J155000D01*
G01*
G37*
%TD*%
%TO.C,JP18*%
G36*
G01*
X145850000Y-61440000D02*
X145850000Y-61750000D01*
G75*
G02*
X145695000Y-61905000I-155000J0D01*
G01*
X145270000Y-61905000D01*
G75*
G02*
X145115000Y-61750000I0J155000D01*
G01*
X145115000Y-61440000D01*
G75*
G02*
X145270000Y-61285000I155000J0D01*
G01*
X145695000Y-61285000D01*
G75*
G02*
X145850000Y-61440000I0J-155000D01*
G01*
G37*
G36*
G01*
X146985000Y-61440000D02*
X146985000Y-61750000D01*
G75*
G02*
X146830000Y-61905000I-155000J0D01*
G01*
X146405000Y-61905000D01*
G75*
G02*
X146250000Y-61750000I0J155000D01*
G01*
X146250000Y-61440000D01*
G75*
G02*
X146405000Y-61285000I155000J0D01*
G01*
X146830000Y-61285000D01*
G75*
G02*
X146985000Y-61440000I0J-155000D01*
G01*
G37*
%TD*%
%TO.C,JP17*%
G36*
G01*
X115770000Y-61750000D02*
X115770000Y-61440000D01*
G75*
G02*
X115925000Y-61285000I155000J0D01*
G01*
X116350000Y-61285000D01*
G75*
G02*
X116505000Y-61440000I0J-155000D01*
G01*
X116505000Y-61750000D01*
G75*
G02*
X116350000Y-61905000I-155000J0D01*
G01*
X115925000Y-61905000D01*
G75*
G02*
X115770000Y-61750000I0J155000D01*
G01*
G37*
G36*
G01*
X114635000Y-61750000D02*
X114635000Y-61440000D01*
G75*
G02*
X114790000Y-61285000I155000J0D01*
G01*
X115215000Y-61285000D01*
G75*
G02*
X115370000Y-61440000I0J-155000D01*
G01*
X115370000Y-61750000D01*
G75*
G02*
X115215000Y-61905000I-155000J0D01*
G01*
X114790000Y-61905000D01*
G75*
G02*
X114635000Y-61750000I0J155000D01*
G01*
G37*
%TD*%
%TO.C,JP16*%
G36*
G01*
X140180000Y-56012500D02*
X140490000Y-56012500D01*
G75*
G02*
X140645000Y-56167500I0J-155000D01*
G01*
X140645000Y-56592500D01*
G75*
G02*
X140490000Y-56747500I-155000J0D01*
G01*
X140180000Y-56747500D01*
G75*
G02*
X140025000Y-56592500I0J155000D01*
G01*
X140025000Y-56167500D01*
G75*
G02*
X140180000Y-56012500I155000J0D01*
G01*
G37*
G36*
G01*
X140180000Y-54877500D02*
X140490000Y-54877500D01*
G75*
G02*
X140645000Y-55032500I0J-155000D01*
G01*
X140645000Y-55457500D01*
G75*
G02*
X140490000Y-55612500I-155000J0D01*
G01*
X140180000Y-55612500D01*
G75*
G02*
X140025000Y-55457500I0J155000D01*
G01*
X140025000Y-55032500D01*
G75*
G02*
X140180000Y-54877500I155000J0D01*
G01*
G37*
%TD*%
%TO.C,JP15*%
G36*
G01*
X138910000Y-56012500D02*
X139220000Y-56012500D01*
G75*
G02*
X139375000Y-56167500I0J-155000D01*
G01*
X139375000Y-56592500D01*
G75*
G02*
X139220000Y-56747500I-155000J0D01*
G01*
X138910000Y-56747500D01*
G75*
G02*
X138755000Y-56592500I0J155000D01*
G01*
X138755000Y-56167500D01*
G75*
G02*
X138910000Y-56012500I155000J0D01*
G01*
G37*
G36*
G01*
X138910000Y-54877500D02*
X139220000Y-54877500D01*
G75*
G02*
X139375000Y-55032500I0J-155000D01*
G01*
X139375000Y-55457500D01*
G75*
G02*
X139220000Y-55612500I-155000J0D01*
G01*
X138910000Y-55612500D01*
G75*
G02*
X138755000Y-55457500I0J155000D01*
G01*
X138755000Y-55032500D01*
G75*
G02*
X138910000Y-54877500I155000J0D01*
G01*
G37*
%TD*%
%TO.C,JP14*%
G36*
G01*
X137640000Y-56012500D02*
X137950000Y-56012500D01*
G75*
G02*
X138105000Y-56167500I0J-155000D01*
G01*
X138105000Y-56592500D01*
G75*
G02*
X137950000Y-56747500I-155000J0D01*
G01*
X137640000Y-56747500D01*
G75*
G02*
X137485000Y-56592500I0J155000D01*
G01*
X137485000Y-56167500D01*
G75*
G02*
X137640000Y-56012500I155000J0D01*
G01*
G37*
G36*
G01*
X137640000Y-54877500D02*
X137950000Y-54877500D01*
G75*
G02*
X138105000Y-55032500I0J-155000D01*
G01*
X138105000Y-55457500D01*
G75*
G02*
X137950000Y-55612500I-155000J0D01*
G01*
X137640000Y-55612500D01*
G75*
G02*
X137485000Y-55457500I0J155000D01*
G01*
X137485000Y-55032500D01*
G75*
G02*
X137640000Y-54877500I155000J0D01*
G01*
G37*
%TD*%
%TO.C,JP13*%
G36*
G01*
X136370000Y-56012500D02*
X136680000Y-56012500D01*
G75*
G02*
X136835000Y-56167500I0J-155000D01*
G01*
X136835000Y-56592500D01*
G75*
G02*
X136680000Y-56747500I-155000J0D01*
G01*
X136370000Y-56747500D01*
G75*
G02*
X136215000Y-56592500I0J155000D01*
G01*
X136215000Y-56167500D01*
G75*
G02*
X136370000Y-56012500I155000J0D01*
G01*
G37*
G36*
G01*
X136370000Y-54877500D02*
X136680000Y-54877500D01*
G75*
G02*
X136835000Y-55032500I0J-155000D01*
G01*
X136835000Y-55457500D01*
G75*
G02*
X136680000Y-55612500I-155000J0D01*
G01*
X136370000Y-55612500D01*
G75*
G02*
X136215000Y-55457500I0J155000D01*
G01*
X136215000Y-55032500D01*
G75*
G02*
X136370000Y-54877500I155000J0D01*
G01*
G37*
%TD*%
%TO.C,JP12*%
G36*
G01*
X135100000Y-56012500D02*
X135410000Y-56012500D01*
G75*
G02*
X135565000Y-56167500I0J-155000D01*
G01*
X135565000Y-56592500D01*
G75*
G02*
X135410000Y-56747500I-155000J0D01*
G01*
X135100000Y-56747500D01*
G75*
G02*
X134945000Y-56592500I0J155000D01*
G01*
X134945000Y-56167500D01*
G75*
G02*
X135100000Y-56012500I155000J0D01*
G01*
G37*
G36*
G01*
X135100000Y-54877500D02*
X135410000Y-54877500D01*
G75*
G02*
X135565000Y-55032500I0J-155000D01*
G01*
X135565000Y-55457500D01*
G75*
G02*
X135410000Y-55612500I-155000J0D01*
G01*
X135100000Y-55612500D01*
G75*
G02*
X134945000Y-55457500I0J155000D01*
G01*
X134945000Y-55032500D01*
G75*
G02*
X135100000Y-54877500I155000J0D01*
G01*
G37*
%TD*%
%TO.C,JP11*%
G36*
G01*
X133830000Y-56012500D02*
X134140000Y-56012500D01*
G75*
G02*
X134295000Y-56167500I0J-155000D01*
G01*
X134295000Y-56592500D01*
G75*
G02*
X134140000Y-56747500I-155000J0D01*
G01*
X133830000Y-56747500D01*
G75*
G02*
X133675000Y-56592500I0J155000D01*
G01*
X133675000Y-56167500D01*
G75*
G02*
X133830000Y-56012500I155000J0D01*
G01*
G37*
G36*
G01*
X133830000Y-54877500D02*
X134140000Y-54877500D01*
G75*
G02*
X134295000Y-55032500I0J-155000D01*
G01*
X134295000Y-55457500D01*
G75*
G02*
X134140000Y-55612500I-155000J0D01*
G01*
X133830000Y-55612500D01*
G75*
G02*
X133675000Y-55457500I0J155000D01*
G01*
X133675000Y-55032500D01*
G75*
G02*
X133830000Y-54877500I155000J0D01*
G01*
G37*
%TD*%
%TO.C,JP10*%
G36*
G01*
X132560000Y-56012500D02*
X132870000Y-56012500D01*
G75*
G02*
X133025000Y-56167500I0J-155000D01*
G01*
X133025000Y-56592500D01*
G75*
G02*
X132870000Y-56747500I-155000J0D01*
G01*
X132560000Y-56747500D01*
G75*
G02*
X132405000Y-56592500I0J155000D01*
G01*
X132405000Y-56167500D01*
G75*
G02*
X132560000Y-56012500I155000J0D01*
G01*
G37*
G36*
G01*
X132560000Y-54877500D02*
X132870000Y-54877500D01*
G75*
G02*
X133025000Y-55032500I0J-155000D01*
G01*
X133025000Y-55457500D01*
G75*
G02*
X132870000Y-55612500I-155000J0D01*
G01*
X132560000Y-55612500D01*
G75*
G02*
X132405000Y-55457500I0J155000D01*
G01*
X132405000Y-55032500D01*
G75*
G02*
X132560000Y-54877500I155000J0D01*
G01*
G37*
%TD*%
%TO.C,JP9*%
G36*
G01*
X131290000Y-56012500D02*
X131600000Y-56012500D01*
G75*
G02*
X131755000Y-56167500I0J-155000D01*
G01*
X131755000Y-56592500D01*
G75*
G02*
X131600000Y-56747500I-155000J0D01*
G01*
X131290000Y-56747500D01*
G75*
G02*
X131135000Y-56592500I0J155000D01*
G01*
X131135000Y-56167500D01*
G75*
G02*
X131290000Y-56012500I155000J0D01*
G01*
G37*
G36*
G01*
X131290000Y-54877500D02*
X131600000Y-54877500D01*
G75*
G02*
X131755000Y-55032500I0J-155000D01*
G01*
X131755000Y-55457500D01*
G75*
G02*
X131600000Y-55612500I-155000J0D01*
G01*
X131290000Y-55612500D01*
G75*
G02*
X131135000Y-55457500I0J155000D01*
G01*
X131135000Y-55032500D01*
G75*
G02*
X131290000Y-54877500I155000J0D01*
G01*
G37*
%TD*%
%TO.C,JP8*%
G36*
G01*
X130020000Y-56012500D02*
X130330000Y-56012500D01*
G75*
G02*
X130485000Y-56167500I0J-155000D01*
G01*
X130485000Y-56592500D01*
G75*
G02*
X130330000Y-56747500I-155000J0D01*
G01*
X130020000Y-56747500D01*
G75*
G02*
X129865000Y-56592500I0J155000D01*
G01*
X129865000Y-56167500D01*
G75*
G02*
X130020000Y-56012500I155000J0D01*
G01*
G37*
G36*
G01*
X130020000Y-54877500D02*
X130330000Y-54877500D01*
G75*
G02*
X130485000Y-55032500I0J-155000D01*
G01*
X130485000Y-55457500D01*
G75*
G02*
X130330000Y-55612500I-155000J0D01*
G01*
X130020000Y-55612500D01*
G75*
G02*
X129865000Y-55457500I0J155000D01*
G01*
X129865000Y-55032500D01*
G75*
G02*
X130020000Y-54877500I155000J0D01*
G01*
G37*
%TD*%
%TO.C,JP7*%
G36*
G01*
X128750000Y-56012500D02*
X129060000Y-56012500D01*
G75*
G02*
X129215000Y-56167500I0J-155000D01*
G01*
X129215000Y-56592500D01*
G75*
G02*
X129060000Y-56747500I-155000J0D01*
G01*
X128750000Y-56747500D01*
G75*
G02*
X128595000Y-56592500I0J155000D01*
G01*
X128595000Y-56167500D01*
G75*
G02*
X128750000Y-56012500I155000J0D01*
G01*
G37*
G36*
G01*
X128750000Y-54877500D02*
X129060000Y-54877500D01*
G75*
G02*
X129215000Y-55032500I0J-155000D01*
G01*
X129215000Y-55457500D01*
G75*
G02*
X129060000Y-55612500I-155000J0D01*
G01*
X128750000Y-55612500D01*
G75*
G02*
X128595000Y-55457500I0J155000D01*
G01*
X128595000Y-55032500D01*
G75*
G02*
X128750000Y-54877500I155000J0D01*
G01*
G37*
%TD*%
%TO.C,JP6*%
G36*
G01*
X127480000Y-56012500D02*
X127790000Y-56012500D01*
G75*
G02*
X127945000Y-56167500I0J-155000D01*
G01*
X127945000Y-56592500D01*
G75*
G02*
X127790000Y-56747500I-155000J0D01*
G01*
X127480000Y-56747500D01*
G75*
G02*
X127325000Y-56592500I0J155000D01*
G01*
X127325000Y-56167500D01*
G75*
G02*
X127480000Y-56012500I155000J0D01*
G01*
G37*
G36*
G01*
X127480000Y-54877500D02*
X127790000Y-54877500D01*
G75*
G02*
X127945000Y-55032500I0J-155000D01*
G01*
X127945000Y-55457500D01*
G75*
G02*
X127790000Y-55612500I-155000J0D01*
G01*
X127480000Y-55612500D01*
G75*
G02*
X127325000Y-55457500I0J155000D01*
G01*
X127325000Y-55032500D01*
G75*
G02*
X127480000Y-54877500I155000J0D01*
G01*
G37*
%TD*%
%TO.C,JP5*%
G36*
G01*
X126210000Y-56012500D02*
X126520000Y-56012500D01*
G75*
G02*
X126675000Y-56167500I0J-155000D01*
G01*
X126675000Y-56592500D01*
G75*
G02*
X126520000Y-56747500I-155000J0D01*
G01*
X126210000Y-56747500D01*
G75*
G02*
X126055000Y-56592500I0J155000D01*
G01*
X126055000Y-56167500D01*
G75*
G02*
X126210000Y-56012500I155000J0D01*
G01*
G37*
G36*
G01*
X126210000Y-54877500D02*
X126520000Y-54877500D01*
G75*
G02*
X126675000Y-55032500I0J-155000D01*
G01*
X126675000Y-55457500D01*
G75*
G02*
X126520000Y-55612500I-155000J0D01*
G01*
X126210000Y-55612500D01*
G75*
G02*
X126055000Y-55457500I0J155000D01*
G01*
X126055000Y-55032500D01*
G75*
G02*
X126210000Y-54877500I155000J0D01*
G01*
G37*
%TD*%
%TO.C,JP4*%
G36*
G01*
X124940000Y-56012500D02*
X125250000Y-56012500D01*
G75*
G02*
X125405000Y-56167500I0J-155000D01*
G01*
X125405000Y-56592500D01*
G75*
G02*
X125250000Y-56747500I-155000J0D01*
G01*
X124940000Y-56747500D01*
G75*
G02*
X124785000Y-56592500I0J155000D01*
G01*
X124785000Y-56167500D01*
G75*
G02*
X124940000Y-56012500I155000J0D01*
G01*
G37*
G36*
G01*
X124940000Y-54877500D02*
X125250000Y-54877500D01*
G75*
G02*
X125405000Y-55032500I0J-155000D01*
G01*
X125405000Y-55457500D01*
G75*
G02*
X125250000Y-55612500I-155000J0D01*
G01*
X124940000Y-55612500D01*
G75*
G02*
X124785000Y-55457500I0J155000D01*
G01*
X124785000Y-55032500D01*
G75*
G02*
X124940000Y-54877500I155000J0D01*
G01*
G37*
%TD*%
%TO.C,JP3*%
G36*
G01*
X123670000Y-56012500D02*
X123980000Y-56012500D01*
G75*
G02*
X124135000Y-56167500I0J-155000D01*
G01*
X124135000Y-56592500D01*
G75*
G02*
X123980000Y-56747500I-155000J0D01*
G01*
X123670000Y-56747500D01*
G75*
G02*
X123515000Y-56592500I0J155000D01*
G01*
X123515000Y-56167500D01*
G75*
G02*
X123670000Y-56012500I155000J0D01*
G01*
G37*
G36*
G01*
X123670000Y-54877500D02*
X123980000Y-54877500D01*
G75*
G02*
X124135000Y-55032500I0J-155000D01*
G01*
X124135000Y-55457500D01*
G75*
G02*
X123980000Y-55612500I-155000J0D01*
G01*
X123670000Y-55612500D01*
G75*
G02*
X123515000Y-55457500I0J155000D01*
G01*
X123515000Y-55032500D01*
G75*
G02*
X123670000Y-54877500I155000J0D01*
G01*
G37*
%TD*%
%TO.C,JP2*%
G36*
G01*
X122400000Y-56012500D02*
X122710000Y-56012500D01*
G75*
G02*
X122865000Y-56167500I0J-155000D01*
G01*
X122865000Y-56592500D01*
G75*
G02*
X122710000Y-56747500I-155000J0D01*
G01*
X122400000Y-56747500D01*
G75*
G02*
X122245000Y-56592500I0J155000D01*
G01*
X122245000Y-56167500D01*
G75*
G02*
X122400000Y-56012500I155000J0D01*
G01*
G37*
G36*
G01*
X122400000Y-54877500D02*
X122710000Y-54877500D01*
G75*
G02*
X122865000Y-55032500I0J-155000D01*
G01*
X122865000Y-55457500D01*
G75*
G02*
X122710000Y-55612500I-155000J0D01*
G01*
X122400000Y-55612500D01*
G75*
G02*
X122245000Y-55457500I0J155000D01*
G01*
X122245000Y-55032500D01*
G75*
G02*
X122400000Y-54877500I155000J0D01*
G01*
G37*
%TD*%
%TO.C,JP1*%
G36*
G01*
X121130000Y-56012500D02*
X121440000Y-56012500D01*
G75*
G02*
X121595000Y-56167500I0J-155000D01*
G01*
X121595000Y-56592500D01*
G75*
G02*
X121440000Y-56747500I-155000J0D01*
G01*
X121130000Y-56747500D01*
G75*
G02*
X120975000Y-56592500I0J155000D01*
G01*
X120975000Y-56167500D01*
G75*
G02*
X121130000Y-56012500I155000J0D01*
G01*
G37*
G36*
G01*
X121130000Y-54877500D02*
X121440000Y-54877500D01*
G75*
G02*
X121595000Y-55032500I0J-155000D01*
G01*
X121595000Y-55457500D01*
G75*
G02*
X121440000Y-55612500I-155000J0D01*
G01*
X121130000Y-55612500D01*
G75*
G02*
X120975000Y-55457500I0J155000D01*
G01*
X120975000Y-55032500D01*
G75*
G02*
X121130000Y-54877500I155000J0D01*
G01*
G37*
%TD*%
M02*
