%TF.GenerationSoftware,KiCad,Pcbnew,5.1.10*%
%TF.CreationDate,2021-10-22T01:17:49+03:00*%
%TF.ProjectId,breakouts_qfp,62726561-6b6f-4757-9473-5f7166702e6b,rev?*%
%TF.SameCoordinates,Original*%
%TF.FileFunction,Copper,L1,Top*%
%TF.FilePolarity,Positive*%
%FSLAX46Y46*%
G04 Gerber Fmt 4.6, Leading zero omitted, Abs format (unit mm)*
G04 Created by KiCad (PCBNEW 5.1.10) date 2021-10-22 01:17:49*
%MOMM*%
%LPD*%
G01*
G04 APERTURE LIST*
%TA.AperFunction,ComponentPad*%
%ADD10O,1.000000X1.000000*%
%TD*%
%TA.AperFunction,ComponentPad*%
%ADD11R,1.000000X1.000000*%
%TD*%
%TA.AperFunction,Conductor*%
%ADD12C,0.150000*%
%TD*%
%TA.AperFunction,Conductor*%
%ADD13C,0.254000*%
%TD*%
%TA.AperFunction,Conductor*%
%ADD14C,0.100000*%
%TD*%
G04 APERTURE END LIST*
D10*
%TO.P,J8,4*%
%TO.N,GND*%
X151130000Y-73025000D03*
%TO.P,J8,3*%
X151130000Y-71755000D03*
%TO.P,J8,2*%
X151130000Y-70485000D03*
D11*
%TO.P,J8,1*%
X151130000Y-69215000D03*
%TD*%
D10*
%TO.P,J7,4*%
%TO.N,GND*%
X128905000Y-91440000D03*
%TO.P,J7,3*%
X130175000Y-91440000D03*
%TO.P,J7,2*%
X131445000Y-91440000D03*
D11*
%TO.P,J7,1*%
X132715000Y-91440000D03*
%TD*%
D10*
%TO.P,J6,4*%
%TO.N,GND*%
X132715000Y-50800000D03*
%TO.P,J6,3*%
X131445000Y-50800000D03*
%TO.P,J6,2*%
X130175000Y-50800000D03*
D11*
%TO.P,J6,1*%
X128905000Y-50800000D03*
%TD*%
D10*
%TO.P,J5,4*%
%TO.N,GND*%
X111125000Y-69215000D03*
%TO.P,J5,3*%
X111125000Y-70485000D03*
%TO.P,J5,2*%
X111125000Y-71755000D03*
D11*
%TO.P,J5,1*%
X111125000Y-73025000D03*
%TD*%
D10*
%TO.P,J4,16*%
%TO.N,Net-(J4-Pad16)*%
X140335000Y-83820000D03*
%TO.P,J4,15*%
%TO.N,Net-(J4-Pad15)*%
X139065000Y-83820000D03*
%TO.P,J4,14*%
%TO.N,Net-(J4-Pad14)*%
X137795000Y-83820000D03*
%TO.P,J4,13*%
%TO.N,Net-(J4-Pad13)*%
X136525000Y-83820000D03*
%TO.P,J4,12*%
%TO.N,Net-(J4-Pad12)*%
X135255000Y-83820000D03*
%TO.P,J4,11*%
%TO.N,Net-(J4-Pad11)*%
X133985000Y-83820000D03*
%TO.P,J4,10*%
%TO.N,Net-(J4-Pad10)*%
X132715000Y-83820000D03*
%TO.P,J4,9*%
%TO.N,Net-(J4-Pad9)*%
X131445000Y-83820000D03*
%TO.P,J4,8*%
%TO.N,Net-(J4-Pad8)*%
X130175000Y-83820000D03*
%TO.P,J4,7*%
%TO.N,Net-(J4-Pad7)*%
X128905000Y-83820000D03*
%TO.P,J4,6*%
%TO.N,Net-(J4-Pad6)*%
X127635000Y-83820000D03*
%TO.P,J4,5*%
%TO.N,Net-(J4-Pad5)*%
X126365000Y-83820000D03*
%TO.P,J4,4*%
%TO.N,Net-(J4-Pad4)*%
X125095000Y-83820000D03*
%TO.P,J4,3*%
%TO.N,Net-(J4-Pad3)*%
X123825000Y-83820000D03*
%TO.P,J4,2*%
%TO.N,Net-(J4-Pad2)*%
X122555000Y-83820000D03*
D11*
%TO.P,J4,1*%
%TO.N,Net-(J4-Pad1)*%
X121285000Y-83820000D03*
%TD*%
D10*
%TO.P,J3,16*%
%TO.N,Net-(J3-Pad16)*%
X143510000Y-61595000D03*
%TO.P,J3,15*%
%TO.N,Net-(J3-Pad15)*%
X143510000Y-62865000D03*
%TO.P,J3,14*%
%TO.N,Net-(J3-Pad14)*%
X143510000Y-64135000D03*
%TO.P,J3,13*%
%TO.N,Net-(J3-Pad13)*%
X143510000Y-65405000D03*
%TO.P,J3,12*%
%TO.N,Net-(J3-Pad12)*%
X143510000Y-66675000D03*
%TO.P,J3,11*%
%TO.N,Net-(J3-Pad11)*%
X143510000Y-67945000D03*
%TO.P,J3,10*%
%TO.N,Net-(J3-Pad10)*%
X143510000Y-69215000D03*
%TO.P,J3,9*%
%TO.N,Net-(J3-Pad9)*%
X143510000Y-70485000D03*
%TO.P,J3,8*%
%TO.N,Net-(J3-Pad8)*%
X143510000Y-71755000D03*
%TO.P,J3,7*%
%TO.N,Net-(J3-Pad7)*%
X143510000Y-73025000D03*
%TO.P,J3,6*%
%TO.N,Net-(J3-Pad6)*%
X143510000Y-74295000D03*
%TO.P,J3,5*%
%TO.N,Net-(J3-Pad5)*%
X143510000Y-75565000D03*
%TO.P,J3,4*%
%TO.N,Net-(J3-Pad4)*%
X143510000Y-76835000D03*
%TO.P,J3,3*%
%TO.N,Net-(J3-Pad3)*%
X143510000Y-78105000D03*
%TO.P,J3,2*%
%TO.N,Net-(J3-Pad2)*%
X143510000Y-79375000D03*
D11*
%TO.P,J3,1*%
%TO.N,Net-(J3-Pad1)*%
X143510000Y-80645000D03*
%TD*%
D10*
%TO.P,J2,16*%
%TO.N,Net-(J2-Pad16)*%
X118110000Y-80645000D03*
%TO.P,J2,15*%
%TO.N,Net-(J2-Pad15)*%
X118110000Y-79375000D03*
%TO.P,J2,14*%
%TO.N,Net-(J2-Pad14)*%
X118110000Y-78105000D03*
%TO.P,J2,13*%
%TO.N,Net-(J2-Pad13)*%
X118110000Y-76835000D03*
%TO.P,J2,12*%
%TO.N,Net-(J2-Pad12)*%
X118110000Y-75565000D03*
%TO.P,J2,11*%
%TO.N,Net-(J2-Pad11)*%
X118110000Y-74295000D03*
%TO.P,J2,10*%
%TO.N,Net-(J2-Pad10)*%
X118110000Y-73025000D03*
%TO.P,J2,9*%
%TO.N,Net-(J2-Pad9)*%
X118110000Y-71755000D03*
%TO.P,J2,8*%
%TO.N,Net-(J2-Pad8)*%
X118110000Y-70485000D03*
%TO.P,J2,7*%
%TO.N,Net-(J2-Pad7)*%
X118110000Y-69215000D03*
%TO.P,J2,6*%
%TO.N,Net-(J2-Pad6)*%
X118110000Y-67945000D03*
%TO.P,J2,5*%
%TO.N,Net-(J2-Pad5)*%
X118110000Y-66675000D03*
%TO.P,J2,4*%
%TO.N,Net-(J2-Pad4)*%
X118110000Y-65405000D03*
%TO.P,J2,3*%
%TO.N,Net-(J2-Pad3)*%
X118110000Y-64135000D03*
%TO.P,J2,2*%
%TO.N,Net-(J2-Pad2)*%
X118110000Y-62865000D03*
D11*
%TO.P,J2,1*%
%TO.N,Net-(J2-Pad1)*%
X118110000Y-61595000D03*
%TD*%
D10*
%TO.P,J1,16*%
%TO.N,Net-(J1-Pad16)*%
X121285000Y-58420000D03*
%TO.P,J1,15*%
%TO.N,Net-(J1-Pad15)*%
X122555000Y-58420000D03*
%TO.P,J1,14*%
%TO.N,Net-(J1-Pad14)*%
X123825000Y-58420000D03*
%TO.P,J1,13*%
%TO.N,Net-(J1-Pad13)*%
X125095000Y-58420000D03*
%TO.P,J1,12*%
%TO.N,Net-(J1-Pad12)*%
X126365000Y-58420000D03*
%TO.P,J1,11*%
%TO.N,Net-(J1-Pad11)*%
X127635000Y-58420000D03*
%TO.P,J1,10*%
%TO.N,Net-(J1-Pad10)*%
X128905000Y-58420000D03*
%TO.P,J1,9*%
%TO.N,Net-(J1-Pad9)*%
X130175000Y-58420000D03*
%TO.P,J1,8*%
%TO.N,Net-(J1-Pad8)*%
X131445000Y-58420000D03*
%TO.P,J1,7*%
%TO.N,Net-(J1-Pad7)*%
X132715000Y-58420000D03*
%TO.P,J1,6*%
%TO.N,Net-(J1-Pad6)*%
X133985000Y-58420000D03*
%TO.P,J1,5*%
%TO.N,Net-(J1-Pad5)*%
X135255000Y-58420000D03*
%TO.P,J1,4*%
%TO.N,Net-(J1-Pad4)*%
X136525000Y-58420000D03*
%TO.P,J1,3*%
%TO.N,Net-(J1-Pad3)*%
X137795000Y-58420000D03*
%TO.P,J1,2*%
%TO.N,Net-(J1-Pad2)*%
X139065000Y-58420000D03*
D11*
%TO.P,J1,1*%
%TO.N,Net-(J1-Pad1)*%
X140335000Y-58420000D03*
%TD*%
%TO.P,U2,64*%
%TO.N,Net-(J1-Pad16)*%
%TA.AperFunction,SMDPad,CuDef*%
G36*
G01*
X126910000Y-66145000D02*
X126910000Y-64745000D01*
G75*
G02*
X126985000Y-64670000I75000J0D01*
G01*
X127135000Y-64670000D01*
G75*
G02*
X127210000Y-64745000I0J-75000D01*
G01*
X127210000Y-66145000D01*
G75*
G02*
X127135000Y-66220000I-75000J0D01*
G01*
X126985000Y-66220000D01*
G75*
G02*
X126910000Y-66145000I0J75000D01*
G01*
G37*
%TD.AperFunction*%
%TO.P,U2,63*%
%TO.N,Net-(J1-Pad15)*%
%TA.AperFunction,SMDPad,CuDef*%
G36*
G01*
X127410000Y-66145000D02*
X127410000Y-64745000D01*
G75*
G02*
X127485000Y-64670000I75000J0D01*
G01*
X127635000Y-64670000D01*
G75*
G02*
X127710000Y-64745000I0J-75000D01*
G01*
X127710000Y-66145000D01*
G75*
G02*
X127635000Y-66220000I-75000J0D01*
G01*
X127485000Y-66220000D01*
G75*
G02*
X127410000Y-66145000I0J75000D01*
G01*
G37*
%TD.AperFunction*%
%TO.P,U2,62*%
%TO.N,Net-(J1-Pad14)*%
%TA.AperFunction,SMDPad,CuDef*%
G36*
G01*
X127910000Y-66145000D02*
X127910000Y-64745000D01*
G75*
G02*
X127985000Y-64670000I75000J0D01*
G01*
X128135000Y-64670000D01*
G75*
G02*
X128210000Y-64745000I0J-75000D01*
G01*
X128210000Y-66145000D01*
G75*
G02*
X128135000Y-66220000I-75000J0D01*
G01*
X127985000Y-66220000D01*
G75*
G02*
X127910000Y-66145000I0J75000D01*
G01*
G37*
%TD.AperFunction*%
%TO.P,U2,61*%
%TO.N,Net-(J1-Pad13)*%
%TA.AperFunction,SMDPad,CuDef*%
G36*
G01*
X128410000Y-66145000D02*
X128410000Y-64745000D01*
G75*
G02*
X128485000Y-64670000I75000J0D01*
G01*
X128635000Y-64670000D01*
G75*
G02*
X128710000Y-64745000I0J-75000D01*
G01*
X128710000Y-66145000D01*
G75*
G02*
X128635000Y-66220000I-75000J0D01*
G01*
X128485000Y-66220000D01*
G75*
G02*
X128410000Y-66145000I0J75000D01*
G01*
G37*
%TD.AperFunction*%
%TO.P,U2,60*%
%TO.N,Net-(J1-Pad12)*%
%TA.AperFunction,SMDPad,CuDef*%
G36*
G01*
X128910000Y-66145000D02*
X128910000Y-64745000D01*
G75*
G02*
X128985000Y-64670000I75000J0D01*
G01*
X129135000Y-64670000D01*
G75*
G02*
X129210000Y-64745000I0J-75000D01*
G01*
X129210000Y-66145000D01*
G75*
G02*
X129135000Y-66220000I-75000J0D01*
G01*
X128985000Y-66220000D01*
G75*
G02*
X128910000Y-66145000I0J75000D01*
G01*
G37*
%TD.AperFunction*%
%TO.P,U2,59*%
%TO.N,Net-(J1-Pad11)*%
%TA.AperFunction,SMDPad,CuDef*%
G36*
G01*
X129410000Y-66145000D02*
X129410000Y-64745000D01*
G75*
G02*
X129485000Y-64670000I75000J0D01*
G01*
X129635000Y-64670000D01*
G75*
G02*
X129710000Y-64745000I0J-75000D01*
G01*
X129710000Y-66145000D01*
G75*
G02*
X129635000Y-66220000I-75000J0D01*
G01*
X129485000Y-66220000D01*
G75*
G02*
X129410000Y-66145000I0J75000D01*
G01*
G37*
%TD.AperFunction*%
%TO.P,U2,58*%
%TO.N,Net-(J1-Pad10)*%
%TA.AperFunction,SMDPad,CuDef*%
G36*
G01*
X129910000Y-66145000D02*
X129910000Y-64745000D01*
G75*
G02*
X129985000Y-64670000I75000J0D01*
G01*
X130135000Y-64670000D01*
G75*
G02*
X130210000Y-64745000I0J-75000D01*
G01*
X130210000Y-66145000D01*
G75*
G02*
X130135000Y-66220000I-75000J0D01*
G01*
X129985000Y-66220000D01*
G75*
G02*
X129910000Y-66145000I0J75000D01*
G01*
G37*
%TD.AperFunction*%
%TO.P,U2,57*%
%TO.N,Net-(J1-Pad9)*%
%TA.AperFunction,SMDPad,CuDef*%
G36*
G01*
X130410000Y-66145000D02*
X130410000Y-64745000D01*
G75*
G02*
X130485000Y-64670000I75000J0D01*
G01*
X130635000Y-64670000D01*
G75*
G02*
X130710000Y-64745000I0J-75000D01*
G01*
X130710000Y-66145000D01*
G75*
G02*
X130635000Y-66220000I-75000J0D01*
G01*
X130485000Y-66220000D01*
G75*
G02*
X130410000Y-66145000I0J75000D01*
G01*
G37*
%TD.AperFunction*%
%TO.P,U2,56*%
%TO.N,Net-(J1-Pad8)*%
%TA.AperFunction,SMDPad,CuDef*%
G36*
G01*
X130910000Y-66145000D02*
X130910000Y-64745000D01*
G75*
G02*
X130985000Y-64670000I75000J0D01*
G01*
X131135000Y-64670000D01*
G75*
G02*
X131210000Y-64745000I0J-75000D01*
G01*
X131210000Y-66145000D01*
G75*
G02*
X131135000Y-66220000I-75000J0D01*
G01*
X130985000Y-66220000D01*
G75*
G02*
X130910000Y-66145000I0J75000D01*
G01*
G37*
%TD.AperFunction*%
%TO.P,U2,55*%
%TO.N,Net-(J1-Pad7)*%
%TA.AperFunction,SMDPad,CuDef*%
G36*
G01*
X131410000Y-66145000D02*
X131410000Y-64745000D01*
G75*
G02*
X131485000Y-64670000I75000J0D01*
G01*
X131635000Y-64670000D01*
G75*
G02*
X131710000Y-64745000I0J-75000D01*
G01*
X131710000Y-66145000D01*
G75*
G02*
X131635000Y-66220000I-75000J0D01*
G01*
X131485000Y-66220000D01*
G75*
G02*
X131410000Y-66145000I0J75000D01*
G01*
G37*
%TD.AperFunction*%
%TO.P,U2,54*%
%TO.N,Net-(J1-Pad6)*%
%TA.AperFunction,SMDPad,CuDef*%
G36*
G01*
X131910000Y-66145000D02*
X131910000Y-64745000D01*
G75*
G02*
X131985000Y-64670000I75000J0D01*
G01*
X132135000Y-64670000D01*
G75*
G02*
X132210000Y-64745000I0J-75000D01*
G01*
X132210000Y-66145000D01*
G75*
G02*
X132135000Y-66220000I-75000J0D01*
G01*
X131985000Y-66220000D01*
G75*
G02*
X131910000Y-66145000I0J75000D01*
G01*
G37*
%TD.AperFunction*%
%TO.P,U2,53*%
%TO.N,Net-(J1-Pad5)*%
%TA.AperFunction,SMDPad,CuDef*%
G36*
G01*
X132410000Y-66145000D02*
X132410000Y-64745000D01*
G75*
G02*
X132485000Y-64670000I75000J0D01*
G01*
X132635000Y-64670000D01*
G75*
G02*
X132710000Y-64745000I0J-75000D01*
G01*
X132710000Y-66145000D01*
G75*
G02*
X132635000Y-66220000I-75000J0D01*
G01*
X132485000Y-66220000D01*
G75*
G02*
X132410000Y-66145000I0J75000D01*
G01*
G37*
%TD.AperFunction*%
%TO.P,U2,52*%
%TO.N,Net-(J1-Pad4)*%
%TA.AperFunction,SMDPad,CuDef*%
G36*
G01*
X132910000Y-66145000D02*
X132910000Y-64745000D01*
G75*
G02*
X132985000Y-64670000I75000J0D01*
G01*
X133135000Y-64670000D01*
G75*
G02*
X133210000Y-64745000I0J-75000D01*
G01*
X133210000Y-66145000D01*
G75*
G02*
X133135000Y-66220000I-75000J0D01*
G01*
X132985000Y-66220000D01*
G75*
G02*
X132910000Y-66145000I0J75000D01*
G01*
G37*
%TD.AperFunction*%
%TO.P,U2,51*%
%TO.N,Net-(J1-Pad3)*%
%TA.AperFunction,SMDPad,CuDef*%
G36*
G01*
X133410000Y-66145000D02*
X133410000Y-64745000D01*
G75*
G02*
X133485000Y-64670000I75000J0D01*
G01*
X133635000Y-64670000D01*
G75*
G02*
X133710000Y-64745000I0J-75000D01*
G01*
X133710000Y-66145000D01*
G75*
G02*
X133635000Y-66220000I-75000J0D01*
G01*
X133485000Y-66220000D01*
G75*
G02*
X133410000Y-66145000I0J75000D01*
G01*
G37*
%TD.AperFunction*%
%TO.P,U2,50*%
%TO.N,Net-(J1-Pad2)*%
%TA.AperFunction,SMDPad,CuDef*%
G36*
G01*
X133910000Y-66145000D02*
X133910000Y-64745000D01*
G75*
G02*
X133985000Y-64670000I75000J0D01*
G01*
X134135000Y-64670000D01*
G75*
G02*
X134210000Y-64745000I0J-75000D01*
G01*
X134210000Y-66145000D01*
G75*
G02*
X134135000Y-66220000I-75000J0D01*
G01*
X133985000Y-66220000D01*
G75*
G02*
X133910000Y-66145000I0J75000D01*
G01*
G37*
%TD.AperFunction*%
%TO.P,U2,49*%
%TO.N,Net-(J1-Pad1)*%
%TA.AperFunction,SMDPad,CuDef*%
G36*
G01*
X134410000Y-66145000D02*
X134410000Y-64745000D01*
G75*
G02*
X134485000Y-64670000I75000J0D01*
G01*
X134635000Y-64670000D01*
G75*
G02*
X134710000Y-64745000I0J-75000D01*
G01*
X134710000Y-66145000D01*
G75*
G02*
X134635000Y-66220000I-75000J0D01*
G01*
X134485000Y-66220000D01*
G75*
G02*
X134410000Y-66145000I0J75000D01*
G01*
G37*
%TD.AperFunction*%
%TO.P,U2,48*%
%TO.N,Net-(J3-Pad16)*%
%TA.AperFunction,SMDPad,CuDef*%
G36*
G01*
X135710000Y-67445000D02*
X135710000Y-67295000D01*
G75*
G02*
X135785000Y-67220000I75000J0D01*
G01*
X137185000Y-67220000D01*
G75*
G02*
X137260000Y-67295000I0J-75000D01*
G01*
X137260000Y-67445000D01*
G75*
G02*
X137185000Y-67520000I-75000J0D01*
G01*
X135785000Y-67520000D01*
G75*
G02*
X135710000Y-67445000I0J75000D01*
G01*
G37*
%TD.AperFunction*%
%TO.P,U2,47*%
%TO.N,Net-(J3-Pad15)*%
%TA.AperFunction,SMDPad,CuDef*%
G36*
G01*
X135710000Y-67945000D02*
X135710000Y-67795000D01*
G75*
G02*
X135785000Y-67720000I75000J0D01*
G01*
X137185000Y-67720000D01*
G75*
G02*
X137260000Y-67795000I0J-75000D01*
G01*
X137260000Y-67945000D01*
G75*
G02*
X137185000Y-68020000I-75000J0D01*
G01*
X135785000Y-68020000D01*
G75*
G02*
X135710000Y-67945000I0J75000D01*
G01*
G37*
%TD.AperFunction*%
%TO.P,U2,46*%
%TO.N,Net-(J3-Pad14)*%
%TA.AperFunction,SMDPad,CuDef*%
G36*
G01*
X135710000Y-68445000D02*
X135710000Y-68295000D01*
G75*
G02*
X135785000Y-68220000I75000J0D01*
G01*
X137185000Y-68220000D01*
G75*
G02*
X137260000Y-68295000I0J-75000D01*
G01*
X137260000Y-68445000D01*
G75*
G02*
X137185000Y-68520000I-75000J0D01*
G01*
X135785000Y-68520000D01*
G75*
G02*
X135710000Y-68445000I0J75000D01*
G01*
G37*
%TD.AperFunction*%
%TO.P,U2,45*%
%TO.N,Net-(J3-Pad13)*%
%TA.AperFunction,SMDPad,CuDef*%
G36*
G01*
X135710000Y-68945000D02*
X135710000Y-68795000D01*
G75*
G02*
X135785000Y-68720000I75000J0D01*
G01*
X137185000Y-68720000D01*
G75*
G02*
X137260000Y-68795000I0J-75000D01*
G01*
X137260000Y-68945000D01*
G75*
G02*
X137185000Y-69020000I-75000J0D01*
G01*
X135785000Y-69020000D01*
G75*
G02*
X135710000Y-68945000I0J75000D01*
G01*
G37*
%TD.AperFunction*%
%TO.P,U2,44*%
%TO.N,Net-(J3-Pad12)*%
%TA.AperFunction,SMDPad,CuDef*%
G36*
G01*
X135710000Y-69445000D02*
X135710000Y-69295000D01*
G75*
G02*
X135785000Y-69220000I75000J0D01*
G01*
X137185000Y-69220000D01*
G75*
G02*
X137260000Y-69295000I0J-75000D01*
G01*
X137260000Y-69445000D01*
G75*
G02*
X137185000Y-69520000I-75000J0D01*
G01*
X135785000Y-69520000D01*
G75*
G02*
X135710000Y-69445000I0J75000D01*
G01*
G37*
%TD.AperFunction*%
%TO.P,U2,43*%
%TO.N,Net-(J3-Pad11)*%
%TA.AperFunction,SMDPad,CuDef*%
G36*
G01*
X135710000Y-69945000D02*
X135710000Y-69795000D01*
G75*
G02*
X135785000Y-69720000I75000J0D01*
G01*
X137185000Y-69720000D01*
G75*
G02*
X137260000Y-69795000I0J-75000D01*
G01*
X137260000Y-69945000D01*
G75*
G02*
X137185000Y-70020000I-75000J0D01*
G01*
X135785000Y-70020000D01*
G75*
G02*
X135710000Y-69945000I0J75000D01*
G01*
G37*
%TD.AperFunction*%
%TO.P,U2,42*%
%TO.N,Net-(J3-Pad10)*%
%TA.AperFunction,SMDPad,CuDef*%
G36*
G01*
X135710000Y-70445000D02*
X135710000Y-70295000D01*
G75*
G02*
X135785000Y-70220000I75000J0D01*
G01*
X137185000Y-70220000D01*
G75*
G02*
X137260000Y-70295000I0J-75000D01*
G01*
X137260000Y-70445000D01*
G75*
G02*
X137185000Y-70520000I-75000J0D01*
G01*
X135785000Y-70520000D01*
G75*
G02*
X135710000Y-70445000I0J75000D01*
G01*
G37*
%TD.AperFunction*%
%TO.P,U2,41*%
%TO.N,Net-(J3-Pad9)*%
%TA.AperFunction,SMDPad,CuDef*%
G36*
G01*
X135710000Y-70945000D02*
X135710000Y-70795000D01*
G75*
G02*
X135785000Y-70720000I75000J0D01*
G01*
X137185000Y-70720000D01*
G75*
G02*
X137260000Y-70795000I0J-75000D01*
G01*
X137260000Y-70945000D01*
G75*
G02*
X137185000Y-71020000I-75000J0D01*
G01*
X135785000Y-71020000D01*
G75*
G02*
X135710000Y-70945000I0J75000D01*
G01*
G37*
%TD.AperFunction*%
%TO.P,U2,40*%
%TO.N,Net-(J3-Pad8)*%
%TA.AperFunction,SMDPad,CuDef*%
G36*
G01*
X135710000Y-71445000D02*
X135710000Y-71295000D01*
G75*
G02*
X135785000Y-71220000I75000J0D01*
G01*
X137185000Y-71220000D01*
G75*
G02*
X137260000Y-71295000I0J-75000D01*
G01*
X137260000Y-71445000D01*
G75*
G02*
X137185000Y-71520000I-75000J0D01*
G01*
X135785000Y-71520000D01*
G75*
G02*
X135710000Y-71445000I0J75000D01*
G01*
G37*
%TD.AperFunction*%
%TO.P,U2,39*%
%TO.N,Net-(J3-Pad7)*%
%TA.AperFunction,SMDPad,CuDef*%
G36*
G01*
X135710000Y-71945000D02*
X135710000Y-71795000D01*
G75*
G02*
X135785000Y-71720000I75000J0D01*
G01*
X137185000Y-71720000D01*
G75*
G02*
X137260000Y-71795000I0J-75000D01*
G01*
X137260000Y-71945000D01*
G75*
G02*
X137185000Y-72020000I-75000J0D01*
G01*
X135785000Y-72020000D01*
G75*
G02*
X135710000Y-71945000I0J75000D01*
G01*
G37*
%TD.AperFunction*%
%TO.P,U2,38*%
%TO.N,Net-(J3-Pad6)*%
%TA.AperFunction,SMDPad,CuDef*%
G36*
G01*
X135710000Y-72445000D02*
X135710000Y-72295000D01*
G75*
G02*
X135785000Y-72220000I75000J0D01*
G01*
X137185000Y-72220000D01*
G75*
G02*
X137260000Y-72295000I0J-75000D01*
G01*
X137260000Y-72445000D01*
G75*
G02*
X137185000Y-72520000I-75000J0D01*
G01*
X135785000Y-72520000D01*
G75*
G02*
X135710000Y-72445000I0J75000D01*
G01*
G37*
%TD.AperFunction*%
%TO.P,U2,37*%
%TO.N,Net-(J3-Pad5)*%
%TA.AperFunction,SMDPad,CuDef*%
G36*
G01*
X135710000Y-72945000D02*
X135710000Y-72795000D01*
G75*
G02*
X135785000Y-72720000I75000J0D01*
G01*
X137185000Y-72720000D01*
G75*
G02*
X137260000Y-72795000I0J-75000D01*
G01*
X137260000Y-72945000D01*
G75*
G02*
X137185000Y-73020000I-75000J0D01*
G01*
X135785000Y-73020000D01*
G75*
G02*
X135710000Y-72945000I0J75000D01*
G01*
G37*
%TD.AperFunction*%
%TO.P,U2,36*%
%TO.N,Net-(J3-Pad4)*%
%TA.AperFunction,SMDPad,CuDef*%
G36*
G01*
X135710000Y-73445000D02*
X135710000Y-73295000D01*
G75*
G02*
X135785000Y-73220000I75000J0D01*
G01*
X137185000Y-73220000D01*
G75*
G02*
X137260000Y-73295000I0J-75000D01*
G01*
X137260000Y-73445000D01*
G75*
G02*
X137185000Y-73520000I-75000J0D01*
G01*
X135785000Y-73520000D01*
G75*
G02*
X135710000Y-73445000I0J75000D01*
G01*
G37*
%TD.AperFunction*%
%TO.P,U2,35*%
%TO.N,Net-(J3-Pad3)*%
%TA.AperFunction,SMDPad,CuDef*%
G36*
G01*
X135710000Y-73945000D02*
X135710000Y-73795000D01*
G75*
G02*
X135785000Y-73720000I75000J0D01*
G01*
X137185000Y-73720000D01*
G75*
G02*
X137260000Y-73795000I0J-75000D01*
G01*
X137260000Y-73945000D01*
G75*
G02*
X137185000Y-74020000I-75000J0D01*
G01*
X135785000Y-74020000D01*
G75*
G02*
X135710000Y-73945000I0J75000D01*
G01*
G37*
%TD.AperFunction*%
%TO.P,U2,34*%
%TO.N,Net-(J3-Pad2)*%
%TA.AperFunction,SMDPad,CuDef*%
G36*
G01*
X135710000Y-74445000D02*
X135710000Y-74295000D01*
G75*
G02*
X135785000Y-74220000I75000J0D01*
G01*
X137185000Y-74220000D01*
G75*
G02*
X137260000Y-74295000I0J-75000D01*
G01*
X137260000Y-74445000D01*
G75*
G02*
X137185000Y-74520000I-75000J0D01*
G01*
X135785000Y-74520000D01*
G75*
G02*
X135710000Y-74445000I0J75000D01*
G01*
G37*
%TD.AperFunction*%
%TO.P,U2,33*%
%TO.N,Net-(J3-Pad1)*%
%TA.AperFunction,SMDPad,CuDef*%
G36*
G01*
X135710000Y-74945000D02*
X135710000Y-74795000D01*
G75*
G02*
X135785000Y-74720000I75000J0D01*
G01*
X137185000Y-74720000D01*
G75*
G02*
X137260000Y-74795000I0J-75000D01*
G01*
X137260000Y-74945000D01*
G75*
G02*
X137185000Y-75020000I-75000J0D01*
G01*
X135785000Y-75020000D01*
G75*
G02*
X135710000Y-74945000I0J75000D01*
G01*
G37*
%TD.AperFunction*%
%TO.P,U2,32*%
%TO.N,Net-(J4-Pad16)*%
%TA.AperFunction,SMDPad,CuDef*%
G36*
G01*
X134410000Y-77495000D02*
X134410000Y-76095000D01*
G75*
G02*
X134485000Y-76020000I75000J0D01*
G01*
X134635000Y-76020000D01*
G75*
G02*
X134710000Y-76095000I0J-75000D01*
G01*
X134710000Y-77495000D01*
G75*
G02*
X134635000Y-77570000I-75000J0D01*
G01*
X134485000Y-77570000D01*
G75*
G02*
X134410000Y-77495000I0J75000D01*
G01*
G37*
%TD.AperFunction*%
%TO.P,U2,31*%
%TO.N,Net-(J4-Pad15)*%
%TA.AperFunction,SMDPad,CuDef*%
G36*
G01*
X133910000Y-77495000D02*
X133910000Y-76095000D01*
G75*
G02*
X133985000Y-76020000I75000J0D01*
G01*
X134135000Y-76020000D01*
G75*
G02*
X134210000Y-76095000I0J-75000D01*
G01*
X134210000Y-77495000D01*
G75*
G02*
X134135000Y-77570000I-75000J0D01*
G01*
X133985000Y-77570000D01*
G75*
G02*
X133910000Y-77495000I0J75000D01*
G01*
G37*
%TD.AperFunction*%
%TO.P,U2,30*%
%TO.N,Net-(J4-Pad14)*%
%TA.AperFunction,SMDPad,CuDef*%
G36*
G01*
X133410000Y-77495000D02*
X133410000Y-76095000D01*
G75*
G02*
X133485000Y-76020000I75000J0D01*
G01*
X133635000Y-76020000D01*
G75*
G02*
X133710000Y-76095000I0J-75000D01*
G01*
X133710000Y-77495000D01*
G75*
G02*
X133635000Y-77570000I-75000J0D01*
G01*
X133485000Y-77570000D01*
G75*
G02*
X133410000Y-77495000I0J75000D01*
G01*
G37*
%TD.AperFunction*%
%TO.P,U2,29*%
%TO.N,Net-(J4-Pad13)*%
%TA.AperFunction,SMDPad,CuDef*%
G36*
G01*
X132910000Y-77495000D02*
X132910000Y-76095000D01*
G75*
G02*
X132985000Y-76020000I75000J0D01*
G01*
X133135000Y-76020000D01*
G75*
G02*
X133210000Y-76095000I0J-75000D01*
G01*
X133210000Y-77495000D01*
G75*
G02*
X133135000Y-77570000I-75000J0D01*
G01*
X132985000Y-77570000D01*
G75*
G02*
X132910000Y-77495000I0J75000D01*
G01*
G37*
%TD.AperFunction*%
%TO.P,U2,28*%
%TO.N,Net-(J4-Pad12)*%
%TA.AperFunction,SMDPad,CuDef*%
G36*
G01*
X132410000Y-77495000D02*
X132410000Y-76095000D01*
G75*
G02*
X132485000Y-76020000I75000J0D01*
G01*
X132635000Y-76020000D01*
G75*
G02*
X132710000Y-76095000I0J-75000D01*
G01*
X132710000Y-77495000D01*
G75*
G02*
X132635000Y-77570000I-75000J0D01*
G01*
X132485000Y-77570000D01*
G75*
G02*
X132410000Y-77495000I0J75000D01*
G01*
G37*
%TD.AperFunction*%
%TO.P,U2,27*%
%TO.N,Net-(J4-Pad11)*%
%TA.AperFunction,SMDPad,CuDef*%
G36*
G01*
X131910000Y-77495000D02*
X131910000Y-76095000D01*
G75*
G02*
X131985000Y-76020000I75000J0D01*
G01*
X132135000Y-76020000D01*
G75*
G02*
X132210000Y-76095000I0J-75000D01*
G01*
X132210000Y-77495000D01*
G75*
G02*
X132135000Y-77570000I-75000J0D01*
G01*
X131985000Y-77570000D01*
G75*
G02*
X131910000Y-77495000I0J75000D01*
G01*
G37*
%TD.AperFunction*%
%TO.P,U2,26*%
%TO.N,Net-(J4-Pad10)*%
%TA.AperFunction,SMDPad,CuDef*%
G36*
G01*
X131410000Y-77495000D02*
X131410000Y-76095000D01*
G75*
G02*
X131485000Y-76020000I75000J0D01*
G01*
X131635000Y-76020000D01*
G75*
G02*
X131710000Y-76095000I0J-75000D01*
G01*
X131710000Y-77495000D01*
G75*
G02*
X131635000Y-77570000I-75000J0D01*
G01*
X131485000Y-77570000D01*
G75*
G02*
X131410000Y-77495000I0J75000D01*
G01*
G37*
%TD.AperFunction*%
%TO.P,U2,25*%
%TO.N,Net-(J4-Pad9)*%
%TA.AperFunction,SMDPad,CuDef*%
G36*
G01*
X130910000Y-77495000D02*
X130910000Y-76095000D01*
G75*
G02*
X130985000Y-76020000I75000J0D01*
G01*
X131135000Y-76020000D01*
G75*
G02*
X131210000Y-76095000I0J-75000D01*
G01*
X131210000Y-77495000D01*
G75*
G02*
X131135000Y-77570000I-75000J0D01*
G01*
X130985000Y-77570000D01*
G75*
G02*
X130910000Y-77495000I0J75000D01*
G01*
G37*
%TD.AperFunction*%
%TO.P,U2,24*%
%TO.N,Net-(J4-Pad8)*%
%TA.AperFunction,SMDPad,CuDef*%
G36*
G01*
X130410000Y-77495000D02*
X130410000Y-76095000D01*
G75*
G02*
X130485000Y-76020000I75000J0D01*
G01*
X130635000Y-76020000D01*
G75*
G02*
X130710000Y-76095000I0J-75000D01*
G01*
X130710000Y-77495000D01*
G75*
G02*
X130635000Y-77570000I-75000J0D01*
G01*
X130485000Y-77570000D01*
G75*
G02*
X130410000Y-77495000I0J75000D01*
G01*
G37*
%TD.AperFunction*%
%TO.P,U2,23*%
%TO.N,Net-(J4-Pad7)*%
%TA.AperFunction,SMDPad,CuDef*%
G36*
G01*
X129910000Y-77495000D02*
X129910000Y-76095000D01*
G75*
G02*
X129985000Y-76020000I75000J0D01*
G01*
X130135000Y-76020000D01*
G75*
G02*
X130210000Y-76095000I0J-75000D01*
G01*
X130210000Y-77495000D01*
G75*
G02*
X130135000Y-77570000I-75000J0D01*
G01*
X129985000Y-77570000D01*
G75*
G02*
X129910000Y-77495000I0J75000D01*
G01*
G37*
%TD.AperFunction*%
%TO.P,U2,22*%
%TO.N,Net-(J4-Pad6)*%
%TA.AperFunction,SMDPad,CuDef*%
G36*
G01*
X129410000Y-77495000D02*
X129410000Y-76095000D01*
G75*
G02*
X129485000Y-76020000I75000J0D01*
G01*
X129635000Y-76020000D01*
G75*
G02*
X129710000Y-76095000I0J-75000D01*
G01*
X129710000Y-77495000D01*
G75*
G02*
X129635000Y-77570000I-75000J0D01*
G01*
X129485000Y-77570000D01*
G75*
G02*
X129410000Y-77495000I0J75000D01*
G01*
G37*
%TD.AperFunction*%
%TO.P,U2,21*%
%TO.N,Net-(J4-Pad5)*%
%TA.AperFunction,SMDPad,CuDef*%
G36*
G01*
X128910000Y-77495000D02*
X128910000Y-76095000D01*
G75*
G02*
X128985000Y-76020000I75000J0D01*
G01*
X129135000Y-76020000D01*
G75*
G02*
X129210000Y-76095000I0J-75000D01*
G01*
X129210000Y-77495000D01*
G75*
G02*
X129135000Y-77570000I-75000J0D01*
G01*
X128985000Y-77570000D01*
G75*
G02*
X128910000Y-77495000I0J75000D01*
G01*
G37*
%TD.AperFunction*%
%TO.P,U2,20*%
%TO.N,Net-(J4-Pad4)*%
%TA.AperFunction,SMDPad,CuDef*%
G36*
G01*
X128410000Y-77495000D02*
X128410000Y-76095000D01*
G75*
G02*
X128485000Y-76020000I75000J0D01*
G01*
X128635000Y-76020000D01*
G75*
G02*
X128710000Y-76095000I0J-75000D01*
G01*
X128710000Y-77495000D01*
G75*
G02*
X128635000Y-77570000I-75000J0D01*
G01*
X128485000Y-77570000D01*
G75*
G02*
X128410000Y-77495000I0J75000D01*
G01*
G37*
%TD.AperFunction*%
%TO.P,U2,19*%
%TO.N,Net-(J4-Pad3)*%
%TA.AperFunction,SMDPad,CuDef*%
G36*
G01*
X127910000Y-77495000D02*
X127910000Y-76095000D01*
G75*
G02*
X127985000Y-76020000I75000J0D01*
G01*
X128135000Y-76020000D01*
G75*
G02*
X128210000Y-76095000I0J-75000D01*
G01*
X128210000Y-77495000D01*
G75*
G02*
X128135000Y-77570000I-75000J0D01*
G01*
X127985000Y-77570000D01*
G75*
G02*
X127910000Y-77495000I0J75000D01*
G01*
G37*
%TD.AperFunction*%
%TO.P,U2,18*%
%TO.N,Net-(J4-Pad2)*%
%TA.AperFunction,SMDPad,CuDef*%
G36*
G01*
X127410000Y-77495000D02*
X127410000Y-76095000D01*
G75*
G02*
X127485000Y-76020000I75000J0D01*
G01*
X127635000Y-76020000D01*
G75*
G02*
X127710000Y-76095000I0J-75000D01*
G01*
X127710000Y-77495000D01*
G75*
G02*
X127635000Y-77570000I-75000J0D01*
G01*
X127485000Y-77570000D01*
G75*
G02*
X127410000Y-77495000I0J75000D01*
G01*
G37*
%TD.AperFunction*%
%TO.P,U2,17*%
%TO.N,Net-(J4-Pad1)*%
%TA.AperFunction,SMDPad,CuDef*%
G36*
G01*
X126910000Y-77495000D02*
X126910000Y-76095000D01*
G75*
G02*
X126985000Y-76020000I75000J0D01*
G01*
X127135000Y-76020000D01*
G75*
G02*
X127210000Y-76095000I0J-75000D01*
G01*
X127210000Y-77495000D01*
G75*
G02*
X127135000Y-77570000I-75000J0D01*
G01*
X126985000Y-77570000D01*
G75*
G02*
X126910000Y-77495000I0J75000D01*
G01*
G37*
%TD.AperFunction*%
%TO.P,U2,16*%
%TO.N,Net-(J2-Pad16)*%
%TA.AperFunction,SMDPad,CuDef*%
G36*
G01*
X124360000Y-74945000D02*
X124360000Y-74795000D01*
G75*
G02*
X124435000Y-74720000I75000J0D01*
G01*
X125835000Y-74720000D01*
G75*
G02*
X125910000Y-74795000I0J-75000D01*
G01*
X125910000Y-74945000D01*
G75*
G02*
X125835000Y-75020000I-75000J0D01*
G01*
X124435000Y-75020000D01*
G75*
G02*
X124360000Y-74945000I0J75000D01*
G01*
G37*
%TD.AperFunction*%
%TO.P,U2,15*%
%TO.N,Net-(J2-Pad15)*%
%TA.AperFunction,SMDPad,CuDef*%
G36*
G01*
X124360000Y-74445000D02*
X124360000Y-74295000D01*
G75*
G02*
X124435000Y-74220000I75000J0D01*
G01*
X125835000Y-74220000D01*
G75*
G02*
X125910000Y-74295000I0J-75000D01*
G01*
X125910000Y-74445000D01*
G75*
G02*
X125835000Y-74520000I-75000J0D01*
G01*
X124435000Y-74520000D01*
G75*
G02*
X124360000Y-74445000I0J75000D01*
G01*
G37*
%TD.AperFunction*%
%TO.P,U2,14*%
%TO.N,Net-(J2-Pad14)*%
%TA.AperFunction,SMDPad,CuDef*%
G36*
G01*
X124360000Y-73945000D02*
X124360000Y-73795000D01*
G75*
G02*
X124435000Y-73720000I75000J0D01*
G01*
X125835000Y-73720000D01*
G75*
G02*
X125910000Y-73795000I0J-75000D01*
G01*
X125910000Y-73945000D01*
G75*
G02*
X125835000Y-74020000I-75000J0D01*
G01*
X124435000Y-74020000D01*
G75*
G02*
X124360000Y-73945000I0J75000D01*
G01*
G37*
%TD.AperFunction*%
%TO.P,U2,13*%
%TO.N,Net-(J2-Pad13)*%
%TA.AperFunction,SMDPad,CuDef*%
G36*
G01*
X124360000Y-73445000D02*
X124360000Y-73295000D01*
G75*
G02*
X124435000Y-73220000I75000J0D01*
G01*
X125835000Y-73220000D01*
G75*
G02*
X125910000Y-73295000I0J-75000D01*
G01*
X125910000Y-73445000D01*
G75*
G02*
X125835000Y-73520000I-75000J0D01*
G01*
X124435000Y-73520000D01*
G75*
G02*
X124360000Y-73445000I0J75000D01*
G01*
G37*
%TD.AperFunction*%
%TO.P,U2,12*%
%TO.N,Net-(J2-Pad12)*%
%TA.AperFunction,SMDPad,CuDef*%
G36*
G01*
X124360000Y-72945000D02*
X124360000Y-72795000D01*
G75*
G02*
X124435000Y-72720000I75000J0D01*
G01*
X125835000Y-72720000D01*
G75*
G02*
X125910000Y-72795000I0J-75000D01*
G01*
X125910000Y-72945000D01*
G75*
G02*
X125835000Y-73020000I-75000J0D01*
G01*
X124435000Y-73020000D01*
G75*
G02*
X124360000Y-72945000I0J75000D01*
G01*
G37*
%TD.AperFunction*%
%TO.P,U2,11*%
%TO.N,Net-(J2-Pad11)*%
%TA.AperFunction,SMDPad,CuDef*%
G36*
G01*
X124360000Y-72445000D02*
X124360000Y-72295000D01*
G75*
G02*
X124435000Y-72220000I75000J0D01*
G01*
X125835000Y-72220000D01*
G75*
G02*
X125910000Y-72295000I0J-75000D01*
G01*
X125910000Y-72445000D01*
G75*
G02*
X125835000Y-72520000I-75000J0D01*
G01*
X124435000Y-72520000D01*
G75*
G02*
X124360000Y-72445000I0J75000D01*
G01*
G37*
%TD.AperFunction*%
%TO.P,U2,10*%
%TO.N,Net-(J2-Pad10)*%
%TA.AperFunction,SMDPad,CuDef*%
G36*
G01*
X124360000Y-71945000D02*
X124360000Y-71795000D01*
G75*
G02*
X124435000Y-71720000I75000J0D01*
G01*
X125835000Y-71720000D01*
G75*
G02*
X125910000Y-71795000I0J-75000D01*
G01*
X125910000Y-71945000D01*
G75*
G02*
X125835000Y-72020000I-75000J0D01*
G01*
X124435000Y-72020000D01*
G75*
G02*
X124360000Y-71945000I0J75000D01*
G01*
G37*
%TD.AperFunction*%
%TO.P,U2,9*%
%TO.N,Net-(J2-Pad9)*%
%TA.AperFunction,SMDPad,CuDef*%
G36*
G01*
X124360000Y-71445000D02*
X124360000Y-71295000D01*
G75*
G02*
X124435000Y-71220000I75000J0D01*
G01*
X125835000Y-71220000D01*
G75*
G02*
X125910000Y-71295000I0J-75000D01*
G01*
X125910000Y-71445000D01*
G75*
G02*
X125835000Y-71520000I-75000J0D01*
G01*
X124435000Y-71520000D01*
G75*
G02*
X124360000Y-71445000I0J75000D01*
G01*
G37*
%TD.AperFunction*%
%TO.P,U2,8*%
%TO.N,Net-(J2-Pad8)*%
%TA.AperFunction,SMDPad,CuDef*%
G36*
G01*
X124360000Y-70945000D02*
X124360000Y-70795000D01*
G75*
G02*
X124435000Y-70720000I75000J0D01*
G01*
X125835000Y-70720000D01*
G75*
G02*
X125910000Y-70795000I0J-75000D01*
G01*
X125910000Y-70945000D01*
G75*
G02*
X125835000Y-71020000I-75000J0D01*
G01*
X124435000Y-71020000D01*
G75*
G02*
X124360000Y-70945000I0J75000D01*
G01*
G37*
%TD.AperFunction*%
%TO.P,U2,7*%
%TO.N,Net-(J2-Pad7)*%
%TA.AperFunction,SMDPad,CuDef*%
G36*
G01*
X124360000Y-70445000D02*
X124360000Y-70295000D01*
G75*
G02*
X124435000Y-70220000I75000J0D01*
G01*
X125835000Y-70220000D01*
G75*
G02*
X125910000Y-70295000I0J-75000D01*
G01*
X125910000Y-70445000D01*
G75*
G02*
X125835000Y-70520000I-75000J0D01*
G01*
X124435000Y-70520000D01*
G75*
G02*
X124360000Y-70445000I0J75000D01*
G01*
G37*
%TD.AperFunction*%
%TO.P,U2,6*%
%TO.N,Net-(J2-Pad6)*%
%TA.AperFunction,SMDPad,CuDef*%
G36*
G01*
X124360000Y-69945000D02*
X124360000Y-69795000D01*
G75*
G02*
X124435000Y-69720000I75000J0D01*
G01*
X125835000Y-69720000D01*
G75*
G02*
X125910000Y-69795000I0J-75000D01*
G01*
X125910000Y-69945000D01*
G75*
G02*
X125835000Y-70020000I-75000J0D01*
G01*
X124435000Y-70020000D01*
G75*
G02*
X124360000Y-69945000I0J75000D01*
G01*
G37*
%TD.AperFunction*%
%TO.P,U2,5*%
%TO.N,Net-(J2-Pad5)*%
%TA.AperFunction,SMDPad,CuDef*%
G36*
G01*
X124360000Y-69445000D02*
X124360000Y-69295000D01*
G75*
G02*
X124435000Y-69220000I75000J0D01*
G01*
X125835000Y-69220000D01*
G75*
G02*
X125910000Y-69295000I0J-75000D01*
G01*
X125910000Y-69445000D01*
G75*
G02*
X125835000Y-69520000I-75000J0D01*
G01*
X124435000Y-69520000D01*
G75*
G02*
X124360000Y-69445000I0J75000D01*
G01*
G37*
%TD.AperFunction*%
%TO.P,U2,4*%
%TO.N,Net-(J2-Pad4)*%
%TA.AperFunction,SMDPad,CuDef*%
G36*
G01*
X124360000Y-68945000D02*
X124360000Y-68795000D01*
G75*
G02*
X124435000Y-68720000I75000J0D01*
G01*
X125835000Y-68720000D01*
G75*
G02*
X125910000Y-68795000I0J-75000D01*
G01*
X125910000Y-68945000D01*
G75*
G02*
X125835000Y-69020000I-75000J0D01*
G01*
X124435000Y-69020000D01*
G75*
G02*
X124360000Y-68945000I0J75000D01*
G01*
G37*
%TD.AperFunction*%
%TO.P,U2,3*%
%TO.N,Net-(J2-Pad3)*%
%TA.AperFunction,SMDPad,CuDef*%
G36*
G01*
X124360000Y-68445000D02*
X124360000Y-68295000D01*
G75*
G02*
X124435000Y-68220000I75000J0D01*
G01*
X125835000Y-68220000D01*
G75*
G02*
X125910000Y-68295000I0J-75000D01*
G01*
X125910000Y-68445000D01*
G75*
G02*
X125835000Y-68520000I-75000J0D01*
G01*
X124435000Y-68520000D01*
G75*
G02*
X124360000Y-68445000I0J75000D01*
G01*
G37*
%TD.AperFunction*%
%TO.P,U2,2*%
%TO.N,Net-(J2-Pad2)*%
%TA.AperFunction,SMDPad,CuDef*%
G36*
G01*
X124360000Y-67945000D02*
X124360000Y-67795000D01*
G75*
G02*
X124435000Y-67720000I75000J0D01*
G01*
X125835000Y-67720000D01*
G75*
G02*
X125910000Y-67795000I0J-75000D01*
G01*
X125910000Y-67945000D01*
G75*
G02*
X125835000Y-68020000I-75000J0D01*
G01*
X124435000Y-68020000D01*
G75*
G02*
X124360000Y-67945000I0J75000D01*
G01*
G37*
%TD.AperFunction*%
%TO.P,U2,1*%
%TO.N,Net-(J2-Pad1)*%
%TA.AperFunction,SMDPad,CuDef*%
G36*
G01*
X124360000Y-67445000D02*
X124360000Y-67295000D01*
G75*
G02*
X124435000Y-67220000I75000J0D01*
G01*
X125835000Y-67220000D01*
G75*
G02*
X125910000Y-67295000I0J-75000D01*
G01*
X125910000Y-67445000D01*
G75*
G02*
X125835000Y-67520000I-75000J0D01*
G01*
X124435000Y-67520000D01*
G75*
G02*
X124360000Y-67445000I0J75000D01*
G01*
G37*
%TD.AperFunction*%
%TD*%
%TO.P,U1,32*%
%TO.N,Net-(J1-Pad15)*%
%TA.AperFunction,SMDPad,CuDef*%
G36*
G01*
X128910000Y-68620000D02*
X128910000Y-67270000D01*
G75*
G02*
X128985000Y-67195000I75000J0D01*
G01*
X129135000Y-67195000D01*
G75*
G02*
X129210000Y-67270000I0J-75000D01*
G01*
X129210000Y-68620000D01*
G75*
G02*
X129135000Y-68695000I-75000J0D01*
G01*
X128985000Y-68695000D01*
G75*
G02*
X128910000Y-68620000I0J75000D01*
G01*
G37*
%TD.AperFunction*%
%TO.P,U1,31*%
%TO.N,Net-(J1-Pad13)*%
%TA.AperFunction,SMDPad,CuDef*%
G36*
G01*
X129410000Y-68620000D02*
X129410000Y-67270000D01*
G75*
G02*
X129485000Y-67195000I75000J0D01*
G01*
X129635000Y-67195000D01*
G75*
G02*
X129710000Y-67270000I0J-75000D01*
G01*
X129710000Y-68620000D01*
G75*
G02*
X129635000Y-68695000I-75000J0D01*
G01*
X129485000Y-68695000D01*
G75*
G02*
X129410000Y-68620000I0J75000D01*
G01*
G37*
%TD.AperFunction*%
%TO.P,U1,30*%
%TO.N,Net-(J1-Pad11)*%
%TA.AperFunction,SMDPad,CuDef*%
G36*
G01*
X129910000Y-68620000D02*
X129910000Y-67270000D01*
G75*
G02*
X129985000Y-67195000I75000J0D01*
G01*
X130135000Y-67195000D01*
G75*
G02*
X130210000Y-67270000I0J-75000D01*
G01*
X130210000Y-68620000D01*
G75*
G02*
X130135000Y-68695000I-75000J0D01*
G01*
X129985000Y-68695000D01*
G75*
G02*
X129910000Y-68620000I0J75000D01*
G01*
G37*
%TD.AperFunction*%
%TO.P,U1,29*%
%TO.N,Net-(J1-Pad9)*%
%TA.AperFunction,SMDPad,CuDef*%
G36*
G01*
X130410000Y-68620000D02*
X130410000Y-67270000D01*
G75*
G02*
X130485000Y-67195000I75000J0D01*
G01*
X130635000Y-67195000D01*
G75*
G02*
X130710000Y-67270000I0J-75000D01*
G01*
X130710000Y-68620000D01*
G75*
G02*
X130635000Y-68695000I-75000J0D01*
G01*
X130485000Y-68695000D01*
G75*
G02*
X130410000Y-68620000I0J75000D01*
G01*
G37*
%TD.AperFunction*%
%TO.P,U1,28*%
%TO.N,Net-(J1-Pad7)*%
%TA.AperFunction,SMDPad,CuDef*%
G36*
G01*
X130910000Y-68620000D02*
X130910000Y-67270000D01*
G75*
G02*
X130985000Y-67195000I75000J0D01*
G01*
X131135000Y-67195000D01*
G75*
G02*
X131210000Y-67270000I0J-75000D01*
G01*
X131210000Y-68620000D01*
G75*
G02*
X131135000Y-68695000I-75000J0D01*
G01*
X130985000Y-68695000D01*
G75*
G02*
X130910000Y-68620000I0J75000D01*
G01*
G37*
%TD.AperFunction*%
%TO.P,U1,27*%
%TO.N,Net-(J1-Pad5)*%
%TA.AperFunction,SMDPad,CuDef*%
G36*
G01*
X131410000Y-68620000D02*
X131410000Y-67270000D01*
G75*
G02*
X131485000Y-67195000I75000J0D01*
G01*
X131635000Y-67195000D01*
G75*
G02*
X131710000Y-67270000I0J-75000D01*
G01*
X131710000Y-68620000D01*
G75*
G02*
X131635000Y-68695000I-75000J0D01*
G01*
X131485000Y-68695000D01*
G75*
G02*
X131410000Y-68620000I0J75000D01*
G01*
G37*
%TD.AperFunction*%
%TO.P,U1,26*%
%TO.N,Net-(J1-Pad3)*%
%TA.AperFunction,SMDPad,CuDef*%
G36*
G01*
X131910000Y-68620000D02*
X131910000Y-67270000D01*
G75*
G02*
X131985000Y-67195000I75000J0D01*
G01*
X132135000Y-67195000D01*
G75*
G02*
X132210000Y-67270000I0J-75000D01*
G01*
X132210000Y-68620000D01*
G75*
G02*
X132135000Y-68695000I-75000J0D01*
G01*
X131985000Y-68695000D01*
G75*
G02*
X131910000Y-68620000I0J75000D01*
G01*
G37*
%TD.AperFunction*%
%TO.P,U1,25*%
%TO.N,Net-(J1-Pad1)*%
%TA.AperFunction,SMDPad,CuDef*%
G36*
G01*
X132410000Y-68620000D02*
X132410000Y-67270000D01*
G75*
G02*
X132485000Y-67195000I75000J0D01*
G01*
X132635000Y-67195000D01*
G75*
G02*
X132710000Y-67270000I0J-75000D01*
G01*
X132710000Y-68620000D01*
G75*
G02*
X132635000Y-68695000I-75000J0D01*
G01*
X132485000Y-68695000D01*
G75*
G02*
X132410000Y-68620000I0J75000D01*
G01*
G37*
%TD.AperFunction*%
%TO.P,U1,24*%
%TO.N,Net-(J3-Pad15)*%
%TA.AperFunction,SMDPad,CuDef*%
G36*
G01*
X133235000Y-69445000D02*
X133235000Y-69295000D01*
G75*
G02*
X133310000Y-69220000I75000J0D01*
G01*
X134660000Y-69220000D01*
G75*
G02*
X134735000Y-69295000I0J-75000D01*
G01*
X134735000Y-69445000D01*
G75*
G02*
X134660000Y-69520000I-75000J0D01*
G01*
X133310000Y-69520000D01*
G75*
G02*
X133235000Y-69445000I0J75000D01*
G01*
G37*
%TD.AperFunction*%
%TO.P,U1,23*%
%TO.N,Net-(J3-Pad13)*%
%TA.AperFunction,SMDPad,CuDef*%
G36*
G01*
X133235000Y-69945000D02*
X133235000Y-69795000D01*
G75*
G02*
X133310000Y-69720000I75000J0D01*
G01*
X134660000Y-69720000D01*
G75*
G02*
X134735000Y-69795000I0J-75000D01*
G01*
X134735000Y-69945000D01*
G75*
G02*
X134660000Y-70020000I-75000J0D01*
G01*
X133310000Y-70020000D01*
G75*
G02*
X133235000Y-69945000I0J75000D01*
G01*
G37*
%TD.AperFunction*%
%TO.P,U1,22*%
%TO.N,Net-(J3-Pad11)*%
%TA.AperFunction,SMDPad,CuDef*%
G36*
G01*
X133235000Y-70445000D02*
X133235000Y-70295000D01*
G75*
G02*
X133310000Y-70220000I75000J0D01*
G01*
X134660000Y-70220000D01*
G75*
G02*
X134735000Y-70295000I0J-75000D01*
G01*
X134735000Y-70445000D01*
G75*
G02*
X134660000Y-70520000I-75000J0D01*
G01*
X133310000Y-70520000D01*
G75*
G02*
X133235000Y-70445000I0J75000D01*
G01*
G37*
%TD.AperFunction*%
%TO.P,U1,21*%
%TO.N,Net-(J3-Pad9)*%
%TA.AperFunction,SMDPad,CuDef*%
G36*
G01*
X133235000Y-70945000D02*
X133235000Y-70795000D01*
G75*
G02*
X133310000Y-70720000I75000J0D01*
G01*
X134660000Y-70720000D01*
G75*
G02*
X134735000Y-70795000I0J-75000D01*
G01*
X134735000Y-70945000D01*
G75*
G02*
X134660000Y-71020000I-75000J0D01*
G01*
X133310000Y-71020000D01*
G75*
G02*
X133235000Y-70945000I0J75000D01*
G01*
G37*
%TD.AperFunction*%
%TO.P,U1,20*%
%TO.N,Net-(J3-Pad7)*%
%TA.AperFunction,SMDPad,CuDef*%
G36*
G01*
X133235000Y-71445000D02*
X133235000Y-71295000D01*
G75*
G02*
X133310000Y-71220000I75000J0D01*
G01*
X134660000Y-71220000D01*
G75*
G02*
X134735000Y-71295000I0J-75000D01*
G01*
X134735000Y-71445000D01*
G75*
G02*
X134660000Y-71520000I-75000J0D01*
G01*
X133310000Y-71520000D01*
G75*
G02*
X133235000Y-71445000I0J75000D01*
G01*
G37*
%TD.AperFunction*%
%TO.P,U1,19*%
%TO.N,Net-(J3-Pad5)*%
%TA.AperFunction,SMDPad,CuDef*%
G36*
G01*
X133235000Y-71945000D02*
X133235000Y-71795000D01*
G75*
G02*
X133310000Y-71720000I75000J0D01*
G01*
X134660000Y-71720000D01*
G75*
G02*
X134735000Y-71795000I0J-75000D01*
G01*
X134735000Y-71945000D01*
G75*
G02*
X134660000Y-72020000I-75000J0D01*
G01*
X133310000Y-72020000D01*
G75*
G02*
X133235000Y-71945000I0J75000D01*
G01*
G37*
%TD.AperFunction*%
%TO.P,U1,18*%
%TO.N,Net-(J3-Pad3)*%
%TA.AperFunction,SMDPad,CuDef*%
G36*
G01*
X133235000Y-72445000D02*
X133235000Y-72295000D01*
G75*
G02*
X133310000Y-72220000I75000J0D01*
G01*
X134660000Y-72220000D01*
G75*
G02*
X134735000Y-72295000I0J-75000D01*
G01*
X134735000Y-72445000D01*
G75*
G02*
X134660000Y-72520000I-75000J0D01*
G01*
X133310000Y-72520000D01*
G75*
G02*
X133235000Y-72445000I0J75000D01*
G01*
G37*
%TD.AperFunction*%
%TO.P,U1,17*%
%TO.N,Net-(J3-Pad1)*%
%TA.AperFunction,SMDPad,CuDef*%
G36*
G01*
X133235000Y-72945000D02*
X133235000Y-72795000D01*
G75*
G02*
X133310000Y-72720000I75000J0D01*
G01*
X134660000Y-72720000D01*
G75*
G02*
X134735000Y-72795000I0J-75000D01*
G01*
X134735000Y-72945000D01*
G75*
G02*
X134660000Y-73020000I-75000J0D01*
G01*
X133310000Y-73020000D01*
G75*
G02*
X133235000Y-72945000I0J75000D01*
G01*
G37*
%TD.AperFunction*%
%TO.P,U1,16*%
%TO.N,Net-(J4-Pad15)*%
%TA.AperFunction,SMDPad,CuDef*%
G36*
G01*
X132410000Y-74970000D02*
X132410000Y-73620000D01*
G75*
G02*
X132485000Y-73545000I75000J0D01*
G01*
X132635000Y-73545000D01*
G75*
G02*
X132710000Y-73620000I0J-75000D01*
G01*
X132710000Y-74970000D01*
G75*
G02*
X132635000Y-75045000I-75000J0D01*
G01*
X132485000Y-75045000D01*
G75*
G02*
X132410000Y-74970000I0J75000D01*
G01*
G37*
%TD.AperFunction*%
%TO.P,U1,15*%
%TO.N,Net-(J4-Pad13)*%
%TA.AperFunction,SMDPad,CuDef*%
G36*
G01*
X131910000Y-74970000D02*
X131910000Y-73620000D01*
G75*
G02*
X131985000Y-73545000I75000J0D01*
G01*
X132135000Y-73545000D01*
G75*
G02*
X132210000Y-73620000I0J-75000D01*
G01*
X132210000Y-74970000D01*
G75*
G02*
X132135000Y-75045000I-75000J0D01*
G01*
X131985000Y-75045000D01*
G75*
G02*
X131910000Y-74970000I0J75000D01*
G01*
G37*
%TD.AperFunction*%
%TO.P,U1,14*%
%TO.N,Net-(J4-Pad11)*%
%TA.AperFunction,SMDPad,CuDef*%
G36*
G01*
X131410000Y-74970000D02*
X131410000Y-73620000D01*
G75*
G02*
X131485000Y-73545000I75000J0D01*
G01*
X131635000Y-73545000D01*
G75*
G02*
X131710000Y-73620000I0J-75000D01*
G01*
X131710000Y-74970000D01*
G75*
G02*
X131635000Y-75045000I-75000J0D01*
G01*
X131485000Y-75045000D01*
G75*
G02*
X131410000Y-74970000I0J75000D01*
G01*
G37*
%TD.AperFunction*%
%TO.P,U1,13*%
%TO.N,Net-(J4-Pad9)*%
%TA.AperFunction,SMDPad,CuDef*%
G36*
G01*
X130910000Y-74970000D02*
X130910000Y-73620000D01*
G75*
G02*
X130985000Y-73545000I75000J0D01*
G01*
X131135000Y-73545000D01*
G75*
G02*
X131210000Y-73620000I0J-75000D01*
G01*
X131210000Y-74970000D01*
G75*
G02*
X131135000Y-75045000I-75000J0D01*
G01*
X130985000Y-75045000D01*
G75*
G02*
X130910000Y-74970000I0J75000D01*
G01*
G37*
%TD.AperFunction*%
%TO.P,U1,12*%
%TO.N,Net-(J4-Pad7)*%
%TA.AperFunction,SMDPad,CuDef*%
G36*
G01*
X130410000Y-74970000D02*
X130410000Y-73620000D01*
G75*
G02*
X130485000Y-73545000I75000J0D01*
G01*
X130635000Y-73545000D01*
G75*
G02*
X130710000Y-73620000I0J-75000D01*
G01*
X130710000Y-74970000D01*
G75*
G02*
X130635000Y-75045000I-75000J0D01*
G01*
X130485000Y-75045000D01*
G75*
G02*
X130410000Y-74970000I0J75000D01*
G01*
G37*
%TD.AperFunction*%
%TO.P,U1,11*%
%TO.N,Net-(J4-Pad5)*%
%TA.AperFunction,SMDPad,CuDef*%
G36*
G01*
X129910000Y-74970000D02*
X129910000Y-73620000D01*
G75*
G02*
X129985000Y-73545000I75000J0D01*
G01*
X130135000Y-73545000D01*
G75*
G02*
X130210000Y-73620000I0J-75000D01*
G01*
X130210000Y-74970000D01*
G75*
G02*
X130135000Y-75045000I-75000J0D01*
G01*
X129985000Y-75045000D01*
G75*
G02*
X129910000Y-74970000I0J75000D01*
G01*
G37*
%TD.AperFunction*%
%TO.P,U1,10*%
%TO.N,Net-(J4-Pad3)*%
%TA.AperFunction,SMDPad,CuDef*%
G36*
G01*
X129410000Y-74970000D02*
X129410000Y-73620000D01*
G75*
G02*
X129485000Y-73545000I75000J0D01*
G01*
X129635000Y-73545000D01*
G75*
G02*
X129710000Y-73620000I0J-75000D01*
G01*
X129710000Y-74970000D01*
G75*
G02*
X129635000Y-75045000I-75000J0D01*
G01*
X129485000Y-75045000D01*
G75*
G02*
X129410000Y-74970000I0J75000D01*
G01*
G37*
%TD.AperFunction*%
%TO.P,U1,9*%
%TO.N,Net-(J4-Pad1)*%
%TA.AperFunction,SMDPad,CuDef*%
G36*
G01*
X128910000Y-74970000D02*
X128910000Y-73620000D01*
G75*
G02*
X128985000Y-73545000I75000J0D01*
G01*
X129135000Y-73545000D01*
G75*
G02*
X129210000Y-73620000I0J-75000D01*
G01*
X129210000Y-74970000D01*
G75*
G02*
X129135000Y-75045000I-75000J0D01*
G01*
X128985000Y-75045000D01*
G75*
G02*
X128910000Y-74970000I0J75000D01*
G01*
G37*
%TD.AperFunction*%
%TO.P,U1,8*%
%TO.N,Net-(J2-Pad15)*%
%TA.AperFunction,SMDPad,CuDef*%
G36*
G01*
X126885000Y-72945000D02*
X126885000Y-72795000D01*
G75*
G02*
X126960000Y-72720000I75000J0D01*
G01*
X128310000Y-72720000D01*
G75*
G02*
X128385000Y-72795000I0J-75000D01*
G01*
X128385000Y-72945000D01*
G75*
G02*
X128310000Y-73020000I-75000J0D01*
G01*
X126960000Y-73020000D01*
G75*
G02*
X126885000Y-72945000I0J75000D01*
G01*
G37*
%TD.AperFunction*%
%TO.P,U1,7*%
%TO.N,Net-(J2-Pad13)*%
%TA.AperFunction,SMDPad,CuDef*%
G36*
G01*
X126885000Y-72445000D02*
X126885000Y-72295000D01*
G75*
G02*
X126960000Y-72220000I75000J0D01*
G01*
X128310000Y-72220000D01*
G75*
G02*
X128385000Y-72295000I0J-75000D01*
G01*
X128385000Y-72445000D01*
G75*
G02*
X128310000Y-72520000I-75000J0D01*
G01*
X126960000Y-72520000D01*
G75*
G02*
X126885000Y-72445000I0J75000D01*
G01*
G37*
%TD.AperFunction*%
%TO.P,U1,6*%
%TO.N,Net-(J2-Pad11)*%
%TA.AperFunction,SMDPad,CuDef*%
G36*
G01*
X126885000Y-71945000D02*
X126885000Y-71795000D01*
G75*
G02*
X126960000Y-71720000I75000J0D01*
G01*
X128310000Y-71720000D01*
G75*
G02*
X128385000Y-71795000I0J-75000D01*
G01*
X128385000Y-71945000D01*
G75*
G02*
X128310000Y-72020000I-75000J0D01*
G01*
X126960000Y-72020000D01*
G75*
G02*
X126885000Y-71945000I0J75000D01*
G01*
G37*
%TD.AperFunction*%
%TO.P,U1,5*%
%TO.N,Net-(J2-Pad9)*%
%TA.AperFunction,SMDPad,CuDef*%
G36*
G01*
X126885000Y-71445000D02*
X126885000Y-71295000D01*
G75*
G02*
X126960000Y-71220000I75000J0D01*
G01*
X128310000Y-71220000D01*
G75*
G02*
X128385000Y-71295000I0J-75000D01*
G01*
X128385000Y-71445000D01*
G75*
G02*
X128310000Y-71520000I-75000J0D01*
G01*
X126960000Y-71520000D01*
G75*
G02*
X126885000Y-71445000I0J75000D01*
G01*
G37*
%TD.AperFunction*%
%TO.P,U1,4*%
%TO.N,Net-(J2-Pad7)*%
%TA.AperFunction,SMDPad,CuDef*%
G36*
G01*
X126885000Y-70945000D02*
X126885000Y-70795000D01*
G75*
G02*
X126960000Y-70720000I75000J0D01*
G01*
X128310000Y-70720000D01*
G75*
G02*
X128385000Y-70795000I0J-75000D01*
G01*
X128385000Y-70945000D01*
G75*
G02*
X128310000Y-71020000I-75000J0D01*
G01*
X126960000Y-71020000D01*
G75*
G02*
X126885000Y-70945000I0J75000D01*
G01*
G37*
%TD.AperFunction*%
%TO.P,U1,3*%
%TO.N,Net-(J2-Pad5)*%
%TA.AperFunction,SMDPad,CuDef*%
G36*
G01*
X126885000Y-70445000D02*
X126885000Y-70295000D01*
G75*
G02*
X126960000Y-70220000I75000J0D01*
G01*
X128310000Y-70220000D01*
G75*
G02*
X128385000Y-70295000I0J-75000D01*
G01*
X128385000Y-70445000D01*
G75*
G02*
X128310000Y-70520000I-75000J0D01*
G01*
X126960000Y-70520000D01*
G75*
G02*
X126885000Y-70445000I0J75000D01*
G01*
G37*
%TD.AperFunction*%
%TO.P,U1,2*%
%TO.N,Net-(J2-Pad3)*%
%TA.AperFunction,SMDPad,CuDef*%
G36*
G01*
X126885000Y-69945000D02*
X126885000Y-69795000D01*
G75*
G02*
X126960000Y-69720000I75000J0D01*
G01*
X128310000Y-69720000D01*
G75*
G02*
X128385000Y-69795000I0J-75000D01*
G01*
X128385000Y-69945000D01*
G75*
G02*
X128310000Y-70020000I-75000J0D01*
G01*
X126960000Y-70020000D01*
G75*
G02*
X126885000Y-69945000I0J75000D01*
G01*
G37*
%TD.AperFunction*%
%TO.P,U1,1*%
%TO.N,Net-(J2-Pad1)*%
%TA.AperFunction,SMDPad,CuDef*%
G36*
G01*
X126885000Y-69445000D02*
X126885000Y-69295000D01*
G75*
G02*
X126960000Y-69220000I75000J0D01*
G01*
X128310000Y-69220000D01*
G75*
G02*
X128385000Y-69295000I0J-75000D01*
G01*
X128385000Y-69445000D01*
G75*
G02*
X128310000Y-69520000I-75000J0D01*
G01*
X126960000Y-69520000D01*
G75*
G02*
X126885000Y-69445000I0J75000D01*
G01*
G37*
%TD.AperFunction*%
%TD*%
D12*
%TO.N,Net-(J1-Pad8)*%
X131060000Y-58805000D02*
X131445000Y-58420000D01*
X131060000Y-65445000D02*
X131060000Y-58805000D01*
%TO.N,Net-(J1-Pad7)*%
X131560000Y-59575000D02*
X132715000Y-58420000D01*
X131560000Y-65445000D02*
X131560000Y-59575000D01*
X131560000Y-66073570D02*
X131560000Y-65445000D01*
X131060000Y-66573570D02*
X131560000Y-66073570D01*
X131060000Y-67945000D02*
X131060000Y-66573570D01*
%TO.N,Net-(J1-Pad6)*%
X132060000Y-64604298D02*
X132080000Y-64584298D01*
X132060000Y-65445000D02*
X132060000Y-64604298D01*
X132060000Y-60345000D02*
X133985000Y-58420000D01*
X132060000Y-65445000D02*
X132060000Y-60345000D01*
%TO.N,Net-(J1-Pad5)*%
X132560000Y-61115000D02*
X135255000Y-58420000D01*
X132560000Y-65445000D02*
X132560000Y-61115000D01*
X132560000Y-66195000D02*
X132560000Y-65445000D01*
X131560000Y-67195000D02*
X132560000Y-66195000D01*
X131560000Y-67945000D02*
X131560000Y-67195000D01*
%TO.N,Net-(J1-Pad4)*%
X133060000Y-61885000D02*
X136525000Y-58420000D01*
X133060000Y-65445000D02*
X133060000Y-61885000D01*
%TO.N,Net-(J1-Pad3)*%
X133560000Y-62655000D02*
X137795000Y-58420000D01*
X133560000Y-65445000D02*
X133560000Y-62655000D01*
X133560000Y-66220000D02*
X133560000Y-65445000D01*
X133038566Y-66741434D02*
X133560000Y-66220000D01*
X132659996Y-66741434D02*
X133038566Y-66741434D01*
X132060000Y-67341430D02*
X132659996Y-66741434D01*
X132060000Y-67945000D02*
X132060000Y-67341430D01*
%TO.N,Net-(J1-Pad2)*%
X134060000Y-63425000D02*
X134060000Y-65445000D01*
X139065000Y-58420000D02*
X134060000Y-63425000D01*
%TO.N,Net-(J1-Pad1)*%
X134560000Y-64195000D02*
X140335000Y-58420000D01*
X134560000Y-65445000D02*
X134560000Y-64195000D01*
X134560000Y-66095000D02*
X134560000Y-65445000D01*
X132710000Y-67945000D02*
X134560000Y-66095000D01*
X132560000Y-67945000D02*
X132710000Y-67945000D01*
%TO.N,Net-(J2-Pad8)*%
X118495000Y-70870000D02*
X118110000Y-70485000D01*
X125135000Y-70870000D02*
X118495000Y-70870000D01*
%TO.N,Net-(J2-Pad7)*%
X125763570Y-70370000D02*
X125135000Y-70370000D01*
X126263570Y-70870000D02*
X125763570Y-70370000D01*
X127635000Y-70870000D02*
X126263570Y-70870000D01*
X119265000Y-70370000D02*
X118110000Y-69215000D01*
X125135000Y-70370000D02*
X119265000Y-70370000D01*
%TO.N,Net-(J2-Pad6)*%
X120035000Y-69870000D02*
X118110000Y-67945000D01*
X125135000Y-69870000D02*
X120035000Y-69870000D01*
%TO.N,Net-(J2-Pad5)*%
X125763570Y-69370000D02*
X125135000Y-69370000D01*
X126763570Y-70370000D02*
X125763570Y-69370000D01*
X127635000Y-70370000D02*
X126763570Y-70370000D01*
X120805000Y-69370000D02*
X118110000Y-66675000D01*
X125135000Y-69370000D02*
X120805000Y-69370000D01*
%TO.N,Net-(J2-Pad4)*%
X121304002Y-68870000D02*
X118110000Y-65675998D01*
X118110000Y-65675998D02*
X118110000Y-65405000D01*
X125135000Y-68870000D02*
X121304002Y-68870000D01*
%TO.N,Net-(J2-Pad3)*%
X125763570Y-68370000D02*
X125135000Y-68370000D01*
X126085010Y-68691440D02*
X125763570Y-68370000D01*
X126085010Y-69070010D02*
X126085010Y-68691440D01*
X126885000Y-69870000D02*
X126085010Y-69070010D01*
X127635000Y-69870000D02*
X126885000Y-69870000D01*
X122345000Y-68370000D02*
X118110000Y-64135000D01*
X125135000Y-68370000D02*
X122345000Y-68370000D01*
%TO.N,Net-(J2-Pad2)*%
X118110000Y-63135998D02*
X118110000Y-62865000D01*
X122844002Y-67870000D02*
X118110000Y-63135998D01*
X125135000Y-67870000D02*
X122844002Y-67870000D01*
%TO.N,Net-(J2-Pad1)*%
X125785000Y-67370000D02*
X125135000Y-67370000D01*
X127635000Y-69220000D02*
X125785000Y-67370000D01*
X127635000Y-69370000D02*
X127635000Y-69220000D01*
X123885000Y-67370000D02*
X118110000Y-61595000D01*
X125135000Y-67370000D02*
X123885000Y-67370000D01*
%TO.N,Net-(J3-Pad8)*%
X143125000Y-71370000D02*
X143510000Y-71755000D01*
X136485000Y-71370000D02*
X143125000Y-71370000D01*
%TO.N,Net-(J3-Pad7)*%
X142355000Y-71870000D02*
X143510000Y-73025000D01*
X136485000Y-71870000D02*
X142355000Y-71870000D01*
X135856430Y-71870000D02*
X136485000Y-71870000D01*
X135356430Y-71370000D02*
X135856430Y-71870000D01*
X133985000Y-71370000D02*
X135356430Y-71370000D01*
%TO.N,Net-(J3-Pad6)*%
X141585000Y-72370000D02*
X143510000Y-74295000D01*
X136485000Y-72370000D02*
X141585000Y-72370000D01*
%TO.N,Net-(J3-Pad5)*%
X140815000Y-72870000D02*
X143510000Y-75565000D01*
X136485000Y-72870000D02*
X140815000Y-72870000D01*
X135856430Y-72870000D02*
X136485000Y-72870000D01*
X134856430Y-71870000D02*
X135856430Y-72870000D01*
X133985000Y-71870000D02*
X134856430Y-71870000D01*
%TO.N,Net-(J3-Pad4)*%
X140045000Y-73370000D02*
X143510000Y-76835000D01*
X136485000Y-73370000D02*
X140045000Y-73370000D01*
%TO.N,Net-(J3-Pad3)*%
X139275000Y-73870000D02*
X143510000Y-78105000D01*
X136485000Y-73870000D02*
X139275000Y-73870000D01*
X135534990Y-73548560D02*
X135856430Y-73870000D01*
X135856430Y-73870000D02*
X136485000Y-73870000D01*
X134735000Y-72370000D02*
X135534990Y-73169990D01*
X135534990Y-73169990D02*
X135534990Y-73548560D01*
X133985000Y-72370000D02*
X134735000Y-72370000D01*
%TO.N,Net-(J3-Pad2)*%
X138505000Y-74370000D02*
X143510000Y-79375000D01*
X136485000Y-74370000D02*
X138505000Y-74370000D01*
%TO.N,Net-(J3-Pad1)*%
X135835000Y-74870000D02*
X136485000Y-74870000D01*
X133985000Y-73020000D02*
X135835000Y-74870000D01*
X133985000Y-72870000D02*
X133985000Y-73020000D01*
X137735000Y-74870000D02*
X143510000Y-80645000D01*
X136485000Y-74870000D02*
X137735000Y-74870000D01*
%TO.N,Net-(J4-Pad8)*%
X130560000Y-83435000D02*
X130175000Y-83820000D01*
X130560000Y-76795000D02*
X130560000Y-83435000D01*
%TO.N,Net-(J4-Pad7)*%
X130060000Y-76166430D02*
X130060000Y-76795000D01*
X130560000Y-75666430D02*
X130060000Y-76166430D01*
X130560000Y-74295000D02*
X130560000Y-75666430D01*
X130060000Y-82665000D02*
X128905000Y-83820000D01*
X130060000Y-76795000D02*
X130060000Y-82665000D01*
%TO.N,Net-(J4-Pad6)*%
X129560000Y-81895000D02*
X127635000Y-83820000D01*
X129560000Y-76795000D02*
X129560000Y-81895000D01*
%TO.N,Net-(J4-Pad5)*%
X129060000Y-76166430D02*
X129060000Y-76795000D01*
X130060000Y-75166430D02*
X129060000Y-76166430D01*
X130060000Y-74295000D02*
X130060000Y-75166430D01*
X126635998Y-83820000D02*
X126365000Y-83820000D01*
X129060000Y-81395998D02*
X126635998Y-83820000D01*
X129060000Y-76795000D02*
X129060000Y-81395998D01*
%TO.N,Net-(J4-Pad4)*%
X128560000Y-80355000D02*
X125095000Y-83820000D01*
X128560000Y-76795000D02*
X128560000Y-80355000D01*
%TO.N,Net-(J4-Pad3)*%
X128060000Y-76166430D02*
X128060000Y-76795000D01*
X129292136Y-75312864D02*
X128913566Y-75312864D01*
X129560000Y-75045000D02*
X129292136Y-75312864D01*
X128913566Y-75312864D02*
X128060000Y-76166430D01*
X129560000Y-74295000D02*
X129560000Y-75045000D01*
X128060000Y-79585000D02*
X123825000Y-83820000D01*
X128060000Y-76795000D02*
X128060000Y-79585000D01*
%TO.N,Net-(J4-Pad2)*%
X122825998Y-83820000D02*
X122555000Y-83820000D01*
X127560000Y-79085998D02*
X122825998Y-83820000D01*
X127560000Y-76795000D02*
X127560000Y-79085998D01*
%TO.N,Net-(J4-Pad1)*%
X127060000Y-76145000D02*
X127060000Y-76795000D01*
X128910000Y-74295000D02*
X127060000Y-76145000D01*
X129060000Y-74295000D02*
X128910000Y-74295000D01*
X127060000Y-78045000D02*
X121285000Y-83820000D01*
X127060000Y-76795000D02*
X127060000Y-78045000D01*
%TO.N,Net-(J1-Pad15)*%
X127560000Y-63425000D02*
X122555000Y-58420000D01*
X127560000Y-65445000D02*
X127560000Y-63425000D01*
X127560000Y-66445000D02*
X127560000Y-65445000D01*
X129060000Y-67945000D02*
X127560000Y-66445000D01*
%TO.N,Net-(J1-Pad13)*%
X128535010Y-61860010D02*
X125095000Y-58420000D01*
X128535010Y-65035010D02*
X128535010Y-61860010D01*
X128560000Y-65060000D02*
X128535010Y-65035010D01*
X128560000Y-65445000D02*
X128560000Y-65060000D01*
X128560000Y-66073570D02*
X128560000Y-65445000D01*
X129560000Y-67073570D02*
X128560000Y-66073570D01*
X129560000Y-67945000D02*
X129560000Y-67073570D01*
%TO.N,Net-(J1-Pad11)*%
X129560000Y-60345000D02*
X127635000Y-58420000D01*
X129560000Y-65445000D02*
X129560000Y-60345000D01*
X129560000Y-66073570D02*
X129560000Y-65445000D01*
X130060000Y-66573570D02*
X129560000Y-66073570D01*
X130060000Y-67945000D02*
X130060000Y-66573570D01*
%TO.N,Net-(J1-Pad9)*%
X130560000Y-58805000D02*
X130175000Y-58420000D01*
X130560000Y-65445000D02*
X130560000Y-58805000D01*
X130560000Y-67945000D02*
X130560000Y-65445000D01*
%TO.N,Net-(J3-Pad15)*%
X135485000Y-67870000D02*
X136485000Y-67870000D01*
X133985000Y-69370000D02*
X135485000Y-67870000D01*
X143510000Y-63135998D02*
X143510000Y-62865000D01*
X138775998Y-67870000D02*
X143510000Y-63135998D01*
X136485000Y-67870000D02*
X138775998Y-67870000D01*
%TO.N,Net-(J3-Pad13)*%
X135856430Y-68870000D02*
X136485000Y-68870000D01*
X134856430Y-69870000D02*
X135856430Y-68870000D01*
X133985000Y-69870000D02*
X134856430Y-69870000D01*
X140315998Y-68870000D02*
X143510000Y-65675998D01*
X143510000Y-65675998D02*
X143510000Y-65405000D01*
X136485000Y-68870000D02*
X140315998Y-68870000D01*
%TO.N,Net-(J3-Pad11)*%
X135856430Y-69870000D02*
X136485000Y-69870000D01*
X135356430Y-70370000D02*
X135856430Y-69870000D01*
X133985000Y-70370000D02*
X135356430Y-70370000D01*
X141585000Y-69870000D02*
X143510000Y-67945000D01*
X136485000Y-69870000D02*
X141585000Y-69870000D01*
%TO.N,Net-(J3-Pad9)*%
X133985000Y-70870000D02*
X136485000Y-70870000D01*
X143125000Y-70870000D02*
X143510000Y-70485000D01*
X136485000Y-70870000D02*
X143125000Y-70870000D01*
%TO.N,Net-(J4-Pad15)*%
X134060000Y-75166430D02*
X134060000Y-76795000D01*
X133188570Y-74295000D02*
X134060000Y-75166430D01*
X132560000Y-74295000D02*
X133188570Y-74295000D01*
X134060000Y-78815000D02*
X139065000Y-83820000D01*
X134060000Y-76795000D02*
X134060000Y-78815000D01*
%TO.N,Net-(J4-Pad13)*%
X133060000Y-76166430D02*
X133060000Y-76795000D01*
X132060000Y-75166430D02*
X133060000Y-76166430D01*
X132060000Y-74295000D02*
X132060000Y-75166430D01*
X133060000Y-80355000D02*
X136525000Y-83820000D01*
X133060000Y-76795000D02*
X133060000Y-80355000D01*
%TO.N,Net-(J4-Pad11)*%
X131560000Y-75666430D02*
X132080000Y-76186430D01*
X131560000Y-74295000D02*
X131560000Y-75666430D01*
X132080000Y-76775000D02*
X132060000Y-76795000D01*
X132080000Y-76186430D02*
X132080000Y-76775000D01*
X132060000Y-81895000D02*
X133985000Y-83820000D01*
X132060000Y-76795000D02*
X132060000Y-81895000D01*
%TO.N,Net-(J4-Pad9)*%
X131060000Y-74295000D02*
X131060000Y-76795000D01*
X131060000Y-83435000D02*
X131445000Y-83820000D01*
X131060000Y-76795000D02*
X131060000Y-83435000D01*
%TO.N,Net-(J2-Pad15)*%
X126135000Y-74370000D02*
X125135000Y-74370000D01*
X127635000Y-72870000D02*
X126135000Y-74370000D01*
X118110000Y-79104002D02*
X118110000Y-79375000D01*
X122844002Y-74370000D02*
X118110000Y-79104002D01*
X125135000Y-74370000D02*
X122844002Y-74370000D01*
%TO.N,Net-(J2-Pad13)*%
X125763570Y-73370000D02*
X125135000Y-73370000D01*
X126763570Y-72370000D02*
X125763570Y-73370000D01*
X127635000Y-72370000D02*
X126763570Y-72370000D01*
X121575000Y-73370000D02*
X118110000Y-76835000D01*
X125135000Y-73370000D02*
X121575000Y-73370000D01*
%TO.N,Net-(J2-Pad11)*%
X120035000Y-72370000D02*
X118110000Y-74295000D01*
X125135000Y-72370000D02*
X120035000Y-72370000D01*
X125763570Y-72370000D02*
X125135000Y-72370000D01*
X126263570Y-71870000D02*
X125763570Y-72370000D01*
X127635000Y-71870000D02*
X126263570Y-71870000D01*
%TO.N,Net-(J2-Pad9)*%
X127635000Y-71370000D02*
X125135000Y-71370000D01*
X118495000Y-71370000D02*
X118110000Y-71755000D01*
X125135000Y-71370000D02*
X118495000Y-71370000D01*
%TO.N,Net-(J1-Pad16)*%
X127060000Y-64195000D02*
X121285000Y-58420000D01*
X127060000Y-65445000D02*
X127060000Y-64195000D01*
%TO.N,Net-(J1-Pad14)*%
X128060000Y-62655000D02*
X123825000Y-58420000D01*
X128060000Y-65445000D02*
X128060000Y-62655000D01*
%TO.N,Net-(J1-Pad12)*%
X129060000Y-61115000D02*
X126365000Y-58420000D01*
X129060000Y-65445000D02*
X129060000Y-61115000D01*
%TO.N,Net-(J1-Pad10)*%
X130060000Y-59575000D02*
X128905000Y-58420000D01*
X130060000Y-65445000D02*
X130060000Y-59575000D01*
%TO.N,Net-(J3-Pad16)*%
X137735000Y-67370000D02*
X143510000Y-61595000D01*
X136485000Y-67370000D02*
X137735000Y-67370000D01*
%TO.N,Net-(J3-Pad14)*%
X143510000Y-64405998D02*
X143510000Y-64135000D01*
X139545998Y-68370000D02*
X143510000Y-64405998D01*
X136485000Y-68370000D02*
X139545998Y-68370000D01*
%TO.N,Net-(J3-Pad12)*%
X140639990Y-69545010D02*
X143510000Y-66675000D01*
X137260000Y-69370000D02*
X137435010Y-69545010D01*
X137435010Y-69545010D02*
X140639990Y-69545010D01*
X136485000Y-69370000D02*
X137260000Y-69370000D01*
%TO.N,Net-(J3-Pad10)*%
X142355000Y-70370000D02*
X143510000Y-69215000D01*
X136485000Y-70370000D02*
X142355000Y-70370000D01*
%TO.N,Net-(J4-Pad16)*%
X134560000Y-78045000D02*
X140335000Y-83820000D01*
X134560000Y-76795000D02*
X134560000Y-78045000D01*
%TO.N,Net-(J4-Pad14)*%
X133560000Y-79585000D02*
X137795000Y-83820000D01*
X133560000Y-76795000D02*
X133560000Y-79585000D01*
%TO.N,Net-(J4-Pad12)*%
X132560000Y-81125000D02*
X135255000Y-83820000D01*
X132560000Y-76795000D02*
X132560000Y-81125000D01*
%TO.N,Net-(J4-Pad10)*%
X131710000Y-82815000D02*
X132715000Y-83820000D01*
X131710000Y-76945000D02*
X131710000Y-82815000D01*
X131560000Y-76795000D02*
X131710000Y-76945000D01*
%TO.N,Net-(J2-Pad16)*%
X123885000Y-74870000D02*
X118110000Y-80645000D01*
X125135000Y-74870000D02*
X123885000Y-74870000D01*
%TO.N,Net-(J2-Pad14)*%
X122345000Y-73870000D02*
X118110000Y-78105000D01*
X125135000Y-73870000D02*
X122345000Y-73870000D01*
%TO.N,Net-(J2-Pad12)*%
X120805000Y-72870000D02*
X118110000Y-75565000D01*
X125135000Y-72870000D02*
X120805000Y-72870000D01*
%TO.N,Net-(J2-Pad10)*%
X119265000Y-71870000D02*
X118110000Y-73025000D01*
X125135000Y-71870000D02*
X119265000Y-71870000D01*
%TD*%
D13*
%TO.N,GND*%
X132639609Y-49623651D02*
X134456036Y-49856253D01*
X136246192Y-50242062D01*
X137997181Y-50778296D01*
X139696386Y-51461093D01*
X141331565Y-52285532D01*
X142890935Y-53245675D01*
X144363262Y-54334602D01*
X145737938Y-55544469D01*
X147005057Y-56866557D01*
X148155490Y-58291342D01*
X149180949Y-59808558D01*
X150074045Y-61407273D01*
X150828343Y-63075968D01*
X151438408Y-64802621D01*
X151899845Y-66574791D01*
X152209329Y-68379709D01*
X152216626Y-68465439D01*
X152160537Y-68360506D01*
X152081185Y-68263815D01*
X151984494Y-68184463D01*
X151874180Y-68125498D01*
X151754482Y-68089188D01*
X151630000Y-68076928D01*
X151415750Y-68080000D01*
X151257000Y-68238750D01*
X151257000Y-69088000D01*
X152106250Y-69088000D01*
X152256800Y-68937450D01*
X152364631Y-70204371D01*
X152364631Y-72035629D01*
X152209329Y-73860291D01*
X151899845Y-75665209D01*
X151438408Y-77437379D01*
X150828343Y-79164032D01*
X150074045Y-80832727D01*
X149180949Y-82431442D01*
X148155490Y-83948658D01*
X147005057Y-85373443D01*
X145737938Y-86695531D01*
X144363262Y-87905398D01*
X142890935Y-88994325D01*
X141331565Y-89954468D01*
X139696386Y-90778907D01*
X137997181Y-91461704D01*
X136246192Y-91997938D01*
X134456036Y-92383747D01*
X133503717Y-92505696D01*
X133569494Y-92470537D01*
X133666185Y-92391185D01*
X133745537Y-92294494D01*
X133804502Y-92184180D01*
X133840812Y-92064482D01*
X133853072Y-91940000D01*
X133850000Y-91725750D01*
X133691250Y-91567000D01*
X132842000Y-91567000D01*
X132842000Y-92416250D01*
X132996409Y-92570659D01*
X132639609Y-92616349D01*
X130810000Y-92694070D01*
X128980391Y-92616349D01*
X127163964Y-92383747D01*
X125373808Y-91997938D01*
X124537678Y-91741876D01*
X127810874Y-91741876D01*
X127890790Y-91949529D01*
X128009682Y-92137601D01*
X128162980Y-92298865D01*
X128344794Y-92427123D01*
X128548136Y-92517446D01*
X128603126Y-92534119D01*
X128778000Y-92407954D01*
X128778000Y-91567000D01*
X129032000Y-91567000D01*
X129032000Y-92407954D01*
X129206874Y-92534119D01*
X129261864Y-92517446D01*
X129465206Y-92427123D01*
X129540000Y-92374361D01*
X129614794Y-92427123D01*
X129818136Y-92517446D01*
X129873126Y-92534119D01*
X130048000Y-92407954D01*
X130048000Y-91567000D01*
X130302000Y-91567000D01*
X130302000Y-92407954D01*
X130476874Y-92534119D01*
X130531864Y-92517446D01*
X130735206Y-92427123D01*
X130810000Y-92374361D01*
X130884794Y-92427123D01*
X131088136Y-92517446D01*
X131143126Y-92534119D01*
X131318000Y-92407954D01*
X131318000Y-91567000D01*
X131572000Y-91567000D01*
X131572000Y-92407954D01*
X131746874Y-92534119D01*
X131801864Y-92517446D01*
X131881820Y-92481930D01*
X131970820Y-92529502D01*
X132090518Y-92565812D01*
X132215000Y-92578072D01*
X132429250Y-92575000D01*
X132588000Y-92416250D01*
X132588000Y-91567000D01*
X131572000Y-91567000D01*
X131318000Y-91567000D01*
X130302000Y-91567000D01*
X130048000Y-91567000D01*
X129032000Y-91567000D01*
X128778000Y-91567000D01*
X127935871Y-91567000D01*
X127810874Y-91741876D01*
X124537678Y-91741876D01*
X123622819Y-91461704D01*
X122817560Y-91138124D01*
X127810874Y-91138124D01*
X127935871Y-91313000D01*
X128778000Y-91313000D01*
X128778000Y-90472046D01*
X129032000Y-90472046D01*
X129032000Y-91313000D01*
X130048000Y-91313000D01*
X130048000Y-90472046D01*
X130302000Y-90472046D01*
X130302000Y-91313000D01*
X131318000Y-91313000D01*
X131318000Y-90472046D01*
X131572000Y-90472046D01*
X131572000Y-91313000D01*
X132588000Y-91313000D01*
X132588000Y-90463750D01*
X132842000Y-90463750D01*
X132842000Y-91313000D01*
X133691250Y-91313000D01*
X133850000Y-91154250D01*
X133853072Y-90940000D01*
X133840812Y-90815518D01*
X133804502Y-90695820D01*
X133745537Y-90585506D01*
X133666185Y-90488815D01*
X133569494Y-90409463D01*
X133459180Y-90350498D01*
X133339482Y-90314188D01*
X133215000Y-90301928D01*
X133000750Y-90305000D01*
X132842000Y-90463750D01*
X132588000Y-90463750D01*
X132429250Y-90305000D01*
X132215000Y-90301928D01*
X132090518Y-90314188D01*
X131970820Y-90350498D01*
X131881820Y-90398070D01*
X131801864Y-90362554D01*
X131746874Y-90345881D01*
X131572000Y-90472046D01*
X131318000Y-90472046D01*
X131143126Y-90345881D01*
X131088136Y-90362554D01*
X130884794Y-90452877D01*
X130810000Y-90505639D01*
X130735206Y-90452877D01*
X130531864Y-90362554D01*
X130476874Y-90345881D01*
X130302000Y-90472046D01*
X130048000Y-90472046D01*
X129873126Y-90345881D01*
X129818136Y-90362554D01*
X129614794Y-90452877D01*
X129540000Y-90505639D01*
X129465206Y-90452877D01*
X129261864Y-90362554D01*
X129206874Y-90345881D01*
X129032000Y-90472046D01*
X128778000Y-90472046D01*
X128603126Y-90345881D01*
X128548136Y-90362554D01*
X128344794Y-90452877D01*
X128162980Y-90581135D01*
X128009682Y-90742399D01*
X127890790Y-90930471D01*
X127810874Y-91138124D01*
X122817560Y-91138124D01*
X121923614Y-90778907D01*
X120288435Y-89954468D01*
X118729065Y-88994325D01*
X117256738Y-87905398D01*
X115882062Y-86695531D01*
X114614943Y-85373443D01*
X113735375Y-84284117D01*
X115740000Y-84284117D01*
X115740000Y-84625883D01*
X115806675Y-84961081D01*
X115937463Y-85276831D01*
X116127337Y-85560998D01*
X116369002Y-85802663D01*
X116653169Y-85992537D01*
X116968919Y-86123325D01*
X117304117Y-86190000D01*
X117645883Y-86190000D01*
X117981081Y-86123325D01*
X118296831Y-85992537D01*
X118580998Y-85802663D01*
X118822663Y-85560998D01*
X119012537Y-85276831D01*
X119143325Y-84961081D01*
X119210000Y-84625883D01*
X119210000Y-84284117D01*
X119143325Y-83948919D01*
X119012537Y-83633169D01*
X118822663Y-83349002D01*
X118580998Y-83107337D01*
X118296831Y-82917463D01*
X117981081Y-82786675D01*
X117645883Y-82720000D01*
X117304117Y-82720000D01*
X116968919Y-82786675D01*
X116653169Y-82917463D01*
X116369002Y-83107337D01*
X116127337Y-83349002D01*
X115937463Y-83633169D01*
X115806675Y-83948919D01*
X115740000Y-84284117D01*
X113735375Y-84284117D01*
X113464510Y-83948658D01*
X112439051Y-82431442D01*
X111545955Y-80832727D01*
X110791657Y-79164032D01*
X110181592Y-77437379D01*
X109720155Y-75665209D01*
X109410671Y-73860291D01*
X109382134Y-73525000D01*
X109986928Y-73525000D01*
X109999188Y-73649482D01*
X110035498Y-73769180D01*
X110094463Y-73879494D01*
X110173815Y-73976185D01*
X110270506Y-74055537D01*
X110380820Y-74114502D01*
X110500518Y-74150812D01*
X110625000Y-74163072D01*
X110839250Y-74160000D01*
X110998000Y-74001250D01*
X110998000Y-73152000D01*
X111252000Y-73152000D01*
X111252000Y-74001250D01*
X111410750Y-74160000D01*
X111625000Y-74163072D01*
X111749482Y-74150812D01*
X111869180Y-74114502D01*
X111979494Y-74055537D01*
X112076185Y-73976185D01*
X112155537Y-73879494D01*
X112214502Y-73769180D01*
X112250812Y-73649482D01*
X112263072Y-73525000D01*
X112260000Y-73310750D01*
X112101250Y-73152000D01*
X111252000Y-73152000D01*
X110998000Y-73152000D01*
X110148750Y-73152000D01*
X109990000Y-73310750D01*
X109986928Y-73525000D01*
X109382134Y-73525000D01*
X109297021Y-72525000D01*
X109986928Y-72525000D01*
X109990000Y-72739250D01*
X110148750Y-72898000D01*
X110998000Y-72898000D01*
X110998000Y-71882000D01*
X111252000Y-71882000D01*
X111252000Y-72898000D01*
X112101250Y-72898000D01*
X112260000Y-72739250D01*
X112263072Y-72525000D01*
X112250812Y-72400518D01*
X112214502Y-72280820D01*
X112166930Y-72191820D01*
X112202446Y-72111864D01*
X112219119Y-72056874D01*
X112092954Y-71882000D01*
X111252000Y-71882000D01*
X110998000Y-71882000D01*
X110157046Y-71882000D01*
X110030881Y-72056874D01*
X110047554Y-72111864D01*
X110083070Y-72191820D01*
X110035498Y-72280820D01*
X109999188Y-72400518D01*
X109986928Y-72525000D01*
X109297021Y-72525000D01*
X109255369Y-72035629D01*
X109255369Y-70786874D01*
X110030881Y-70786874D01*
X110047554Y-70841864D01*
X110137877Y-71045206D01*
X110190639Y-71120000D01*
X110137877Y-71194794D01*
X110047554Y-71398136D01*
X110030881Y-71453126D01*
X110157046Y-71628000D01*
X110998000Y-71628000D01*
X110998000Y-70612000D01*
X111252000Y-70612000D01*
X111252000Y-71628000D01*
X112092954Y-71628000D01*
X112219119Y-71453126D01*
X112202446Y-71398136D01*
X112112123Y-71194794D01*
X112059361Y-71120000D01*
X112112123Y-71045206D01*
X112202446Y-70841864D01*
X112219119Y-70786874D01*
X112092954Y-70612000D01*
X111252000Y-70612000D01*
X110998000Y-70612000D01*
X110157046Y-70612000D01*
X110030881Y-70786874D01*
X109255369Y-70786874D01*
X109255369Y-70204371D01*
X109313883Y-69516874D01*
X110030881Y-69516874D01*
X110047554Y-69571864D01*
X110137877Y-69775206D01*
X110190639Y-69850000D01*
X110137877Y-69924794D01*
X110047554Y-70128136D01*
X110030881Y-70183126D01*
X110157046Y-70358000D01*
X110998000Y-70358000D01*
X110998000Y-69342000D01*
X111252000Y-69342000D01*
X111252000Y-70358000D01*
X112092954Y-70358000D01*
X112219119Y-70183126D01*
X112202446Y-70128136D01*
X112112123Y-69924794D01*
X112059361Y-69850000D01*
X112112123Y-69775206D01*
X112202446Y-69571864D01*
X112219119Y-69516874D01*
X112092954Y-69342000D01*
X111252000Y-69342000D01*
X110998000Y-69342000D01*
X110157046Y-69342000D01*
X110030881Y-69516874D01*
X109313883Y-69516874D01*
X109365270Y-68913126D01*
X110030881Y-68913126D01*
X110157046Y-69088000D01*
X110998000Y-69088000D01*
X110998000Y-68245871D01*
X111252000Y-68245871D01*
X111252000Y-69088000D01*
X112092954Y-69088000D01*
X112219119Y-68913126D01*
X112202446Y-68858136D01*
X112112123Y-68654794D01*
X111983865Y-68472980D01*
X111822601Y-68319682D01*
X111634529Y-68200790D01*
X111426876Y-68120874D01*
X111252000Y-68245871D01*
X110998000Y-68245871D01*
X110823124Y-68120874D01*
X110615471Y-68200790D01*
X110427399Y-68319682D01*
X110266135Y-68472980D01*
X110137877Y-68654794D01*
X110047554Y-68858136D01*
X110030881Y-68913126D01*
X109365270Y-68913126D01*
X109410671Y-68379709D01*
X109720155Y-66574791D01*
X110181592Y-64802621D01*
X110791657Y-63075968D01*
X111545955Y-61407273D01*
X111720401Y-61095000D01*
X116971928Y-61095000D01*
X116971928Y-62095000D01*
X116984188Y-62219482D01*
X117020498Y-62339180D01*
X117064888Y-62422226D01*
X117018617Y-62533933D01*
X116975000Y-62753212D01*
X116975000Y-62976788D01*
X117018617Y-63196067D01*
X117104176Y-63402624D01*
X117169241Y-63500000D01*
X117104176Y-63597376D01*
X117018617Y-63803933D01*
X116975000Y-64023212D01*
X116975000Y-64246788D01*
X117018617Y-64466067D01*
X117104176Y-64672624D01*
X117169241Y-64770000D01*
X117104176Y-64867376D01*
X117018617Y-65073933D01*
X116975000Y-65293212D01*
X116975000Y-65516788D01*
X117018617Y-65736067D01*
X117104176Y-65942624D01*
X117169241Y-66040000D01*
X117104176Y-66137376D01*
X117018617Y-66343933D01*
X116975000Y-66563212D01*
X116975000Y-66786788D01*
X117018617Y-67006067D01*
X117104176Y-67212624D01*
X117169241Y-67310000D01*
X117104176Y-67407376D01*
X117018617Y-67613933D01*
X116975000Y-67833212D01*
X116975000Y-68056788D01*
X117018617Y-68276067D01*
X117104176Y-68482624D01*
X117169241Y-68580000D01*
X117104176Y-68677376D01*
X117018617Y-68883933D01*
X116975000Y-69103212D01*
X116975000Y-69326788D01*
X117018617Y-69546067D01*
X117104176Y-69752624D01*
X117169241Y-69850000D01*
X117104176Y-69947376D01*
X117018617Y-70153933D01*
X116975000Y-70373212D01*
X116975000Y-70596788D01*
X117018617Y-70816067D01*
X117104176Y-71022624D01*
X117169241Y-71120000D01*
X117104176Y-71217376D01*
X117018617Y-71423933D01*
X116975000Y-71643212D01*
X116975000Y-71866788D01*
X117018617Y-72086067D01*
X117104176Y-72292624D01*
X117169241Y-72390000D01*
X117104176Y-72487376D01*
X117018617Y-72693933D01*
X116975000Y-72913212D01*
X116975000Y-73136788D01*
X117018617Y-73356067D01*
X117104176Y-73562624D01*
X117169241Y-73660000D01*
X117104176Y-73757376D01*
X117018617Y-73963933D01*
X116975000Y-74183212D01*
X116975000Y-74406788D01*
X117018617Y-74626067D01*
X117104176Y-74832624D01*
X117169241Y-74930000D01*
X117104176Y-75027376D01*
X117018617Y-75233933D01*
X116975000Y-75453212D01*
X116975000Y-75676788D01*
X117018617Y-75896067D01*
X117104176Y-76102624D01*
X117169241Y-76200000D01*
X117104176Y-76297376D01*
X117018617Y-76503933D01*
X116975000Y-76723212D01*
X116975000Y-76946788D01*
X117018617Y-77166067D01*
X117104176Y-77372624D01*
X117169241Y-77470000D01*
X117104176Y-77567376D01*
X117018617Y-77773933D01*
X116975000Y-77993212D01*
X116975000Y-78216788D01*
X117018617Y-78436067D01*
X117104176Y-78642624D01*
X117169241Y-78740000D01*
X117104176Y-78837376D01*
X117018617Y-79043933D01*
X116975000Y-79263212D01*
X116975000Y-79486788D01*
X117018617Y-79706067D01*
X117104176Y-79912624D01*
X117169241Y-80010000D01*
X117104176Y-80107376D01*
X117018617Y-80313933D01*
X116975000Y-80533212D01*
X116975000Y-80756788D01*
X117018617Y-80976067D01*
X117104176Y-81182624D01*
X117228388Y-81368520D01*
X117386480Y-81526612D01*
X117572376Y-81650824D01*
X117778933Y-81736383D01*
X117998212Y-81780000D01*
X118221788Y-81780000D01*
X118441067Y-81736383D01*
X118647624Y-81650824D01*
X118833520Y-81526612D01*
X118991612Y-81368520D01*
X119115824Y-81182624D01*
X119201383Y-80976067D01*
X119245000Y-80756788D01*
X119245000Y-80533212D01*
X119241828Y-80517263D01*
X124157675Y-75601417D01*
X124162119Y-75603793D01*
X124295887Y-75644371D01*
X124435000Y-75658072D01*
X125835000Y-75658072D01*
X125974113Y-75644371D01*
X126107881Y-75603793D01*
X126231162Y-75537898D01*
X126339218Y-75449218D01*
X126427898Y-75341162D01*
X126493793Y-75217881D01*
X126534371Y-75084113D01*
X126547591Y-74949882D01*
X126639475Y-74874475D01*
X126661712Y-74847379D01*
X127851020Y-73658072D01*
X128271928Y-73658072D01*
X128271928Y-73928980D01*
X126787598Y-75413311D01*
X126712119Y-75436207D01*
X126588838Y-75502102D01*
X126480782Y-75590782D01*
X126392102Y-75698838D01*
X126326207Y-75822119D01*
X126285629Y-75955887D01*
X126271928Y-76095000D01*
X126271928Y-77495000D01*
X126285629Y-77634113D01*
X126326207Y-77767881D01*
X126328583Y-77772325D01*
X121418981Y-82681928D01*
X120785000Y-82681928D01*
X120660518Y-82694188D01*
X120540820Y-82730498D01*
X120430506Y-82789463D01*
X120333815Y-82868815D01*
X120254463Y-82965506D01*
X120195498Y-83075820D01*
X120159188Y-83195518D01*
X120146928Y-83320000D01*
X120146928Y-84320000D01*
X120159188Y-84444482D01*
X120195498Y-84564180D01*
X120254463Y-84674494D01*
X120333815Y-84771185D01*
X120430506Y-84850537D01*
X120540820Y-84909502D01*
X120660518Y-84945812D01*
X120785000Y-84958072D01*
X121785000Y-84958072D01*
X121909482Y-84945812D01*
X122029180Y-84909502D01*
X122112226Y-84865112D01*
X122223933Y-84911383D01*
X122443212Y-84955000D01*
X122666788Y-84955000D01*
X122886067Y-84911383D01*
X123092624Y-84825824D01*
X123190000Y-84760759D01*
X123287376Y-84825824D01*
X123493933Y-84911383D01*
X123713212Y-84955000D01*
X123936788Y-84955000D01*
X124156067Y-84911383D01*
X124362624Y-84825824D01*
X124460000Y-84760759D01*
X124557376Y-84825824D01*
X124763933Y-84911383D01*
X124983212Y-84955000D01*
X125206788Y-84955000D01*
X125426067Y-84911383D01*
X125632624Y-84825824D01*
X125730000Y-84760759D01*
X125827376Y-84825824D01*
X126033933Y-84911383D01*
X126253212Y-84955000D01*
X126476788Y-84955000D01*
X126696067Y-84911383D01*
X126902624Y-84825824D01*
X127000000Y-84760759D01*
X127097376Y-84825824D01*
X127303933Y-84911383D01*
X127523212Y-84955000D01*
X127746788Y-84955000D01*
X127966067Y-84911383D01*
X128172624Y-84825824D01*
X128270000Y-84760759D01*
X128367376Y-84825824D01*
X128573933Y-84911383D01*
X128793212Y-84955000D01*
X129016788Y-84955000D01*
X129236067Y-84911383D01*
X129442624Y-84825824D01*
X129540000Y-84760759D01*
X129637376Y-84825824D01*
X129843933Y-84911383D01*
X130063212Y-84955000D01*
X130286788Y-84955000D01*
X130506067Y-84911383D01*
X130712624Y-84825824D01*
X130810000Y-84760759D01*
X130907376Y-84825824D01*
X131113933Y-84911383D01*
X131333212Y-84955000D01*
X131556788Y-84955000D01*
X131776067Y-84911383D01*
X131982624Y-84825824D01*
X132080000Y-84760759D01*
X132177376Y-84825824D01*
X132383933Y-84911383D01*
X132603212Y-84955000D01*
X132826788Y-84955000D01*
X133046067Y-84911383D01*
X133252624Y-84825824D01*
X133350000Y-84760759D01*
X133447376Y-84825824D01*
X133653933Y-84911383D01*
X133873212Y-84955000D01*
X134096788Y-84955000D01*
X134316067Y-84911383D01*
X134522624Y-84825824D01*
X134620000Y-84760759D01*
X134717376Y-84825824D01*
X134923933Y-84911383D01*
X135143212Y-84955000D01*
X135366788Y-84955000D01*
X135586067Y-84911383D01*
X135792624Y-84825824D01*
X135890000Y-84760759D01*
X135987376Y-84825824D01*
X136193933Y-84911383D01*
X136413212Y-84955000D01*
X136636788Y-84955000D01*
X136856067Y-84911383D01*
X137062624Y-84825824D01*
X137160000Y-84760759D01*
X137257376Y-84825824D01*
X137463933Y-84911383D01*
X137683212Y-84955000D01*
X137906788Y-84955000D01*
X138126067Y-84911383D01*
X138332624Y-84825824D01*
X138430000Y-84760759D01*
X138527376Y-84825824D01*
X138733933Y-84911383D01*
X138953212Y-84955000D01*
X139176788Y-84955000D01*
X139396067Y-84911383D01*
X139602624Y-84825824D01*
X139700000Y-84760759D01*
X139797376Y-84825824D01*
X140003933Y-84911383D01*
X140223212Y-84955000D01*
X140446788Y-84955000D01*
X140666067Y-84911383D01*
X140872624Y-84825824D01*
X141058520Y-84701612D01*
X141216612Y-84543520D01*
X141340824Y-84357624D01*
X141371271Y-84284117D01*
X142410000Y-84284117D01*
X142410000Y-84625883D01*
X142476675Y-84961081D01*
X142607463Y-85276831D01*
X142797337Y-85560998D01*
X143039002Y-85802663D01*
X143323169Y-85992537D01*
X143638919Y-86123325D01*
X143974117Y-86190000D01*
X144315883Y-86190000D01*
X144651081Y-86123325D01*
X144966831Y-85992537D01*
X145250998Y-85802663D01*
X145492663Y-85560998D01*
X145682537Y-85276831D01*
X145813325Y-84961081D01*
X145880000Y-84625883D01*
X145880000Y-84284117D01*
X145813325Y-83948919D01*
X145682537Y-83633169D01*
X145492663Y-83349002D01*
X145250998Y-83107337D01*
X144966831Y-82917463D01*
X144651081Y-82786675D01*
X144315883Y-82720000D01*
X143974117Y-82720000D01*
X143638919Y-82786675D01*
X143323169Y-82917463D01*
X143039002Y-83107337D01*
X142797337Y-83349002D01*
X142607463Y-83633169D01*
X142476675Y-83948919D01*
X142410000Y-84284117D01*
X141371271Y-84284117D01*
X141426383Y-84151067D01*
X141470000Y-83931788D01*
X141470000Y-83708212D01*
X141426383Y-83488933D01*
X141340824Y-83282376D01*
X141216612Y-83096480D01*
X141058520Y-82938388D01*
X140872624Y-82814176D01*
X140666067Y-82728617D01*
X140446788Y-82685000D01*
X140223212Y-82685000D01*
X140207264Y-82688172D01*
X135291417Y-77772326D01*
X135293793Y-77767881D01*
X135334371Y-77634113D01*
X135348072Y-77495000D01*
X135348072Y-76095000D01*
X135334371Y-75955887D01*
X135293793Y-75822119D01*
X135227898Y-75698838D01*
X135139218Y-75590782D01*
X135031162Y-75502102D01*
X134907881Y-75436207D01*
X134774113Y-75395629D01*
X134770000Y-75395224D01*
X134770000Y-75201304D01*
X134773435Y-75166429D01*
X134767266Y-75103793D01*
X134759727Y-75027246D01*
X134719128Y-74893410D01*
X134653200Y-74770067D01*
X134620987Y-74730816D01*
X134586707Y-74689045D01*
X134586704Y-74689042D01*
X134564474Y-74661955D01*
X134537389Y-74639727D01*
X133715282Y-73817621D01*
X133693045Y-73790525D01*
X133584933Y-73701800D01*
X133503123Y-73658072D01*
X133618981Y-73658072D01*
X135103311Y-75142403D01*
X135126207Y-75217881D01*
X135192102Y-75341162D01*
X135280782Y-75449218D01*
X135388838Y-75537898D01*
X135512119Y-75603793D01*
X135645887Y-75644371D01*
X135785000Y-75658072D01*
X137185000Y-75658072D01*
X137324113Y-75644371D01*
X137457881Y-75603793D01*
X137462326Y-75601417D01*
X142371928Y-80511020D01*
X142371928Y-81145000D01*
X142384188Y-81269482D01*
X142420498Y-81389180D01*
X142479463Y-81499494D01*
X142558815Y-81596185D01*
X142655506Y-81675537D01*
X142765820Y-81734502D01*
X142885518Y-81770812D01*
X143010000Y-81783072D01*
X144010000Y-81783072D01*
X144134482Y-81770812D01*
X144254180Y-81734502D01*
X144364494Y-81675537D01*
X144461185Y-81596185D01*
X144540537Y-81499494D01*
X144599502Y-81389180D01*
X144635812Y-81269482D01*
X144648072Y-81145000D01*
X144648072Y-80145000D01*
X144635812Y-80020518D01*
X144599502Y-79900820D01*
X144555112Y-79817774D01*
X144601383Y-79706067D01*
X144645000Y-79486788D01*
X144645000Y-79263212D01*
X144601383Y-79043933D01*
X144515824Y-78837376D01*
X144450759Y-78740000D01*
X144515824Y-78642624D01*
X144601383Y-78436067D01*
X144645000Y-78216788D01*
X144645000Y-77993212D01*
X144601383Y-77773933D01*
X144515824Y-77567376D01*
X144450759Y-77470000D01*
X144515824Y-77372624D01*
X144601383Y-77166067D01*
X144645000Y-76946788D01*
X144645000Y-76723212D01*
X144601383Y-76503933D01*
X144515824Y-76297376D01*
X144450759Y-76200000D01*
X144515824Y-76102624D01*
X144601383Y-75896067D01*
X144645000Y-75676788D01*
X144645000Y-75453212D01*
X144601383Y-75233933D01*
X144515824Y-75027376D01*
X144450759Y-74930000D01*
X144515824Y-74832624D01*
X144601383Y-74626067D01*
X144645000Y-74406788D01*
X144645000Y-74183212D01*
X144601383Y-73963933D01*
X144515824Y-73757376D01*
X144450759Y-73660000D01*
X144515824Y-73562624D01*
X144601383Y-73356067D01*
X144607189Y-73326874D01*
X150035881Y-73326874D01*
X150052554Y-73381864D01*
X150142877Y-73585206D01*
X150271135Y-73767020D01*
X150432399Y-73920318D01*
X150620471Y-74039210D01*
X150828124Y-74119126D01*
X151003000Y-73994129D01*
X151003000Y-73152000D01*
X151257000Y-73152000D01*
X151257000Y-73994129D01*
X151431876Y-74119126D01*
X151639529Y-74039210D01*
X151827601Y-73920318D01*
X151988865Y-73767020D01*
X152117123Y-73585206D01*
X152207446Y-73381864D01*
X152224119Y-73326874D01*
X152097954Y-73152000D01*
X151257000Y-73152000D01*
X151003000Y-73152000D01*
X150162046Y-73152000D01*
X150035881Y-73326874D01*
X144607189Y-73326874D01*
X144645000Y-73136788D01*
X144645000Y-72913212D01*
X144601383Y-72693933D01*
X144515824Y-72487376D01*
X144450759Y-72390000D01*
X144515824Y-72292624D01*
X144601383Y-72086067D01*
X144607189Y-72056874D01*
X150035881Y-72056874D01*
X150052554Y-72111864D01*
X150142877Y-72315206D01*
X150195639Y-72390000D01*
X150142877Y-72464794D01*
X150052554Y-72668136D01*
X150035881Y-72723126D01*
X150162046Y-72898000D01*
X151003000Y-72898000D01*
X151003000Y-71882000D01*
X151257000Y-71882000D01*
X151257000Y-72898000D01*
X152097954Y-72898000D01*
X152224119Y-72723126D01*
X152207446Y-72668136D01*
X152117123Y-72464794D01*
X152064361Y-72390000D01*
X152117123Y-72315206D01*
X152207446Y-72111864D01*
X152224119Y-72056874D01*
X152097954Y-71882000D01*
X151257000Y-71882000D01*
X151003000Y-71882000D01*
X150162046Y-71882000D01*
X150035881Y-72056874D01*
X144607189Y-72056874D01*
X144645000Y-71866788D01*
X144645000Y-71643212D01*
X144601383Y-71423933D01*
X144515824Y-71217376D01*
X144450759Y-71120000D01*
X144515824Y-71022624D01*
X144601383Y-70816067D01*
X144607189Y-70786874D01*
X150035881Y-70786874D01*
X150052554Y-70841864D01*
X150142877Y-71045206D01*
X150195639Y-71120000D01*
X150142877Y-71194794D01*
X150052554Y-71398136D01*
X150035881Y-71453126D01*
X150162046Y-71628000D01*
X151003000Y-71628000D01*
X151003000Y-70612000D01*
X151257000Y-70612000D01*
X151257000Y-71628000D01*
X152097954Y-71628000D01*
X152224119Y-71453126D01*
X152207446Y-71398136D01*
X152117123Y-71194794D01*
X152064361Y-71120000D01*
X152117123Y-71045206D01*
X152207446Y-70841864D01*
X152224119Y-70786874D01*
X152097954Y-70612000D01*
X151257000Y-70612000D01*
X151003000Y-70612000D01*
X150162046Y-70612000D01*
X150035881Y-70786874D01*
X144607189Y-70786874D01*
X144645000Y-70596788D01*
X144645000Y-70373212D01*
X144601383Y-70153933D01*
X144515824Y-69947376D01*
X144450759Y-69850000D01*
X144515824Y-69752624D01*
X144531408Y-69715000D01*
X149991928Y-69715000D01*
X150004188Y-69839482D01*
X150040498Y-69959180D01*
X150088070Y-70048180D01*
X150052554Y-70128136D01*
X150035881Y-70183126D01*
X150162046Y-70358000D01*
X151003000Y-70358000D01*
X151003000Y-69342000D01*
X151257000Y-69342000D01*
X151257000Y-70358000D01*
X152097954Y-70358000D01*
X152224119Y-70183126D01*
X152207446Y-70128136D01*
X152171930Y-70048180D01*
X152219502Y-69959180D01*
X152255812Y-69839482D01*
X152268072Y-69715000D01*
X152265000Y-69500750D01*
X152106250Y-69342000D01*
X151257000Y-69342000D01*
X151003000Y-69342000D01*
X150153750Y-69342000D01*
X149995000Y-69500750D01*
X149991928Y-69715000D01*
X144531408Y-69715000D01*
X144601383Y-69546067D01*
X144645000Y-69326788D01*
X144645000Y-69103212D01*
X144601383Y-68883933D01*
X144531409Y-68715000D01*
X149991928Y-68715000D01*
X149995000Y-68929250D01*
X150153750Y-69088000D01*
X151003000Y-69088000D01*
X151003000Y-68238750D01*
X150844250Y-68080000D01*
X150630000Y-68076928D01*
X150505518Y-68089188D01*
X150385820Y-68125498D01*
X150275506Y-68184463D01*
X150178815Y-68263815D01*
X150099463Y-68360506D01*
X150040498Y-68470820D01*
X150004188Y-68590518D01*
X149991928Y-68715000D01*
X144531409Y-68715000D01*
X144515824Y-68677376D01*
X144450759Y-68580000D01*
X144515824Y-68482624D01*
X144601383Y-68276067D01*
X144645000Y-68056788D01*
X144645000Y-67833212D01*
X144601383Y-67613933D01*
X144515824Y-67407376D01*
X144450759Y-67310000D01*
X144515824Y-67212624D01*
X144601383Y-67006067D01*
X144645000Y-66786788D01*
X144645000Y-66563212D01*
X144601383Y-66343933D01*
X144515824Y-66137376D01*
X144450759Y-66040000D01*
X144515824Y-65942624D01*
X144601383Y-65736067D01*
X144645000Y-65516788D01*
X144645000Y-65293212D01*
X144601383Y-65073933D01*
X144515824Y-64867376D01*
X144450759Y-64770000D01*
X144515824Y-64672624D01*
X144601383Y-64466067D01*
X144645000Y-64246788D01*
X144645000Y-64023212D01*
X144601383Y-63803933D01*
X144515824Y-63597376D01*
X144450759Y-63500000D01*
X144515824Y-63402624D01*
X144601383Y-63196067D01*
X144645000Y-62976788D01*
X144645000Y-62753212D01*
X144601383Y-62533933D01*
X144515824Y-62327376D01*
X144450759Y-62230000D01*
X144515824Y-62132624D01*
X144601383Y-61926067D01*
X144645000Y-61706788D01*
X144645000Y-61483212D01*
X144601383Y-61263933D01*
X144515824Y-61057376D01*
X144391612Y-60871480D01*
X144233520Y-60713388D01*
X144047624Y-60589176D01*
X143841067Y-60503617D01*
X143621788Y-60460000D01*
X143398212Y-60460000D01*
X143178933Y-60503617D01*
X142972376Y-60589176D01*
X142786480Y-60713388D01*
X142628388Y-60871480D01*
X142504176Y-61057376D01*
X142418617Y-61263933D01*
X142375000Y-61483212D01*
X142375000Y-61706788D01*
X142378172Y-61722736D01*
X137462326Y-66638583D01*
X137457881Y-66636207D01*
X137324113Y-66595629D01*
X137185000Y-66581928D01*
X135785000Y-66581928D01*
X135645887Y-66595629D01*
X135512119Y-66636207D01*
X135388838Y-66702102D01*
X135280782Y-66790782D01*
X135192102Y-66898838D01*
X135126207Y-67022119D01*
X135085629Y-67155887D01*
X135072409Y-67290118D01*
X134980525Y-67365525D01*
X134958292Y-67392616D01*
X133768981Y-68581928D01*
X133348072Y-68581928D01*
X133348072Y-68311019D01*
X134832403Y-66826689D01*
X134907881Y-66803793D01*
X135031162Y-66737898D01*
X135139218Y-66649218D01*
X135227898Y-66541162D01*
X135293793Y-66417881D01*
X135334371Y-66284113D01*
X135348072Y-66145000D01*
X135348072Y-64745000D01*
X135334371Y-64605887D01*
X135293793Y-64472119D01*
X135291417Y-64467674D01*
X140201020Y-59558072D01*
X140835000Y-59558072D01*
X140959482Y-59545812D01*
X141079180Y-59509502D01*
X141189494Y-59450537D01*
X141286185Y-59371185D01*
X141365537Y-59274494D01*
X141424502Y-59164180D01*
X141460812Y-59044482D01*
X141473072Y-58920000D01*
X141473072Y-57920000D01*
X141460812Y-57795518D01*
X141424502Y-57675820D01*
X141391521Y-57614117D01*
X142410000Y-57614117D01*
X142410000Y-57955883D01*
X142476675Y-58291081D01*
X142607463Y-58606831D01*
X142797337Y-58890998D01*
X143039002Y-59132663D01*
X143323169Y-59322537D01*
X143638919Y-59453325D01*
X143974117Y-59520000D01*
X144315883Y-59520000D01*
X144651081Y-59453325D01*
X144966831Y-59322537D01*
X145250998Y-59132663D01*
X145492663Y-58890998D01*
X145682537Y-58606831D01*
X145813325Y-58291081D01*
X145880000Y-57955883D01*
X145880000Y-57614117D01*
X145813325Y-57278919D01*
X145682537Y-56963169D01*
X145492663Y-56679002D01*
X145250998Y-56437337D01*
X144966831Y-56247463D01*
X144651081Y-56116675D01*
X144315883Y-56050000D01*
X143974117Y-56050000D01*
X143638919Y-56116675D01*
X143323169Y-56247463D01*
X143039002Y-56437337D01*
X142797337Y-56679002D01*
X142607463Y-56963169D01*
X142476675Y-57278919D01*
X142410000Y-57614117D01*
X141391521Y-57614117D01*
X141365537Y-57565506D01*
X141286185Y-57468815D01*
X141189494Y-57389463D01*
X141079180Y-57330498D01*
X140959482Y-57294188D01*
X140835000Y-57281928D01*
X139835000Y-57281928D01*
X139710518Y-57294188D01*
X139590820Y-57330498D01*
X139507774Y-57374888D01*
X139396067Y-57328617D01*
X139176788Y-57285000D01*
X138953212Y-57285000D01*
X138733933Y-57328617D01*
X138527376Y-57414176D01*
X138430000Y-57479241D01*
X138332624Y-57414176D01*
X138126067Y-57328617D01*
X137906788Y-57285000D01*
X137683212Y-57285000D01*
X137463933Y-57328617D01*
X137257376Y-57414176D01*
X137160000Y-57479241D01*
X137062624Y-57414176D01*
X136856067Y-57328617D01*
X136636788Y-57285000D01*
X136413212Y-57285000D01*
X136193933Y-57328617D01*
X135987376Y-57414176D01*
X135890000Y-57479241D01*
X135792624Y-57414176D01*
X135586067Y-57328617D01*
X135366788Y-57285000D01*
X135143212Y-57285000D01*
X134923933Y-57328617D01*
X134717376Y-57414176D01*
X134620000Y-57479241D01*
X134522624Y-57414176D01*
X134316067Y-57328617D01*
X134096788Y-57285000D01*
X133873212Y-57285000D01*
X133653933Y-57328617D01*
X133447376Y-57414176D01*
X133350000Y-57479241D01*
X133252624Y-57414176D01*
X133046067Y-57328617D01*
X132826788Y-57285000D01*
X132603212Y-57285000D01*
X132383933Y-57328617D01*
X132177376Y-57414176D01*
X132080000Y-57479241D01*
X131982624Y-57414176D01*
X131776067Y-57328617D01*
X131556788Y-57285000D01*
X131333212Y-57285000D01*
X131113933Y-57328617D01*
X130907376Y-57414176D01*
X130810000Y-57479241D01*
X130712624Y-57414176D01*
X130506067Y-57328617D01*
X130286788Y-57285000D01*
X130063212Y-57285000D01*
X129843933Y-57328617D01*
X129637376Y-57414176D01*
X129540000Y-57479241D01*
X129442624Y-57414176D01*
X129236067Y-57328617D01*
X129016788Y-57285000D01*
X128793212Y-57285000D01*
X128573933Y-57328617D01*
X128367376Y-57414176D01*
X128270000Y-57479241D01*
X128172624Y-57414176D01*
X127966067Y-57328617D01*
X127746788Y-57285000D01*
X127523212Y-57285000D01*
X127303933Y-57328617D01*
X127097376Y-57414176D01*
X127000000Y-57479241D01*
X126902624Y-57414176D01*
X126696067Y-57328617D01*
X126476788Y-57285000D01*
X126253212Y-57285000D01*
X126033933Y-57328617D01*
X125827376Y-57414176D01*
X125730000Y-57479241D01*
X125632624Y-57414176D01*
X125426067Y-57328617D01*
X125206788Y-57285000D01*
X124983212Y-57285000D01*
X124763933Y-57328617D01*
X124557376Y-57414176D01*
X124460000Y-57479241D01*
X124362624Y-57414176D01*
X124156067Y-57328617D01*
X123936788Y-57285000D01*
X123713212Y-57285000D01*
X123493933Y-57328617D01*
X123287376Y-57414176D01*
X123190000Y-57479241D01*
X123092624Y-57414176D01*
X122886067Y-57328617D01*
X122666788Y-57285000D01*
X122443212Y-57285000D01*
X122223933Y-57328617D01*
X122017376Y-57414176D01*
X121920000Y-57479241D01*
X121822624Y-57414176D01*
X121616067Y-57328617D01*
X121396788Y-57285000D01*
X121173212Y-57285000D01*
X120953933Y-57328617D01*
X120747376Y-57414176D01*
X120561480Y-57538388D01*
X120403388Y-57696480D01*
X120279176Y-57882376D01*
X120193617Y-58088933D01*
X120150000Y-58308212D01*
X120150000Y-58531788D01*
X120193617Y-58751067D01*
X120279176Y-58957624D01*
X120403388Y-59143520D01*
X120561480Y-59301612D01*
X120747376Y-59425824D01*
X120953933Y-59511383D01*
X121173212Y-59555000D01*
X121396788Y-59555000D01*
X121412737Y-59551828D01*
X126328583Y-64467675D01*
X126326207Y-64472119D01*
X126285629Y-64605887D01*
X126271928Y-64745000D01*
X126271928Y-66145000D01*
X126285629Y-66284113D01*
X126326207Y-66417881D01*
X126392102Y-66541162D01*
X126480782Y-66649218D01*
X126588838Y-66737898D01*
X126712119Y-66803793D01*
X126845887Y-66844371D01*
X126980119Y-66857591D01*
X127055525Y-66949474D01*
X127082617Y-66971708D01*
X128271928Y-68161020D01*
X128271928Y-68581928D01*
X128001020Y-68581928D01*
X126516689Y-67097598D01*
X126493793Y-67022119D01*
X126427898Y-66898838D01*
X126339218Y-66790782D01*
X126231162Y-66702102D01*
X126107881Y-66636207D01*
X125974113Y-66595629D01*
X125835000Y-66581928D01*
X124435000Y-66581928D01*
X124295887Y-66595629D01*
X124162119Y-66636207D01*
X124157675Y-66638583D01*
X119248072Y-61728981D01*
X119248072Y-61095000D01*
X119235812Y-60970518D01*
X119199502Y-60850820D01*
X119140537Y-60740506D01*
X119061185Y-60643815D01*
X118964494Y-60564463D01*
X118854180Y-60505498D01*
X118734482Y-60469188D01*
X118610000Y-60456928D01*
X117610000Y-60456928D01*
X117485518Y-60469188D01*
X117365820Y-60505498D01*
X117255506Y-60564463D01*
X117158815Y-60643815D01*
X117079463Y-60740506D01*
X117020498Y-60850820D01*
X116984188Y-60970518D01*
X116971928Y-61095000D01*
X111720401Y-61095000D01*
X112439051Y-59808558D01*
X113464510Y-58291342D01*
X114011330Y-57614117D01*
X115740000Y-57614117D01*
X115740000Y-57955883D01*
X115806675Y-58291081D01*
X115937463Y-58606831D01*
X116127337Y-58890998D01*
X116369002Y-59132663D01*
X116653169Y-59322537D01*
X116968919Y-59453325D01*
X117304117Y-59520000D01*
X117645883Y-59520000D01*
X117981081Y-59453325D01*
X118296831Y-59322537D01*
X118580998Y-59132663D01*
X118822663Y-58890998D01*
X119012537Y-58606831D01*
X119143325Y-58291081D01*
X119210000Y-57955883D01*
X119210000Y-57614117D01*
X119143325Y-57278919D01*
X119012537Y-56963169D01*
X118822663Y-56679002D01*
X118580998Y-56437337D01*
X118296831Y-56247463D01*
X117981081Y-56116675D01*
X117645883Y-56050000D01*
X117304117Y-56050000D01*
X116968919Y-56116675D01*
X116653169Y-56247463D01*
X116369002Y-56437337D01*
X116127337Y-56679002D01*
X115937463Y-56963169D01*
X115806675Y-57278919D01*
X115740000Y-57614117D01*
X114011330Y-57614117D01*
X114614943Y-56866557D01*
X115882062Y-55544469D01*
X117256738Y-54334602D01*
X118729065Y-53245675D01*
X120288435Y-52285532D01*
X121923614Y-51461093D01*
X122324509Y-51300000D01*
X127766928Y-51300000D01*
X127779188Y-51424482D01*
X127815498Y-51544180D01*
X127874463Y-51654494D01*
X127953815Y-51751185D01*
X128050506Y-51830537D01*
X128160820Y-51889502D01*
X128280518Y-51925812D01*
X128405000Y-51938072D01*
X128619250Y-51935000D01*
X128778000Y-51776250D01*
X128778000Y-50927000D01*
X129032000Y-50927000D01*
X129032000Y-51776250D01*
X129190750Y-51935000D01*
X129405000Y-51938072D01*
X129529482Y-51925812D01*
X129649180Y-51889502D01*
X129738180Y-51841930D01*
X129818136Y-51877446D01*
X129873126Y-51894119D01*
X130048000Y-51767954D01*
X130048000Y-50927000D01*
X130302000Y-50927000D01*
X130302000Y-51767954D01*
X130476874Y-51894119D01*
X130531864Y-51877446D01*
X130735206Y-51787123D01*
X130810000Y-51734361D01*
X130884794Y-51787123D01*
X131088136Y-51877446D01*
X131143126Y-51894119D01*
X131318000Y-51767954D01*
X131318000Y-50927000D01*
X131572000Y-50927000D01*
X131572000Y-51767954D01*
X131746874Y-51894119D01*
X131801864Y-51877446D01*
X132005206Y-51787123D01*
X132080000Y-51734361D01*
X132154794Y-51787123D01*
X132358136Y-51877446D01*
X132413126Y-51894119D01*
X132588000Y-51767954D01*
X132588000Y-50927000D01*
X132842000Y-50927000D01*
X132842000Y-51767954D01*
X133016874Y-51894119D01*
X133071864Y-51877446D01*
X133275206Y-51787123D01*
X133457020Y-51658865D01*
X133610318Y-51497601D01*
X133729210Y-51309529D01*
X133809126Y-51101876D01*
X133684129Y-50927000D01*
X132842000Y-50927000D01*
X132588000Y-50927000D01*
X131572000Y-50927000D01*
X131318000Y-50927000D01*
X130302000Y-50927000D01*
X130048000Y-50927000D01*
X129032000Y-50927000D01*
X128778000Y-50927000D01*
X127928750Y-50927000D01*
X127770000Y-51085750D01*
X127766928Y-51300000D01*
X122324509Y-51300000D01*
X123622819Y-50778296D01*
X125373808Y-50242062D01*
X127163964Y-49856253D01*
X128116283Y-49734304D01*
X128050506Y-49769463D01*
X127953815Y-49848815D01*
X127874463Y-49945506D01*
X127815498Y-50055820D01*
X127779188Y-50175518D01*
X127766928Y-50300000D01*
X127770000Y-50514250D01*
X127928750Y-50673000D01*
X128778000Y-50673000D01*
X128778000Y-49823750D01*
X129032000Y-49823750D01*
X129032000Y-50673000D01*
X130048000Y-50673000D01*
X130048000Y-49832046D01*
X130302000Y-49832046D01*
X130302000Y-50673000D01*
X131318000Y-50673000D01*
X131318000Y-49832046D01*
X131572000Y-49832046D01*
X131572000Y-50673000D01*
X132588000Y-50673000D01*
X132588000Y-49832046D01*
X132842000Y-49832046D01*
X132842000Y-50673000D01*
X133684129Y-50673000D01*
X133809126Y-50498124D01*
X133729210Y-50290471D01*
X133610318Y-50102399D01*
X133457020Y-49941135D01*
X133275206Y-49812877D01*
X133071864Y-49722554D01*
X133016874Y-49705881D01*
X132842000Y-49832046D01*
X132588000Y-49832046D01*
X132413126Y-49705881D01*
X132358136Y-49722554D01*
X132154794Y-49812877D01*
X132080000Y-49865639D01*
X132005206Y-49812877D01*
X131801864Y-49722554D01*
X131746874Y-49705881D01*
X131572000Y-49832046D01*
X131318000Y-49832046D01*
X131143126Y-49705881D01*
X131088136Y-49722554D01*
X130884794Y-49812877D01*
X130810000Y-49865639D01*
X130735206Y-49812877D01*
X130531864Y-49722554D01*
X130476874Y-49705881D01*
X130302000Y-49832046D01*
X130048000Y-49832046D01*
X129873126Y-49705881D01*
X129818136Y-49722554D01*
X129738180Y-49758070D01*
X129649180Y-49710498D01*
X129529482Y-49674188D01*
X129405000Y-49661928D01*
X129190750Y-49665000D01*
X129032000Y-49823750D01*
X128778000Y-49823750D01*
X128623591Y-49669341D01*
X128980391Y-49623651D01*
X130810000Y-49545930D01*
X132639609Y-49623651D01*
%TA.AperFunction,Conductor*%
D14*
G36*
X132639609Y-49623651D02*
G01*
X134456036Y-49856253D01*
X136246192Y-50242062D01*
X137997181Y-50778296D01*
X139696386Y-51461093D01*
X141331565Y-52285532D01*
X142890935Y-53245675D01*
X144363262Y-54334602D01*
X145737938Y-55544469D01*
X147005057Y-56866557D01*
X148155490Y-58291342D01*
X149180949Y-59808558D01*
X150074045Y-61407273D01*
X150828343Y-63075968D01*
X151438408Y-64802621D01*
X151899845Y-66574791D01*
X152209329Y-68379709D01*
X152216626Y-68465439D01*
X152160537Y-68360506D01*
X152081185Y-68263815D01*
X151984494Y-68184463D01*
X151874180Y-68125498D01*
X151754482Y-68089188D01*
X151630000Y-68076928D01*
X151415750Y-68080000D01*
X151257000Y-68238750D01*
X151257000Y-69088000D01*
X152106250Y-69088000D01*
X152256800Y-68937450D01*
X152364631Y-70204371D01*
X152364631Y-72035629D01*
X152209329Y-73860291D01*
X151899845Y-75665209D01*
X151438408Y-77437379D01*
X150828343Y-79164032D01*
X150074045Y-80832727D01*
X149180949Y-82431442D01*
X148155490Y-83948658D01*
X147005057Y-85373443D01*
X145737938Y-86695531D01*
X144363262Y-87905398D01*
X142890935Y-88994325D01*
X141331565Y-89954468D01*
X139696386Y-90778907D01*
X137997181Y-91461704D01*
X136246192Y-91997938D01*
X134456036Y-92383747D01*
X133503717Y-92505696D01*
X133569494Y-92470537D01*
X133666185Y-92391185D01*
X133745537Y-92294494D01*
X133804502Y-92184180D01*
X133840812Y-92064482D01*
X133853072Y-91940000D01*
X133850000Y-91725750D01*
X133691250Y-91567000D01*
X132842000Y-91567000D01*
X132842000Y-92416250D01*
X132996409Y-92570659D01*
X132639609Y-92616349D01*
X130810000Y-92694070D01*
X128980391Y-92616349D01*
X127163964Y-92383747D01*
X125373808Y-91997938D01*
X124537678Y-91741876D01*
X127810874Y-91741876D01*
X127890790Y-91949529D01*
X128009682Y-92137601D01*
X128162980Y-92298865D01*
X128344794Y-92427123D01*
X128548136Y-92517446D01*
X128603126Y-92534119D01*
X128778000Y-92407954D01*
X128778000Y-91567000D01*
X129032000Y-91567000D01*
X129032000Y-92407954D01*
X129206874Y-92534119D01*
X129261864Y-92517446D01*
X129465206Y-92427123D01*
X129540000Y-92374361D01*
X129614794Y-92427123D01*
X129818136Y-92517446D01*
X129873126Y-92534119D01*
X130048000Y-92407954D01*
X130048000Y-91567000D01*
X130302000Y-91567000D01*
X130302000Y-92407954D01*
X130476874Y-92534119D01*
X130531864Y-92517446D01*
X130735206Y-92427123D01*
X130810000Y-92374361D01*
X130884794Y-92427123D01*
X131088136Y-92517446D01*
X131143126Y-92534119D01*
X131318000Y-92407954D01*
X131318000Y-91567000D01*
X131572000Y-91567000D01*
X131572000Y-92407954D01*
X131746874Y-92534119D01*
X131801864Y-92517446D01*
X131881820Y-92481930D01*
X131970820Y-92529502D01*
X132090518Y-92565812D01*
X132215000Y-92578072D01*
X132429250Y-92575000D01*
X132588000Y-92416250D01*
X132588000Y-91567000D01*
X131572000Y-91567000D01*
X131318000Y-91567000D01*
X130302000Y-91567000D01*
X130048000Y-91567000D01*
X129032000Y-91567000D01*
X128778000Y-91567000D01*
X127935871Y-91567000D01*
X127810874Y-91741876D01*
X124537678Y-91741876D01*
X123622819Y-91461704D01*
X122817560Y-91138124D01*
X127810874Y-91138124D01*
X127935871Y-91313000D01*
X128778000Y-91313000D01*
X128778000Y-90472046D01*
X129032000Y-90472046D01*
X129032000Y-91313000D01*
X130048000Y-91313000D01*
X130048000Y-90472046D01*
X130302000Y-90472046D01*
X130302000Y-91313000D01*
X131318000Y-91313000D01*
X131318000Y-90472046D01*
X131572000Y-90472046D01*
X131572000Y-91313000D01*
X132588000Y-91313000D01*
X132588000Y-90463750D01*
X132842000Y-90463750D01*
X132842000Y-91313000D01*
X133691250Y-91313000D01*
X133850000Y-91154250D01*
X133853072Y-90940000D01*
X133840812Y-90815518D01*
X133804502Y-90695820D01*
X133745537Y-90585506D01*
X133666185Y-90488815D01*
X133569494Y-90409463D01*
X133459180Y-90350498D01*
X133339482Y-90314188D01*
X133215000Y-90301928D01*
X133000750Y-90305000D01*
X132842000Y-90463750D01*
X132588000Y-90463750D01*
X132429250Y-90305000D01*
X132215000Y-90301928D01*
X132090518Y-90314188D01*
X131970820Y-90350498D01*
X131881820Y-90398070D01*
X131801864Y-90362554D01*
X131746874Y-90345881D01*
X131572000Y-90472046D01*
X131318000Y-90472046D01*
X131143126Y-90345881D01*
X131088136Y-90362554D01*
X130884794Y-90452877D01*
X130810000Y-90505639D01*
X130735206Y-90452877D01*
X130531864Y-90362554D01*
X130476874Y-90345881D01*
X130302000Y-90472046D01*
X130048000Y-90472046D01*
X129873126Y-90345881D01*
X129818136Y-90362554D01*
X129614794Y-90452877D01*
X129540000Y-90505639D01*
X129465206Y-90452877D01*
X129261864Y-90362554D01*
X129206874Y-90345881D01*
X129032000Y-90472046D01*
X128778000Y-90472046D01*
X128603126Y-90345881D01*
X128548136Y-90362554D01*
X128344794Y-90452877D01*
X128162980Y-90581135D01*
X128009682Y-90742399D01*
X127890790Y-90930471D01*
X127810874Y-91138124D01*
X122817560Y-91138124D01*
X121923614Y-90778907D01*
X120288435Y-89954468D01*
X118729065Y-88994325D01*
X117256738Y-87905398D01*
X115882062Y-86695531D01*
X114614943Y-85373443D01*
X113735375Y-84284117D01*
X115740000Y-84284117D01*
X115740000Y-84625883D01*
X115806675Y-84961081D01*
X115937463Y-85276831D01*
X116127337Y-85560998D01*
X116369002Y-85802663D01*
X116653169Y-85992537D01*
X116968919Y-86123325D01*
X117304117Y-86190000D01*
X117645883Y-86190000D01*
X117981081Y-86123325D01*
X118296831Y-85992537D01*
X118580998Y-85802663D01*
X118822663Y-85560998D01*
X119012537Y-85276831D01*
X119143325Y-84961081D01*
X119210000Y-84625883D01*
X119210000Y-84284117D01*
X119143325Y-83948919D01*
X119012537Y-83633169D01*
X118822663Y-83349002D01*
X118580998Y-83107337D01*
X118296831Y-82917463D01*
X117981081Y-82786675D01*
X117645883Y-82720000D01*
X117304117Y-82720000D01*
X116968919Y-82786675D01*
X116653169Y-82917463D01*
X116369002Y-83107337D01*
X116127337Y-83349002D01*
X115937463Y-83633169D01*
X115806675Y-83948919D01*
X115740000Y-84284117D01*
X113735375Y-84284117D01*
X113464510Y-83948658D01*
X112439051Y-82431442D01*
X111545955Y-80832727D01*
X110791657Y-79164032D01*
X110181592Y-77437379D01*
X109720155Y-75665209D01*
X109410671Y-73860291D01*
X109382134Y-73525000D01*
X109986928Y-73525000D01*
X109999188Y-73649482D01*
X110035498Y-73769180D01*
X110094463Y-73879494D01*
X110173815Y-73976185D01*
X110270506Y-74055537D01*
X110380820Y-74114502D01*
X110500518Y-74150812D01*
X110625000Y-74163072D01*
X110839250Y-74160000D01*
X110998000Y-74001250D01*
X110998000Y-73152000D01*
X111252000Y-73152000D01*
X111252000Y-74001250D01*
X111410750Y-74160000D01*
X111625000Y-74163072D01*
X111749482Y-74150812D01*
X111869180Y-74114502D01*
X111979494Y-74055537D01*
X112076185Y-73976185D01*
X112155537Y-73879494D01*
X112214502Y-73769180D01*
X112250812Y-73649482D01*
X112263072Y-73525000D01*
X112260000Y-73310750D01*
X112101250Y-73152000D01*
X111252000Y-73152000D01*
X110998000Y-73152000D01*
X110148750Y-73152000D01*
X109990000Y-73310750D01*
X109986928Y-73525000D01*
X109382134Y-73525000D01*
X109297021Y-72525000D01*
X109986928Y-72525000D01*
X109990000Y-72739250D01*
X110148750Y-72898000D01*
X110998000Y-72898000D01*
X110998000Y-71882000D01*
X111252000Y-71882000D01*
X111252000Y-72898000D01*
X112101250Y-72898000D01*
X112260000Y-72739250D01*
X112263072Y-72525000D01*
X112250812Y-72400518D01*
X112214502Y-72280820D01*
X112166930Y-72191820D01*
X112202446Y-72111864D01*
X112219119Y-72056874D01*
X112092954Y-71882000D01*
X111252000Y-71882000D01*
X110998000Y-71882000D01*
X110157046Y-71882000D01*
X110030881Y-72056874D01*
X110047554Y-72111864D01*
X110083070Y-72191820D01*
X110035498Y-72280820D01*
X109999188Y-72400518D01*
X109986928Y-72525000D01*
X109297021Y-72525000D01*
X109255369Y-72035629D01*
X109255369Y-70786874D01*
X110030881Y-70786874D01*
X110047554Y-70841864D01*
X110137877Y-71045206D01*
X110190639Y-71120000D01*
X110137877Y-71194794D01*
X110047554Y-71398136D01*
X110030881Y-71453126D01*
X110157046Y-71628000D01*
X110998000Y-71628000D01*
X110998000Y-70612000D01*
X111252000Y-70612000D01*
X111252000Y-71628000D01*
X112092954Y-71628000D01*
X112219119Y-71453126D01*
X112202446Y-71398136D01*
X112112123Y-71194794D01*
X112059361Y-71120000D01*
X112112123Y-71045206D01*
X112202446Y-70841864D01*
X112219119Y-70786874D01*
X112092954Y-70612000D01*
X111252000Y-70612000D01*
X110998000Y-70612000D01*
X110157046Y-70612000D01*
X110030881Y-70786874D01*
X109255369Y-70786874D01*
X109255369Y-70204371D01*
X109313883Y-69516874D01*
X110030881Y-69516874D01*
X110047554Y-69571864D01*
X110137877Y-69775206D01*
X110190639Y-69850000D01*
X110137877Y-69924794D01*
X110047554Y-70128136D01*
X110030881Y-70183126D01*
X110157046Y-70358000D01*
X110998000Y-70358000D01*
X110998000Y-69342000D01*
X111252000Y-69342000D01*
X111252000Y-70358000D01*
X112092954Y-70358000D01*
X112219119Y-70183126D01*
X112202446Y-70128136D01*
X112112123Y-69924794D01*
X112059361Y-69850000D01*
X112112123Y-69775206D01*
X112202446Y-69571864D01*
X112219119Y-69516874D01*
X112092954Y-69342000D01*
X111252000Y-69342000D01*
X110998000Y-69342000D01*
X110157046Y-69342000D01*
X110030881Y-69516874D01*
X109313883Y-69516874D01*
X109365270Y-68913126D01*
X110030881Y-68913126D01*
X110157046Y-69088000D01*
X110998000Y-69088000D01*
X110998000Y-68245871D01*
X111252000Y-68245871D01*
X111252000Y-69088000D01*
X112092954Y-69088000D01*
X112219119Y-68913126D01*
X112202446Y-68858136D01*
X112112123Y-68654794D01*
X111983865Y-68472980D01*
X111822601Y-68319682D01*
X111634529Y-68200790D01*
X111426876Y-68120874D01*
X111252000Y-68245871D01*
X110998000Y-68245871D01*
X110823124Y-68120874D01*
X110615471Y-68200790D01*
X110427399Y-68319682D01*
X110266135Y-68472980D01*
X110137877Y-68654794D01*
X110047554Y-68858136D01*
X110030881Y-68913126D01*
X109365270Y-68913126D01*
X109410671Y-68379709D01*
X109720155Y-66574791D01*
X110181592Y-64802621D01*
X110791657Y-63075968D01*
X111545955Y-61407273D01*
X111720401Y-61095000D01*
X116971928Y-61095000D01*
X116971928Y-62095000D01*
X116984188Y-62219482D01*
X117020498Y-62339180D01*
X117064888Y-62422226D01*
X117018617Y-62533933D01*
X116975000Y-62753212D01*
X116975000Y-62976788D01*
X117018617Y-63196067D01*
X117104176Y-63402624D01*
X117169241Y-63500000D01*
X117104176Y-63597376D01*
X117018617Y-63803933D01*
X116975000Y-64023212D01*
X116975000Y-64246788D01*
X117018617Y-64466067D01*
X117104176Y-64672624D01*
X117169241Y-64770000D01*
X117104176Y-64867376D01*
X117018617Y-65073933D01*
X116975000Y-65293212D01*
X116975000Y-65516788D01*
X117018617Y-65736067D01*
X117104176Y-65942624D01*
X117169241Y-66040000D01*
X117104176Y-66137376D01*
X117018617Y-66343933D01*
X116975000Y-66563212D01*
X116975000Y-66786788D01*
X117018617Y-67006067D01*
X117104176Y-67212624D01*
X117169241Y-67310000D01*
X117104176Y-67407376D01*
X117018617Y-67613933D01*
X116975000Y-67833212D01*
X116975000Y-68056788D01*
X117018617Y-68276067D01*
X117104176Y-68482624D01*
X117169241Y-68580000D01*
X117104176Y-68677376D01*
X117018617Y-68883933D01*
X116975000Y-69103212D01*
X116975000Y-69326788D01*
X117018617Y-69546067D01*
X117104176Y-69752624D01*
X117169241Y-69850000D01*
X117104176Y-69947376D01*
X117018617Y-70153933D01*
X116975000Y-70373212D01*
X116975000Y-70596788D01*
X117018617Y-70816067D01*
X117104176Y-71022624D01*
X117169241Y-71120000D01*
X117104176Y-71217376D01*
X117018617Y-71423933D01*
X116975000Y-71643212D01*
X116975000Y-71866788D01*
X117018617Y-72086067D01*
X117104176Y-72292624D01*
X117169241Y-72390000D01*
X117104176Y-72487376D01*
X117018617Y-72693933D01*
X116975000Y-72913212D01*
X116975000Y-73136788D01*
X117018617Y-73356067D01*
X117104176Y-73562624D01*
X117169241Y-73660000D01*
X117104176Y-73757376D01*
X117018617Y-73963933D01*
X116975000Y-74183212D01*
X116975000Y-74406788D01*
X117018617Y-74626067D01*
X117104176Y-74832624D01*
X117169241Y-74930000D01*
X117104176Y-75027376D01*
X117018617Y-75233933D01*
X116975000Y-75453212D01*
X116975000Y-75676788D01*
X117018617Y-75896067D01*
X117104176Y-76102624D01*
X117169241Y-76200000D01*
X117104176Y-76297376D01*
X117018617Y-76503933D01*
X116975000Y-76723212D01*
X116975000Y-76946788D01*
X117018617Y-77166067D01*
X117104176Y-77372624D01*
X117169241Y-77470000D01*
X117104176Y-77567376D01*
X117018617Y-77773933D01*
X116975000Y-77993212D01*
X116975000Y-78216788D01*
X117018617Y-78436067D01*
X117104176Y-78642624D01*
X117169241Y-78740000D01*
X117104176Y-78837376D01*
X117018617Y-79043933D01*
X116975000Y-79263212D01*
X116975000Y-79486788D01*
X117018617Y-79706067D01*
X117104176Y-79912624D01*
X117169241Y-80010000D01*
X117104176Y-80107376D01*
X117018617Y-80313933D01*
X116975000Y-80533212D01*
X116975000Y-80756788D01*
X117018617Y-80976067D01*
X117104176Y-81182624D01*
X117228388Y-81368520D01*
X117386480Y-81526612D01*
X117572376Y-81650824D01*
X117778933Y-81736383D01*
X117998212Y-81780000D01*
X118221788Y-81780000D01*
X118441067Y-81736383D01*
X118647624Y-81650824D01*
X118833520Y-81526612D01*
X118991612Y-81368520D01*
X119115824Y-81182624D01*
X119201383Y-80976067D01*
X119245000Y-80756788D01*
X119245000Y-80533212D01*
X119241828Y-80517263D01*
X124157675Y-75601417D01*
X124162119Y-75603793D01*
X124295887Y-75644371D01*
X124435000Y-75658072D01*
X125835000Y-75658072D01*
X125974113Y-75644371D01*
X126107881Y-75603793D01*
X126231162Y-75537898D01*
X126339218Y-75449218D01*
X126427898Y-75341162D01*
X126493793Y-75217881D01*
X126534371Y-75084113D01*
X126547591Y-74949882D01*
X126639475Y-74874475D01*
X126661712Y-74847379D01*
X127851020Y-73658072D01*
X128271928Y-73658072D01*
X128271928Y-73928980D01*
X126787598Y-75413311D01*
X126712119Y-75436207D01*
X126588838Y-75502102D01*
X126480782Y-75590782D01*
X126392102Y-75698838D01*
X126326207Y-75822119D01*
X126285629Y-75955887D01*
X126271928Y-76095000D01*
X126271928Y-77495000D01*
X126285629Y-77634113D01*
X126326207Y-77767881D01*
X126328583Y-77772325D01*
X121418981Y-82681928D01*
X120785000Y-82681928D01*
X120660518Y-82694188D01*
X120540820Y-82730498D01*
X120430506Y-82789463D01*
X120333815Y-82868815D01*
X120254463Y-82965506D01*
X120195498Y-83075820D01*
X120159188Y-83195518D01*
X120146928Y-83320000D01*
X120146928Y-84320000D01*
X120159188Y-84444482D01*
X120195498Y-84564180D01*
X120254463Y-84674494D01*
X120333815Y-84771185D01*
X120430506Y-84850537D01*
X120540820Y-84909502D01*
X120660518Y-84945812D01*
X120785000Y-84958072D01*
X121785000Y-84958072D01*
X121909482Y-84945812D01*
X122029180Y-84909502D01*
X122112226Y-84865112D01*
X122223933Y-84911383D01*
X122443212Y-84955000D01*
X122666788Y-84955000D01*
X122886067Y-84911383D01*
X123092624Y-84825824D01*
X123190000Y-84760759D01*
X123287376Y-84825824D01*
X123493933Y-84911383D01*
X123713212Y-84955000D01*
X123936788Y-84955000D01*
X124156067Y-84911383D01*
X124362624Y-84825824D01*
X124460000Y-84760759D01*
X124557376Y-84825824D01*
X124763933Y-84911383D01*
X124983212Y-84955000D01*
X125206788Y-84955000D01*
X125426067Y-84911383D01*
X125632624Y-84825824D01*
X125730000Y-84760759D01*
X125827376Y-84825824D01*
X126033933Y-84911383D01*
X126253212Y-84955000D01*
X126476788Y-84955000D01*
X126696067Y-84911383D01*
X126902624Y-84825824D01*
X127000000Y-84760759D01*
X127097376Y-84825824D01*
X127303933Y-84911383D01*
X127523212Y-84955000D01*
X127746788Y-84955000D01*
X127966067Y-84911383D01*
X128172624Y-84825824D01*
X128270000Y-84760759D01*
X128367376Y-84825824D01*
X128573933Y-84911383D01*
X128793212Y-84955000D01*
X129016788Y-84955000D01*
X129236067Y-84911383D01*
X129442624Y-84825824D01*
X129540000Y-84760759D01*
X129637376Y-84825824D01*
X129843933Y-84911383D01*
X130063212Y-84955000D01*
X130286788Y-84955000D01*
X130506067Y-84911383D01*
X130712624Y-84825824D01*
X130810000Y-84760759D01*
X130907376Y-84825824D01*
X131113933Y-84911383D01*
X131333212Y-84955000D01*
X131556788Y-84955000D01*
X131776067Y-84911383D01*
X131982624Y-84825824D01*
X132080000Y-84760759D01*
X132177376Y-84825824D01*
X132383933Y-84911383D01*
X132603212Y-84955000D01*
X132826788Y-84955000D01*
X133046067Y-84911383D01*
X133252624Y-84825824D01*
X133350000Y-84760759D01*
X133447376Y-84825824D01*
X133653933Y-84911383D01*
X133873212Y-84955000D01*
X134096788Y-84955000D01*
X134316067Y-84911383D01*
X134522624Y-84825824D01*
X134620000Y-84760759D01*
X134717376Y-84825824D01*
X134923933Y-84911383D01*
X135143212Y-84955000D01*
X135366788Y-84955000D01*
X135586067Y-84911383D01*
X135792624Y-84825824D01*
X135890000Y-84760759D01*
X135987376Y-84825824D01*
X136193933Y-84911383D01*
X136413212Y-84955000D01*
X136636788Y-84955000D01*
X136856067Y-84911383D01*
X137062624Y-84825824D01*
X137160000Y-84760759D01*
X137257376Y-84825824D01*
X137463933Y-84911383D01*
X137683212Y-84955000D01*
X137906788Y-84955000D01*
X138126067Y-84911383D01*
X138332624Y-84825824D01*
X138430000Y-84760759D01*
X138527376Y-84825824D01*
X138733933Y-84911383D01*
X138953212Y-84955000D01*
X139176788Y-84955000D01*
X139396067Y-84911383D01*
X139602624Y-84825824D01*
X139700000Y-84760759D01*
X139797376Y-84825824D01*
X140003933Y-84911383D01*
X140223212Y-84955000D01*
X140446788Y-84955000D01*
X140666067Y-84911383D01*
X140872624Y-84825824D01*
X141058520Y-84701612D01*
X141216612Y-84543520D01*
X141340824Y-84357624D01*
X141371271Y-84284117D01*
X142410000Y-84284117D01*
X142410000Y-84625883D01*
X142476675Y-84961081D01*
X142607463Y-85276831D01*
X142797337Y-85560998D01*
X143039002Y-85802663D01*
X143323169Y-85992537D01*
X143638919Y-86123325D01*
X143974117Y-86190000D01*
X144315883Y-86190000D01*
X144651081Y-86123325D01*
X144966831Y-85992537D01*
X145250998Y-85802663D01*
X145492663Y-85560998D01*
X145682537Y-85276831D01*
X145813325Y-84961081D01*
X145880000Y-84625883D01*
X145880000Y-84284117D01*
X145813325Y-83948919D01*
X145682537Y-83633169D01*
X145492663Y-83349002D01*
X145250998Y-83107337D01*
X144966831Y-82917463D01*
X144651081Y-82786675D01*
X144315883Y-82720000D01*
X143974117Y-82720000D01*
X143638919Y-82786675D01*
X143323169Y-82917463D01*
X143039002Y-83107337D01*
X142797337Y-83349002D01*
X142607463Y-83633169D01*
X142476675Y-83948919D01*
X142410000Y-84284117D01*
X141371271Y-84284117D01*
X141426383Y-84151067D01*
X141470000Y-83931788D01*
X141470000Y-83708212D01*
X141426383Y-83488933D01*
X141340824Y-83282376D01*
X141216612Y-83096480D01*
X141058520Y-82938388D01*
X140872624Y-82814176D01*
X140666067Y-82728617D01*
X140446788Y-82685000D01*
X140223212Y-82685000D01*
X140207264Y-82688172D01*
X135291417Y-77772326D01*
X135293793Y-77767881D01*
X135334371Y-77634113D01*
X135348072Y-77495000D01*
X135348072Y-76095000D01*
X135334371Y-75955887D01*
X135293793Y-75822119D01*
X135227898Y-75698838D01*
X135139218Y-75590782D01*
X135031162Y-75502102D01*
X134907881Y-75436207D01*
X134774113Y-75395629D01*
X134770000Y-75395224D01*
X134770000Y-75201304D01*
X134773435Y-75166429D01*
X134767266Y-75103793D01*
X134759727Y-75027246D01*
X134719128Y-74893410D01*
X134653200Y-74770067D01*
X134620987Y-74730816D01*
X134586707Y-74689045D01*
X134586704Y-74689042D01*
X134564474Y-74661955D01*
X134537389Y-74639727D01*
X133715282Y-73817621D01*
X133693045Y-73790525D01*
X133584933Y-73701800D01*
X133503123Y-73658072D01*
X133618981Y-73658072D01*
X135103311Y-75142403D01*
X135126207Y-75217881D01*
X135192102Y-75341162D01*
X135280782Y-75449218D01*
X135388838Y-75537898D01*
X135512119Y-75603793D01*
X135645887Y-75644371D01*
X135785000Y-75658072D01*
X137185000Y-75658072D01*
X137324113Y-75644371D01*
X137457881Y-75603793D01*
X137462326Y-75601417D01*
X142371928Y-80511020D01*
X142371928Y-81145000D01*
X142384188Y-81269482D01*
X142420498Y-81389180D01*
X142479463Y-81499494D01*
X142558815Y-81596185D01*
X142655506Y-81675537D01*
X142765820Y-81734502D01*
X142885518Y-81770812D01*
X143010000Y-81783072D01*
X144010000Y-81783072D01*
X144134482Y-81770812D01*
X144254180Y-81734502D01*
X144364494Y-81675537D01*
X144461185Y-81596185D01*
X144540537Y-81499494D01*
X144599502Y-81389180D01*
X144635812Y-81269482D01*
X144648072Y-81145000D01*
X144648072Y-80145000D01*
X144635812Y-80020518D01*
X144599502Y-79900820D01*
X144555112Y-79817774D01*
X144601383Y-79706067D01*
X144645000Y-79486788D01*
X144645000Y-79263212D01*
X144601383Y-79043933D01*
X144515824Y-78837376D01*
X144450759Y-78740000D01*
X144515824Y-78642624D01*
X144601383Y-78436067D01*
X144645000Y-78216788D01*
X144645000Y-77993212D01*
X144601383Y-77773933D01*
X144515824Y-77567376D01*
X144450759Y-77470000D01*
X144515824Y-77372624D01*
X144601383Y-77166067D01*
X144645000Y-76946788D01*
X144645000Y-76723212D01*
X144601383Y-76503933D01*
X144515824Y-76297376D01*
X144450759Y-76200000D01*
X144515824Y-76102624D01*
X144601383Y-75896067D01*
X144645000Y-75676788D01*
X144645000Y-75453212D01*
X144601383Y-75233933D01*
X144515824Y-75027376D01*
X144450759Y-74930000D01*
X144515824Y-74832624D01*
X144601383Y-74626067D01*
X144645000Y-74406788D01*
X144645000Y-74183212D01*
X144601383Y-73963933D01*
X144515824Y-73757376D01*
X144450759Y-73660000D01*
X144515824Y-73562624D01*
X144601383Y-73356067D01*
X144607189Y-73326874D01*
X150035881Y-73326874D01*
X150052554Y-73381864D01*
X150142877Y-73585206D01*
X150271135Y-73767020D01*
X150432399Y-73920318D01*
X150620471Y-74039210D01*
X150828124Y-74119126D01*
X151003000Y-73994129D01*
X151003000Y-73152000D01*
X151257000Y-73152000D01*
X151257000Y-73994129D01*
X151431876Y-74119126D01*
X151639529Y-74039210D01*
X151827601Y-73920318D01*
X151988865Y-73767020D01*
X152117123Y-73585206D01*
X152207446Y-73381864D01*
X152224119Y-73326874D01*
X152097954Y-73152000D01*
X151257000Y-73152000D01*
X151003000Y-73152000D01*
X150162046Y-73152000D01*
X150035881Y-73326874D01*
X144607189Y-73326874D01*
X144645000Y-73136788D01*
X144645000Y-72913212D01*
X144601383Y-72693933D01*
X144515824Y-72487376D01*
X144450759Y-72390000D01*
X144515824Y-72292624D01*
X144601383Y-72086067D01*
X144607189Y-72056874D01*
X150035881Y-72056874D01*
X150052554Y-72111864D01*
X150142877Y-72315206D01*
X150195639Y-72390000D01*
X150142877Y-72464794D01*
X150052554Y-72668136D01*
X150035881Y-72723126D01*
X150162046Y-72898000D01*
X151003000Y-72898000D01*
X151003000Y-71882000D01*
X151257000Y-71882000D01*
X151257000Y-72898000D01*
X152097954Y-72898000D01*
X152224119Y-72723126D01*
X152207446Y-72668136D01*
X152117123Y-72464794D01*
X152064361Y-72390000D01*
X152117123Y-72315206D01*
X152207446Y-72111864D01*
X152224119Y-72056874D01*
X152097954Y-71882000D01*
X151257000Y-71882000D01*
X151003000Y-71882000D01*
X150162046Y-71882000D01*
X150035881Y-72056874D01*
X144607189Y-72056874D01*
X144645000Y-71866788D01*
X144645000Y-71643212D01*
X144601383Y-71423933D01*
X144515824Y-71217376D01*
X144450759Y-71120000D01*
X144515824Y-71022624D01*
X144601383Y-70816067D01*
X144607189Y-70786874D01*
X150035881Y-70786874D01*
X150052554Y-70841864D01*
X150142877Y-71045206D01*
X150195639Y-71120000D01*
X150142877Y-71194794D01*
X150052554Y-71398136D01*
X150035881Y-71453126D01*
X150162046Y-71628000D01*
X151003000Y-71628000D01*
X151003000Y-70612000D01*
X151257000Y-70612000D01*
X151257000Y-71628000D01*
X152097954Y-71628000D01*
X152224119Y-71453126D01*
X152207446Y-71398136D01*
X152117123Y-71194794D01*
X152064361Y-71120000D01*
X152117123Y-71045206D01*
X152207446Y-70841864D01*
X152224119Y-70786874D01*
X152097954Y-70612000D01*
X151257000Y-70612000D01*
X151003000Y-70612000D01*
X150162046Y-70612000D01*
X150035881Y-70786874D01*
X144607189Y-70786874D01*
X144645000Y-70596788D01*
X144645000Y-70373212D01*
X144601383Y-70153933D01*
X144515824Y-69947376D01*
X144450759Y-69850000D01*
X144515824Y-69752624D01*
X144531408Y-69715000D01*
X149991928Y-69715000D01*
X150004188Y-69839482D01*
X150040498Y-69959180D01*
X150088070Y-70048180D01*
X150052554Y-70128136D01*
X150035881Y-70183126D01*
X150162046Y-70358000D01*
X151003000Y-70358000D01*
X151003000Y-69342000D01*
X151257000Y-69342000D01*
X151257000Y-70358000D01*
X152097954Y-70358000D01*
X152224119Y-70183126D01*
X152207446Y-70128136D01*
X152171930Y-70048180D01*
X152219502Y-69959180D01*
X152255812Y-69839482D01*
X152268072Y-69715000D01*
X152265000Y-69500750D01*
X152106250Y-69342000D01*
X151257000Y-69342000D01*
X151003000Y-69342000D01*
X150153750Y-69342000D01*
X149995000Y-69500750D01*
X149991928Y-69715000D01*
X144531408Y-69715000D01*
X144601383Y-69546067D01*
X144645000Y-69326788D01*
X144645000Y-69103212D01*
X144601383Y-68883933D01*
X144531409Y-68715000D01*
X149991928Y-68715000D01*
X149995000Y-68929250D01*
X150153750Y-69088000D01*
X151003000Y-69088000D01*
X151003000Y-68238750D01*
X150844250Y-68080000D01*
X150630000Y-68076928D01*
X150505518Y-68089188D01*
X150385820Y-68125498D01*
X150275506Y-68184463D01*
X150178815Y-68263815D01*
X150099463Y-68360506D01*
X150040498Y-68470820D01*
X150004188Y-68590518D01*
X149991928Y-68715000D01*
X144531409Y-68715000D01*
X144515824Y-68677376D01*
X144450759Y-68580000D01*
X144515824Y-68482624D01*
X144601383Y-68276067D01*
X144645000Y-68056788D01*
X144645000Y-67833212D01*
X144601383Y-67613933D01*
X144515824Y-67407376D01*
X144450759Y-67310000D01*
X144515824Y-67212624D01*
X144601383Y-67006067D01*
X144645000Y-66786788D01*
X144645000Y-66563212D01*
X144601383Y-66343933D01*
X144515824Y-66137376D01*
X144450759Y-66040000D01*
X144515824Y-65942624D01*
X144601383Y-65736067D01*
X144645000Y-65516788D01*
X144645000Y-65293212D01*
X144601383Y-65073933D01*
X144515824Y-64867376D01*
X144450759Y-64770000D01*
X144515824Y-64672624D01*
X144601383Y-64466067D01*
X144645000Y-64246788D01*
X144645000Y-64023212D01*
X144601383Y-63803933D01*
X144515824Y-63597376D01*
X144450759Y-63500000D01*
X144515824Y-63402624D01*
X144601383Y-63196067D01*
X144645000Y-62976788D01*
X144645000Y-62753212D01*
X144601383Y-62533933D01*
X144515824Y-62327376D01*
X144450759Y-62230000D01*
X144515824Y-62132624D01*
X144601383Y-61926067D01*
X144645000Y-61706788D01*
X144645000Y-61483212D01*
X144601383Y-61263933D01*
X144515824Y-61057376D01*
X144391612Y-60871480D01*
X144233520Y-60713388D01*
X144047624Y-60589176D01*
X143841067Y-60503617D01*
X143621788Y-60460000D01*
X143398212Y-60460000D01*
X143178933Y-60503617D01*
X142972376Y-60589176D01*
X142786480Y-60713388D01*
X142628388Y-60871480D01*
X142504176Y-61057376D01*
X142418617Y-61263933D01*
X142375000Y-61483212D01*
X142375000Y-61706788D01*
X142378172Y-61722736D01*
X137462326Y-66638583D01*
X137457881Y-66636207D01*
X137324113Y-66595629D01*
X137185000Y-66581928D01*
X135785000Y-66581928D01*
X135645887Y-66595629D01*
X135512119Y-66636207D01*
X135388838Y-66702102D01*
X135280782Y-66790782D01*
X135192102Y-66898838D01*
X135126207Y-67022119D01*
X135085629Y-67155887D01*
X135072409Y-67290118D01*
X134980525Y-67365525D01*
X134958292Y-67392616D01*
X133768981Y-68581928D01*
X133348072Y-68581928D01*
X133348072Y-68311019D01*
X134832403Y-66826689D01*
X134907881Y-66803793D01*
X135031162Y-66737898D01*
X135139218Y-66649218D01*
X135227898Y-66541162D01*
X135293793Y-66417881D01*
X135334371Y-66284113D01*
X135348072Y-66145000D01*
X135348072Y-64745000D01*
X135334371Y-64605887D01*
X135293793Y-64472119D01*
X135291417Y-64467674D01*
X140201020Y-59558072D01*
X140835000Y-59558072D01*
X140959482Y-59545812D01*
X141079180Y-59509502D01*
X141189494Y-59450537D01*
X141286185Y-59371185D01*
X141365537Y-59274494D01*
X141424502Y-59164180D01*
X141460812Y-59044482D01*
X141473072Y-58920000D01*
X141473072Y-57920000D01*
X141460812Y-57795518D01*
X141424502Y-57675820D01*
X141391521Y-57614117D01*
X142410000Y-57614117D01*
X142410000Y-57955883D01*
X142476675Y-58291081D01*
X142607463Y-58606831D01*
X142797337Y-58890998D01*
X143039002Y-59132663D01*
X143323169Y-59322537D01*
X143638919Y-59453325D01*
X143974117Y-59520000D01*
X144315883Y-59520000D01*
X144651081Y-59453325D01*
X144966831Y-59322537D01*
X145250998Y-59132663D01*
X145492663Y-58890998D01*
X145682537Y-58606831D01*
X145813325Y-58291081D01*
X145880000Y-57955883D01*
X145880000Y-57614117D01*
X145813325Y-57278919D01*
X145682537Y-56963169D01*
X145492663Y-56679002D01*
X145250998Y-56437337D01*
X144966831Y-56247463D01*
X144651081Y-56116675D01*
X144315883Y-56050000D01*
X143974117Y-56050000D01*
X143638919Y-56116675D01*
X143323169Y-56247463D01*
X143039002Y-56437337D01*
X142797337Y-56679002D01*
X142607463Y-56963169D01*
X142476675Y-57278919D01*
X142410000Y-57614117D01*
X141391521Y-57614117D01*
X141365537Y-57565506D01*
X141286185Y-57468815D01*
X141189494Y-57389463D01*
X141079180Y-57330498D01*
X140959482Y-57294188D01*
X140835000Y-57281928D01*
X139835000Y-57281928D01*
X139710518Y-57294188D01*
X139590820Y-57330498D01*
X139507774Y-57374888D01*
X139396067Y-57328617D01*
X139176788Y-57285000D01*
X138953212Y-57285000D01*
X138733933Y-57328617D01*
X138527376Y-57414176D01*
X138430000Y-57479241D01*
X138332624Y-57414176D01*
X138126067Y-57328617D01*
X137906788Y-57285000D01*
X137683212Y-57285000D01*
X137463933Y-57328617D01*
X137257376Y-57414176D01*
X137160000Y-57479241D01*
X137062624Y-57414176D01*
X136856067Y-57328617D01*
X136636788Y-57285000D01*
X136413212Y-57285000D01*
X136193933Y-57328617D01*
X135987376Y-57414176D01*
X135890000Y-57479241D01*
X135792624Y-57414176D01*
X135586067Y-57328617D01*
X135366788Y-57285000D01*
X135143212Y-57285000D01*
X134923933Y-57328617D01*
X134717376Y-57414176D01*
X134620000Y-57479241D01*
X134522624Y-57414176D01*
X134316067Y-57328617D01*
X134096788Y-57285000D01*
X133873212Y-57285000D01*
X133653933Y-57328617D01*
X133447376Y-57414176D01*
X133350000Y-57479241D01*
X133252624Y-57414176D01*
X133046067Y-57328617D01*
X132826788Y-57285000D01*
X132603212Y-57285000D01*
X132383933Y-57328617D01*
X132177376Y-57414176D01*
X132080000Y-57479241D01*
X131982624Y-57414176D01*
X131776067Y-57328617D01*
X131556788Y-57285000D01*
X131333212Y-57285000D01*
X131113933Y-57328617D01*
X130907376Y-57414176D01*
X130810000Y-57479241D01*
X130712624Y-57414176D01*
X130506067Y-57328617D01*
X130286788Y-57285000D01*
X130063212Y-57285000D01*
X129843933Y-57328617D01*
X129637376Y-57414176D01*
X129540000Y-57479241D01*
X129442624Y-57414176D01*
X129236067Y-57328617D01*
X129016788Y-57285000D01*
X128793212Y-57285000D01*
X128573933Y-57328617D01*
X128367376Y-57414176D01*
X128270000Y-57479241D01*
X128172624Y-57414176D01*
X127966067Y-57328617D01*
X127746788Y-57285000D01*
X127523212Y-57285000D01*
X127303933Y-57328617D01*
X127097376Y-57414176D01*
X127000000Y-57479241D01*
X126902624Y-57414176D01*
X126696067Y-57328617D01*
X126476788Y-57285000D01*
X126253212Y-57285000D01*
X126033933Y-57328617D01*
X125827376Y-57414176D01*
X125730000Y-57479241D01*
X125632624Y-57414176D01*
X125426067Y-57328617D01*
X125206788Y-57285000D01*
X124983212Y-57285000D01*
X124763933Y-57328617D01*
X124557376Y-57414176D01*
X124460000Y-57479241D01*
X124362624Y-57414176D01*
X124156067Y-57328617D01*
X123936788Y-57285000D01*
X123713212Y-57285000D01*
X123493933Y-57328617D01*
X123287376Y-57414176D01*
X123190000Y-57479241D01*
X123092624Y-57414176D01*
X122886067Y-57328617D01*
X122666788Y-57285000D01*
X122443212Y-57285000D01*
X122223933Y-57328617D01*
X122017376Y-57414176D01*
X121920000Y-57479241D01*
X121822624Y-57414176D01*
X121616067Y-57328617D01*
X121396788Y-57285000D01*
X121173212Y-57285000D01*
X120953933Y-57328617D01*
X120747376Y-57414176D01*
X120561480Y-57538388D01*
X120403388Y-57696480D01*
X120279176Y-57882376D01*
X120193617Y-58088933D01*
X120150000Y-58308212D01*
X120150000Y-58531788D01*
X120193617Y-58751067D01*
X120279176Y-58957624D01*
X120403388Y-59143520D01*
X120561480Y-59301612D01*
X120747376Y-59425824D01*
X120953933Y-59511383D01*
X121173212Y-59555000D01*
X121396788Y-59555000D01*
X121412737Y-59551828D01*
X126328583Y-64467675D01*
X126326207Y-64472119D01*
X126285629Y-64605887D01*
X126271928Y-64745000D01*
X126271928Y-66145000D01*
X126285629Y-66284113D01*
X126326207Y-66417881D01*
X126392102Y-66541162D01*
X126480782Y-66649218D01*
X126588838Y-66737898D01*
X126712119Y-66803793D01*
X126845887Y-66844371D01*
X126980119Y-66857591D01*
X127055525Y-66949474D01*
X127082617Y-66971708D01*
X128271928Y-68161020D01*
X128271928Y-68581928D01*
X128001020Y-68581928D01*
X126516689Y-67097598D01*
X126493793Y-67022119D01*
X126427898Y-66898838D01*
X126339218Y-66790782D01*
X126231162Y-66702102D01*
X126107881Y-66636207D01*
X125974113Y-66595629D01*
X125835000Y-66581928D01*
X124435000Y-66581928D01*
X124295887Y-66595629D01*
X124162119Y-66636207D01*
X124157675Y-66638583D01*
X119248072Y-61728981D01*
X119248072Y-61095000D01*
X119235812Y-60970518D01*
X119199502Y-60850820D01*
X119140537Y-60740506D01*
X119061185Y-60643815D01*
X118964494Y-60564463D01*
X118854180Y-60505498D01*
X118734482Y-60469188D01*
X118610000Y-60456928D01*
X117610000Y-60456928D01*
X117485518Y-60469188D01*
X117365820Y-60505498D01*
X117255506Y-60564463D01*
X117158815Y-60643815D01*
X117079463Y-60740506D01*
X117020498Y-60850820D01*
X116984188Y-60970518D01*
X116971928Y-61095000D01*
X111720401Y-61095000D01*
X112439051Y-59808558D01*
X113464510Y-58291342D01*
X114011330Y-57614117D01*
X115740000Y-57614117D01*
X115740000Y-57955883D01*
X115806675Y-58291081D01*
X115937463Y-58606831D01*
X116127337Y-58890998D01*
X116369002Y-59132663D01*
X116653169Y-59322537D01*
X116968919Y-59453325D01*
X117304117Y-59520000D01*
X117645883Y-59520000D01*
X117981081Y-59453325D01*
X118296831Y-59322537D01*
X118580998Y-59132663D01*
X118822663Y-58890998D01*
X119012537Y-58606831D01*
X119143325Y-58291081D01*
X119210000Y-57955883D01*
X119210000Y-57614117D01*
X119143325Y-57278919D01*
X119012537Y-56963169D01*
X118822663Y-56679002D01*
X118580998Y-56437337D01*
X118296831Y-56247463D01*
X117981081Y-56116675D01*
X117645883Y-56050000D01*
X117304117Y-56050000D01*
X116968919Y-56116675D01*
X116653169Y-56247463D01*
X116369002Y-56437337D01*
X116127337Y-56679002D01*
X115937463Y-56963169D01*
X115806675Y-57278919D01*
X115740000Y-57614117D01*
X114011330Y-57614117D01*
X114614943Y-56866557D01*
X115882062Y-55544469D01*
X117256738Y-54334602D01*
X118729065Y-53245675D01*
X120288435Y-52285532D01*
X121923614Y-51461093D01*
X122324509Y-51300000D01*
X127766928Y-51300000D01*
X127779188Y-51424482D01*
X127815498Y-51544180D01*
X127874463Y-51654494D01*
X127953815Y-51751185D01*
X128050506Y-51830537D01*
X128160820Y-51889502D01*
X128280518Y-51925812D01*
X128405000Y-51938072D01*
X128619250Y-51935000D01*
X128778000Y-51776250D01*
X128778000Y-50927000D01*
X129032000Y-50927000D01*
X129032000Y-51776250D01*
X129190750Y-51935000D01*
X129405000Y-51938072D01*
X129529482Y-51925812D01*
X129649180Y-51889502D01*
X129738180Y-51841930D01*
X129818136Y-51877446D01*
X129873126Y-51894119D01*
X130048000Y-51767954D01*
X130048000Y-50927000D01*
X130302000Y-50927000D01*
X130302000Y-51767954D01*
X130476874Y-51894119D01*
X130531864Y-51877446D01*
X130735206Y-51787123D01*
X130810000Y-51734361D01*
X130884794Y-51787123D01*
X131088136Y-51877446D01*
X131143126Y-51894119D01*
X131318000Y-51767954D01*
X131318000Y-50927000D01*
X131572000Y-50927000D01*
X131572000Y-51767954D01*
X131746874Y-51894119D01*
X131801864Y-51877446D01*
X132005206Y-51787123D01*
X132080000Y-51734361D01*
X132154794Y-51787123D01*
X132358136Y-51877446D01*
X132413126Y-51894119D01*
X132588000Y-51767954D01*
X132588000Y-50927000D01*
X132842000Y-50927000D01*
X132842000Y-51767954D01*
X133016874Y-51894119D01*
X133071864Y-51877446D01*
X133275206Y-51787123D01*
X133457020Y-51658865D01*
X133610318Y-51497601D01*
X133729210Y-51309529D01*
X133809126Y-51101876D01*
X133684129Y-50927000D01*
X132842000Y-50927000D01*
X132588000Y-50927000D01*
X131572000Y-50927000D01*
X131318000Y-50927000D01*
X130302000Y-50927000D01*
X130048000Y-50927000D01*
X129032000Y-50927000D01*
X128778000Y-50927000D01*
X127928750Y-50927000D01*
X127770000Y-51085750D01*
X127766928Y-51300000D01*
X122324509Y-51300000D01*
X123622819Y-50778296D01*
X125373808Y-50242062D01*
X127163964Y-49856253D01*
X128116283Y-49734304D01*
X128050506Y-49769463D01*
X127953815Y-49848815D01*
X127874463Y-49945506D01*
X127815498Y-50055820D01*
X127779188Y-50175518D01*
X127766928Y-50300000D01*
X127770000Y-50514250D01*
X127928750Y-50673000D01*
X128778000Y-50673000D01*
X128778000Y-49823750D01*
X129032000Y-49823750D01*
X129032000Y-50673000D01*
X130048000Y-50673000D01*
X130048000Y-49832046D01*
X130302000Y-49832046D01*
X130302000Y-50673000D01*
X131318000Y-50673000D01*
X131318000Y-49832046D01*
X131572000Y-49832046D01*
X131572000Y-50673000D01*
X132588000Y-50673000D01*
X132588000Y-49832046D01*
X132842000Y-49832046D01*
X132842000Y-50673000D01*
X133684129Y-50673000D01*
X133809126Y-50498124D01*
X133729210Y-50290471D01*
X133610318Y-50102399D01*
X133457020Y-49941135D01*
X133275206Y-49812877D01*
X133071864Y-49722554D01*
X133016874Y-49705881D01*
X132842000Y-49832046D01*
X132588000Y-49832046D01*
X132413126Y-49705881D01*
X132358136Y-49722554D01*
X132154794Y-49812877D01*
X132080000Y-49865639D01*
X132005206Y-49812877D01*
X131801864Y-49722554D01*
X131746874Y-49705881D01*
X131572000Y-49832046D01*
X131318000Y-49832046D01*
X131143126Y-49705881D01*
X131088136Y-49722554D01*
X130884794Y-49812877D01*
X130810000Y-49865639D01*
X130735206Y-49812877D01*
X130531864Y-49722554D01*
X130476874Y-49705881D01*
X130302000Y-49832046D01*
X130048000Y-49832046D01*
X129873126Y-49705881D01*
X129818136Y-49722554D01*
X129738180Y-49758070D01*
X129649180Y-49710498D01*
X129529482Y-49674188D01*
X129405000Y-49661928D01*
X129190750Y-49665000D01*
X129032000Y-49823750D01*
X128778000Y-49823750D01*
X128623591Y-49669341D01*
X128980391Y-49623651D01*
X130810000Y-49545930D01*
X132639609Y-49623651D01*
G37*
%TD.AperFunction*%
%TD*%
M02*
