%TF.GenerationSoftware,KiCad,Pcbnew,5.1.10*%
%TF.CreationDate,2021-10-22T01:17:49+03:00*%
%TF.ProjectId,breakouts_qfp,62726561-6b6f-4757-9473-5f7166702e6b,rev?*%
%TF.SameCoordinates,Original*%
%TF.FileFunction,Paste,Top*%
%TF.FilePolarity,Positive*%
%FSLAX46Y46*%
G04 Gerber Fmt 4.6, Leading zero omitted, Abs format (unit mm)*
G04 Created by KiCad (PCBNEW 5.1.10) date 2021-10-22 01:17:49*
%MOMM*%
%LPD*%
G01*
G04 APERTURE LIST*
G04 APERTURE END LIST*
%TO.C,U2*%
G36*
G01*
X126910000Y-66145000D02*
X126910000Y-64745000D01*
G75*
G02*
X126985000Y-64670000I75000J0D01*
G01*
X127135000Y-64670000D01*
G75*
G02*
X127210000Y-64745000I0J-75000D01*
G01*
X127210000Y-66145000D01*
G75*
G02*
X127135000Y-66220000I-75000J0D01*
G01*
X126985000Y-66220000D01*
G75*
G02*
X126910000Y-66145000I0J75000D01*
G01*
G37*
G36*
G01*
X127410000Y-66145000D02*
X127410000Y-64745000D01*
G75*
G02*
X127485000Y-64670000I75000J0D01*
G01*
X127635000Y-64670000D01*
G75*
G02*
X127710000Y-64745000I0J-75000D01*
G01*
X127710000Y-66145000D01*
G75*
G02*
X127635000Y-66220000I-75000J0D01*
G01*
X127485000Y-66220000D01*
G75*
G02*
X127410000Y-66145000I0J75000D01*
G01*
G37*
G36*
G01*
X127910000Y-66145000D02*
X127910000Y-64745000D01*
G75*
G02*
X127985000Y-64670000I75000J0D01*
G01*
X128135000Y-64670000D01*
G75*
G02*
X128210000Y-64745000I0J-75000D01*
G01*
X128210000Y-66145000D01*
G75*
G02*
X128135000Y-66220000I-75000J0D01*
G01*
X127985000Y-66220000D01*
G75*
G02*
X127910000Y-66145000I0J75000D01*
G01*
G37*
G36*
G01*
X128410000Y-66145000D02*
X128410000Y-64745000D01*
G75*
G02*
X128485000Y-64670000I75000J0D01*
G01*
X128635000Y-64670000D01*
G75*
G02*
X128710000Y-64745000I0J-75000D01*
G01*
X128710000Y-66145000D01*
G75*
G02*
X128635000Y-66220000I-75000J0D01*
G01*
X128485000Y-66220000D01*
G75*
G02*
X128410000Y-66145000I0J75000D01*
G01*
G37*
G36*
G01*
X128910000Y-66145000D02*
X128910000Y-64745000D01*
G75*
G02*
X128985000Y-64670000I75000J0D01*
G01*
X129135000Y-64670000D01*
G75*
G02*
X129210000Y-64745000I0J-75000D01*
G01*
X129210000Y-66145000D01*
G75*
G02*
X129135000Y-66220000I-75000J0D01*
G01*
X128985000Y-66220000D01*
G75*
G02*
X128910000Y-66145000I0J75000D01*
G01*
G37*
G36*
G01*
X129410000Y-66145000D02*
X129410000Y-64745000D01*
G75*
G02*
X129485000Y-64670000I75000J0D01*
G01*
X129635000Y-64670000D01*
G75*
G02*
X129710000Y-64745000I0J-75000D01*
G01*
X129710000Y-66145000D01*
G75*
G02*
X129635000Y-66220000I-75000J0D01*
G01*
X129485000Y-66220000D01*
G75*
G02*
X129410000Y-66145000I0J75000D01*
G01*
G37*
G36*
G01*
X129910000Y-66145000D02*
X129910000Y-64745000D01*
G75*
G02*
X129985000Y-64670000I75000J0D01*
G01*
X130135000Y-64670000D01*
G75*
G02*
X130210000Y-64745000I0J-75000D01*
G01*
X130210000Y-66145000D01*
G75*
G02*
X130135000Y-66220000I-75000J0D01*
G01*
X129985000Y-66220000D01*
G75*
G02*
X129910000Y-66145000I0J75000D01*
G01*
G37*
G36*
G01*
X130410000Y-66145000D02*
X130410000Y-64745000D01*
G75*
G02*
X130485000Y-64670000I75000J0D01*
G01*
X130635000Y-64670000D01*
G75*
G02*
X130710000Y-64745000I0J-75000D01*
G01*
X130710000Y-66145000D01*
G75*
G02*
X130635000Y-66220000I-75000J0D01*
G01*
X130485000Y-66220000D01*
G75*
G02*
X130410000Y-66145000I0J75000D01*
G01*
G37*
G36*
G01*
X130910000Y-66145000D02*
X130910000Y-64745000D01*
G75*
G02*
X130985000Y-64670000I75000J0D01*
G01*
X131135000Y-64670000D01*
G75*
G02*
X131210000Y-64745000I0J-75000D01*
G01*
X131210000Y-66145000D01*
G75*
G02*
X131135000Y-66220000I-75000J0D01*
G01*
X130985000Y-66220000D01*
G75*
G02*
X130910000Y-66145000I0J75000D01*
G01*
G37*
G36*
G01*
X131410000Y-66145000D02*
X131410000Y-64745000D01*
G75*
G02*
X131485000Y-64670000I75000J0D01*
G01*
X131635000Y-64670000D01*
G75*
G02*
X131710000Y-64745000I0J-75000D01*
G01*
X131710000Y-66145000D01*
G75*
G02*
X131635000Y-66220000I-75000J0D01*
G01*
X131485000Y-66220000D01*
G75*
G02*
X131410000Y-66145000I0J75000D01*
G01*
G37*
G36*
G01*
X131910000Y-66145000D02*
X131910000Y-64745000D01*
G75*
G02*
X131985000Y-64670000I75000J0D01*
G01*
X132135000Y-64670000D01*
G75*
G02*
X132210000Y-64745000I0J-75000D01*
G01*
X132210000Y-66145000D01*
G75*
G02*
X132135000Y-66220000I-75000J0D01*
G01*
X131985000Y-66220000D01*
G75*
G02*
X131910000Y-66145000I0J75000D01*
G01*
G37*
G36*
G01*
X132410000Y-66145000D02*
X132410000Y-64745000D01*
G75*
G02*
X132485000Y-64670000I75000J0D01*
G01*
X132635000Y-64670000D01*
G75*
G02*
X132710000Y-64745000I0J-75000D01*
G01*
X132710000Y-66145000D01*
G75*
G02*
X132635000Y-66220000I-75000J0D01*
G01*
X132485000Y-66220000D01*
G75*
G02*
X132410000Y-66145000I0J75000D01*
G01*
G37*
G36*
G01*
X132910000Y-66145000D02*
X132910000Y-64745000D01*
G75*
G02*
X132985000Y-64670000I75000J0D01*
G01*
X133135000Y-64670000D01*
G75*
G02*
X133210000Y-64745000I0J-75000D01*
G01*
X133210000Y-66145000D01*
G75*
G02*
X133135000Y-66220000I-75000J0D01*
G01*
X132985000Y-66220000D01*
G75*
G02*
X132910000Y-66145000I0J75000D01*
G01*
G37*
G36*
G01*
X133410000Y-66145000D02*
X133410000Y-64745000D01*
G75*
G02*
X133485000Y-64670000I75000J0D01*
G01*
X133635000Y-64670000D01*
G75*
G02*
X133710000Y-64745000I0J-75000D01*
G01*
X133710000Y-66145000D01*
G75*
G02*
X133635000Y-66220000I-75000J0D01*
G01*
X133485000Y-66220000D01*
G75*
G02*
X133410000Y-66145000I0J75000D01*
G01*
G37*
G36*
G01*
X133910000Y-66145000D02*
X133910000Y-64745000D01*
G75*
G02*
X133985000Y-64670000I75000J0D01*
G01*
X134135000Y-64670000D01*
G75*
G02*
X134210000Y-64745000I0J-75000D01*
G01*
X134210000Y-66145000D01*
G75*
G02*
X134135000Y-66220000I-75000J0D01*
G01*
X133985000Y-66220000D01*
G75*
G02*
X133910000Y-66145000I0J75000D01*
G01*
G37*
G36*
G01*
X134410000Y-66145000D02*
X134410000Y-64745000D01*
G75*
G02*
X134485000Y-64670000I75000J0D01*
G01*
X134635000Y-64670000D01*
G75*
G02*
X134710000Y-64745000I0J-75000D01*
G01*
X134710000Y-66145000D01*
G75*
G02*
X134635000Y-66220000I-75000J0D01*
G01*
X134485000Y-66220000D01*
G75*
G02*
X134410000Y-66145000I0J75000D01*
G01*
G37*
G36*
G01*
X135710000Y-67445000D02*
X135710000Y-67295000D01*
G75*
G02*
X135785000Y-67220000I75000J0D01*
G01*
X137185000Y-67220000D01*
G75*
G02*
X137260000Y-67295000I0J-75000D01*
G01*
X137260000Y-67445000D01*
G75*
G02*
X137185000Y-67520000I-75000J0D01*
G01*
X135785000Y-67520000D01*
G75*
G02*
X135710000Y-67445000I0J75000D01*
G01*
G37*
G36*
G01*
X135710000Y-67945000D02*
X135710000Y-67795000D01*
G75*
G02*
X135785000Y-67720000I75000J0D01*
G01*
X137185000Y-67720000D01*
G75*
G02*
X137260000Y-67795000I0J-75000D01*
G01*
X137260000Y-67945000D01*
G75*
G02*
X137185000Y-68020000I-75000J0D01*
G01*
X135785000Y-68020000D01*
G75*
G02*
X135710000Y-67945000I0J75000D01*
G01*
G37*
G36*
G01*
X135710000Y-68445000D02*
X135710000Y-68295000D01*
G75*
G02*
X135785000Y-68220000I75000J0D01*
G01*
X137185000Y-68220000D01*
G75*
G02*
X137260000Y-68295000I0J-75000D01*
G01*
X137260000Y-68445000D01*
G75*
G02*
X137185000Y-68520000I-75000J0D01*
G01*
X135785000Y-68520000D01*
G75*
G02*
X135710000Y-68445000I0J75000D01*
G01*
G37*
G36*
G01*
X135710000Y-68945000D02*
X135710000Y-68795000D01*
G75*
G02*
X135785000Y-68720000I75000J0D01*
G01*
X137185000Y-68720000D01*
G75*
G02*
X137260000Y-68795000I0J-75000D01*
G01*
X137260000Y-68945000D01*
G75*
G02*
X137185000Y-69020000I-75000J0D01*
G01*
X135785000Y-69020000D01*
G75*
G02*
X135710000Y-68945000I0J75000D01*
G01*
G37*
G36*
G01*
X135710000Y-69445000D02*
X135710000Y-69295000D01*
G75*
G02*
X135785000Y-69220000I75000J0D01*
G01*
X137185000Y-69220000D01*
G75*
G02*
X137260000Y-69295000I0J-75000D01*
G01*
X137260000Y-69445000D01*
G75*
G02*
X137185000Y-69520000I-75000J0D01*
G01*
X135785000Y-69520000D01*
G75*
G02*
X135710000Y-69445000I0J75000D01*
G01*
G37*
G36*
G01*
X135710000Y-69945000D02*
X135710000Y-69795000D01*
G75*
G02*
X135785000Y-69720000I75000J0D01*
G01*
X137185000Y-69720000D01*
G75*
G02*
X137260000Y-69795000I0J-75000D01*
G01*
X137260000Y-69945000D01*
G75*
G02*
X137185000Y-70020000I-75000J0D01*
G01*
X135785000Y-70020000D01*
G75*
G02*
X135710000Y-69945000I0J75000D01*
G01*
G37*
G36*
G01*
X135710000Y-70445000D02*
X135710000Y-70295000D01*
G75*
G02*
X135785000Y-70220000I75000J0D01*
G01*
X137185000Y-70220000D01*
G75*
G02*
X137260000Y-70295000I0J-75000D01*
G01*
X137260000Y-70445000D01*
G75*
G02*
X137185000Y-70520000I-75000J0D01*
G01*
X135785000Y-70520000D01*
G75*
G02*
X135710000Y-70445000I0J75000D01*
G01*
G37*
G36*
G01*
X135710000Y-70945000D02*
X135710000Y-70795000D01*
G75*
G02*
X135785000Y-70720000I75000J0D01*
G01*
X137185000Y-70720000D01*
G75*
G02*
X137260000Y-70795000I0J-75000D01*
G01*
X137260000Y-70945000D01*
G75*
G02*
X137185000Y-71020000I-75000J0D01*
G01*
X135785000Y-71020000D01*
G75*
G02*
X135710000Y-70945000I0J75000D01*
G01*
G37*
G36*
G01*
X135710000Y-71445000D02*
X135710000Y-71295000D01*
G75*
G02*
X135785000Y-71220000I75000J0D01*
G01*
X137185000Y-71220000D01*
G75*
G02*
X137260000Y-71295000I0J-75000D01*
G01*
X137260000Y-71445000D01*
G75*
G02*
X137185000Y-71520000I-75000J0D01*
G01*
X135785000Y-71520000D01*
G75*
G02*
X135710000Y-71445000I0J75000D01*
G01*
G37*
G36*
G01*
X135710000Y-71945000D02*
X135710000Y-71795000D01*
G75*
G02*
X135785000Y-71720000I75000J0D01*
G01*
X137185000Y-71720000D01*
G75*
G02*
X137260000Y-71795000I0J-75000D01*
G01*
X137260000Y-71945000D01*
G75*
G02*
X137185000Y-72020000I-75000J0D01*
G01*
X135785000Y-72020000D01*
G75*
G02*
X135710000Y-71945000I0J75000D01*
G01*
G37*
G36*
G01*
X135710000Y-72445000D02*
X135710000Y-72295000D01*
G75*
G02*
X135785000Y-72220000I75000J0D01*
G01*
X137185000Y-72220000D01*
G75*
G02*
X137260000Y-72295000I0J-75000D01*
G01*
X137260000Y-72445000D01*
G75*
G02*
X137185000Y-72520000I-75000J0D01*
G01*
X135785000Y-72520000D01*
G75*
G02*
X135710000Y-72445000I0J75000D01*
G01*
G37*
G36*
G01*
X135710000Y-72945000D02*
X135710000Y-72795000D01*
G75*
G02*
X135785000Y-72720000I75000J0D01*
G01*
X137185000Y-72720000D01*
G75*
G02*
X137260000Y-72795000I0J-75000D01*
G01*
X137260000Y-72945000D01*
G75*
G02*
X137185000Y-73020000I-75000J0D01*
G01*
X135785000Y-73020000D01*
G75*
G02*
X135710000Y-72945000I0J75000D01*
G01*
G37*
G36*
G01*
X135710000Y-73445000D02*
X135710000Y-73295000D01*
G75*
G02*
X135785000Y-73220000I75000J0D01*
G01*
X137185000Y-73220000D01*
G75*
G02*
X137260000Y-73295000I0J-75000D01*
G01*
X137260000Y-73445000D01*
G75*
G02*
X137185000Y-73520000I-75000J0D01*
G01*
X135785000Y-73520000D01*
G75*
G02*
X135710000Y-73445000I0J75000D01*
G01*
G37*
G36*
G01*
X135710000Y-73945000D02*
X135710000Y-73795000D01*
G75*
G02*
X135785000Y-73720000I75000J0D01*
G01*
X137185000Y-73720000D01*
G75*
G02*
X137260000Y-73795000I0J-75000D01*
G01*
X137260000Y-73945000D01*
G75*
G02*
X137185000Y-74020000I-75000J0D01*
G01*
X135785000Y-74020000D01*
G75*
G02*
X135710000Y-73945000I0J75000D01*
G01*
G37*
G36*
G01*
X135710000Y-74445000D02*
X135710000Y-74295000D01*
G75*
G02*
X135785000Y-74220000I75000J0D01*
G01*
X137185000Y-74220000D01*
G75*
G02*
X137260000Y-74295000I0J-75000D01*
G01*
X137260000Y-74445000D01*
G75*
G02*
X137185000Y-74520000I-75000J0D01*
G01*
X135785000Y-74520000D01*
G75*
G02*
X135710000Y-74445000I0J75000D01*
G01*
G37*
G36*
G01*
X135710000Y-74945000D02*
X135710000Y-74795000D01*
G75*
G02*
X135785000Y-74720000I75000J0D01*
G01*
X137185000Y-74720000D01*
G75*
G02*
X137260000Y-74795000I0J-75000D01*
G01*
X137260000Y-74945000D01*
G75*
G02*
X137185000Y-75020000I-75000J0D01*
G01*
X135785000Y-75020000D01*
G75*
G02*
X135710000Y-74945000I0J75000D01*
G01*
G37*
G36*
G01*
X134410000Y-77495000D02*
X134410000Y-76095000D01*
G75*
G02*
X134485000Y-76020000I75000J0D01*
G01*
X134635000Y-76020000D01*
G75*
G02*
X134710000Y-76095000I0J-75000D01*
G01*
X134710000Y-77495000D01*
G75*
G02*
X134635000Y-77570000I-75000J0D01*
G01*
X134485000Y-77570000D01*
G75*
G02*
X134410000Y-77495000I0J75000D01*
G01*
G37*
G36*
G01*
X133910000Y-77495000D02*
X133910000Y-76095000D01*
G75*
G02*
X133985000Y-76020000I75000J0D01*
G01*
X134135000Y-76020000D01*
G75*
G02*
X134210000Y-76095000I0J-75000D01*
G01*
X134210000Y-77495000D01*
G75*
G02*
X134135000Y-77570000I-75000J0D01*
G01*
X133985000Y-77570000D01*
G75*
G02*
X133910000Y-77495000I0J75000D01*
G01*
G37*
G36*
G01*
X133410000Y-77495000D02*
X133410000Y-76095000D01*
G75*
G02*
X133485000Y-76020000I75000J0D01*
G01*
X133635000Y-76020000D01*
G75*
G02*
X133710000Y-76095000I0J-75000D01*
G01*
X133710000Y-77495000D01*
G75*
G02*
X133635000Y-77570000I-75000J0D01*
G01*
X133485000Y-77570000D01*
G75*
G02*
X133410000Y-77495000I0J75000D01*
G01*
G37*
G36*
G01*
X132910000Y-77495000D02*
X132910000Y-76095000D01*
G75*
G02*
X132985000Y-76020000I75000J0D01*
G01*
X133135000Y-76020000D01*
G75*
G02*
X133210000Y-76095000I0J-75000D01*
G01*
X133210000Y-77495000D01*
G75*
G02*
X133135000Y-77570000I-75000J0D01*
G01*
X132985000Y-77570000D01*
G75*
G02*
X132910000Y-77495000I0J75000D01*
G01*
G37*
G36*
G01*
X132410000Y-77495000D02*
X132410000Y-76095000D01*
G75*
G02*
X132485000Y-76020000I75000J0D01*
G01*
X132635000Y-76020000D01*
G75*
G02*
X132710000Y-76095000I0J-75000D01*
G01*
X132710000Y-77495000D01*
G75*
G02*
X132635000Y-77570000I-75000J0D01*
G01*
X132485000Y-77570000D01*
G75*
G02*
X132410000Y-77495000I0J75000D01*
G01*
G37*
G36*
G01*
X131910000Y-77495000D02*
X131910000Y-76095000D01*
G75*
G02*
X131985000Y-76020000I75000J0D01*
G01*
X132135000Y-76020000D01*
G75*
G02*
X132210000Y-76095000I0J-75000D01*
G01*
X132210000Y-77495000D01*
G75*
G02*
X132135000Y-77570000I-75000J0D01*
G01*
X131985000Y-77570000D01*
G75*
G02*
X131910000Y-77495000I0J75000D01*
G01*
G37*
G36*
G01*
X131410000Y-77495000D02*
X131410000Y-76095000D01*
G75*
G02*
X131485000Y-76020000I75000J0D01*
G01*
X131635000Y-76020000D01*
G75*
G02*
X131710000Y-76095000I0J-75000D01*
G01*
X131710000Y-77495000D01*
G75*
G02*
X131635000Y-77570000I-75000J0D01*
G01*
X131485000Y-77570000D01*
G75*
G02*
X131410000Y-77495000I0J75000D01*
G01*
G37*
G36*
G01*
X130910000Y-77495000D02*
X130910000Y-76095000D01*
G75*
G02*
X130985000Y-76020000I75000J0D01*
G01*
X131135000Y-76020000D01*
G75*
G02*
X131210000Y-76095000I0J-75000D01*
G01*
X131210000Y-77495000D01*
G75*
G02*
X131135000Y-77570000I-75000J0D01*
G01*
X130985000Y-77570000D01*
G75*
G02*
X130910000Y-77495000I0J75000D01*
G01*
G37*
G36*
G01*
X130410000Y-77495000D02*
X130410000Y-76095000D01*
G75*
G02*
X130485000Y-76020000I75000J0D01*
G01*
X130635000Y-76020000D01*
G75*
G02*
X130710000Y-76095000I0J-75000D01*
G01*
X130710000Y-77495000D01*
G75*
G02*
X130635000Y-77570000I-75000J0D01*
G01*
X130485000Y-77570000D01*
G75*
G02*
X130410000Y-77495000I0J75000D01*
G01*
G37*
G36*
G01*
X129910000Y-77495000D02*
X129910000Y-76095000D01*
G75*
G02*
X129985000Y-76020000I75000J0D01*
G01*
X130135000Y-76020000D01*
G75*
G02*
X130210000Y-76095000I0J-75000D01*
G01*
X130210000Y-77495000D01*
G75*
G02*
X130135000Y-77570000I-75000J0D01*
G01*
X129985000Y-77570000D01*
G75*
G02*
X129910000Y-77495000I0J75000D01*
G01*
G37*
G36*
G01*
X129410000Y-77495000D02*
X129410000Y-76095000D01*
G75*
G02*
X129485000Y-76020000I75000J0D01*
G01*
X129635000Y-76020000D01*
G75*
G02*
X129710000Y-76095000I0J-75000D01*
G01*
X129710000Y-77495000D01*
G75*
G02*
X129635000Y-77570000I-75000J0D01*
G01*
X129485000Y-77570000D01*
G75*
G02*
X129410000Y-77495000I0J75000D01*
G01*
G37*
G36*
G01*
X128910000Y-77495000D02*
X128910000Y-76095000D01*
G75*
G02*
X128985000Y-76020000I75000J0D01*
G01*
X129135000Y-76020000D01*
G75*
G02*
X129210000Y-76095000I0J-75000D01*
G01*
X129210000Y-77495000D01*
G75*
G02*
X129135000Y-77570000I-75000J0D01*
G01*
X128985000Y-77570000D01*
G75*
G02*
X128910000Y-77495000I0J75000D01*
G01*
G37*
G36*
G01*
X128410000Y-77495000D02*
X128410000Y-76095000D01*
G75*
G02*
X128485000Y-76020000I75000J0D01*
G01*
X128635000Y-76020000D01*
G75*
G02*
X128710000Y-76095000I0J-75000D01*
G01*
X128710000Y-77495000D01*
G75*
G02*
X128635000Y-77570000I-75000J0D01*
G01*
X128485000Y-77570000D01*
G75*
G02*
X128410000Y-77495000I0J75000D01*
G01*
G37*
G36*
G01*
X127910000Y-77495000D02*
X127910000Y-76095000D01*
G75*
G02*
X127985000Y-76020000I75000J0D01*
G01*
X128135000Y-76020000D01*
G75*
G02*
X128210000Y-76095000I0J-75000D01*
G01*
X128210000Y-77495000D01*
G75*
G02*
X128135000Y-77570000I-75000J0D01*
G01*
X127985000Y-77570000D01*
G75*
G02*
X127910000Y-77495000I0J75000D01*
G01*
G37*
G36*
G01*
X127410000Y-77495000D02*
X127410000Y-76095000D01*
G75*
G02*
X127485000Y-76020000I75000J0D01*
G01*
X127635000Y-76020000D01*
G75*
G02*
X127710000Y-76095000I0J-75000D01*
G01*
X127710000Y-77495000D01*
G75*
G02*
X127635000Y-77570000I-75000J0D01*
G01*
X127485000Y-77570000D01*
G75*
G02*
X127410000Y-77495000I0J75000D01*
G01*
G37*
G36*
G01*
X126910000Y-77495000D02*
X126910000Y-76095000D01*
G75*
G02*
X126985000Y-76020000I75000J0D01*
G01*
X127135000Y-76020000D01*
G75*
G02*
X127210000Y-76095000I0J-75000D01*
G01*
X127210000Y-77495000D01*
G75*
G02*
X127135000Y-77570000I-75000J0D01*
G01*
X126985000Y-77570000D01*
G75*
G02*
X126910000Y-77495000I0J75000D01*
G01*
G37*
G36*
G01*
X124360000Y-74945000D02*
X124360000Y-74795000D01*
G75*
G02*
X124435000Y-74720000I75000J0D01*
G01*
X125835000Y-74720000D01*
G75*
G02*
X125910000Y-74795000I0J-75000D01*
G01*
X125910000Y-74945000D01*
G75*
G02*
X125835000Y-75020000I-75000J0D01*
G01*
X124435000Y-75020000D01*
G75*
G02*
X124360000Y-74945000I0J75000D01*
G01*
G37*
G36*
G01*
X124360000Y-74445000D02*
X124360000Y-74295000D01*
G75*
G02*
X124435000Y-74220000I75000J0D01*
G01*
X125835000Y-74220000D01*
G75*
G02*
X125910000Y-74295000I0J-75000D01*
G01*
X125910000Y-74445000D01*
G75*
G02*
X125835000Y-74520000I-75000J0D01*
G01*
X124435000Y-74520000D01*
G75*
G02*
X124360000Y-74445000I0J75000D01*
G01*
G37*
G36*
G01*
X124360000Y-73945000D02*
X124360000Y-73795000D01*
G75*
G02*
X124435000Y-73720000I75000J0D01*
G01*
X125835000Y-73720000D01*
G75*
G02*
X125910000Y-73795000I0J-75000D01*
G01*
X125910000Y-73945000D01*
G75*
G02*
X125835000Y-74020000I-75000J0D01*
G01*
X124435000Y-74020000D01*
G75*
G02*
X124360000Y-73945000I0J75000D01*
G01*
G37*
G36*
G01*
X124360000Y-73445000D02*
X124360000Y-73295000D01*
G75*
G02*
X124435000Y-73220000I75000J0D01*
G01*
X125835000Y-73220000D01*
G75*
G02*
X125910000Y-73295000I0J-75000D01*
G01*
X125910000Y-73445000D01*
G75*
G02*
X125835000Y-73520000I-75000J0D01*
G01*
X124435000Y-73520000D01*
G75*
G02*
X124360000Y-73445000I0J75000D01*
G01*
G37*
G36*
G01*
X124360000Y-72945000D02*
X124360000Y-72795000D01*
G75*
G02*
X124435000Y-72720000I75000J0D01*
G01*
X125835000Y-72720000D01*
G75*
G02*
X125910000Y-72795000I0J-75000D01*
G01*
X125910000Y-72945000D01*
G75*
G02*
X125835000Y-73020000I-75000J0D01*
G01*
X124435000Y-73020000D01*
G75*
G02*
X124360000Y-72945000I0J75000D01*
G01*
G37*
G36*
G01*
X124360000Y-72445000D02*
X124360000Y-72295000D01*
G75*
G02*
X124435000Y-72220000I75000J0D01*
G01*
X125835000Y-72220000D01*
G75*
G02*
X125910000Y-72295000I0J-75000D01*
G01*
X125910000Y-72445000D01*
G75*
G02*
X125835000Y-72520000I-75000J0D01*
G01*
X124435000Y-72520000D01*
G75*
G02*
X124360000Y-72445000I0J75000D01*
G01*
G37*
G36*
G01*
X124360000Y-71945000D02*
X124360000Y-71795000D01*
G75*
G02*
X124435000Y-71720000I75000J0D01*
G01*
X125835000Y-71720000D01*
G75*
G02*
X125910000Y-71795000I0J-75000D01*
G01*
X125910000Y-71945000D01*
G75*
G02*
X125835000Y-72020000I-75000J0D01*
G01*
X124435000Y-72020000D01*
G75*
G02*
X124360000Y-71945000I0J75000D01*
G01*
G37*
G36*
G01*
X124360000Y-71445000D02*
X124360000Y-71295000D01*
G75*
G02*
X124435000Y-71220000I75000J0D01*
G01*
X125835000Y-71220000D01*
G75*
G02*
X125910000Y-71295000I0J-75000D01*
G01*
X125910000Y-71445000D01*
G75*
G02*
X125835000Y-71520000I-75000J0D01*
G01*
X124435000Y-71520000D01*
G75*
G02*
X124360000Y-71445000I0J75000D01*
G01*
G37*
G36*
G01*
X124360000Y-70945000D02*
X124360000Y-70795000D01*
G75*
G02*
X124435000Y-70720000I75000J0D01*
G01*
X125835000Y-70720000D01*
G75*
G02*
X125910000Y-70795000I0J-75000D01*
G01*
X125910000Y-70945000D01*
G75*
G02*
X125835000Y-71020000I-75000J0D01*
G01*
X124435000Y-71020000D01*
G75*
G02*
X124360000Y-70945000I0J75000D01*
G01*
G37*
G36*
G01*
X124360000Y-70445000D02*
X124360000Y-70295000D01*
G75*
G02*
X124435000Y-70220000I75000J0D01*
G01*
X125835000Y-70220000D01*
G75*
G02*
X125910000Y-70295000I0J-75000D01*
G01*
X125910000Y-70445000D01*
G75*
G02*
X125835000Y-70520000I-75000J0D01*
G01*
X124435000Y-70520000D01*
G75*
G02*
X124360000Y-70445000I0J75000D01*
G01*
G37*
G36*
G01*
X124360000Y-69945000D02*
X124360000Y-69795000D01*
G75*
G02*
X124435000Y-69720000I75000J0D01*
G01*
X125835000Y-69720000D01*
G75*
G02*
X125910000Y-69795000I0J-75000D01*
G01*
X125910000Y-69945000D01*
G75*
G02*
X125835000Y-70020000I-75000J0D01*
G01*
X124435000Y-70020000D01*
G75*
G02*
X124360000Y-69945000I0J75000D01*
G01*
G37*
G36*
G01*
X124360000Y-69445000D02*
X124360000Y-69295000D01*
G75*
G02*
X124435000Y-69220000I75000J0D01*
G01*
X125835000Y-69220000D01*
G75*
G02*
X125910000Y-69295000I0J-75000D01*
G01*
X125910000Y-69445000D01*
G75*
G02*
X125835000Y-69520000I-75000J0D01*
G01*
X124435000Y-69520000D01*
G75*
G02*
X124360000Y-69445000I0J75000D01*
G01*
G37*
G36*
G01*
X124360000Y-68945000D02*
X124360000Y-68795000D01*
G75*
G02*
X124435000Y-68720000I75000J0D01*
G01*
X125835000Y-68720000D01*
G75*
G02*
X125910000Y-68795000I0J-75000D01*
G01*
X125910000Y-68945000D01*
G75*
G02*
X125835000Y-69020000I-75000J0D01*
G01*
X124435000Y-69020000D01*
G75*
G02*
X124360000Y-68945000I0J75000D01*
G01*
G37*
G36*
G01*
X124360000Y-68445000D02*
X124360000Y-68295000D01*
G75*
G02*
X124435000Y-68220000I75000J0D01*
G01*
X125835000Y-68220000D01*
G75*
G02*
X125910000Y-68295000I0J-75000D01*
G01*
X125910000Y-68445000D01*
G75*
G02*
X125835000Y-68520000I-75000J0D01*
G01*
X124435000Y-68520000D01*
G75*
G02*
X124360000Y-68445000I0J75000D01*
G01*
G37*
G36*
G01*
X124360000Y-67945000D02*
X124360000Y-67795000D01*
G75*
G02*
X124435000Y-67720000I75000J0D01*
G01*
X125835000Y-67720000D01*
G75*
G02*
X125910000Y-67795000I0J-75000D01*
G01*
X125910000Y-67945000D01*
G75*
G02*
X125835000Y-68020000I-75000J0D01*
G01*
X124435000Y-68020000D01*
G75*
G02*
X124360000Y-67945000I0J75000D01*
G01*
G37*
G36*
G01*
X124360000Y-67445000D02*
X124360000Y-67295000D01*
G75*
G02*
X124435000Y-67220000I75000J0D01*
G01*
X125835000Y-67220000D01*
G75*
G02*
X125910000Y-67295000I0J-75000D01*
G01*
X125910000Y-67445000D01*
G75*
G02*
X125835000Y-67520000I-75000J0D01*
G01*
X124435000Y-67520000D01*
G75*
G02*
X124360000Y-67445000I0J75000D01*
G01*
G37*
%TD*%
%TO.C,U1*%
G36*
G01*
X128910000Y-68620000D02*
X128910000Y-67270000D01*
G75*
G02*
X128985000Y-67195000I75000J0D01*
G01*
X129135000Y-67195000D01*
G75*
G02*
X129210000Y-67270000I0J-75000D01*
G01*
X129210000Y-68620000D01*
G75*
G02*
X129135000Y-68695000I-75000J0D01*
G01*
X128985000Y-68695000D01*
G75*
G02*
X128910000Y-68620000I0J75000D01*
G01*
G37*
G36*
G01*
X129410000Y-68620000D02*
X129410000Y-67270000D01*
G75*
G02*
X129485000Y-67195000I75000J0D01*
G01*
X129635000Y-67195000D01*
G75*
G02*
X129710000Y-67270000I0J-75000D01*
G01*
X129710000Y-68620000D01*
G75*
G02*
X129635000Y-68695000I-75000J0D01*
G01*
X129485000Y-68695000D01*
G75*
G02*
X129410000Y-68620000I0J75000D01*
G01*
G37*
G36*
G01*
X129910000Y-68620000D02*
X129910000Y-67270000D01*
G75*
G02*
X129985000Y-67195000I75000J0D01*
G01*
X130135000Y-67195000D01*
G75*
G02*
X130210000Y-67270000I0J-75000D01*
G01*
X130210000Y-68620000D01*
G75*
G02*
X130135000Y-68695000I-75000J0D01*
G01*
X129985000Y-68695000D01*
G75*
G02*
X129910000Y-68620000I0J75000D01*
G01*
G37*
G36*
G01*
X130410000Y-68620000D02*
X130410000Y-67270000D01*
G75*
G02*
X130485000Y-67195000I75000J0D01*
G01*
X130635000Y-67195000D01*
G75*
G02*
X130710000Y-67270000I0J-75000D01*
G01*
X130710000Y-68620000D01*
G75*
G02*
X130635000Y-68695000I-75000J0D01*
G01*
X130485000Y-68695000D01*
G75*
G02*
X130410000Y-68620000I0J75000D01*
G01*
G37*
G36*
G01*
X130910000Y-68620000D02*
X130910000Y-67270000D01*
G75*
G02*
X130985000Y-67195000I75000J0D01*
G01*
X131135000Y-67195000D01*
G75*
G02*
X131210000Y-67270000I0J-75000D01*
G01*
X131210000Y-68620000D01*
G75*
G02*
X131135000Y-68695000I-75000J0D01*
G01*
X130985000Y-68695000D01*
G75*
G02*
X130910000Y-68620000I0J75000D01*
G01*
G37*
G36*
G01*
X131410000Y-68620000D02*
X131410000Y-67270000D01*
G75*
G02*
X131485000Y-67195000I75000J0D01*
G01*
X131635000Y-67195000D01*
G75*
G02*
X131710000Y-67270000I0J-75000D01*
G01*
X131710000Y-68620000D01*
G75*
G02*
X131635000Y-68695000I-75000J0D01*
G01*
X131485000Y-68695000D01*
G75*
G02*
X131410000Y-68620000I0J75000D01*
G01*
G37*
G36*
G01*
X131910000Y-68620000D02*
X131910000Y-67270000D01*
G75*
G02*
X131985000Y-67195000I75000J0D01*
G01*
X132135000Y-67195000D01*
G75*
G02*
X132210000Y-67270000I0J-75000D01*
G01*
X132210000Y-68620000D01*
G75*
G02*
X132135000Y-68695000I-75000J0D01*
G01*
X131985000Y-68695000D01*
G75*
G02*
X131910000Y-68620000I0J75000D01*
G01*
G37*
G36*
G01*
X132410000Y-68620000D02*
X132410000Y-67270000D01*
G75*
G02*
X132485000Y-67195000I75000J0D01*
G01*
X132635000Y-67195000D01*
G75*
G02*
X132710000Y-67270000I0J-75000D01*
G01*
X132710000Y-68620000D01*
G75*
G02*
X132635000Y-68695000I-75000J0D01*
G01*
X132485000Y-68695000D01*
G75*
G02*
X132410000Y-68620000I0J75000D01*
G01*
G37*
G36*
G01*
X133235000Y-69445000D02*
X133235000Y-69295000D01*
G75*
G02*
X133310000Y-69220000I75000J0D01*
G01*
X134660000Y-69220000D01*
G75*
G02*
X134735000Y-69295000I0J-75000D01*
G01*
X134735000Y-69445000D01*
G75*
G02*
X134660000Y-69520000I-75000J0D01*
G01*
X133310000Y-69520000D01*
G75*
G02*
X133235000Y-69445000I0J75000D01*
G01*
G37*
G36*
G01*
X133235000Y-69945000D02*
X133235000Y-69795000D01*
G75*
G02*
X133310000Y-69720000I75000J0D01*
G01*
X134660000Y-69720000D01*
G75*
G02*
X134735000Y-69795000I0J-75000D01*
G01*
X134735000Y-69945000D01*
G75*
G02*
X134660000Y-70020000I-75000J0D01*
G01*
X133310000Y-70020000D01*
G75*
G02*
X133235000Y-69945000I0J75000D01*
G01*
G37*
G36*
G01*
X133235000Y-70445000D02*
X133235000Y-70295000D01*
G75*
G02*
X133310000Y-70220000I75000J0D01*
G01*
X134660000Y-70220000D01*
G75*
G02*
X134735000Y-70295000I0J-75000D01*
G01*
X134735000Y-70445000D01*
G75*
G02*
X134660000Y-70520000I-75000J0D01*
G01*
X133310000Y-70520000D01*
G75*
G02*
X133235000Y-70445000I0J75000D01*
G01*
G37*
G36*
G01*
X133235000Y-70945000D02*
X133235000Y-70795000D01*
G75*
G02*
X133310000Y-70720000I75000J0D01*
G01*
X134660000Y-70720000D01*
G75*
G02*
X134735000Y-70795000I0J-75000D01*
G01*
X134735000Y-70945000D01*
G75*
G02*
X134660000Y-71020000I-75000J0D01*
G01*
X133310000Y-71020000D01*
G75*
G02*
X133235000Y-70945000I0J75000D01*
G01*
G37*
G36*
G01*
X133235000Y-71445000D02*
X133235000Y-71295000D01*
G75*
G02*
X133310000Y-71220000I75000J0D01*
G01*
X134660000Y-71220000D01*
G75*
G02*
X134735000Y-71295000I0J-75000D01*
G01*
X134735000Y-71445000D01*
G75*
G02*
X134660000Y-71520000I-75000J0D01*
G01*
X133310000Y-71520000D01*
G75*
G02*
X133235000Y-71445000I0J75000D01*
G01*
G37*
G36*
G01*
X133235000Y-71945000D02*
X133235000Y-71795000D01*
G75*
G02*
X133310000Y-71720000I75000J0D01*
G01*
X134660000Y-71720000D01*
G75*
G02*
X134735000Y-71795000I0J-75000D01*
G01*
X134735000Y-71945000D01*
G75*
G02*
X134660000Y-72020000I-75000J0D01*
G01*
X133310000Y-72020000D01*
G75*
G02*
X133235000Y-71945000I0J75000D01*
G01*
G37*
G36*
G01*
X133235000Y-72445000D02*
X133235000Y-72295000D01*
G75*
G02*
X133310000Y-72220000I75000J0D01*
G01*
X134660000Y-72220000D01*
G75*
G02*
X134735000Y-72295000I0J-75000D01*
G01*
X134735000Y-72445000D01*
G75*
G02*
X134660000Y-72520000I-75000J0D01*
G01*
X133310000Y-72520000D01*
G75*
G02*
X133235000Y-72445000I0J75000D01*
G01*
G37*
G36*
G01*
X133235000Y-72945000D02*
X133235000Y-72795000D01*
G75*
G02*
X133310000Y-72720000I75000J0D01*
G01*
X134660000Y-72720000D01*
G75*
G02*
X134735000Y-72795000I0J-75000D01*
G01*
X134735000Y-72945000D01*
G75*
G02*
X134660000Y-73020000I-75000J0D01*
G01*
X133310000Y-73020000D01*
G75*
G02*
X133235000Y-72945000I0J75000D01*
G01*
G37*
G36*
G01*
X132410000Y-74970000D02*
X132410000Y-73620000D01*
G75*
G02*
X132485000Y-73545000I75000J0D01*
G01*
X132635000Y-73545000D01*
G75*
G02*
X132710000Y-73620000I0J-75000D01*
G01*
X132710000Y-74970000D01*
G75*
G02*
X132635000Y-75045000I-75000J0D01*
G01*
X132485000Y-75045000D01*
G75*
G02*
X132410000Y-74970000I0J75000D01*
G01*
G37*
G36*
G01*
X131910000Y-74970000D02*
X131910000Y-73620000D01*
G75*
G02*
X131985000Y-73545000I75000J0D01*
G01*
X132135000Y-73545000D01*
G75*
G02*
X132210000Y-73620000I0J-75000D01*
G01*
X132210000Y-74970000D01*
G75*
G02*
X132135000Y-75045000I-75000J0D01*
G01*
X131985000Y-75045000D01*
G75*
G02*
X131910000Y-74970000I0J75000D01*
G01*
G37*
G36*
G01*
X131410000Y-74970000D02*
X131410000Y-73620000D01*
G75*
G02*
X131485000Y-73545000I75000J0D01*
G01*
X131635000Y-73545000D01*
G75*
G02*
X131710000Y-73620000I0J-75000D01*
G01*
X131710000Y-74970000D01*
G75*
G02*
X131635000Y-75045000I-75000J0D01*
G01*
X131485000Y-75045000D01*
G75*
G02*
X131410000Y-74970000I0J75000D01*
G01*
G37*
G36*
G01*
X130910000Y-74970000D02*
X130910000Y-73620000D01*
G75*
G02*
X130985000Y-73545000I75000J0D01*
G01*
X131135000Y-73545000D01*
G75*
G02*
X131210000Y-73620000I0J-75000D01*
G01*
X131210000Y-74970000D01*
G75*
G02*
X131135000Y-75045000I-75000J0D01*
G01*
X130985000Y-75045000D01*
G75*
G02*
X130910000Y-74970000I0J75000D01*
G01*
G37*
G36*
G01*
X130410000Y-74970000D02*
X130410000Y-73620000D01*
G75*
G02*
X130485000Y-73545000I75000J0D01*
G01*
X130635000Y-73545000D01*
G75*
G02*
X130710000Y-73620000I0J-75000D01*
G01*
X130710000Y-74970000D01*
G75*
G02*
X130635000Y-75045000I-75000J0D01*
G01*
X130485000Y-75045000D01*
G75*
G02*
X130410000Y-74970000I0J75000D01*
G01*
G37*
G36*
G01*
X129910000Y-74970000D02*
X129910000Y-73620000D01*
G75*
G02*
X129985000Y-73545000I75000J0D01*
G01*
X130135000Y-73545000D01*
G75*
G02*
X130210000Y-73620000I0J-75000D01*
G01*
X130210000Y-74970000D01*
G75*
G02*
X130135000Y-75045000I-75000J0D01*
G01*
X129985000Y-75045000D01*
G75*
G02*
X129910000Y-74970000I0J75000D01*
G01*
G37*
G36*
G01*
X129410000Y-74970000D02*
X129410000Y-73620000D01*
G75*
G02*
X129485000Y-73545000I75000J0D01*
G01*
X129635000Y-73545000D01*
G75*
G02*
X129710000Y-73620000I0J-75000D01*
G01*
X129710000Y-74970000D01*
G75*
G02*
X129635000Y-75045000I-75000J0D01*
G01*
X129485000Y-75045000D01*
G75*
G02*
X129410000Y-74970000I0J75000D01*
G01*
G37*
G36*
G01*
X128910000Y-74970000D02*
X128910000Y-73620000D01*
G75*
G02*
X128985000Y-73545000I75000J0D01*
G01*
X129135000Y-73545000D01*
G75*
G02*
X129210000Y-73620000I0J-75000D01*
G01*
X129210000Y-74970000D01*
G75*
G02*
X129135000Y-75045000I-75000J0D01*
G01*
X128985000Y-75045000D01*
G75*
G02*
X128910000Y-74970000I0J75000D01*
G01*
G37*
G36*
G01*
X126885000Y-72945000D02*
X126885000Y-72795000D01*
G75*
G02*
X126960000Y-72720000I75000J0D01*
G01*
X128310000Y-72720000D01*
G75*
G02*
X128385000Y-72795000I0J-75000D01*
G01*
X128385000Y-72945000D01*
G75*
G02*
X128310000Y-73020000I-75000J0D01*
G01*
X126960000Y-73020000D01*
G75*
G02*
X126885000Y-72945000I0J75000D01*
G01*
G37*
G36*
G01*
X126885000Y-72445000D02*
X126885000Y-72295000D01*
G75*
G02*
X126960000Y-72220000I75000J0D01*
G01*
X128310000Y-72220000D01*
G75*
G02*
X128385000Y-72295000I0J-75000D01*
G01*
X128385000Y-72445000D01*
G75*
G02*
X128310000Y-72520000I-75000J0D01*
G01*
X126960000Y-72520000D01*
G75*
G02*
X126885000Y-72445000I0J75000D01*
G01*
G37*
G36*
G01*
X126885000Y-71945000D02*
X126885000Y-71795000D01*
G75*
G02*
X126960000Y-71720000I75000J0D01*
G01*
X128310000Y-71720000D01*
G75*
G02*
X128385000Y-71795000I0J-75000D01*
G01*
X128385000Y-71945000D01*
G75*
G02*
X128310000Y-72020000I-75000J0D01*
G01*
X126960000Y-72020000D01*
G75*
G02*
X126885000Y-71945000I0J75000D01*
G01*
G37*
G36*
G01*
X126885000Y-71445000D02*
X126885000Y-71295000D01*
G75*
G02*
X126960000Y-71220000I75000J0D01*
G01*
X128310000Y-71220000D01*
G75*
G02*
X128385000Y-71295000I0J-75000D01*
G01*
X128385000Y-71445000D01*
G75*
G02*
X128310000Y-71520000I-75000J0D01*
G01*
X126960000Y-71520000D01*
G75*
G02*
X126885000Y-71445000I0J75000D01*
G01*
G37*
G36*
G01*
X126885000Y-70945000D02*
X126885000Y-70795000D01*
G75*
G02*
X126960000Y-70720000I75000J0D01*
G01*
X128310000Y-70720000D01*
G75*
G02*
X128385000Y-70795000I0J-75000D01*
G01*
X128385000Y-70945000D01*
G75*
G02*
X128310000Y-71020000I-75000J0D01*
G01*
X126960000Y-71020000D01*
G75*
G02*
X126885000Y-70945000I0J75000D01*
G01*
G37*
G36*
G01*
X126885000Y-70445000D02*
X126885000Y-70295000D01*
G75*
G02*
X126960000Y-70220000I75000J0D01*
G01*
X128310000Y-70220000D01*
G75*
G02*
X128385000Y-70295000I0J-75000D01*
G01*
X128385000Y-70445000D01*
G75*
G02*
X128310000Y-70520000I-75000J0D01*
G01*
X126960000Y-70520000D01*
G75*
G02*
X126885000Y-70445000I0J75000D01*
G01*
G37*
G36*
G01*
X126885000Y-69945000D02*
X126885000Y-69795000D01*
G75*
G02*
X126960000Y-69720000I75000J0D01*
G01*
X128310000Y-69720000D01*
G75*
G02*
X128385000Y-69795000I0J-75000D01*
G01*
X128385000Y-69945000D01*
G75*
G02*
X128310000Y-70020000I-75000J0D01*
G01*
X126960000Y-70020000D01*
G75*
G02*
X126885000Y-69945000I0J75000D01*
G01*
G37*
G36*
G01*
X126885000Y-69445000D02*
X126885000Y-69295000D01*
G75*
G02*
X126960000Y-69220000I75000J0D01*
G01*
X128310000Y-69220000D01*
G75*
G02*
X128385000Y-69295000I0J-75000D01*
G01*
X128385000Y-69445000D01*
G75*
G02*
X128310000Y-69520000I-75000J0D01*
G01*
X126960000Y-69520000D01*
G75*
G02*
X126885000Y-69445000I0J75000D01*
G01*
G37*
%TD*%
M02*
