%TF.GenerationSoftware,KiCad,Pcbnew,5.1.10*%
%TF.CreationDate,2021-10-22T01:18:59+03:00*%
%TF.ProjectId,breakouts,62726561-6b6f-4757-9473-2e6b69636164,rev?*%
%TF.SameCoordinates,Original*%
%TF.FileFunction,Paste,Top*%
%TF.FilePolarity,Positive*%
%FSLAX46Y46*%
G04 Gerber Fmt 4.6, Leading zero omitted, Abs format (unit mm)*
G04 Created by KiCad (PCBNEW 5.1.10) date 2021-10-22 01:18:59*
%MOMM*%
%LPD*%
G01*
G04 APERTURE LIST*
%ADD10R,1.560000X0.650000*%
%ADD11R,1.100000X1.400000*%
%ADD12R,1.450000X0.450000*%
G04 APERTURE END LIST*
%TO.C,J20*%
G36*
G01*
X44575000Y-74617500D02*
X44575000Y-73802500D01*
G75*
G02*
X44742500Y-73635000I167500J0D01*
G01*
X45077500Y-73635000D01*
G75*
G02*
X45245000Y-73802500I0J-167500D01*
G01*
X45245000Y-74617500D01*
G75*
G02*
X45077500Y-74785000I-167500J0D01*
G01*
X44742500Y-74785000D01*
G75*
G02*
X44575000Y-74617500I0J167500D01*
G01*
G37*
G36*
G01*
X44575000Y-73197500D02*
X44575000Y-72382500D01*
G75*
G02*
X44742500Y-72215000I167500J0D01*
G01*
X45077500Y-72215000D01*
G75*
G02*
X45245000Y-72382500I0J-167500D01*
G01*
X45245000Y-73197500D01*
G75*
G02*
X45077500Y-73365000I-167500J0D01*
G01*
X44742500Y-73365000D01*
G75*
G02*
X44575000Y-73197500I0J167500D01*
G01*
G37*
G36*
G01*
X43755000Y-74617500D02*
X43755000Y-73802500D01*
G75*
G02*
X43922500Y-73635000I167500J0D01*
G01*
X44257500Y-73635000D01*
G75*
G02*
X44425000Y-73802500I0J-167500D01*
G01*
X44425000Y-74617500D01*
G75*
G02*
X44257500Y-74785000I-167500J0D01*
G01*
X43922500Y-74785000D01*
G75*
G02*
X43755000Y-74617500I0J167500D01*
G01*
G37*
G36*
G01*
X43755000Y-73197500D02*
X43755000Y-72382500D01*
G75*
G02*
X43922500Y-72215000I167500J0D01*
G01*
X44257500Y-72215000D01*
G75*
G02*
X44425000Y-72382500I0J-167500D01*
G01*
X44425000Y-73197500D01*
G75*
G02*
X44257500Y-73365000I-167500J0D01*
G01*
X43922500Y-73365000D01*
G75*
G02*
X43755000Y-73197500I0J167500D01*
G01*
G37*
G36*
G01*
X45925000Y-71975000D02*
X45925000Y-71775000D01*
G75*
G02*
X46025000Y-71675000I100000J0D01*
G01*
X47275000Y-71675000D01*
G75*
G02*
X47375000Y-71775000I0J-100000D01*
G01*
X47375000Y-71975000D01*
G75*
G02*
X47275000Y-72075000I-100000J0D01*
G01*
X46025000Y-72075000D01*
G75*
G02*
X45925000Y-71975000I0J100000D01*
G01*
G37*
G36*
G01*
X45925000Y-72625000D02*
X45925000Y-72425000D01*
G75*
G02*
X46025000Y-72325000I100000J0D01*
G01*
X47275000Y-72325000D01*
G75*
G02*
X47375000Y-72425000I0J-100000D01*
G01*
X47375000Y-72625000D01*
G75*
G02*
X47275000Y-72725000I-100000J0D01*
G01*
X46025000Y-72725000D01*
G75*
G02*
X45925000Y-72625000I0J100000D01*
G01*
G37*
G36*
G01*
X45925000Y-73275000D02*
X45925000Y-73075000D01*
G75*
G02*
X46025000Y-72975000I100000J0D01*
G01*
X47275000Y-72975000D01*
G75*
G02*
X47375000Y-73075000I0J-100000D01*
G01*
X47375000Y-73275000D01*
G75*
G02*
X47275000Y-73375000I-100000J0D01*
G01*
X46025000Y-73375000D01*
G75*
G02*
X45925000Y-73275000I0J100000D01*
G01*
G37*
G36*
G01*
X45925000Y-73925000D02*
X45925000Y-73725000D01*
G75*
G02*
X46025000Y-73625000I100000J0D01*
G01*
X47275000Y-73625000D01*
G75*
G02*
X47375000Y-73725000I0J-100000D01*
G01*
X47375000Y-73925000D01*
G75*
G02*
X47275000Y-74025000I-100000J0D01*
G01*
X46025000Y-74025000D01*
G75*
G02*
X45925000Y-73925000I0J100000D01*
G01*
G37*
G36*
G01*
X45925000Y-74575000D02*
X45925000Y-74375000D01*
G75*
G02*
X46025000Y-74275000I100000J0D01*
G01*
X47275000Y-74275000D01*
G75*
G02*
X47375000Y-74375000I0J-100000D01*
G01*
X47375000Y-74575000D01*
G75*
G02*
X47275000Y-74675000I-100000J0D01*
G01*
X46025000Y-74675000D01*
G75*
G02*
X45925000Y-74575000I0J100000D01*
G01*
G37*
G36*
G01*
X45925000Y-75225000D02*
X45925000Y-75025000D01*
G75*
G02*
X46025000Y-74925000I100000J0D01*
G01*
X47275000Y-74925000D01*
G75*
G02*
X47375000Y-75025000I0J-100000D01*
G01*
X47375000Y-75225000D01*
G75*
G02*
X47275000Y-75325000I-100000J0D01*
G01*
X46025000Y-75325000D01*
G75*
G02*
X45925000Y-75225000I0J100000D01*
G01*
G37*
G36*
G01*
X41625000Y-75225000D02*
X41625000Y-75025000D01*
G75*
G02*
X41725000Y-74925000I100000J0D01*
G01*
X42975000Y-74925000D01*
G75*
G02*
X43075000Y-75025000I0J-100000D01*
G01*
X43075000Y-75225000D01*
G75*
G02*
X42975000Y-75325000I-100000J0D01*
G01*
X41725000Y-75325000D01*
G75*
G02*
X41625000Y-75225000I0J100000D01*
G01*
G37*
G36*
G01*
X41625000Y-74575000D02*
X41625000Y-74375000D01*
G75*
G02*
X41725000Y-74275000I100000J0D01*
G01*
X42975000Y-74275000D01*
G75*
G02*
X43075000Y-74375000I0J-100000D01*
G01*
X43075000Y-74575000D01*
G75*
G02*
X42975000Y-74675000I-100000J0D01*
G01*
X41725000Y-74675000D01*
G75*
G02*
X41625000Y-74575000I0J100000D01*
G01*
G37*
G36*
G01*
X41625000Y-73925000D02*
X41625000Y-73725000D01*
G75*
G02*
X41725000Y-73625000I100000J0D01*
G01*
X42975000Y-73625000D01*
G75*
G02*
X43075000Y-73725000I0J-100000D01*
G01*
X43075000Y-73925000D01*
G75*
G02*
X42975000Y-74025000I-100000J0D01*
G01*
X41725000Y-74025000D01*
G75*
G02*
X41625000Y-73925000I0J100000D01*
G01*
G37*
G36*
G01*
X41625000Y-73275000D02*
X41625000Y-73075000D01*
G75*
G02*
X41725000Y-72975000I100000J0D01*
G01*
X42975000Y-72975000D01*
G75*
G02*
X43075000Y-73075000I0J-100000D01*
G01*
X43075000Y-73275000D01*
G75*
G02*
X42975000Y-73375000I-100000J0D01*
G01*
X41725000Y-73375000D01*
G75*
G02*
X41625000Y-73275000I0J100000D01*
G01*
G37*
G36*
G01*
X41625000Y-72625000D02*
X41625000Y-72425000D01*
G75*
G02*
X41725000Y-72325000I100000J0D01*
G01*
X42975000Y-72325000D01*
G75*
G02*
X43075000Y-72425000I0J-100000D01*
G01*
X43075000Y-72625000D01*
G75*
G02*
X42975000Y-72725000I-100000J0D01*
G01*
X41725000Y-72725000D01*
G75*
G02*
X41625000Y-72625000I0J100000D01*
G01*
G37*
G36*
G01*
X41625000Y-71975000D02*
X41625000Y-71775000D01*
G75*
G02*
X41725000Y-71675000I100000J0D01*
G01*
X42975000Y-71675000D01*
G75*
G02*
X43075000Y-71775000I0J-100000D01*
G01*
X43075000Y-71975000D01*
G75*
G02*
X42975000Y-72075000I-100000J0D01*
G01*
X41725000Y-72075000D01*
G75*
G02*
X41625000Y-71975000I0J100000D01*
G01*
G37*
%TD*%
D10*
%TO.C,J28*%
X46100000Y-84950000D03*
X46100000Y-84000000D03*
X46100000Y-85900000D03*
X43400000Y-85900000D03*
X43400000Y-84950000D03*
X43400000Y-84000000D03*
%TD*%
%TO.C,J26*%
G36*
G01*
X62000000Y-82245000D02*
X62000000Y-81945000D01*
G75*
G02*
X62150000Y-81795000I150000J0D01*
G01*
X63800000Y-81795000D01*
G75*
G02*
X63950000Y-81945000I0J-150000D01*
G01*
X63950000Y-82245000D01*
G75*
G02*
X63800000Y-82395000I-150000J0D01*
G01*
X62150000Y-82395000D01*
G75*
G02*
X62000000Y-82245000I0J150000D01*
G01*
G37*
G36*
G01*
X62000000Y-83515000D02*
X62000000Y-83215000D01*
G75*
G02*
X62150000Y-83065000I150000J0D01*
G01*
X63800000Y-83065000D01*
G75*
G02*
X63950000Y-83215000I0J-150000D01*
G01*
X63950000Y-83515000D01*
G75*
G02*
X63800000Y-83665000I-150000J0D01*
G01*
X62150000Y-83665000D01*
G75*
G02*
X62000000Y-83515000I0J150000D01*
G01*
G37*
G36*
G01*
X62000000Y-84785000D02*
X62000000Y-84485000D01*
G75*
G02*
X62150000Y-84335000I150000J0D01*
G01*
X63800000Y-84335000D01*
G75*
G02*
X63950000Y-84485000I0J-150000D01*
G01*
X63950000Y-84785000D01*
G75*
G02*
X63800000Y-84935000I-150000J0D01*
G01*
X62150000Y-84935000D01*
G75*
G02*
X62000000Y-84785000I0J150000D01*
G01*
G37*
G36*
G01*
X62000000Y-86055000D02*
X62000000Y-85755000D01*
G75*
G02*
X62150000Y-85605000I150000J0D01*
G01*
X63800000Y-85605000D01*
G75*
G02*
X63950000Y-85755000I0J-150000D01*
G01*
X63950000Y-86055000D01*
G75*
G02*
X63800000Y-86205000I-150000J0D01*
G01*
X62150000Y-86205000D01*
G75*
G02*
X62000000Y-86055000I0J150000D01*
G01*
G37*
G36*
G01*
X57050000Y-86055000D02*
X57050000Y-85755000D01*
G75*
G02*
X57200000Y-85605000I150000J0D01*
G01*
X58850000Y-85605000D01*
G75*
G02*
X59000000Y-85755000I0J-150000D01*
G01*
X59000000Y-86055000D01*
G75*
G02*
X58850000Y-86205000I-150000J0D01*
G01*
X57200000Y-86205000D01*
G75*
G02*
X57050000Y-86055000I0J150000D01*
G01*
G37*
G36*
G01*
X57050000Y-84785000D02*
X57050000Y-84485000D01*
G75*
G02*
X57200000Y-84335000I150000J0D01*
G01*
X58850000Y-84335000D01*
G75*
G02*
X59000000Y-84485000I0J-150000D01*
G01*
X59000000Y-84785000D01*
G75*
G02*
X58850000Y-84935000I-150000J0D01*
G01*
X57200000Y-84935000D01*
G75*
G02*
X57050000Y-84785000I0J150000D01*
G01*
G37*
G36*
G01*
X57050000Y-83515000D02*
X57050000Y-83215000D01*
G75*
G02*
X57200000Y-83065000I150000J0D01*
G01*
X58850000Y-83065000D01*
G75*
G02*
X59000000Y-83215000I0J-150000D01*
G01*
X59000000Y-83515000D01*
G75*
G02*
X58850000Y-83665000I-150000J0D01*
G01*
X57200000Y-83665000D01*
G75*
G02*
X57050000Y-83515000I0J150000D01*
G01*
G37*
G36*
G01*
X57050000Y-82245000D02*
X57050000Y-81945000D01*
G75*
G02*
X57200000Y-81795000I150000J0D01*
G01*
X58850000Y-81795000D01*
G75*
G02*
X59000000Y-81945000I0J-150000D01*
G01*
X59000000Y-82245000D01*
G75*
G02*
X58850000Y-82395000I-150000J0D01*
G01*
X57200000Y-82395000D01*
G75*
G02*
X57050000Y-82245000I0J150000D01*
G01*
G37*
%TD*%
%TO.C,J22*%
X62200000Y-75000000D03*
X62200000Y-74050000D03*
X62200000Y-75950000D03*
X59500000Y-75950000D03*
X59500000Y-75000000D03*
X59500000Y-74050000D03*
%TD*%
%TO.C,J21*%
G36*
G01*
X76350000Y-72487500D02*
X76350000Y-72012500D01*
G75*
G02*
X76587500Y-71775000I237500J0D01*
G01*
X77162500Y-71775000D01*
G75*
G02*
X77400000Y-72012500I0J-237500D01*
G01*
X77400000Y-72487500D01*
G75*
G02*
X77162500Y-72725000I-237500J0D01*
G01*
X76587500Y-72725000D01*
G75*
G02*
X76350000Y-72487500I0J237500D01*
G01*
G37*
G36*
G01*
X74600000Y-72487500D02*
X74600000Y-72012500D01*
G75*
G02*
X74837500Y-71775000I237500J0D01*
G01*
X75412500Y-71775000D01*
G75*
G02*
X75650000Y-72012500I0J-237500D01*
G01*
X75650000Y-72487500D01*
G75*
G02*
X75412500Y-72725000I-237500J0D01*
G01*
X74837500Y-72725000D01*
G75*
G02*
X74600000Y-72487500I0J237500D01*
G01*
G37*
%TD*%
%TO.C,J19*%
G36*
G01*
X76350000Y-69987500D02*
X76350000Y-69512500D01*
G75*
G02*
X76587500Y-69275000I237500J0D01*
G01*
X77162500Y-69275000D01*
G75*
G02*
X77400000Y-69512500I0J-237500D01*
G01*
X77400000Y-69987500D01*
G75*
G02*
X77162500Y-70225000I-237500J0D01*
G01*
X76587500Y-70225000D01*
G75*
G02*
X76350000Y-69987500I0J237500D01*
G01*
G37*
G36*
G01*
X74600000Y-69987500D02*
X74600000Y-69512500D01*
G75*
G02*
X74837500Y-69275000I237500J0D01*
G01*
X75412500Y-69275000D01*
G75*
G02*
X75650000Y-69512500I0J-237500D01*
G01*
X75650000Y-69987500D01*
G75*
G02*
X75412500Y-70225000I-237500J0D01*
G01*
X74837500Y-70225000D01*
G75*
G02*
X74600000Y-69987500I0J237500D01*
G01*
G37*
%TD*%
%TO.C,J17*%
G36*
G01*
X76350000Y-67487500D02*
X76350000Y-67012500D01*
G75*
G02*
X76587500Y-66775000I237500J0D01*
G01*
X77162500Y-66775000D01*
G75*
G02*
X77400000Y-67012500I0J-237500D01*
G01*
X77400000Y-67487500D01*
G75*
G02*
X77162500Y-67725000I-237500J0D01*
G01*
X76587500Y-67725000D01*
G75*
G02*
X76350000Y-67487500I0J237500D01*
G01*
G37*
G36*
G01*
X74600000Y-67487500D02*
X74600000Y-67012500D01*
G75*
G02*
X74837500Y-66775000I237500J0D01*
G01*
X75412500Y-66775000D01*
G75*
G02*
X75650000Y-67012500I0J-237500D01*
G01*
X75650000Y-67487500D01*
G75*
G02*
X75412500Y-67725000I-237500J0D01*
G01*
X74837500Y-67725000D01*
G75*
G02*
X74600000Y-67487500I0J237500D01*
G01*
G37*
%TD*%
%TO.C,J8*%
G36*
G01*
X75045000Y-59660000D02*
X75045000Y-59340000D01*
G75*
G02*
X75205000Y-59180000I160000J0D01*
G01*
X75650000Y-59180000D01*
G75*
G02*
X75810000Y-59340000I0J-160000D01*
G01*
X75810000Y-59660000D01*
G75*
G02*
X75650000Y-59820000I-160000J0D01*
G01*
X75205000Y-59820000D01*
G75*
G02*
X75045000Y-59660000I0J160000D01*
G01*
G37*
G36*
G01*
X76190000Y-59660000D02*
X76190000Y-59340000D01*
G75*
G02*
X76350000Y-59180000I160000J0D01*
G01*
X76795000Y-59180000D01*
G75*
G02*
X76955000Y-59340000I0J-160000D01*
G01*
X76955000Y-59660000D01*
G75*
G02*
X76795000Y-59820000I-160000J0D01*
G01*
X76350000Y-59820000D01*
G75*
G02*
X76190000Y-59660000I0J160000D01*
G01*
G37*
%TD*%
%TO.C,J7*%
G36*
G01*
X75045000Y-57160000D02*
X75045000Y-56840000D01*
G75*
G02*
X75205000Y-56680000I160000J0D01*
G01*
X75650000Y-56680000D01*
G75*
G02*
X75810000Y-56840000I0J-160000D01*
G01*
X75810000Y-57160000D01*
G75*
G02*
X75650000Y-57320000I-160000J0D01*
G01*
X75205000Y-57320000D01*
G75*
G02*
X75045000Y-57160000I0J160000D01*
G01*
G37*
G36*
G01*
X76190000Y-57160000D02*
X76190000Y-56840000D01*
G75*
G02*
X76350000Y-56680000I160000J0D01*
G01*
X76795000Y-56680000D01*
G75*
G02*
X76955000Y-56840000I0J-160000D01*
G01*
X76955000Y-57160000D01*
G75*
G02*
X76795000Y-57320000I-160000J0D01*
G01*
X76350000Y-57320000D01*
G75*
G02*
X76190000Y-57160000I0J160000D01*
G01*
G37*
%TD*%
%TO.C,J30*%
G36*
G01*
X76775000Y-88775000D02*
X76775000Y-86625000D01*
G75*
G02*
X77025000Y-86375000I250000J0D01*
G01*
X77950000Y-86375000D01*
G75*
G02*
X78200000Y-86625000I0J-250000D01*
G01*
X78200000Y-88775000D01*
G75*
G02*
X77950000Y-89025000I-250000J0D01*
G01*
X77025000Y-89025000D01*
G75*
G02*
X76775000Y-88775000I0J250000D01*
G01*
G37*
G36*
G01*
X73800000Y-88775000D02*
X73800000Y-86625000D01*
G75*
G02*
X74050000Y-86375000I250000J0D01*
G01*
X74975000Y-86375000D01*
G75*
G02*
X75225000Y-86625000I0J-250000D01*
G01*
X75225000Y-88775000D01*
G75*
G02*
X74975000Y-89025000I-250000J0D01*
G01*
X74050000Y-89025000D01*
G75*
G02*
X73800000Y-88775000I0J250000D01*
G01*
G37*
%TD*%
%TO.C,J29*%
G36*
G01*
X76775000Y-85575000D02*
X76775000Y-83425000D01*
G75*
G02*
X77025000Y-83175000I250000J0D01*
G01*
X77950000Y-83175000D01*
G75*
G02*
X78200000Y-83425000I0J-250000D01*
G01*
X78200000Y-85575000D01*
G75*
G02*
X77950000Y-85825000I-250000J0D01*
G01*
X77025000Y-85825000D01*
G75*
G02*
X76775000Y-85575000I0J250000D01*
G01*
G37*
G36*
G01*
X73800000Y-85575000D02*
X73800000Y-83425000D01*
G75*
G02*
X74050000Y-83175000I250000J0D01*
G01*
X74975000Y-83175000D01*
G75*
G02*
X75225000Y-83425000I0J-250000D01*
G01*
X75225000Y-85575000D01*
G75*
G02*
X74975000Y-85825000I-250000J0D01*
G01*
X74050000Y-85825000D01*
G75*
G02*
X73800000Y-85575000I0J250000D01*
G01*
G37*
%TD*%
%TO.C,J14*%
X62000000Y-67050000D03*
X62000000Y-66100000D03*
X62000000Y-68000000D03*
X59300000Y-68000000D03*
X59300000Y-67050000D03*
X59300000Y-66100000D03*
%TD*%
%TO.C,J27*%
G36*
G01*
X76550000Y-49850001D02*
X76550000Y-48949999D01*
G75*
G02*
X76799999Y-48700000I249999J0D01*
G01*
X77450001Y-48700000D01*
G75*
G02*
X77700000Y-48949999I0J-249999D01*
G01*
X77700000Y-49850001D01*
G75*
G02*
X77450001Y-50100000I-249999J0D01*
G01*
X76799999Y-50100000D01*
G75*
G02*
X76550000Y-49850001I0J249999D01*
G01*
G37*
G36*
G01*
X74500000Y-49850001D02*
X74500000Y-48949999D01*
G75*
G02*
X74749999Y-48700000I249999J0D01*
G01*
X75400001Y-48700000D01*
G75*
G02*
X75650000Y-48949999I0J-249999D01*
G01*
X75650000Y-49850001D01*
G75*
G02*
X75400001Y-50100000I-249999J0D01*
G01*
X74749999Y-50100000D01*
G75*
G02*
X74500000Y-49850001I0J249999D01*
G01*
G37*
%TD*%
%TO.C,J25*%
G36*
G01*
X76550000Y-47350001D02*
X76550000Y-46449999D01*
G75*
G02*
X76799999Y-46200000I249999J0D01*
G01*
X77450001Y-46200000D01*
G75*
G02*
X77700000Y-46449999I0J-249999D01*
G01*
X77700000Y-47350001D01*
G75*
G02*
X77450001Y-47600000I-249999J0D01*
G01*
X76799999Y-47600000D01*
G75*
G02*
X76550000Y-47350001I0J249999D01*
G01*
G37*
G36*
G01*
X74500000Y-47350001D02*
X74500000Y-46449999D01*
G75*
G02*
X74749999Y-46200000I249999J0D01*
G01*
X75400001Y-46200000D01*
G75*
G02*
X75650000Y-46449999I0J-249999D01*
G01*
X75650000Y-47350001D01*
G75*
G02*
X75400001Y-47600000I-249999J0D01*
G01*
X74749999Y-47600000D01*
G75*
G02*
X74500000Y-47350001I0J249999D01*
G01*
G37*
%TD*%
D11*
%TO.C,J5*%
X60000000Y-53750000D03*
D12*
X63700000Y-52700000D03*
X63700000Y-53350000D03*
X63700000Y-54000000D03*
X63700000Y-54650000D03*
X63700000Y-55300000D03*
X63700000Y-55950000D03*
X63700000Y-56600000D03*
X57800000Y-56600000D03*
X57800000Y-55950000D03*
X57800000Y-55300000D03*
X57800000Y-54650000D03*
X57800000Y-54000000D03*
X57800000Y-53350000D03*
X57800000Y-52700000D03*
D11*
X61500000Y-53750000D03*
X61500000Y-55550000D03*
X60000000Y-55550000D03*
%TD*%
%TO.C,J24*%
G36*
G01*
X76350000Y-77637500D02*
X76350000Y-77162500D01*
G75*
G02*
X76587500Y-76925000I237500J0D01*
G01*
X77162500Y-76925000D01*
G75*
G02*
X77400000Y-77162500I0J-237500D01*
G01*
X77400000Y-77637500D01*
G75*
G02*
X77162500Y-77875000I-237500J0D01*
G01*
X76587500Y-77875000D01*
G75*
G02*
X76350000Y-77637500I0J237500D01*
G01*
G37*
G36*
G01*
X74600000Y-77637500D02*
X74600000Y-77162500D01*
G75*
G02*
X74837500Y-76925000I237500J0D01*
G01*
X75412500Y-76925000D01*
G75*
G02*
X75650000Y-77162500I0J-237500D01*
G01*
X75650000Y-77637500D01*
G75*
G02*
X75412500Y-77875000I-237500J0D01*
G01*
X74837500Y-77875000D01*
G75*
G02*
X74600000Y-77637500I0J237500D01*
G01*
G37*
%TD*%
%TO.C,J23*%
G36*
G01*
X76350000Y-74987500D02*
X76350000Y-74512500D01*
G75*
G02*
X76587500Y-74275000I237500J0D01*
G01*
X77162500Y-74275000D01*
G75*
G02*
X77400000Y-74512500I0J-237500D01*
G01*
X77400000Y-74987500D01*
G75*
G02*
X77162500Y-75225000I-237500J0D01*
G01*
X76587500Y-75225000D01*
G75*
G02*
X76350000Y-74987500I0J237500D01*
G01*
G37*
G36*
G01*
X74600000Y-74987500D02*
X74600000Y-74512500D01*
G75*
G02*
X74837500Y-74275000I237500J0D01*
G01*
X75412500Y-74275000D01*
G75*
G02*
X75650000Y-74512500I0J-237500D01*
G01*
X75650000Y-74987500D01*
G75*
G02*
X75412500Y-75225000I-237500J0D01*
G01*
X74837500Y-75225000D01*
G75*
G02*
X74600000Y-74987500I0J237500D01*
G01*
G37*
%TD*%
%TO.C,J10*%
G36*
G01*
X76350000Y-64987500D02*
X76350000Y-64512500D01*
G75*
G02*
X76587500Y-64275000I237500J0D01*
G01*
X77162500Y-64275000D01*
G75*
G02*
X77400000Y-64512500I0J-237500D01*
G01*
X77400000Y-64987500D01*
G75*
G02*
X77162500Y-65225000I-237500J0D01*
G01*
X76587500Y-65225000D01*
G75*
G02*
X76350000Y-64987500I0J237500D01*
G01*
G37*
G36*
G01*
X74600000Y-64987500D02*
X74600000Y-64512500D01*
G75*
G02*
X74837500Y-64275000I237500J0D01*
G01*
X75412500Y-64275000D01*
G75*
G02*
X75650000Y-64512500I0J-237500D01*
G01*
X75650000Y-64987500D01*
G75*
G02*
X75412500Y-65225000I-237500J0D01*
G01*
X74837500Y-65225000D01*
G75*
G02*
X74600000Y-64987500I0J237500D01*
G01*
G37*
%TD*%
%TO.C,J9*%
G36*
G01*
X76350000Y-62237500D02*
X76350000Y-61762500D01*
G75*
G02*
X76587500Y-61525000I237500J0D01*
G01*
X77162500Y-61525000D01*
G75*
G02*
X77400000Y-61762500I0J-237500D01*
G01*
X77400000Y-62237500D01*
G75*
G02*
X77162500Y-62475000I-237500J0D01*
G01*
X76587500Y-62475000D01*
G75*
G02*
X76350000Y-62237500I0J237500D01*
G01*
G37*
G36*
G01*
X74600000Y-62237500D02*
X74600000Y-61762500D01*
G75*
G02*
X74837500Y-61525000I237500J0D01*
G01*
X75412500Y-61525000D01*
G75*
G02*
X75650000Y-61762500I0J-237500D01*
G01*
X75650000Y-62237500D01*
G75*
G02*
X75412500Y-62475000I-237500J0D01*
G01*
X74837500Y-62475000D01*
G75*
G02*
X74600000Y-62237500I0J237500D01*
G01*
G37*
%TD*%
%TO.C,J6*%
G36*
G01*
X75045000Y-54660000D02*
X75045000Y-54340000D01*
G75*
G02*
X75205000Y-54180000I160000J0D01*
G01*
X75650000Y-54180000D01*
G75*
G02*
X75810000Y-54340000I0J-160000D01*
G01*
X75810000Y-54660000D01*
G75*
G02*
X75650000Y-54820000I-160000J0D01*
G01*
X75205000Y-54820000D01*
G75*
G02*
X75045000Y-54660000I0J160000D01*
G01*
G37*
G36*
G01*
X76190000Y-54660000D02*
X76190000Y-54340000D01*
G75*
G02*
X76350000Y-54180000I160000J0D01*
G01*
X76795000Y-54180000D01*
G75*
G02*
X76955000Y-54340000I0J-160000D01*
G01*
X76955000Y-54660000D01*
G75*
G02*
X76795000Y-54820000I-160000J0D01*
G01*
X76350000Y-54820000D01*
G75*
G02*
X76190000Y-54660000I0J160000D01*
G01*
G37*
%TD*%
%TO.C,J3*%
G36*
G01*
X75045000Y-52160000D02*
X75045000Y-51840000D01*
G75*
G02*
X75205000Y-51680000I160000J0D01*
G01*
X75650000Y-51680000D01*
G75*
G02*
X75810000Y-51840000I0J-160000D01*
G01*
X75810000Y-52160000D01*
G75*
G02*
X75650000Y-52320000I-160000J0D01*
G01*
X75205000Y-52320000D01*
G75*
G02*
X75045000Y-52160000I0J160000D01*
G01*
G37*
G36*
G01*
X76190000Y-52160000D02*
X76190000Y-51840000D01*
G75*
G02*
X76350000Y-51680000I160000J0D01*
G01*
X76795000Y-51680000D01*
G75*
G02*
X76955000Y-51840000I0J-160000D01*
G01*
X76955000Y-52160000D01*
G75*
G02*
X76795000Y-52320000I-160000J0D01*
G01*
X76350000Y-52320000D01*
G75*
G02*
X76190000Y-52160000I0J160000D01*
G01*
G37*
%TD*%
%TO.C,J2*%
G36*
G01*
X75045000Y-81760000D02*
X75045000Y-81440000D01*
G75*
G02*
X75205000Y-81280000I160000J0D01*
G01*
X75650000Y-81280000D01*
G75*
G02*
X75810000Y-81440000I0J-160000D01*
G01*
X75810000Y-81760000D01*
G75*
G02*
X75650000Y-81920000I-160000J0D01*
G01*
X75205000Y-81920000D01*
G75*
G02*
X75045000Y-81760000I0J160000D01*
G01*
G37*
G36*
G01*
X76190000Y-81760000D02*
X76190000Y-81440000D01*
G75*
G02*
X76350000Y-81280000I160000J0D01*
G01*
X76795000Y-81280000D01*
G75*
G02*
X76955000Y-81440000I0J-160000D01*
G01*
X76955000Y-81760000D01*
G75*
G02*
X76795000Y-81920000I-160000J0D01*
G01*
X76350000Y-81920000D01*
G75*
G02*
X76190000Y-81760000I0J160000D01*
G01*
G37*
%TD*%
%TO.C,J4*%
G36*
G01*
X41050000Y-51705000D02*
X41050000Y-51405000D01*
G75*
G02*
X41200000Y-51255000I150000J0D01*
G01*
X42850000Y-51255000D01*
G75*
G02*
X43000000Y-51405000I0J-150000D01*
G01*
X43000000Y-51705000D01*
G75*
G02*
X42850000Y-51855000I-150000J0D01*
G01*
X41200000Y-51855000D01*
G75*
G02*
X41050000Y-51705000I0J150000D01*
G01*
G37*
G36*
G01*
X41050000Y-52975000D02*
X41050000Y-52675000D01*
G75*
G02*
X41200000Y-52525000I150000J0D01*
G01*
X42850000Y-52525000D01*
G75*
G02*
X43000000Y-52675000I0J-150000D01*
G01*
X43000000Y-52975000D01*
G75*
G02*
X42850000Y-53125000I-150000J0D01*
G01*
X41200000Y-53125000D01*
G75*
G02*
X41050000Y-52975000I0J150000D01*
G01*
G37*
G36*
G01*
X41050000Y-54245000D02*
X41050000Y-53945000D01*
G75*
G02*
X41200000Y-53795000I150000J0D01*
G01*
X42850000Y-53795000D01*
G75*
G02*
X43000000Y-53945000I0J-150000D01*
G01*
X43000000Y-54245000D01*
G75*
G02*
X42850000Y-54395000I-150000J0D01*
G01*
X41200000Y-54395000D01*
G75*
G02*
X41050000Y-54245000I0J150000D01*
G01*
G37*
G36*
G01*
X41050000Y-55515000D02*
X41050000Y-55215000D01*
G75*
G02*
X41200000Y-55065000I150000J0D01*
G01*
X42850000Y-55065000D01*
G75*
G02*
X43000000Y-55215000I0J-150000D01*
G01*
X43000000Y-55515000D01*
G75*
G02*
X42850000Y-55665000I-150000J0D01*
G01*
X41200000Y-55665000D01*
G75*
G02*
X41050000Y-55515000I0J150000D01*
G01*
G37*
G36*
G01*
X41050000Y-56785000D02*
X41050000Y-56485000D01*
G75*
G02*
X41200000Y-56335000I150000J0D01*
G01*
X42850000Y-56335000D01*
G75*
G02*
X43000000Y-56485000I0J-150000D01*
G01*
X43000000Y-56785000D01*
G75*
G02*
X42850000Y-56935000I-150000J0D01*
G01*
X41200000Y-56935000D01*
G75*
G02*
X41050000Y-56785000I0J150000D01*
G01*
G37*
G36*
G01*
X41050000Y-58055000D02*
X41050000Y-57755000D01*
G75*
G02*
X41200000Y-57605000I150000J0D01*
G01*
X42850000Y-57605000D01*
G75*
G02*
X43000000Y-57755000I0J-150000D01*
G01*
X43000000Y-58055000D01*
G75*
G02*
X42850000Y-58205000I-150000J0D01*
G01*
X41200000Y-58205000D01*
G75*
G02*
X41050000Y-58055000I0J150000D01*
G01*
G37*
G36*
G01*
X41050000Y-59325000D02*
X41050000Y-59025000D01*
G75*
G02*
X41200000Y-58875000I150000J0D01*
G01*
X42850000Y-58875000D01*
G75*
G02*
X43000000Y-59025000I0J-150000D01*
G01*
X43000000Y-59325000D01*
G75*
G02*
X42850000Y-59475000I-150000J0D01*
G01*
X41200000Y-59475000D01*
G75*
G02*
X41050000Y-59325000I0J150000D01*
G01*
G37*
G36*
G01*
X41050000Y-60595000D02*
X41050000Y-60295000D01*
G75*
G02*
X41200000Y-60145000I150000J0D01*
G01*
X42850000Y-60145000D01*
G75*
G02*
X43000000Y-60295000I0J-150000D01*
G01*
X43000000Y-60595000D01*
G75*
G02*
X42850000Y-60745000I-150000J0D01*
G01*
X41200000Y-60745000D01*
G75*
G02*
X41050000Y-60595000I0J150000D01*
G01*
G37*
G36*
G01*
X46000000Y-60595000D02*
X46000000Y-60295000D01*
G75*
G02*
X46150000Y-60145000I150000J0D01*
G01*
X47800000Y-60145000D01*
G75*
G02*
X47950000Y-60295000I0J-150000D01*
G01*
X47950000Y-60595000D01*
G75*
G02*
X47800000Y-60745000I-150000J0D01*
G01*
X46150000Y-60745000D01*
G75*
G02*
X46000000Y-60595000I0J150000D01*
G01*
G37*
G36*
G01*
X46000000Y-59325000D02*
X46000000Y-59025000D01*
G75*
G02*
X46150000Y-58875000I150000J0D01*
G01*
X47800000Y-58875000D01*
G75*
G02*
X47950000Y-59025000I0J-150000D01*
G01*
X47950000Y-59325000D01*
G75*
G02*
X47800000Y-59475000I-150000J0D01*
G01*
X46150000Y-59475000D01*
G75*
G02*
X46000000Y-59325000I0J150000D01*
G01*
G37*
G36*
G01*
X46000000Y-58055000D02*
X46000000Y-57755000D01*
G75*
G02*
X46150000Y-57605000I150000J0D01*
G01*
X47800000Y-57605000D01*
G75*
G02*
X47950000Y-57755000I0J-150000D01*
G01*
X47950000Y-58055000D01*
G75*
G02*
X47800000Y-58205000I-150000J0D01*
G01*
X46150000Y-58205000D01*
G75*
G02*
X46000000Y-58055000I0J150000D01*
G01*
G37*
G36*
G01*
X46000000Y-56785000D02*
X46000000Y-56485000D01*
G75*
G02*
X46150000Y-56335000I150000J0D01*
G01*
X47800000Y-56335000D01*
G75*
G02*
X47950000Y-56485000I0J-150000D01*
G01*
X47950000Y-56785000D01*
G75*
G02*
X47800000Y-56935000I-150000J0D01*
G01*
X46150000Y-56935000D01*
G75*
G02*
X46000000Y-56785000I0J150000D01*
G01*
G37*
G36*
G01*
X46000000Y-55515000D02*
X46000000Y-55215000D01*
G75*
G02*
X46150000Y-55065000I150000J0D01*
G01*
X47800000Y-55065000D01*
G75*
G02*
X47950000Y-55215000I0J-150000D01*
G01*
X47950000Y-55515000D01*
G75*
G02*
X47800000Y-55665000I-150000J0D01*
G01*
X46150000Y-55665000D01*
G75*
G02*
X46000000Y-55515000I0J150000D01*
G01*
G37*
G36*
G01*
X46000000Y-54245000D02*
X46000000Y-53945000D01*
G75*
G02*
X46150000Y-53795000I150000J0D01*
G01*
X47800000Y-53795000D01*
G75*
G02*
X47950000Y-53945000I0J-150000D01*
G01*
X47950000Y-54245000D01*
G75*
G02*
X47800000Y-54395000I-150000J0D01*
G01*
X46150000Y-54395000D01*
G75*
G02*
X46000000Y-54245000I0J150000D01*
G01*
G37*
G36*
G01*
X46000000Y-52975000D02*
X46000000Y-52675000D01*
G75*
G02*
X46150000Y-52525000I150000J0D01*
G01*
X47800000Y-52525000D01*
G75*
G02*
X47950000Y-52675000I0J-150000D01*
G01*
X47950000Y-52975000D01*
G75*
G02*
X47800000Y-53125000I-150000J0D01*
G01*
X46150000Y-53125000D01*
G75*
G02*
X46000000Y-52975000I0J150000D01*
G01*
G37*
G36*
G01*
X46000000Y-51705000D02*
X46000000Y-51405000D01*
G75*
G02*
X46150000Y-51255000I150000J0D01*
G01*
X47800000Y-51255000D01*
G75*
G02*
X47950000Y-51405000I0J-150000D01*
G01*
X47950000Y-51705000D01*
G75*
G02*
X47800000Y-51855000I-150000J0D01*
G01*
X46150000Y-51855000D01*
G75*
G02*
X46000000Y-51705000I0J150000D01*
G01*
G37*
%TD*%
%TO.C,J1*%
G36*
G01*
X75045000Y-79960000D02*
X75045000Y-79640000D01*
G75*
G02*
X75205000Y-79480000I160000J0D01*
G01*
X75650000Y-79480000D01*
G75*
G02*
X75810000Y-79640000I0J-160000D01*
G01*
X75810000Y-79960000D01*
G75*
G02*
X75650000Y-80120000I-160000J0D01*
G01*
X75205000Y-80120000D01*
G75*
G02*
X75045000Y-79960000I0J160000D01*
G01*
G37*
G36*
G01*
X76190000Y-79960000D02*
X76190000Y-79640000D01*
G75*
G02*
X76350000Y-79480000I160000J0D01*
G01*
X76795000Y-79480000D01*
G75*
G02*
X76955000Y-79640000I0J-160000D01*
G01*
X76955000Y-79960000D01*
G75*
G02*
X76795000Y-80120000I-160000J0D01*
G01*
X76350000Y-80120000D01*
G75*
G02*
X76190000Y-79960000I0J160000D01*
G01*
G37*
%TD*%
M02*
