M48
; DRILL file {KiCad 5.1.10} date Fri Oct 22 01:19:01 2021
; FORMAT={-:-/ absolute / metric / decimal}
; #@! TF.CreationDate,2021-10-22T01:19:01+03:00
; #@! TF.GenerationSoftware,Kicad,Pcbnew,5.1.10
; #@! TF.FileFunction,Plated,1,2,PTH
FMAT,2
METRIC
T1C1.000
%
G90
G05
T1
X38.5Y-46.865
X38.5Y-49.405
X38.5Y-51.945
X38.5Y-54.485
X38.5Y-57.025
X38.5Y-59.565
X38.5Y-62.105
X38.5Y-64.645
X38.5Y-67.185
X38.5Y-69.725
X38.5Y-72.265
X38.5Y-74.805
X38.5Y-77.345
X38.5Y-79.885
X38.5Y-82.425
X38.5Y-84.965
X38.5Y-87.505
X50.5Y-46.825
X50.5Y-49.365
X50.5Y-51.905
X50.5Y-54.445
X50.5Y-56.985
X50.5Y-59.525
X50.5Y-62.065
X50.5Y-64.605
X50.5Y-67.145
X50.5Y-69.685
X50.5Y-72.225
X50.5Y-74.765
X50.5Y-77.305
X50.5Y-79.845
X50.5Y-82.385
X50.5Y-84.925
X50.5Y-87.465
X54.5Y-46.865
X54.5Y-49.405
X54.5Y-51.945
X54.5Y-54.485
X54.5Y-57.025
X54.5Y-59.565
X54.5Y-62.105
X54.5Y-64.645
X54.5Y-67.185
X54.5Y-69.725
X54.5Y-72.265
X54.5Y-74.805
X54.5Y-77.345
X54.5Y-79.885
X54.5Y-82.425
X54.5Y-84.965
X54.5Y-87.505
X67.0Y-46.825
X67.0Y-49.365
X67.0Y-51.905
X67.0Y-54.445
X67.0Y-56.985
X67.0Y-59.525
X67.0Y-62.065
X67.0Y-64.605
X67.0Y-67.145
X67.0Y-69.685
X67.0Y-72.225
X67.0Y-74.765
X67.0Y-77.305
X67.0Y-79.845
X67.0Y-82.385
X67.0Y-84.925
X67.0Y-87.465
X71.0Y-46.865
X71.0Y-49.405
X71.0Y-51.945
X71.0Y-54.485
X71.0Y-57.025
X71.0Y-59.565
X71.0Y-62.105
X71.0Y-64.645
X71.0Y-67.185
X71.0Y-69.725
X71.0Y-72.265
X71.0Y-74.805
X71.0Y-77.345
X71.0Y-79.885
X71.0Y-82.425
X71.0Y-84.965
X71.0Y-87.505
X81.0Y-46.825
X81.0Y-49.365
X81.0Y-51.905
X81.0Y-54.445
X81.0Y-56.985
X81.0Y-59.525
X81.0Y-62.065
X81.0Y-64.605
X81.0Y-67.145
X81.0Y-69.685
X81.0Y-72.225
X81.0Y-74.765
X81.0Y-77.305
X81.0Y-79.845
X81.0Y-82.385
X81.0Y-84.925
X81.0Y-87.465
T0
M30
