%TF.GenerationSoftware,KiCad,Pcbnew,5.1.10*%
%TF.CreationDate,2021-10-22T01:18:59+03:00*%
%TF.ProjectId,breakouts,62726561-6b6f-4757-9473-2e6b69636164,rev?*%
%TF.SameCoordinates,Original*%
%TF.FileFunction,Legend,Bot*%
%TF.FilePolarity,Positive*%
%FSLAX46Y46*%
G04 Gerber Fmt 4.6, Leading zero omitted, Abs format (unit mm)*
G04 Created by KiCad (PCBNEW 5.1.10) date 2021-10-22 01:18:59*
%MOMM*%
%LPD*%
G01*
G04 APERTURE LIST*
%ADD10C,0.100000*%
%ADD11O,1.700000X1.700000*%
%ADD12R,1.700000X1.700000*%
G04 APERTURE END LIST*
D10*
G36*
X79375000Y-86360000D02*
G01*
X40005000Y-86360000D01*
X40005000Y-48260000D01*
X79375000Y-48260000D01*
X79375000Y-86360000D01*
G37*
X79375000Y-86360000D02*
X40005000Y-86360000D01*
X40005000Y-48260000D01*
X79375000Y-48260000D01*
X79375000Y-86360000D01*
%LPC*%
D11*
%TO.C,J18*%
X81000000Y-46824999D03*
X81000000Y-49364999D03*
X81000000Y-51904999D03*
X81000000Y-54444999D03*
X81000000Y-56984999D03*
X81000000Y-59524999D03*
X81000000Y-62064999D03*
X81000000Y-64604999D03*
X81000000Y-67144999D03*
X81000000Y-69684999D03*
X81000000Y-72224999D03*
X81000000Y-74764999D03*
X81000000Y-77304999D03*
X81000000Y-79844999D03*
X81000000Y-82384999D03*
X81000000Y-84924999D03*
D12*
X81000000Y-87464999D03*
%TD*%
D11*
%TO.C,J16*%
X71000000Y-87504999D03*
X71000000Y-84964999D03*
X71000000Y-82424999D03*
X71000000Y-79884999D03*
X71000000Y-77344999D03*
X71000000Y-74804999D03*
X71000000Y-72264999D03*
X71000000Y-69724999D03*
X71000000Y-67184999D03*
X71000000Y-64644999D03*
X71000000Y-62104999D03*
X71000000Y-59564999D03*
X71000000Y-57024999D03*
X71000000Y-54484999D03*
X71000000Y-51944999D03*
X71000000Y-49404999D03*
D12*
X71000000Y-46864999D03*
%TD*%
D11*
%TO.C,J15*%
X67000000Y-46824999D03*
X67000000Y-49364999D03*
X67000000Y-51904999D03*
X67000000Y-54444999D03*
X67000000Y-56984999D03*
X67000000Y-59524999D03*
X67000000Y-62064999D03*
X67000000Y-64604999D03*
X67000000Y-67144999D03*
X67000000Y-69684999D03*
X67000000Y-72224999D03*
X67000000Y-74764999D03*
X67000000Y-77304999D03*
X67000000Y-79844999D03*
X67000000Y-82384999D03*
X67000000Y-84924999D03*
D12*
X67000000Y-87464999D03*
%TD*%
D11*
%TO.C,J13*%
X54500000Y-87504999D03*
X54500000Y-84964999D03*
X54500000Y-82424999D03*
X54500000Y-79884999D03*
X54500000Y-77344999D03*
X54500000Y-74804999D03*
X54500000Y-72264999D03*
X54500000Y-69724999D03*
X54500000Y-67184999D03*
X54500000Y-64644999D03*
X54500000Y-62104999D03*
X54500000Y-59564999D03*
X54500000Y-57024999D03*
X54500000Y-54484999D03*
X54500000Y-51944999D03*
X54500000Y-49404999D03*
D12*
X54500000Y-46864999D03*
%TD*%
D11*
%TO.C,J12*%
X50500000Y-46824999D03*
X50500000Y-49364999D03*
X50500000Y-51904999D03*
X50500000Y-54444999D03*
X50500000Y-56984999D03*
X50500000Y-59524999D03*
X50500000Y-62064999D03*
X50500000Y-64604999D03*
X50500000Y-67144999D03*
X50500000Y-69684999D03*
X50500000Y-72224999D03*
X50500000Y-74764999D03*
X50500000Y-77304999D03*
X50500000Y-79844999D03*
X50500000Y-82384999D03*
X50500000Y-84924999D03*
D12*
X50500000Y-87464999D03*
%TD*%
D11*
%TO.C,J11*%
X38500000Y-87504999D03*
X38500000Y-84964999D03*
X38500000Y-82424999D03*
X38500000Y-79884999D03*
X38500000Y-77344999D03*
X38500000Y-74804999D03*
X38500000Y-72264999D03*
X38500000Y-69724999D03*
X38500000Y-67184999D03*
X38500000Y-64644999D03*
X38500000Y-62104999D03*
X38500000Y-59564999D03*
X38500000Y-57024999D03*
X38500000Y-54484999D03*
X38500000Y-51944999D03*
X38500000Y-49404999D03*
D12*
X38500000Y-46864999D03*
%TD*%
M02*
