%FSLAX45Y45*%
G04 Gerber Fmt 4.5, Leading zero omitted, Abs format (unit mm)*
G04 Created by KiCad (PCBNEW 5.1.10) date 2021-10-22 01:19:01*
%MOMM*%
%LPD*%
G01*
G04 APERTURE LIST*
%TA.AperFunction,Profile*%
%ADD10C,0.050000*%
%TD*%
%ADD11C,0.200000*%
%ADD12C,0.300000*%
G04 APERTURE END LIST*
D10*
X3650000Y-4450000D02*
X8300000Y-4450000D01*
X3650000Y-9000000D02*
X3650000Y-4450000D01*
X8300000Y-9000000D02*
X3650000Y-9000000D01*
X8300000Y-4450000D02*
X8300000Y-9000000D01*
D11*
X3800000Y-4636500D02*
X3900000Y-4736500D01*
X3900000Y-4636500D02*
X3800000Y-4736500D01*
X3800000Y-4890500D02*
X3900000Y-4990500D01*
X3900000Y-4890500D02*
X3800000Y-4990500D01*
X3800000Y-5144500D02*
X3900000Y-5244500D01*
X3900000Y-5144500D02*
X3800000Y-5244500D01*
X3800000Y-5398500D02*
X3900000Y-5498500D01*
X3900000Y-5398500D02*
X3800000Y-5498500D01*
X3800000Y-5652500D02*
X3900000Y-5752500D01*
X3900000Y-5652500D02*
X3800000Y-5752500D01*
X3800000Y-5906500D02*
X3900000Y-6006500D01*
X3900000Y-5906500D02*
X3800000Y-6006500D01*
X3800000Y-6160500D02*
X3900000Y-6260500D01*
X3900000Y-6160500D02*
X3800000Y-6260500D01*
X3800000Y-6414500D02*
X3900000Y-6514500D01*
X3900000Y-6414500D02*
X3800000Y-6514500D01*
X3800000Y-6668500D02*
X3900000Y-6768500D01*
X3900000Y-6668500D02*
X3800000Y-6768500D01*
X3800000Y-6922500D02*
X3900000Y-7022500D01*
X3900000Y-6922500D02*
X3800000Y-7022500D01*
X3800000Y-7176500D02*
X3900000Y-7276500D01*
X3900000Y-7176500D02*
X3800000Y-7276500D01*
X3800000Y-7430500D02*
X3900000Y-7530500D01*
X3900000Y-7430500D02*
X3800000Y-7530500D01*
X3800000Y-7684500D02*
X3900000Y-7784500D01*
X3900000Y-7684500D02*
X3800000Y-7784500D01*
X3800000Y-7938500D02*
X3900000Y-8038500D01*
X3900000Y-7938500D02*
X3800000Y-8038500D01*
X3800000Y-8192500D02*
X3900000Y-8292500D01*
X3900000Y-8192500D02*
X3800000Y-8292500D01*
X3800000Y-8446500D02*
X3900000Y-8546500D01*
X3900000Y-8446500D02*
X3800000Y-8546500D01*
X3800000Y-8700500D02*
X3900000Y-8800500D01*
X3900000Y-8700500D02*
X3800000Y-8800500D01*
X5000000Y-4632500D02*
X5100000Y-4732500D01*
X5100000Y-4632500D02*
X5000000Y-4732500D01*
X5000000Y-4886500D02*
X5100000Y-4986500D01*
X5100000Y-4886500D02*
X5000000Y-4986500D01*
X5000000Y-5140500D02*
X5100000Y-5240500D01*
X5100000Y-5140500D02*
X5000000Y-5240500D01*
X5000000Y-5394500D02*
X5100000Y-5494500D01*
X5100000Y-5394500D02*
X5000000Y-5494500D01*
X5000000Y-5648500D02*
X5100000Y-5748500D01*
X5100000Y-5648500D02*
X5000000Y-5748500D01*
X5000000Y-5902500D02*
X5100000Y-6002500D01*
X5100000Y-5902500D02*
X5000000Y-6002500D01*
X5000000Y-6156500D02*
X5100000Y-6256500D01*
X5100000Y-6156500D02*
X5000000Y-6256500D01*
X5000000Y-6410500D02*
X5100000Y-6510500D01*
X5100000Y-6410500D02*
X5000000Y-6510500D01*
X5000000Y-6664500D02*
X5100000Y-6764500D01*
X5100000Y-6664500D02*
X5000000Y-6764500D01*
X5000000Y-6918500D02*
X5100000Y-7018500D01*
X5100000Y-6918500D02*
X5000000Y-7018500D01*
X5000000Y-7172500D02*
X5100000Y-7272500D01*
X5100000Y-7172500D02*
X5000000Y-7272500D01*
X5000000Y-7426500D02*
X5100000Y-7526500D01*
X5100000Y-7426500D02*
X5000000Y-7526500D01*
X5000000Y-7680500D02*
X5100000Y-7780500D01*
X5100000Y-7680500D02*
X5000000Y-7780500D01*
X5000000Y-7934500D02*
X5100000Y-8034500D01*
X5100000Y-7934500D02*
X5000000Y-8034500D01*
X5000000Y-8188500D02*
X5100000Y-8288500D01*
X5100000Y-8188500D02*
X5000000Y-8288500D01*
X5000000Y-8442500D02*
X5100000Y-8542500D01*
X5100000Y-8442500D02*
X5000000Y-8542500D01*
X5000000Y-8696500D02*
X5100000Y-8796500D01*
X5100000Y-8696500D02*
X5000000Y-8796500D01*
X5400000Y-4636500D02*
X5500000Y-4736500D01*
X5500000Y-4636500D02*
X5400000Y-4736500D01*
X5400000Y-4890500D02*
X5500000Y-4990500D01*
X5500000Y-4890500D02*
X5400000Y-4990500D01*
X5400000Y-5144500D02*
X5500000Y-5244500D01*
X5500000Y-5144500D02*
X5400000Y-5244500D01*
X5400000Y-5398500D02*
X5500000Y-5498500D01*
X5500000Y-5398500D02*
X5400000Y-5498500D01*
X5400000Y-5652500D02*
X5500000Y-5752500D01*
X5500000Y-5652500D02*
X5400000Y-5752500D01*
X5400000Y-5906500D02*
X5500000Y-6006500D01*
X5500000Y-5906500D02*
X5400000Y-6006500D01*
X5400000Y-6160500D02*
X5500000Y-6260500D01*
X5500000Y-6160500D02*
X5400000Y-6260500D01*
X5400000Y-6414500D02*
X5500000Y-6514500D01*
X5500000Y-6414500D02*
X5400000Y-6514500D01*
X5400000Y-6668500D02*
X5500000Y-6768500D01*
X5500000Y-6668500D02*
X5400000Y-6768500D01*
X5400000Y-6922500D02*
X5500000Y-7022500D01*
X5500000Y-6922500D02*
X5400000Y-7022500D01*
X5400000Y-7176500D02*
X5500000Y-7276500D01*
X5500000Y-7176500D02*
X5400000Y-7276500D01*
X5400000Y-7430500D02*
X5500000Y-7530500D01*
X5500000Y-7430500D02*
X5400000Y-7530500D01*
X5400000Y-7684500D02*
X5500000Y-7784500D01*
X5500000Y-7684500D02*
X5400000Y-7784500D01*
X5400000Y-7938500D02*
X5500000Y-8038500D01*
X5500000Y-7938500D02*
X5400000Y-8038500D01*
X5400000Y-8192500D02*
X5500000Y-8292500D01*
X5500000Y-8192500D02*
X5400000Y-8292500D01*
X5400000Y-8446500D02*
X5500000Y-8546500D01*
X5500000Y-8446500D02*
X5400000Y-8546500D01*
X5400000Y-8700500D02*
X5500000Y-8800500D01*
X5500000Y-8700500D02*
X5400000Y-8800500D01*
X6650000Y-4632500D02*
X6750000Y-4732500D01*
X6750000Y-4632500D02*
X6650000Y-4732500D01*
X6650000Y-4886500D02*
X6750000Y-4986500D01*
X6750000Y-4886500D02*
X6650000Y-4986500D01*
X6650000Y-5140500D02*
X6750000Y-5240500D01*
X6750000Y-5140500D02*
X6650000Y-5240500D01*
X6650000Y-5394500D02*
X6750000Y-5494500D01*
X6750000Y-5394500D02*
X6650000Y-5494500D01*
X6650000Y-5648500D02*
X6750000Y-5748500D01*
X6750000Y-5648500D02*
X6650000Y-5748500D01*
X6650000Y-5902500D02*
X6750000Y-6002500D01*
X6750000Y-5902500D02*
X6650000Y-6002500D01*
X6650000Y-6156500D02*
X6750000Y-6256500D01*
X6750000Y-6156500D02*
X6650000Y-6256500D01*
X6650000Y-6410500D02*
X6750000Y-6510500D01*
X6750000Y-6410500D02*
X6650000Y-6510500D01*
X6650000Y-6664500D02*
X6750000Y-6764500D01*
X6750000Y-6664500D02*
X6650000Y-6764500D01*
X6650000Y-6918500D02*
X6750000Y-7018500D01*
X6750000Y-6918500D02*
X6650000Y-7018500D01*
X6650000Y-7172500D02*
X6750000Y-7272500D01*
X6750000Y-7172500D02*
X6650000Y-7272500D01*
X6650000Y-7426500D02*
X6750000Y-7526500D01*
X6750000Y-7426500D02*
X6650000Y-7526500D01*
X6650000Y-7680500D02*
X6750000Y-7780500D01*
X6750000Y-7680500D02*
X6650000Y-7780500D01*
X6650000Y-7934500D02*
X6750000Y-8034500D01*
X6750000Y-7934500D02*
X6650000Y-8034500D01*
X6650000Y-8188500D02*
X6750000Y-8288500D01*
X6750000Y-8188500D02*
X6650000Y-8288500D01*
X6650000Y-8442500D02*
X6750000Y-8542500D01*
X6750000Y-8442500D02*
X6650000Y-8542500D01*
X6650000Y-8696500D02*
X6750000Y-8796500D01*
X6750000Y-8696500D02*
X6650000Y-8796500D01*
X7050000Y-4636500D02*
X7150000Y-4736500D01*
X7150000Y-4636500D02*
X7050000Y-4736500D01*
X7050000Y-4890500D02*
X7150000Y-4990500D01*
X7150000Y-4890500D02*
X7050000Y-4990500D01*
X7050000Y-5144500D02*
X7150000Y-5244500D01*
X7150000Y-5144500D02*
X7050000Y-5244500D01*
X7050000Y-5398500D02*
X7150000Y-5498500D01*
X7150000Y-5398500D02*
X7050000Y-5498500D01*
X7050000Y-5652500D02*
X7150000Y-5752500D01*
X7150000Y-5652500D02*
X7050000Y-5752500D01*
X7050000Y-5906500D02*
X7150000Y-6006500D01*
X7150000Y-5906500D02*
X7050000Y-6006500D01*
X7050000Y-6160500D02*
X7150000Y-6260500D01*
X7150000Y-6160500D02*
X7050000Y-6260500D01*
X7050000Y-6414500D02*
X7150000Y-6514500D01*
X7150000Y-6414500D02*
X7050000Y-6514500D01*
X7050000Y-6668500D02*
X7150000Y-6768500D01*
X7150000Y-6668500D02*
X7050000Y-6768500D01*
X7050000Y-6922500D02*
X7150000Y-7022500D01*
X7150000Y-6922500D02*
X7050000Y-7022500D01*
X7050000Y-7176500D02*
X7150000Y-7276500D01*
X7150000Y-7176500D02*
X7050000Y-7276500D01*
X7050000Y-7430500D02*
X7150000Y-7530500D01*
X7150000Y-7430500D02*
X7050000Y-7530500D01*
X7050000Y-7684500D02*
X7150000Y-7784500D01*
X7150000Y-7684500D02*
X7050000Y-7784500D01*
X7050000Y-7938500D02*
X7150000Y-8038500D01*
X7150000Y-7938500D02*
X7050000Y-8038500D01*
X7050000Y-8192500D02*
X7150000Y-8292500D01*
X7150000Y-8192500D02*
X7050000Y-8292500D01*
X7050000Y-8446500D02*
X7150000Y-8546500D01*
X7150000Y-8446500D02*
X7050000Y-8546500D01*
X7050000Y-8700500D02*
X7150000Y-8800500D01*
X7150000Y-8700500D02*
X7050000Y-8800500D01*
X8050000Y-4632500D02*
X8150000Y-4732500D01*
X8150000Y-4632500D02*
X8050000Y-4732500D01*
X8050000Y-4886500D02*
X8150000Y-4986500D01*
X8150000Y-4886500D02*
X8050000Y-4986500D01*
X8050000Y-5140500D02*
X8150000Y-5240500D01*
X8150000Y-5140500D02*
X8050000Y-5240500D01*
X8050000Y-5394500D02*
X8150000Y-5494500D01*
X8150000Y-5394500D02*
X8050000Y-5494500D01*
X8050000Y-5648500D02*
X8150000Y-5748500D01*
X8150000Y-5648500D02*
X8050000Y-5748500D01*
X8050000Y-5902500D02*
X8150000Y-6002500D01*
X8150000Y-5902500D02*
X8050000Y-6002500D01*
X8050000Y-6156500D02*
X8150000Y-6256500D01*
X8150000Y-6156500D02*
X8050000Y-6256500D01*
X8050000Y-6410500D02*
X8150000Y-6510500D01*
X8150000Y-6410500D02*
X8050000Y-6510500D01*
X8050000Y-6664500D02*
X8150000Y-6764500D01*
X8150000Y-6664500D02*
X8050000Y-6764500D01*
X8050000Y-6918500D02*
X8150000Y-7018500D01*
X8150000Y-6918500D02*
X8050000Y-7018500D01*
X8050000Y-7172500D02*
X8150000Y-7272500D01*
X8150000Y-7172500D02*
X8050000Y-7272500D01*
X8050000Y-7426500D02*
X8150000Y-7526500D01*
X8150000Y-7426500D02*
X8050000Y-7526500D01*
X8050000Y-7680500D02*
X8150000Y-7780500D01*
X8150000Y-7680500D02*
X8050000Y-7780500D01*
X8050000Y-7934500D02*
X8150000Y-8034500D01*
X8150000Y-7934500D02*
X8050000Y-8034500D01*
X8050000Y-8188500D02*
X8150000Y-8288500D01*
X8150000Y-8188500D02*
X8050000Y-8288500D01*
X8050000Y-8442500D02*
X8150000Y-8542500D01*
X8150000Y-8442500D02*
X8050000Y-8542500D01*
X8050000Y-8696500D02*
X8150000Y-8796500D01*
X8150000Y-8696500D02*
X8050000Y-8796500D01*
D12*
X3933928Y-9468214D02*
X3933928Y-9168214D01*
X4005357Y-9168214D01*
X4048214Y-9182500D01*
X4076786Y-9211072D01*
X4091071Y-9239643D01*
X4105357Y-9296786D01*
X4105357Y-9339643D01*
X4091071Y-9396786D01*
X4076786Y-9425357D01*
X4048214Y-9453929D01*
X4005357Y-9468214D01*
X3933928Y-9468214D01*
X4233928Y-9468214D02*
X4233928Y-9268214D01*
X4233928Y-9325357D02*
X4248214Y-9296786D01*
X4262500Y-9282500D01*
X4291071Y-9268214D01*
X4319643Y-9268214D01*
X4419643Y-9468214D02*
X4419643Y-9268214D01*
X4419643Y-9168214D02*
X4405357Y-9182500D01*
X4419643Y-9196786D01*
X4433928Y-9182500D01*
X4419643Y-9168214D01*
X4419643Y-9196786D01*
X4605357Y-9468214D02*
X4576786Y-9453929D01*
X4562500Y-9425357D01*
X4562500Y-9168214D01*
X4762500Y-9468214D02*
X4733928Y-9453929D01*
X4719643Y-9425357D01*
X4719643Y-9168214D01*
X5105357Y-9468214D02*
X5105357Y-9168214D01*
X5205357Y-9382500D01*
X5305357Y-9168214D01*
X5305357Y-9468214D01*
X5576786Y-9468214D02*
X5576786Y-9311072D01*
X5562500Y-9282500D01*
X5533928Y-9268214D01*
X5476786Y-9268214D01*
X5448214Y-9282500D01*
X5576786Y-9453929D02*
X5548214Y-9468214D01*
X5476786Y-9468214D01*
X5448214Y-9453929D01*
X5433928Y-9425357D01*
X5433928Y-9396786D01*
X5448214Y-9368214D01*
X5476786Y-9353929D01*
X5548214Y-9353929D01*
X5576786Y-9339643D01*
X5719643Y-9268214D02*
X5719643Y-9568214D01*
X5719643Y-9282500D02*
X5748214Y-9268214D01*
X5805357Y-9268214D01*
X5833928Y-9282500D01*
X5848214Y-9296786D01*
X5862500Y-9325357D01*
X5862500Y-9411072D01*
X5848214Y-9439643D01*
X5833928Y-9453929D01*
X5805357Y-9468214D01*
X5748214Y-9468214D01*
X5719643Y-9453929D01*
X5991071Y-9439643D02*
X6005357Y-9453929D01*
X5991071Y-9468214D01*
X5976786Y-9453929D01*
X5991071Y-9439643D01*
X5991071Y-9468214D01*
X5991071Y-9282500D02*
X6005357Y-9296786D01*
X5991071Y-9311072D01*
X5976786Y-9296786D01*
X5991071Y-9282500D01*
X5991071Y-9311072D01*
X3547500Y-9912500D02*
X3647500Y-10012500D01*
X3647500Y-9912500D02*
X3547500Y-10012500D01*
X4091071Y-10098214D02*
X3919643Y-10098214D01*
X4005357Y-10098214D02*
X4005357Y-9798214D01*
X3976786Y-9841072D01*
X3948214Y-9869643D01*
X3919643Y-9883929D01*
X4219643Y-10069643D02*
X4233928Y-10083929D01*
X4219643Y-10098214D01*
X4205357Y-10083929D01*
X4219643Y-10069643D01*
X4219643Y-10098214D01*
X4419643Y-9798214D02*
X4448214Y-9798214D01*
X4476786Y-9812500D01*
X4491071Y-9826786D01*
X4505357Y-9855357D01*
X4519643Y-9912500D01*
X4519643Y-9983929D01*
X4505357Y-10041072D01*
X4491071Y-10069643D01*
X4476786Y-10083929D01*
X4448214Y-10098214D01*
X4419643Y-10098214D01*
X4391071Y-10083929D01*
X4376786Y-10069643D01*
X4362500Y-10041072D01*
X4348214Y-9983929D01*
X4348214Y-9912500D01*
X4362500Y-9855357D01*
X4376786Y-9826786D01*
X4391071Y-9812500D01*
X4419643Y-9798214D01*
X4705357Y-9798214D02*
X4733928Y-9798214D01*
X4762500Y-9812500D01*
X4776786Y-9826786D01*
X4791071Y-9855357D01*
X4805357Y-9912500D01*
X4805357Y-9983929D01*
X4791071Y-10041072D01*
X4776786Y-10069643D01*
X4762500Y-10083929D01*
X4733928Y-10098214D01*
X4705357Y-10098214D01*
X4676786Y-10083929D01*
X4662500Y-10069643D01*
X4648214Y-10041072D01*
X4633928Y-9983929D01*
X4633928Y-9912500D01*
X4648214Y-9855357D01*
X4662500Y-9826786D01*
X4676786Y-9812500D01*
X4705357Y-9798214D01*
X4991071Y-9798214D02*
X5019643Y-9798214D01*
X5048214Y-9812500D01*
X5062500Y-9826786D01*
X5076786Y-9855357D01*
X5091071Y-9912500D01*
X5091071Y-9983929D01*
X5076786Y-10041072D01*
X5062500Y-10069643D01*
X5048214Y-10083929D01*
X5019643Y-10098214D01*
X4991071Y-10098214D01*
X4962500Y-10083929D01*
X4948214Y-10069643D01*
X4933928Y-10041072D01*
X4919643Y-9983929D01*
X4919643Y-9912500D01*
X4933928Y-9855357D01*
X4948214Y-9826786D01*
X4962500Y-9812500D01*
X4991071Y-9798214D01*
X5219643Y-10098214D02*
X5219643Y-9898214D01*
X5219643Y-9926786D02*
X5233928Y-9912500D01*
X5262500Y-9898214D01*
X5305357Y-9898214D01*
X5333928Y-9912500D01*
X5348214Y-9941072D01*
X5348214Y-10098214D01*
X5348214Y-9941072D02*
X5362500Y-9912500D01*
X5391071Y-9898214D01*
X5433928Y-9898214D01*
X5462500Y-9912500D01*
X5476786Y-9941072D01*
X5476786Y-10098214D01*
X5619643Y-10098214D02*
X5619643Y-9898214D01*
X5619643Y-9926786D02*
X5633928Y-9912500D01*
X5662500Y-9898214D01*
X5705357Y-9898214D01*
X5733928Y-9912500D01*
X5748214Y-9941072D01*
X5748214Y-10098214D01*
X5748214Y-9941072D02*
X5762500Y-9912500D01*
X5791071Y-9898214D01*
X5833928Y-9898214D01*
X5862500Y-9912500D01*
X5876786Y-9941072D01*
X5876786Y-10098214D01*
X6462500Y-9783929D02*
X6205357Y-10169643D01*
X6848214Y-9798214D02*
X6876786Y-9798214D01*
X6905357Y-9812500D01*
X6919643Y-9826786D01*
X6933928Y-9855357D01*
X6948214Y-9912500D01*
X6948214Y-9983929D01*
X6933928Y-10041072D01*
X6919643Y-10069643D01*
X6905357Y-10083929D01*
X6876786Y-10098214D01*
X6848214Y-10098214D01*
X6819643Y-10083929D01*
X6805357Y-10069643D01*
X6791071Y-10041072D01*
X6776786Y-9983929D01*
X6776786Y-9912500D01*
X6791071Y-9855357D01*
X6805357Y-9826786D01*
X6819643Y-9812500D01*
X6848214Y-9798214D01*
X7076786Y-10069643D02*
X7091071Y-10083929D01*
X7076786Y-10098214D01*
X7062500Y-10083929D01*
X7076786Y-10069643D01*
X7076786Y-10098214D01*
X7276786Y-9798214D02*
X7305357Y-9798214D01*
X7333928Y-9812500D01*
X7348214Y-9826786D01*
X7362500Y-9855357D01*
X7376786Y-9912500D01*
X7376786Y-9983929D01*
X7362500Y-10041072D01*
X7348214Y-10069643D01*
X7333928Y-10083929D01*
X7305357Y-10098214D01*
X7276786Y-10098214D01*
X7248214Y-10083929D01*
X7233928Y-10069643D01*
X7219643Y-10041072D01*
X7205357Y-9983929D01*
X7205357Y-9912500D01*
X7219643Y-9855357D01*
X7233928Y-9826786D01*
X7248214Y-9812500D01*
X7276786Y-9798214D01*
X7476786Y-9798214D02*
X7662500Y-9798214D01*
X7562500Y-9912500D01*
X7605357Y-9912500D01*
X7633928Y-9926786D01*
X7648214Y-9941072D01*
X7662500Y-9969643D01*
X7662500Y-10041072D01*
X7648214Y-10069643D01*
X7633928Y-10083929D01*
X7605357Y-10098214D01*
X7519643Y-10098214D01*
X7491071Y-10083929D01*
X7476786Y-10069643D01*
X7805357Y-10098214D02*
X7862500Y-10098214D01*
X7891071Y-10083929D01*
X7905357Y-10069643D01*
X7933928Y-10026786D01*
X7948214Y-9969643D01*
X7948214Y-9855357D01*
X7933928Y-9826786D01*
X7919643Y-9812500D01*
X7891071Y-9798214D01*
X7833928Y-9798214D01*
X7805357Y-9812500D01*
X7791071Y-9826786D01*
X7776786Y-9855357D01*
X7776786Y-9926786D01*
X7791071Y-9955357D01*
X7805357Y-9969643D01*
X7833928Y-9983929D01*
X7891071Y-9983929D01*
X7919643Y-9969643D01*
X7933928Y-9955357D01*
X7948214Y-9926786D01*
X8205357Y-9898214D02*
X8205357Y-10098214D01*
X8133928Y-9783929D02*
X8062500Y-9998214D01*
X8248214Y-9998214D01*
X8348214Y-9798214D02*
X8348214Y-9855357D01*
X8462500Y-9798214D02*
X8462500Y-9855357D01*
X8905357Y-10212500D02*
X8891071Y-10198214D01*
X8862500Y-10155357D01*
X8848214Y-10126786D01*
X8833928Y-10083929D01*
X8819643Y-10012500D01*
X8819643Y-9955357D01*
X8833928Y-9883929D01*
X8848214Y-9841072D01*
X8862500Y-9812500D01*
X8891071Y-9769643D01*
X8905357Y-9755357D01*
X9176786Y-10098214D02*
X9005357Y-10098214D01*
X9091071Y-10098214D02*
X9091071Y-9798214D01*
X9062500Y-9841072D01*
X9033928Y-9869643D01*
X9005357Y-9883929D01*
X9362500Y-9798214D02*
X9391071Y-9798214D01*
X9419643Y-9812500D01*
X9433928Y-9826786D01*
X9448214Y-9855357D01*
X9462500Y-9912500D01*
X9462500Y-9983929D01*
X9448214Y-10041072D01*
X9433928Y-10069643D01*
X9419643Y-10083929D01*
X9391071Y-10098214D01*
X9362500Y-10098214D01*
X9333928Y-10083929D01*
X9319643Y-10069643D01*
X9305357Y-10041072D01*
X9291071Y-9983929D01*
X9291071Y-9912500D01*
X9305357Y-9855357D01*
X9319643Y-9826786D01*
X9333928Y-9812500D01*
X9362500Y-9798214D01*
X9576786Y-9826786D02*
X9591071Y-9812500D01*
X9619643Y-9798214D01*
X9691071Y-9798214D01*
X9719643Y-9812500D01*
X9733928Y-9826786D01*
X9748214Y-9855357D01*
X9748214Y-9883929D01*
X9733928Y-9926786D01*
X9562500Y-10098214D01*
X9748214Y-10098214D01*
X10105357Y-10098214D02*
X10105357Y-9798214D01*
X10233928Y-10098214D02*
X10233928Y-9941072D01*
X10219643Y-9912500D01*
X10191071Y-9898214D01*
X10148214Y-9898214D01*
X10119643Y-9912500D01*
X10105357Y-9926786D01*
X10419643Y-10098214D02*
X10391071Y-10083929D01*
X10376786Y-10069643D01*
X10362500Y-10041072D01*
X10362500Y-9955357D01*
X10376786Y-9926786D01*
X10391071Y-9912500D01*
X10419643Y-9898214D01*
X10462500Y-9898214D01*
X10491071Y-9912500D01*
X10505357Y-9926786D01*
X10519643Y-9955357D01*
X10519643Y-10041072D01*
X10505357Y-10069643D01*
X10491071Y-10083929D01*
X10462500Y-10098214D01*
X10419643Y-10098214D01*
X10691071Y-10098214D02*
X10662500Y-10083929D01*
X10648214Y-10055357D01*
X10648214Y-9798214D01*
X10919643Y-10083929D02*
X10891071Y-10098214D01*
X10833928Y-10098214D01*
X10805357Y-10083929D01*
X10791071Y-10055357D01*
X10791071Y-9941072D01*
X10805357Y-9912500D01*
X10833928Y-9898214D01*
X10891071Y-9898214D01*
X10919643Y-9912500D01*
X10933928Y-9941072D01*
X10933928Y-9969643D01*
X10791071Y-9998214D01*
X11048214Y-10083929D02*
X11076786Y-10098214D01*
X11133928Y-10098214D01*
X11162500Y-10083929D01*
X11176786Y-10055357D01*
X11176786Y-10041072D01*
X11162500Y-10012500D01*
X11133928Y-9998214D01*
X11091071Y-9998214D01*
X11062500Y-9983929D01*
X11048214Y-9955357D01*
X11048214Y-9941072D01*
X11062500Y-9912500D01*
X11091071Y-9898214D01*
X11133928Y-9898214D01*
X11162500Y-9912500D01*
X11276786Y-10212500D02*
X11291071Y-10198214D01*
X11319643Y-10155357D01*
X11333928Y-10126786D01*
X11348214Y-10083929D01*
X11362500Y-10012500D01*
X11362500Y-9955357D01*
X11348214Y-9883929D01*
X11333928Y-9841072D01*
X11319643Y-9812500D01*
X11291071Y-9769643D01*
X11276786Y-9755357D01*
M02*
