%TF.GenerationSoftware,KiCad,Pcbnew,5.1.10*%
%TF.CreationDate,2021-10-22T01:18:59+03:00*%
%TF.ProjectId,breakouts,62726561-6b6f-4757-9473-2e6b69636164,rev?*%
%TF.SameCoordinates,Original*%
%TF.FileFunction,Copper,L1,Top*%
%TF.FilePolarity,Positive*%
%FSLAX46Y46*%
G04 Gerber Fmt 4.6, Leading zero omitted, Abs format (unit mm)*
G04 Created by KiCad (PCBNEW 5.1.10) date 2021-10-22 01:18:59*
%MOMM*%
%LPD*%
G01*
G04 APERTURE LIST*
%TA.AperFunction,SMDPad,CuDef*%
%ADD10R,1.650000X2.850000*%
%TD*%
%TA.AperFunction,ComponentPad*%
%ADD11O,1.700000X1.700000*%
%TD*%
%TA.AperFunction,ComponentPad*%
%ADD12R,1.700000X1.700000*%
%TD*%
%TA.AperFunction,SMDPad,CuDef*%
%ADD13R,1.560000X0.650000*%
%TD*%
%TA.AperFunction,SMDPad,CuDef*%
%ADD14R,1.500000X1.800000*%
%TD*%
%TA.AperFunction,SMDPad,CuDef*%
%ADD15R,1.450000X0.450000*%
%TD*%
%TA.AperFunction,Conductor*%
%ADD16C,0.400000*%
%TD*%
%TA.AperFunction,Conductor*%
%ADD17C,0.250000*%
%TD*%
%TA.AperFunction,NonConductor*%
%ADD18C,0.508000*%
%TD*%
%TA.AperFunction,NonConductor*%
%ADD19C,0.100000*%
%TD*%
G04 APERTURE END LIST*
D10*
%TO.P,J20,13*%
%TO.N,N/C*%
X44500000Y-73500000D03*
%TO.P,J20,12*%
%TO.N,Net-(J12-Pad9)*%
%TA.AperFunction,SMDPad,CuDef*%
G36*
G01*
X45925000Y-71975000D02*
X45925000Y-71775000D01*
G75*
G02*
X46025000Y-71675000I100000J0D01*
G01*
X47275000Y-71675000D01*
G75*
G02*
X47375000Y-71775000I0J-100000D01*
G01*
X47375000Y-71975000D01*
G75*
G02*
X47275000Y-72075000I-100000J0D01*
G01*
X46025000Y-72075000D01*
G75*
G02*
X45925000Y-71975000I0J100000D01*
G01*
G37*
%TD.AperFunction*%
%TO.P,J20,11*%
%TO.N,Net-(J12-Pad8)*%
%TA.AperFunction,SMDPad,CuDef*%
G36*
G01*
X45925000Y-72625000D02*
X45925000Y-72425000D01*
G75*
G02*
X46025000Y-72325000I100000J0D01*
G01*
X47275000Y-72325000D01*
G75*
G02*
X47375000Y-72425000I0J-100000D01*
G01*
X47375000Y-72625000D01*
G75*
G02*
X47275000Y-72725000I-100000J0D01*
G01*
X46025000Y-72725000D01*
G75*
G02*
X45925000Y-72625000I0J100000D01*
G01*
G37*
%TD.AperFunction*%
%TO.P,J20,10*%
%TO.N,Net-(J12-Pad7)*%
%TA.AperFunction,SMDPad,CuDef*%
G36*
G01*
X45925000Y-73275000D02*
X45925000Y-73075000D01*
G75*
G02*
X46025000Y-72975000I100000J0D01*
G01*
X47275000Y-72975000D01*
G75*
G02*
X47375000Y-73075000I0J-100000D01*
G01*
X47375000Y-73275000D01*
G75*
G02*
X47275000Y-73375000I-100000J0D01*
G01*
X46025000Y-73375000D01*
G75*
G02*
X45925000Y-73275000I0J100000D01*
G01*
G37*
%TD.AperFunction*%
%TO.P,J20,9*%
%TO.N,Net-(J12-Pad6)*%
%TA.AperFunction,SMDPad,CuDef*%
G36*
G01*
X45925000Y-73925000D02*
X45925000Y-73725000D01*
G75*
G02*
X46025000Y-73625000I100000J0D01*
G01*
X47275000Y-73625000D01*
G75*
G02*
X47375000Y-73725000I0J-100000D01*
G01*
X47375000Y-73925000D01*
G75*
G02*
X47275000Y-74025000I-100000J0D01*
G01*
X46025000Y-74025000D01*
G75*
G02*
X45925000Y-73925000I0J100000D01*
G01*
G37*
%TD.AperFunction*%
%TO.P,J20,8*%
%TO.N,Net-(J12-Pad5)*%
%TA.AperFunction,SMDPad,CuDef*%
G36*
G01*
X45925000Y-74575000D02*
X45925000Y-74375000D01*
G75*
G02*
X46025000Y-74275000I100000J0D01*
G01*
X47275000Y-74275000D01*
G75*
G02*
X47375000Y-74375000I0J-100000D01*
G01*
X47375000Y-74575000D01*
G75*
G02*
X47275000Y-74675000I-100000J0D01*
G01*
X46025000Y-74675000D01*
G75*
G02*
X45925000Y-74575000I0J100000D01*
G01*
G37*
%TD.AperFunction*%
%TO.P,J20,7*%
%TO.N,Net-(J12-Pad4)*%
%TA.AperFunction,SMDPad,CuDef*%
G36*
G01*
X45925000Y-75225000D02*
X45925000Y-75025000D01*
G75*
G02*
X46025000Y-74925000I100000J0D01*
G01*
X47275000Y-74925000D01*
G75*
G02*
X47375000Y-75025000I0J-100000D01*
G01*
X47375000Y-75225000D01*
G75*
G02*
X47275000Y-75325000I-100000J0D01*
G01*
X46025000Y-75325000D01*
G75*
G02*
X45925000Y-75225000I0J100000D01*
G01*
G37*
%TD.AperFunction*%
%TO.P,J20,6*%
%TO.N,Net-(J11-Pad14)*%
%TA.AperFunction,SMDPad,CuDef*%
G36*
G01*
X41625000Y-75225000D02*
X41625000Y-75025000D01*
G75*
G02*
X41725000Y-74925000I100000J0D01*
G01*
X42975000Y-74925000D01*
G75*
G02*
X43075000Y-75025000I0J-100000D01*
G01*
X43075000Y-75225000D01*
G75*
G02*
X42975000Y-75325000I-100000J0D01*
G01*
X41725000Y-75325000D01*
G75*
G02*
X41625000Y-75225000I0J100000D01*
G01*
G37*
%TD.AperFunction*%
%TO.P,J20,5*%
%TO.N,Net-(J11-Pad13)*%
%TA.AperFunction,SMDPad,CuDef*%
G36*
G01*
X41625000Y-74575000D02*
X41625000Y-74375000D01*
G75*
G02*
X41725000Y-74275000I100000J0D01*
G01*
X42975000Y-74275000D01*
G75*
G02*
X43075000Y-74375000I0J-100000D01*
G01*
X43075000Y-74575000D01*
G75*
G02*
X42975000Y-74675000I-100000J0D01*
G01*
X41725000Y-74675000D01*
G75*
G02*
X41625000Y-74575000I0J100000D01*
G01*
G37*
%TD.AperFunction*%
%TO.P,J20,4*%
%TO.N,Net-(J11-Pad12)*%
%TA.AperFunction,SMDPad,CuDef*%
G36*
G01*
X41625000Y-73925000D02*
X41625000Y-73725000D01*
G75*
G02*
X41725000Y-73625000I100000J0D01*
G01*
X42975000Y-73625000D01*
G75*
G02*
X43075000Y-73725000I0J-100000D01*
G01*
X43075000Y-73925000D01*
G75*
G02*
X42975000Y-74025000I-100000J0D01*
G01*
X41725000Y-74025000D01*
G75*
G02*
X41625000Y-73925000I0J100000D01*
G01*
G37*
%TD.AperFunction*%
%TO.P,J20,3*%
%TO.N,Net-(J11-Pad11)*%
%TA.AperFunction,SMDPad,CuDef*%
G36*
G01*
X41625000Y-73275000D02*
X41625000Y-73075000D01*
G75*
G02*
X41725000Y-72975000I100000J0D01*
G01*
X42975000Y-72975000D01*
G75*
G02*
X43075000Y-73075000I0J-100000D01*
G01*
X43075000Y-73275000D01*
G75*
G02*
X42975000Y-73375000I-100000J0D01*
G01*
X41725000Y-73375000D01*
G75*
G02*
X41625000Y-73275000I0J100000D01*
G01*
G37*
%TD.AperFunction*%
%TO.P,J20,2*%
%TO.N,Net-(J11-Pad10)*%
%TA.AperFunction,SMDPad,CuDef*%
G36*
G01*
X41625000Y-72625000D02*
X41625000Y-72425000D01*
G75*
G02*
X41725000Y-72325000I100000J0D01*
G01*
X42975000Y-72325000D01*
G75*
G02*
X43075000Y-72425000I0J-100000D01*
G01*
X43075000Y-72625000D01*
G75*
G02*
X42975000Y-72725000I-100000J0D01*
G01*
X41725000Y-72725000D01*
G75*
G02*
X41625000Y-72625000I0J100000D01*
G01*
G37*
%TD.AperFunction*%
%TO.P,J20,1*%
%TO.N,Net-(J11-Pad9)*%
%TA.AperFunction,SMDPad,CuDef*%
G36*
G01*
X41625000Y-71975000D02*
X41625000Y-71775000D01*
G75*
G02*
X41725000Y-71675000I100000J0D01*
G01*
X42975000Y-71675000D01*
G75*
G02*
X43075000Y-71775000I0J-100000D01*
G01*
X43075000Y-71975000D01*
G75*
G02*
X42975000Y-72075000I-100000J0D01*
G01*
X41725000Y-72075000D01*
G75*
G02*
X41625000Y-71975000I0J100000D01*
G01*
G37*
%TD.AperFunction*%
%TD*%
D11*
%TO.P,J18,17*%
%TO.N,Net-(J18-Pad17)*%
X81000000Y-46824999D03*
%TO.P,J18,16*%
%TO.N,Net-(J18-Pad16)*%
X81000000Y-49364999D03*
%TO.P,J18,15*%
%TO.N,Net-(J18-Pad15)*%
X81000000Y-51904999D03*
%TO.P,J18,14*%
%TO.N,Net-(J18-Pad14)*%
X81000000Y-54444999D03*
%TO.P,J18,13*%
%TO.N,Net-(J18-Pad13)*%
X81000000Y-56984999D03*
%TO.P,J18,12*%
%TO.N,Net-(J18-Pad12)*%
X81000000Y-59524999D03*
%TO.P,J18,11*%
%TO.N,Net-(J18-Pad11)*%
X81000000Y-62064999D03*
%TO.P,J18,10*%
%TO.N,Net-(J10-Pad2)*%
X81000000Y-64604999D03*
%TO.P,J18,9*%
%TO.N,Net-(J17-Pad2)*%
X81000000Y-67144999D03*
%TO.P,J18,8*%
%TO.N,Net-(J18-Pad8)*%
X81000000Y-69684999D03*
%TO.P,J18,7*%
%TO.N,Net-(J18-Pad7)*%
X81000000Y-72224999D03*
%TO.P,J18,6*%
%TO.N,Net-(J18-Pad6)*%
X81000000Y-74764999D03*
%TO.P,J18,5*%
%TO.N,Net-(J18-Pad5)*%
X81000000Y-77304999D03*
%TO.P,J18,4*%
%TO.N,Net-(J1-Pad2)*%
X81000000Y-79844999D03*
%TO.P,J18,3*%
%TO.N,Net-(J18-Pad3)*%
X81000000Y-82384999D03*
%TO.P,J18,2*%
%TO.N,Net-(J18-Pad2)*%
X81000000Y-84924999D03*
D12*
%TO.P,J18,1*%
%TO.N,Net-(J18-Pad1)*%
X81000000Y-87464999D03*
%TD*%
D11*
%TO.P,J16,17*%
%TO.N,Net-(J16-Pad17)*%
X71000000Y-87504999D03*
%TO.P,J16,16*%
%TO.N,Net-(J16-Pad16)*%
X71000000Y-84964999D03*
%TO.P,J16,15*%
%TO.N,Net-(J16-Pad15)*%
X71000000Y-82424999D03*
%TO.P,J16,14*%
%TO.N,Net-(J1-Pad1)*%
X71000000Y-79884999D03*
%TO.P,J16,13*%
%TO.N,Net-(J16-Pad13)*%
X71000000Y-77344999D03*
%TO.P,J16,12*%
%TO.N,Net-(J16-Pad12)*%
X71000000Y-74804999D03*
%TO.P,J16,11*%
%TO.N,Net-(J16-Pad11)*%
X71000000Y-72264999D03*
%TO.P,J16,10*%
%TO.N,Net-(J16-Pad10)*%
X71000000Y-69724999D03*
%TO.P,J16,9*%
%TO.N,Net-(J16-Pad9)*%
X71000000Y-67184999D03*
%TO.P,J16,8*%
%TO.N,Net-(J10-Pad1)*%
X71000000Y-64644999D03*
%TO.P,J16,7*%
%TO.N,Net-(J16-Pad7)*%
X71000000Y-62104999D03*
%TO.P,J16,6*%
%TO.N,Net-(J16-Pad6)*%
X71000000Y-59564999D03*
%TO.P,J16,5*%
%TO.N,Net-(J16-Pad5)*%
X71000000Y-57024999D03*
%TO.P,J16,4*%
%TO.N,Net-(J16-Pad4)*%
X71000000Y-54484999D03*
%TO.P,J16,3*%
%TO.N,Net-(J16-Pad3)*%
X71000000Y-51944999D03*
%TO.P,J16,2*%
%TO.N,Net-(J16-Pad2)*%
X71000000Y-49404999D03*
D12*
%TO.P,J16,1*%
%TO.N,Net-(J16-Pad1)*%
X71000000Y-46864999D03*
%TD*%
D11*
%TO.P,J15,17*%
%TO.N,Net-(J15-Pad17)*%
X67000000Y-46824999D03*
%TO.P,J15,16*%
%TO.N,Net-(J15-Pad16)*%
X67000000Y-49364999D03*
%TO.P,J15,15*%
%TO.N,Net-(J15-Pad15)*%
X67000000Y-51904999D03*
%TO.P,J15,14*%
%TO.N,Net-(J15-Pad14)*%
X67000000Y-54444999D03*
%TO.P,J15,13*%
%TO.N,Net-(J15-Pad13)*%
X67000000Y-56984999D03*
%TO.P,J15,12*%
%TO.N,Net-(J15-Pad12)*%
X67000000Y-59524999D03*
%TO.P,J15,11*%
%TO.N,Net-(J15-Pad11)*%
X67000000Y-62064999D03*
%TO.P,J15,10*%
%TO.N,Net-(J14-Pad6)*%
X67000000Y-64604999D03*
%TO.P,J15,9*%
%TO.N,Net-(J14-Pad5)*%
X67000000Y-67144999D03*
%TO.P,J15,8*%
%TO.N,Net-(J14-Pad4)*%
X67000000Y-69684999D03*
%TO.P,J15,7*%
%TO.N,Net-(J15-Pad7)*%
X67000000Y-72224999D03*
%TO.P,J15,6*%
%TO.N,Net-(J15-Pad6)*%
X67000000Y-74764999D03*
%TO.P,J15,5*%
%TO.N,Net-(J15-Pad5)*%
X67000000Y-77304999D03*
%TO.P,J15,4*%
%TO.N,Net-(J15-Pad4)*%
X67000000Y-79844999D03*
%TO.P,J15,3*%
%TO.N,Net-(J15-Pad3)*%
X67000000Y-82384999D03*
%TO.P,J15,2*%
%TO.N,Net-(J15-Pad2)*%
X67000000Y-84924999D03*
D12*
%TO.P,J15,1*%
%TO.N,Net-(J15-Pad1)*%
X67000000Y-87464999D03*
%TD*%
D11*
%TO.P,J13,17*%
%TO.N,Net-(J13-Pad17)*%
X54500000Y-87504999D03*
%TO.P,J13,16*%
%TO.N,Net-(J13-Pad16)*%
X54500000Y-84964999D03*
%TO.P,J13,15*%
%TO.N,Net-(J13-Pad15)*%
X54500000Y-82424999D03*
%TO.P,J13,14*%
%TO.N,Net-(J13-Pad14)*%
X54500000Y-79884999D03*
%TO.P,J13,13*%
%TO.N,Net-(J13-Pad13)*%
X54500000Y-77344999D03*
%TO.P,J13,12*%
%TO.N,Net-(J13-Pad12)*%
X54500000Y-74804999D03*
%TO.P,J13,11*%
%TO.N,Net-(J13-Pad11)*%
X54500000Y-72264999D03*
%TO.P,J13,10*%
%TO.N,Net-(J13-Pad10)*%
X54500000Y-69724999D03*
%TO.P,J13,9*%
%TO.N,Net-(J13-Pad9)*%
X54500000Y-67184999D03*
%TO.P,J13,8*%
%TO.N,Net-(J13-Pad8)*%
X54500000Y-64644999D03*
%TO.P,J13,7*%
%TO.N,Net-(J13-Pad7)*%
X54500000Y-62104999D03*
%TO.P,J13,6*%
%TO.N,Net-(J13-Pad6)*%
X54500000Y-59564999D03*
%TO.P,J13,5*%
%TO.N,Net-(J13-Pad5)*%
X54500000Y-57024999D03*
%TO.P,J13,4*%
%TO.N,Net-(J13-Pad4)*%
X54500000Y-54484999D03*
%TO.P,J13,3*%
%TO.N,Net-(J13-Pad3)*%
X54500000Y-51944999D03*
%TO.P,J13,2*%
%TO.N,Net-(J13-Pad2)*%
X54500000Y-49404999D03*
D12*
%TO.P,J13,1*%
%TO.N,Net-(J13-Pad1)*%
X54500000Y-46864999D03*
%TD*%
D11*
%TO.P,J12,17*%
%TO.N,Net-(J12-Pad17)*%
X50500000Y-46824999D03*
%TO.P,J12,16*%
%TO.N,Net-(J12-Pad16)*%
X50500000Y-49364999D03*
%TO.P,J12,15*%
%TO.N,Net-(J12-Pad15)*%
X50500000Y-51904999D03*
%TO.P,J12,14*%
%TO.N,Net-(J12-Pad14)*%
X50500000Y-54444999D03*
%TO.P,J12,13*%
%TO.N,Net-(J12-Pad13)*%
X50500000Y-56984999D03*
%TO.P,J12,12*%
%TO.N,Net-(J12-Pad12)*%
X50500000Y-59524999D03*
%TO.P,J12,11*%
%TO.N,Net-(J12-Pad11)*%
X50500000Y-62064999D03*
%TO.P,J12,10*%
%TO.N,Net-(J12-Pad10)*%
X50500000Y-64604999D03*
%TO.P,J12,9*%
%TO.N,Net-(J12-Pad9)*%
X50500000Y-67144999D03*
%TO.P,J12,8*%
%TO.N,Net-(J12-Pad8)*%
X50500000Y-69684999D03*
%TO.P,J12,7*%
%TO.N,Net-(J12-Pad7)*%
X50500000Y-72224999D03*
%TO.P,J12,6*%
%TO.N,Net-(J12-Pad6)*%
X50500000Y-74764999D03*
%TO.P,J12,5*%
%TO.N,Net-(J12-Pad5)*%
X50500000Y-77304999D03*
%TO.P,J12,4*%
%TO.N,Net-(J12-Pad4)*%
X50500000Y-79844999D03*
%TO.P,J12,3*%
%TO.N,Net-(J12-Pad3)*%
X50500000Y-82384999D03*
%TO.P,J12,2*%
%TO.N,Net-(J12-Pad2)*%
X50500000Y-84924999D03*
D12*
%TO.P,J12,1*%
%TO.N,Net-(J12-Pad1)*%
X50500000Y-87464999D03*
%TD*%
D11*
%TO.P,J11,17*%
%TO.N,Net-(J11-Pad17)*%
X38500000Y-87504999D03*
%TO.P,J11,16*%
%TO.N,Net-(J11-Pad16)*%
X38500000Y-84964999D03*
%TO.P,J11,15*%
%TO.N,Net-(J11-Pad15)*%
X38500000Y-82424999D03*
%TO.P,J11,14*%
%TO.N,Net-(J11-Pad14)*%
X38500000Y-79884999D03*
%TO.P,J11,13*%
%TO.N,Net-(J11-Pad13)*%
X38500000Y-77344999D03*
%TO.P,J11,12*%
%TO.N,Net-(J11-Pad12)*%
X38500000Y-74804999D03*
%TO.P,J11,11*%
%TO.N,Net-(J11-Pad11)*%
X38500000Y-72264999D03*
%TO.P,J11,10*%
%TO.N,Net-(J11-Pad10)*%
X38500000Y-69724999D03*
%TO.P,J11,9*%
%TO.N,Net-(J11-Pad9)*%
X38500000Y-67184999D03*
%TO.P,J11,8*%
%TO.N,Net-(J11-Pad8)*%
X38500000Y-64644999D03*
%TO.P,J11,7*%
%TO.N,Net-(J11-Pad7)*%
X38500000Y-62104999D03*
%TO.P,J11,6*%
%TO.N,Net-(J11-Pad6)*%
X38500000Y-59564999D03*
%TO.P,J11,5*%
%TO.N,Net-(J11-Pad5)*%
X38500000Y-57024999D03*
%TO.P,J11,4*%
%TO.N,Net-(J11-Pad4)*%
X38500000Y-54484999D03*
%TO.P,J11,3*%
%TO.N,Net-(J11-Pad3)*%
X38500000Y-51944999D03*
%TO.P,J11,2*%
%TO.N,Net-(J11-Pad2)*%
X38500000Y-49404999D03*
D12*
%TO.P,J11,1*%
%TO.N,Net-(J11-Pad1)*%
X38500000Y-46864999D03*
%TD*%
D13*
%TO.P,J28,5*%
%TO.N,Net-(J12-Pad2)*%
X46100000Y-84950000D03*
%TO.P,J28,6*%
%TO.N,Net-(J12-Pad3)*%
X46100000Y-84000000D03*
%TO.P,J28,4*%
%TO.N,Net-(J12-Pad1)*%
X46100000Y-85900000D03*
%TO.P,J28,3*%
%TO.N,Net-(J11-Pad17)*%
X43400000Y-85900000D03*
%TO.P,J28,2*%
%TO.N,Net-(J11-Pad16)*%
X43400000Y-84950000D03*
%TO.P,J28,1*%
%TO.N,Net-(J11-Pad15)*%
X43400000Y-84000000D03*
%TD*%
%TO.P,J26,8*%
%TO.N,Net-(J15-Pad4)*%
%TA.AperFunction,SMDPad,CuDef*%
G36*
G01*
X62000000Y-82245000D02*
X62000000Y-81945000D01*
G75*
G02*
X62150000Y-81795000I150000J0D01*
G01*
X63800000Y-81795000D01*
G75*
G02*
X63950000Y-81945000I0J-150000D01*
G01*
X63950000Y-82245000D01*
G75*
G02*
X63800000Y-82395000I-150000J0D01*
G01*
X62150000Y-82395000D01*
G75*
G02*
X62000000Y-82245000I0J150000D01*
G01*
G37*
%TD.AperFunction*%
%TO.P,J26,7*%
%TO.N,Net-(J15-Pad3)*%
%TA.AperFunction,SMDPad,CuDef*%
G36*
G01*
X62000000Y-83515000D02*
X62000000Y-83215000D01*
G75*
G02*
X62150000Y-83065000I150000J0D01*
G01*
X63800000Y-83065000D01*
G75*
G02*
X63950000Y-83215000I0J-150000D01*
G01*
X63950000Y-83515000D01*
G75*
G02*
X63800000Y-83665000I-150000J0D01*
G01*
X62150000Y-83665000D01*
G75*
G02*
X62000000Y-83515000I0J150000D01*
G01*
G37*
%TD.AperFunction*%
%TO.P,J26,6*%
%TO.N,Net-(J15-Pad2)*%
%TA.AperFunction,SMDPad,CuDef*%
G36*
G01*
X62000000Y-84785000D02*
X62000000Y-84485000D01*
G75*
G02*
X62150000Y-84335000I150000J0D01*
G01*
X63800000Y-84335000D01*
G75*
G02*
X63950000Y-84485000I0J-150000D01*
G01*
X63950000Y-84785000D01*
G75*
G02*
X63800000Y-84935000I-150000J0D01*
G01*
X62150000Y-84935000D01*
G75*
G02*
X62000000Y-84785000I0J150000D01*
G01*
G37*
%TD.AperFunction*%
%TO.P,J26,5*%
%TO.N,Net-(J15-Pad1)*%
%TA.AperFunction,SMDPad,CuDef*%
G36*
G01*
X62000000Y-86055000D02*
X62000000Y-85755000D01*
G75*
G02*
X62150000Y-85605000I150000J0D01*
G01*
X63800000Y-85605000D01*
G75*
G02*
X63950000Y-85755000I0J-150000D01*
G01*
X63950000Y-86055000D01*
G75*
G02*
X63800000Y-86205000I-150000J0D01*
G01*
X62150000Y-86205000D01*
G75*
G02*
X62000000Y-86055000I0J150000D01*
G01*
G37*
%TD.AperFunction*%
%TO.P,J26,4*%
%TO.N,Net-(J13-Pad17)*%
%TA.AperFunction,SMDPad,CuDef*%
G36*
G01*
X57050000Y-86055000D02*
X57050000Y-85755000D01*
G75*
G02*
X57200000Y-85605000I150000J0D01*
G01*
X58850000Y-85605000D01*
G75*
G02*
X59000000Y-85755000I0J-150000D01*
G01*
X59000000Y-86055000D01*
G75*
G02*
X58850000Y-86205000I-150000J0D01*
G01*
X57200000Y-86205000D01*
G75*
G02*
X57050000Y-86055000I0J150000D01*
G01*
G37*
%TD.AperFunction*%
%TO.P,J26,3*%
%TO.N,Net-(J13-Pad16)*%
%TA.AperFunction,SMDPad,CuDef*%
G36*
G01*
X57050000Y-84785000D02*
X57050000Y-84485000D01*
G75*
G02*
X57200000Y-84335000I150000J0D01*
G01*
X58850000Y-84335000D01*
G75*
G02*
X59000000Y-84485000I0J-150000D01*
G01*
X59000000Y-84785000D01*
G75*
G02*
X58850000Y-84935000I-150000J0D01*
G01*
X57200000Y-84935000D01*
G75*
G02*
X57050000Y-84785000I0J150000D01*
G01*
G37*
%TD.AperFunction*%
%TO.P,J26,2*%
%TO.N,Net-(J13-Pad15)*%
%TA.AperFunction,SMDPad,CuDef*%
G36*
G01*
X57050000Y-83515000D02*
X57050000Y-83215000D01*
G75*
G02*
X57200000Y-83065000I150000J0D01*
G01*
X58850000Y-83065000D01*
G75*
G02*
X59000000Y-83215000I0J-150000D01*
G01*
X59000000Y-83515000D01*
G75*
G02*
X58850000Y-83665000I-150000J0D01*
G01*
X57200000Y-83665000D01*
G75*
G02*
X57050000Y-83515000I0J150000D01*
G01*
G37*
%TD.AperFunction*%
%TO.P,J26,1*%
%TO.N,Net-(J13-Pad14)*%
%TA.AperFunction,SMDPad,CuDef*%
G36*
G01*
X57050000Y-82245000D02*
X57050000Y-81945000D01*
G75*
G02*
X57200000Y-81795000I150000J0D01*
G01*
X58850000Y-81795000D01*
G75*
G02*
X59000000Y-81945000I0J-150000D01*
G01*
X59000000Y-82245000D01*
G75*
G02*
X58850000Y-82395000I-150000J0D01*
G01*
X57200000Y-82395000D01*
G75*
G02*
X57050000Y-82245000I0J150000D01*
G01*
G37*
%TD.AperFunction*%
%TD*%
%TO.P,J22,5*%
%TO.N,Net-(J15-Pad6)*%
X62200000Y-75000000D03*
%TO.P,J22,6*%
%TO.N,Net-(J15-Pad7)*%
X62200000Y-74050000D03*
%TO.P,J22,4*%
%TO.N,Net-(J15-Pad5)*%
X62200000Y-75950000D03*
%TO.P,J22,3*%
%TO.N,Net-(J13-Pad13)*%
X59500000Y-75950000D03*
%TO.P,J22,2*%
%TO.N,Net-(J13-Pad12)*%
X59500000Y-75000000D03*
%TO.P,J22,1*%
%TO.N,Net-(J13-Pad11)*%
X59500000Y-74050000D03*
%TD*%
%TO.P,J21,2*%
%TO.N,Net-(J18-Pad7)*%
%TA.AperFunction,SMDPad,CuDef*%
G36*
G01*
X76350000Y-72487500D02*
X76350000Y-72012500D01*
G75*
G02*
X76587500Y-71775000I237500J0D01*
G01*
X77162500Y-71775000D01*
G75*
G02*
X77400000Y-72012500I0J-237500D01*
G01*
X77400000Y-72487500D01*
G75*
G02*
X77162500Y-72725000I-237500J0D01*
G01*
X76587500Y-72725000D01*
G75*
G02*
X76350000Y-72487500I0J237500D01*
G01*
G37*
%TD.AperFunction*%
%TO.P,J21,1*%
%TO.N,Net-(J16-Pad11)*%
%TA.AperFunction,SMDPad,CuDef*%
G36*
G01*
X74600000Y-72487500D02*
X74600000Y-72012500D01*
G75*
G02*
X74837500Y-71775000I237500J0D01*
G01*
X75412500Y-71775000D01*
G75*
G02*
X75650000Y-72012500I0J-237500D01*
G01*
X75650000Y-72487500D01*
G75*
G02*
X75412500Y-72725000I-237500J0D01*
G01*
X74837500Y-72725000D01*
G75*
G02*
X74600000Y-72487500I0J237500D01*
G01*
G37*
%TD.AperFunction*%
%TD*%
%TO.P,J19,2*%
%TO.N,Net-(J18-Pad8)*%
%TA.AperFunction,SMDPad,CuDef*%
G36*
G01*
X76350000Y-69987500D02*
X76350000Y-69512500D01*
G75*
G02*
X76587500Y-69275000I237500J0D01*
G01*
X77162500Y-69275000D01*
G75*
G02*
X77400000Y-69512500I0J-237500D01*
G01*
X77400000Y-69987500D01*
G75*
G02*
X77162500Y-70225000I-237500J0D01*
G01*
X76587500Y-70225000D01*
G75*
G02*
X76350000Y-69987500I0J237500D01*
G01*
G37*
%TD.AperFunction*%
%TO.P,J19,1*%
%TO.N,Net-(J16-Pad10)*%
%TA.AperFunction,SMDPad,CuDef*%
G36*
G01*
X74600000Y-69987500D02*
X74600000Y-69512500D01*
G75*
G02*
X74837500Y-69275000I237500J0D01*
G01*
X75412500Y-69275000D01*
G75*
G02*
X75650000Y-69512500I0J-237500D01*
G01*
X75650000Y-69987500D01*
G75*
G02*
X75412500Y-70225000I-237500J0D01*
G01*
X74837500Y-70225000D01*
G75*
G02*
X74600000Y-69987500I0J237500D01*
G01*
G37*
%TD.AperFunction*%
%TD*%
%TO.P,J17,2*%
%TO.N,Net-(J17-Pad2)*%
%TA.AperFunction,SMDPad,CuDef*%
G36*
G01*
X76350000Y-67487500D02*
X76350000Y-67012500D01*
G75*
G02*
X76587500Y-66775000I237500J0D01*
G01*
X77162500Y-66775000D01*
G75*
G02*
X77400000Y-67012500I0J-237500D01*
G01*
X77400000Y-67487500D01*
G75*
G02*
X77162500Y-67725000I-237500J0D01*
G01*
X76587500Y-67725000D01*
G75*
G02*
X76350000Y-67487500I0J237500D01*
G01*
G37*
%TD.AperFunction*%
%TO.P,J17,1*%
%TO.N,Net-(J16-Pad9)*%
%TA.AperFunction,SMDPad,CuDef*%
G36*
G01*
X74600000Y-67487500D02*
X74600000Y-67012500D01*
G75*
G02*
X74837500Y-66775000I237500J0D01*
G01*
X75412500Y-66775000D01*
G75*
G02*
X75650000Y-67012500I0J-237500D01*
G01*
X75650000Y-67487500D01*
G75*
G02*
X75412500Y-67725000I-237500J0D01*
G01*
X74837500Y-67725000D01*
G75*
G02*
X74600000Y-67487500I0J237500D01*
G01*
G37*
%TD.AperFunction*%
%TD*%
%TO.P,J8,1*%
%TO.N,Net-(J16-Pad6)*%
%TA.AperFunction,SMDPad,CuDef*%
G36*
G01*
X75045000Y-59660000D02*
X75045000Y-59340000D01*
G75*
G02*
X75205000Y-59180000I160000J0D01*
G01*
X75650000Y-59180000D01*
G75*
G02*
X75810000Y-59340000I0J-160000D01*
G01*
X75810000Y-59660000D01*
G75*
G02*
X75650000Y-59820000I-160000J0D01*
G01*
X75205000Y-59820000D01*
G75*
G02*
X75045000Y-59660000I0J160000D01*
G01*
G37*
%TD.AperFunction*%
%TO.P,J8,2*%
%TO.N,Net-(J18-Pad12)*%
%TA.AperFunction,SMDPad,CuDef*%
G36*
G01*
X76190000Y-59660000D02*
X76190000Y-59340000D01*
G75*
G02*
X76350000Y-59180000I160000J0D01*
G01*
X76795000Y-59180000D01*
G75*
G02*
X76955000Y-59340000I0J-160000D01*
G01*
X76955000Y-59660000D01*
G75*
G02*
X76795000Y-59820000I-160000J0D01*
G01*
X76350000Y-59820000D01*
G75*
G02*
X76190000Y-59660000I0J160000D01*
G01*
G37*
%TD.AperFunction*%
%TD*%
%TO.P,J7,1*%
%TO.N,Net-(J16-Pad5)*%
%TA.AperFunction,SMDPad,CuDef*%
G36*
G01*
X75045000Y-57160000D02*
X75045000Y-56840000D01*
G75*
G02*
X75205000Y-56680000I160000J0D01*
G01*
X75650000Y-56680000D01*
G75*
G02*
X75810000Y-56840000I0J-160000D01*
G01*
X75810000Y-57160000D01*
G75*
G02*
X75650000Y-57320000I-160000J0D01*
G01*
X75205000Y-57320000D01*
G75*
G02*
X75045000Y-57160000I0J160000D01*
G01*
G37*
%TD.AperFunction*%
%TO.P,J7,2*%
%TO.N,Net-(J18-Pad13)*%
%TA.AperFunction,SMDPad,CuDef*%
G36*
G01*
X76190000Y-57160000D02*
X76190000Y-56840000D01*
G75*
G02*
X76350000Y-56680000I160000J0D01*
G01*
X76795000Y-56680000D01*
G75*
G02*
X76955000Y-56840000I0J-160000D01*
G01*
X76955000Y-57160000D01*
G75*
G02*
X76795000Y-57320000I-160000J0D01*
G01*
X76350000Y-57320000D01*
G75*
G02*
X76190000Y-57160000I0J160000D01*
G01*
G37*
%TD.AperFunction*%
%TD*%
%TO.P,J30,2*%
%TO.N,Net-(J18-Pad1)*%
%TA.AperFunction,SMDPad,CuDef*%
G36*
G01*
X76775000Y-88775000D02*
X76775000Y-86625000D01*
G75*
G02*
X77025000Y-86375000I250000J0D01*
G01*
X77950000Y-86375000D01*
G75*
G02*
X78200000Y-86625000I0J-250000D01*
G01*
X78200000Y-88775000D01*
G75*
G02*
X77950000Y-89025000I-250000J0D01*
G01*
X77025000Y-89025000D01*
G75*
G02*
X76775000Y-88775000I0J250000D01*
G01*
G37*
%TD.AperFunction*%
%TO.P,J30,1*%
%TO.N,Net-(J16-Pad17)*%
%TA.AperFunction,SMDPad,CuDef*%
G36*
G01*
X73800000Y-88775000D02*
X73800000Y-86625000D01*
G75*
G02*
X74050000Y-86375000I250000J0D01*
G01*
X74975000Y-86375000D01*
G75*
G02*
X75225000Y-86625000I0J-250000D01*
G01*
X75225000Y-88775000D01*
G75*
G02*
X74975000Y-89025000I-250000J0D01*
G01*
X74050000Y-89025000D01*
G75*
G02*
X73800000Y-88775000I0J250000D01*
G01*
G37*
%TD.AperFunction*%
%TD*%
%TO.P,J29,2*%
%TO.N,Net-(J18-Pad2)*%
%TA.AperFunction,SMDPad,CuDef*%
G36*
G01*
X76775000Y-85575000D02*
X76775000Y-83425000D01*
G75*
G02*
X77025000Y-83175000I250000J0D01*
G01*
X77950000Y-83175000D01*
G75*
G02*
X78200000Y-83425000I0J-250000D01*
G01*
X78200000Y-85575000D01*
G75*
G02*
X77950000Y-85825000I-250000J0D01*
G01*
X77025000Y-85825000D01*
G75*
G02*
X76775000Y-85575000I0J250000D01*
G01*
G37*
%TD.AperFunction*%
%TO.P,J29,1*%
%TO.N,Net-(J16-Pad16)*%
%TA.AperFunction,SMDPad,CuDef*%
G36*
G01*
X73800000Y-85575000D02*
X73800000Y-83425000D01*
G75*
G02*
X74050000Y-83175000I250000J0D01*
G01*
X74975000Y-83175000D01*
G75*
G02*
X75225000Y-83425000I0J-250000D01*
G01*
X75225000Y-85575000D01*
G75*
G02*
X74975000Y-85825000I-250000J0D01*
G01*
X74050000Y-85825000D01*
G75*
G02*
X73800000Y-85575000I0J250000D01*
G01*
G37*
%TD.AperFunction*%
%TD*%
%TO.P,J14,5*%
%TO.N,Net-(J14-Pad5)*%
X62000000Y-67050000D03*
%TO.P,J14,6*%
%TO.N,Net-(J14-Pad6)*%
X62000000Y-66100000D03*
%TO.P,J14,4*%
%TO.N,Net-(J14-Pad4)*%
X62000000Y-68000000D03*
%TO.P,J14,3*%
%TO.N,Net-(J13-Pad10)*%
X59300000Y-68000000D03*
%TO.P,J14,2*%
%TO.N,Net-(J13-Pad9)*%
X59300000Y-67050000D03*
%TO.P,J14,1*%
%TO.N,Net-(J13-Pad8)*%
X59300000Y-66100000D03*
%TD*%
%TO.P,J27,2*%
%TO.N,Net-(J18-Pad16)*%
%TA.AperFunction,SMDPad,CuDef*%
G36*
G01*
X76550000Y-49850001D02*
X76550000Y-48949999D01*
G75*
G02*
X76799999Y-48700000I249999J0D01*
G01*
X77450001Y-48700000D01*
G75*
G02*
X77700000Y-48949999I0J-249999D01*
G01*
X77700000Y-49850001D01*
G75*
G02*
X77450001Y-50100000I-249999J0D01*
G01*
X76799999Y-50100000D01*
G75*
G02*
X76550000Y-49850001I0J249999D01*
G01*
G37*
%TD.AperFunction*%
%TO.P,J27,1*%
%TO.N,Net-(J16-Pad2)*%
%TA.AperFunction,SMDPad,CuDef*%
G36*
G01*
X74500000Y-49850001D02*
X74500000Y-48949999D01*
G75*
G02*
X74749999Y-48700000I249999J0D01*
G01*
X75400001Y-48700000D01*
G75*
G02*
X75650000Y-48949999I0J-249999D01*
G01*
X75650000Y-49850001D01*
G75*
G02*
X75400001Y-50100000I-249999J0D01*
G01*
X74749999Y-50100000D01*
G75*
G02*
X74500000Y-49850001I0J249999D01*
G01*
G37*
%TD.AperFunction*%
%TD*%
%TO.P,J25,2*%
%TO.N,Net-(J18-Pad17)*%
%TA.AperFunction,SMDPad,CuDef*%
G36*
G01*
X76550000Y-47350001D02*
X76550000Y-46449999D01*
G75*
G02*
X76799999Y-46200000I249999J0D01*
G01*
X77450001Y-46200000D01*
G75*
G02*
X77700000Y-46449999I0J-249999D01*
G01*
X77700000Y-47350001D01*
G75*
G02*
X77450001Y-47600000I-249999J0D01*
G01*
X76799999Y-47600000D01*
G75*
G02*
X76550000Y-47350001I0J249999D01*
G01*
G37*
%TD.AperFunction*%
%TO.P,J25,1*%
%TO.N,Net-(J16-Pad1)*%
%TA.AperFunction,SMDPad,CuDef*%
G36*
G01*
X74500000Y-47350001D02*
X74500000Y-46449999D01*
G75*
G02*
X74749999Y-46200000I249999J0D01*
G01*
X75400001Y-46200000D01*
G75*
G02*
X75650000Y-46449999I0J-249999D01*
G01*
X75650000Y-47350001D01*
G75*
G02*
X75400001Y-47600000I-249999J0D01*
G01*
X74749999Y-47600000D01*
G75*
G02*
X74500000Y-47350001I0J249999D01*
G01*
G37*
%TD.AperFunction*%
%TD*%
D14*
%TO.P,J5,15*%
%TO.N,N/C*%
X60000000Y-53750000D03*
D15*
%TO.P,J5,14*%
%TO.N,Net-(J15-Pad17)*%
X63700000Y-52700000D03*
%TO.P,J5,13*%
%TO.N,Net-(J15-Pad16)*%
X63700000Y-53350000D03*
%TO.P,J5,12*%
%TO.N,Net-(J15-Pad15)*%
X63700000Y-54000000D03*
%TO.P,J5,11*%
%TO.N,Net-(J15-Pad14)*%
X63700000Y-54650000D03*
%TO.P,J5,10*%
%TO.N,Net-(J15-Pad13)*%
X63700000Y-55300000D03*
%TO.P,J5,9*%
%TO.N,Net-(J15-Pad12)*%
X63700000Y-55950000D03*
%TO.P,J5,8*%
%TO.N,Net-(J15-Pad11)*%
X63700000Y-56600000D03*
%TO.P,J5,7*%
%TO.N,Net-(J13-Pad7)*%
X57800000Y-56600000D03*
%TO.P,J5,6*%
%TO.N,Net-(J13-Pad6)*%
X57800000Y-55950000D03*
%TO.P,J5,5*%
%TO.N,Net-(J13-Pad5)*%
X57800000Y-55300000D03*
%TO.P,J5,4*%
%TO.N,Net-(J13-Pad4)*%
X57800000Y-54650000D03*
%TO.P,J5,3*%
%TO.N,Net-(J13-Pad3)*%
X57800000Y-54000000D03*
%TO.P,J5,2*%
%TO.N,Net-(J13-Pad2)*%
X57800000Y-53350000D03*
%TO.P,J5,1*%
%TO.N,Net-(J13-Pad1)*%
X57800000Y-52700000D03*
D14*
%TO.P,J5,15*%
%TO.N,N/C*%
X61500000Y-53750000D03*
X61500000Y-55550000D03*
X60000000Y-55550000D03*
%TD*%
%TO.P,J24,2*%
%TO.N,Net-(J18-Pad5)*%
%TA.AperFunction,SMDPad,CuDef*%
G36*
G01*
X76350000Y-77637500D02*
X76350000Y-77162500D01*
G75*
G02*
X76587500Y-76925000I237500J0D01*
G01*
X77162500Y-76925000D01*
G75*
G02*
X77400000Y-77162500I0J-237500D01*
G01*
X77400000Y-77637500D01*
G75*
G02*
X77162500Y-77875000I-237500J0D01*
G01*
X76587500Y-77875000D01*
G75*
G02*
X76350000Y-77637500I0J237500D01*
G01*
G37*
%TD.AperFunction*%
%TO.P,J24,1*%
%TO.N,Net-(J16-Pad13)*%
%TA.AperFunction,SMDPad,CuDef*%
G36*
G01*
X74600000Y-77637500D02*
X74600000Y-77162500D01*
G75*
G02*
X74837500Y-76925000I237500J0D01*
G01*
X75412500Y-76925000D01*
G75*
G02*
X75650000Y-77162500I0J-237500D01*
G01*
X75650000Y-77637500D01*
G75*
G02*
X75412500Y-77875000I-237500J0D01*
G01*
X74837500Y-77875000D01*
G75*
G02*
X74600000Y-77637500I0J237500D01*
G01*
G37*
%TD.AperFunction*%
%TD*%
%TO.P,J23,2*%
%TO.N,Net-(J18-Pad6)*%
%TA.AperFunction,SMDPad,CuDef*%
G36*
G01*
X76350000Y-74987500D02*
X76350000Y-74512500D01*
G75*
G02*
X76587500Y-74275000I237500J0D01*
G01*
X77162500Y-74275000D01*
G75*
G02*
X77400000Y-74512500I0J-237500D01*
G01*
X77400000Y-74987500D01*
G75*
G02*
X77162500Y-75225000I-237500J0D01*
G01*
X76587500Y-75225000D01*
G75*
G02*
X76350000Y-74987500I0J237500D01*
G01*
G37*
%TD.AperFunction*%
%TO.P,J23,1*%
%TO.N,Net-(J16-Pad12)*%
%TA.AperFunction,SMDPad,CuDef*%
G36*
G01*
X74600000Y-74987500D02*
X74600000Y-74512500D01*
G75*
G02*
X74837500Y-74275000I237500J0D01*
G01*
X75412500Y-74275000D01*
G75*
G02*
X75650000Y-74512500I0J-237500D01*
G01*
X75650000Y-74987500D01*
G75*
G02*
X75412500Y-75225000I-237500J0D01*
G01*
X74837500Y-75225000D01*
G75*
G02*
X74600000Y-74987500I0J237500D01*
G01*
G37*
%TD.AperFunction*%
%TD*%
%TO.P,J10,2*%
%TO.N,Net-(J10-Pad2)*%
%TA.AperFunction,SMDPad,CuDef*%
G36*
G01*
X76350000Y-64987500D02*
X76350000Y-64512500D01*
G75*
G02*
X76587500Y-64275000I237500J0D01*
G01*
X77162500Y-64275000D01*
G75*
G02*
X77400000Y-64512500I0J-237500D01*
G01*
X77400000Y-64987500D01*
G75*
G02*
X77162500Y-65225000I-237500J0D01*
G01*
X76587500Y-65225000D01*
G75*
G02*
X76350000Y-64987500I0J237500D01*
G01*
G37*
%TD.AperFunction*%
%TO.P,J10,1*%
%TO.N,Net-(J10-Pad1)*%
%TA.AperFunction,SMDPad,CuDef*%
G36*
G01*
X74600000Y-64987500D02*
X74600000Y-64512500D01*
G75*
G02*
X74837500Y-64275000I237500J0D01*
G01*
X75412500Y-64275000D01*
G75*
G02*
X75650000Y-64512500I0J-237500D01*
G01*
X75650000Y-64987500D01*
G75*
G02*
X75412500Y-65225000I-237500J0D01*
G01*
X74837500Y-65225000D01*
G75*
G02*
X74600000Y-64987500I0J237500D01*
G01*
G37*
%TD.AperFunction*%
%TD*%
%TO.P,J9,2*%
%TO.N,Net-(J18-Pad11)*%
%TA.AperFunction,SMDPad,CuDef*%
G36*
G01*
X76350000Y-62237500D02*
X76350000Y-61762500D01*
G75*
G02*
X76587500Y-61525000I237500J0D01*
G01*
X77162500Y-61525000D01*
G75*
G02*
X77400000Y-61762500I0J-237500D01*
G01*
X77400000Y-62237500D01*
G75*
G02*
X77162500Y-62475000I-237500J0D01*
G01*
X76587500Y-62475000D01*
G75*
G02*
X76350000Y-62237500I0J237500D01*
G01*
G37*
%TD.AperFunction*%
%TO.P,J9,1*%
%TO.N,Net-(J16-Pad7)*%
%TA.AperFunction,SMDPad,CuDef*%
G36*
G01*
X74600000Y-62237500D02*
X74600000Y-61762500D01*
G75*
G02*
X74837500Y-61525000I237500J0D01*
G01*
X75412500Y-61525000D01*
G75*
G02*
X75650000Y-61762500I0J-237500D01*
G01*
X75650000Y-62237500D01*
G75*
G02*
X75412500Y-62475000I-237500J0D01*
G01*
X74837500Y-62475000D01*
G75*
G02*
X74600000Y-62237500I0J237500D01*
G01*
G37*
%TD.AperFunction*%
%TD*%
%TO.P,J6,1*%
%TO.N,Net-(J16-Pad4)*%
%TA.AperFunction,SMDPad,CuDef*%
G36*
G01*
X75045000Y-54660000D02*
X75045000Y-54340000D01*
G75*
G02*
X75205000Y-54180000I160000J0D01*
G01*
X75650000Y-54180000D01*
G75*
G02*
X75810000Y-54340000I0J-160000D01*
G01*
X75810000Y-54660000D01*
G75*
G02*
X75650000Y-54820000I-160000J0D01*
G01*
X75205000Y-54820000D01*
G75*
G02*
X75045000Y-54660000I0J160000D01*
G01*
G37*
%TD.AperFunction*%
%TO.P,J6,2*%
%TO.N,Net-(J18-Pad14)*%
%TA.AperFunction,SMDPad,CuDef*%
G36*
G01*
X76190000Y-54660000D02*
X76190000Y-54340000D01*
G75*
G02*
X76350000Y-54180000I160000J0D01*
G01*
X76795000Y-54180000D01*
G75*
G02*
X76955000Y-54340000I0J-160000D01*
G01*
X76955000Y-54660000D01*
G75*
G02*
X76795000Y-54820000I-160000J0D01*
G01*
X76350000Y-54820000D01*
G75*
G02*
X76190000Y-54660000I0J160000D01*
G01*
G37*
%TD.AperFunction*%
%TD*%
%TO.P,J3,1*%
%TO.N,Net-(J16-Pad3)*%
%TA.AperFunction,SMDPad,CuDef*%
G36*
G01*
X75045000Y-52160000D02*
X75045000Y-51840000D01*
G75*
G02*
X75205000Y-51680000I160000J0D01*
G01*
X75650000Y-51680000D01*
G75*
G02*
X75810000Y-51840000I0J-160000D01*
G01*
X75810000Y-52160000D01*
G75*
G02*
X75650000Y-52320000I-160000J0D01*
G01*
X75205000Y-52320000D01*
G75*
G02*
X75045000Y-52160000I0J160000D01*
G01*
G37*
%TD.AperFunction*%
%TO.P,J3,2*%
%TO.N,Net-(J18-Pad15)*%
%TA.AperFunction,SMDPad,CuDef*%
G36*
G01*
X76190000Y-52160000D02*
X76190000Y-51840000D01*
G75*
G02*
X76350000Y-51680000I160000J0D01*
G01*
X76795000Y-51680000D01*
G75*
G02*
X76955000Y-51840000I0J-160000D01*
G01*
X76955000Y-52160000D01*
G75*
G02*
X76795000Y-52320000I-160000J0D01*
G01*
X76350000Y-52320000D01*
G75*
G02*
X76190000Y-52160000I0J160000D01*
G01*
G37*
%TD.AperFunction*%
%TD*%
%TO.P,J2,1*%
%TO.N,Net-(J16-Pad15)*%
%TA.AperFunction,SMDPad,CuDef*%
G36*
G01*
X75045000Y-81760000D02*
X75045000Y-81440000D01*
G75*
G02*
X75205000Y-81280000I160000J0D01*
G01*
X75650000Y-81280000D01*
G75*
G02*
X75810000Y-81440000I0J-160000D01*
G01*
X75810000Y-81760000D01*
G75*
G02*
X75650000Y-81920000I-160000J0D01*
G01*
X75205000Y-81920000D01*
G75*
G02*
X75045000Y-81760000I0J160000D01*
G01*
G37*
%TD.AperFunction*%
%TO.P,J2,2*%
%TO.N,Net-(J18-Pad3)*%
%TA.AperFunction,SMDPad,CuDef*%
G36*
G01*
X76190000Y-81760000D02*
X76190000Y-81440000D01*
G75*
G02*
X76350000Y-81280000I160000J0D01*
G01*
X76795000Y-81280000D01*
G75*
G02*
X76955000Y-81440000I0J-160000D01*
G01*
X76955000Y-81760000D01*
G75*
G02*
X76795000Y-81920000I-160000J0D01*
G01*
X76350000Y-81920000D01*
G75*
G02*
X76190000Y-81760000I0J160000D01*
G01*
G37*
%TD.AperFunction*%
%TD*%
%TO.P,J4,1*%
%TO.N,Net-(J11-Pad1)*%
%TA.AperFunction,SMDPad,CuDef*%
G36*
G01*
X41050000Y-51705000D02*
X41050000Y-51405000D01*
G75*
G02*
X41200000Y-51255000I150000J0D01*
G01*
X42850000Y-51255000D01*
G75*
G02*
X43000000Y-51405000I0J-150000D01*
G01*
X43000000Y-51705000D01*
G75*
G02*
X42850000Y-51855000I-150000J0D01*
G01*
X41200000Y-51855000D01*
G75*
G02*
X41050000Y-51705000I0J150000D01*
G01*
G37*
%TD.AperFunction*%
%TO.P,J4,2*%
%TO.N,Net-(J11-Pad2)*%
%TA.AperFunction,SMDPad,CuDef*%
G36*
G01*
X41050000Y-52975000D02*
X41050000Y-52675000D01*
G75*
G02*
X41200000Y-52525000I150000J0D01*
G01*
X42850000Y-52525000D01*
G75*
G02*
X43000000Y-52675000I0J-150000D01*
G01*
X43000000Y-52975000D01*
G75*
G02*
X42850000Y-53125000I-150000J0D01*
G01*
X41200000Y-53125000D01*
G75*
G02*
X41050000Y-52975000I0J150000D01*
G01*
G37*
%TD.AperFunction*%
%TO.P,J4,3*%
%TO.N,Net-(J11-Pad3)*%
%TA.AperFunction,SMDPad,CuDef*%
G36*
G01*
X41050000Y-54245000D02*
X41050000Y-53945000D01*
G75*
G02*
X41200000Y-53795000I150000J0D01*
G01*
X42850000Y-53795000D01*
G75*
G02*
X43000000Y-53945000I0J-150000D01*
G01*
X43000000Y-54245000D01*
G75*
G02*
X42850000Y-54395000I-150000J0D01*
G01*
X41200000Y-54395000D01*
G75*
G02*
X41050000Y-54245000I0J150000D01*
G01*
G37*
%TD.AperFunction*%
%TO.P,J4,4*%
%TO.N,Net-(J11-Pad4)*%
%TA.AperFunction,SMDPad,CuDef*%
G36*
G01*
X41050000Y-55515000D02*
X41050000Y-55215000D01*
G75*
G02*
X41200000Y-55065000I150000J0D01*
G01*
X42850000Y-55065000D01*
G75*
G02*
X43000000Y-55215000I0J-150000D01*
G01*
X43000000Y-55515000D01*
G75*
G02*
X42850000Y-55665000I-150000J0D01*
G01*
X41200000Y-55665000D01*
G75*
G02*
X41050000Y-55515000I0J150000D01*
G01*
G37*
%TD.AperFunction*%
%TO.P,J4,5*%
%TO.N,Net-(J11-Pad5)*%
%TA.AperFunction,SMDPad,CuDef*%
G36*
G01*
X41050000Y-56785000D02*
X41050000Y-56485000D01*
G75*
G02*
X41200000Y-56335000I150000J0D01*
G01*
X42850000Y-56335000D01*
G75*
G02*
X43000000Y-56485000I0J-150000D01*
G01*
X43000000Y-56785000D01*
G75*
G02*
X42850000Y-56935000I-150000J0D01*
G01*
X41200000Y-56935000D01*
G75*
G02*
X41050000Y-56785000I0J150000D01*
G01*
G37*
%TD.AperFunction*%
%TO.P,J4,6*%
%TO.N,Net-(J11-Pad6)*%
%TA.AperFunction,SMDPad,CuDef*%
G36*
G01*
X41050000Y-58055000D02*
X41050000Y-57755000D01*
G75*
G02*
X41200000Y-57605000I150000J0D01*
G01*
X42850000Y-57605000D01*
G75*
G02*
X43000000Y-57755000I0J-150000D01*
G01*
X43000000Y-58055000D01*
G75*
G02*
X42850000Y-58205000I-150000J0D01*
G01*
X41200000Y-58205000D01*
G75*
G02*
X41050000Y-58055000I0J150000D01*
G01*
G37*
%TD.AperFunction*%
%TO.P,J4,7*%
%TO.N,Net-(J11-Pad7)*%
%TA.AperFunction,SMDPad,CuDef*%
G36*
G01*
X41050000Y-59325000D02*
X41050000Y-59025000D01*
G75*
G02*
X41200000Y-58875000I150000J0D01*
G01*
X42850000Y-58875000D01*
G75*
G02*
X43000000Y-59025000I0J-150000D01*
G01*
X43000000Y-59325000D01*
G75*
G02*
X42850000Y-59475000I-150000J0D01*
G01*
X41200000Y-59475000D01*
G75*
G02*
X41050000Y-59325000I0J150000D01*
G01*
G37*
%TD.AperFunction*%
%TO.P,J4,8*%
%TO.N,Net-(J11-Pad8)*%
%TA.AperFunction,SMDPad,CuDef*%
G36*
G01*
X41050000Y-60595000D02*
X41050000Y-60295000D01*
G75*
G02*
X41200000Y-60145000I150000J0D01*
G01*
X42850000Y-60145000D01*
G75*
G02*
X43000000Y-60295000I0J-150000D01*
G01*
X43000000Y-60595000D01*
G75*
G02*
X42850000Y-60745000I-150000J0D01*
G01*
X41200000Y-60745000D01*
G75*
G02*
X41050000Y-60595000I0J150000D01*
G01*
G37*
%TD.AperFunction*%
%TO.P,J4,9*%
%TO.N,Net-(J12-Pad10)*%
%TA.AperFunction,SMDPad,CuDef*%
G36*
G01*
X46000000Y-60595000D02*
X46000000Y-60295000D01*
G75*
G02*
X46150000Y-60145000I150000J0D01*
G01*
X47800000Y-60145000D01*
G75*
G02*
X47950000Y-60295000I0J-150000D01*
G01*
X47950000Y-60595000D01*
G75*
G02*
X47800000Y-60745000I-150000J0D01*
G01*
X46150000Y-60745000D01*
G75*
G02*
X46000000Y-60595000I0J150000D01*
G01*
G37*
%TD.AperFunction*%
%TO.P,J4,10*%
%TO.N,Net-(J12-Pad11)*%
%TA.AperFunction,SMDPad,CuDef*%
G36*
G01*
X46000000Y-59325000D02*
X46000000Y-59025000D01*
G75*
G02*
X46150000Y-58875000I150000J0D01*
G01*
X47800000Y-58875000D01*
G75*
G02*
X47950000Y-59025000I0J-150000D01*
G01*
X47950000Y-59325000D01*
G75*
G02*
X47800000Y-59475000I-150000J0D01*
G01*
X46150000Y-59475000D01*
G75*
G02*
X46000000Y-59325000I0J150000D01*
G01*
G37*
%TD.AperFunction*%
%TO.P,J4,11*%
%TO.N,Net-(J12-Pad12)*%
%TA.AperFunction,SMDPad,CuDef*%
G36*
G01*
X46000000Y-58055000D02*
X46000000Y-57755000D01*
G75*
G02*
X46150000Y-57605000I150000J0D01*
G01*
X47800000Y-57605000D01*
G75*
G02*
X47950000Y-57755000I0J-150000D01*
G01*
X47950000Y-58055000D01*
G75*
G02*
X47800000Y-58205000I-150000J0D01*
G01*
X46150000Y-58205000D01*
G75*
G02*
X46000000Y-58055000I0J150000D01*
G01*
G37*
%TD.AperFunction*%
%TO.P,J4,12*%
%TO.N,Net-(J12-Pad13)*%
%TA.AperFunction,SMDPad,CuDef*%
G36*
G01*
X46000000Y-56785000D02*
X46000000Y-56485000D01*
G75*
G02*
X46150000Y-56335000I150000J0D01*
G01*
X47800000Y-56335000D01*
G75*
G02*
X47950000Y-56485000I0J-150000D01*
G01*
X47950000Y-56785000D01*
G75*
G02*
X47800000Y-56935000I-150000J0D01*
G01*
X46150000Y-56935000D01*
G75*
G02*
X46000000Y-56785000I0J150000D01*
G01*
G37*
%TD.AperFunction*%
%TO.P,J4,13*%
%TO.N,Net-(J12-Pad14)*%
%TA.AperFunction,SMDPad,CuDef*%
G36*
G01*
X46000000Y-55515000D02*
X46000000Y-55215000D01*
G75*
G02*
X46150000Y-55065000I150000J0D01*
G01*
X47800000Y-55065000D01*
G75*
G02*
X47950000Y-55215000I0J-150000D01*
G01*
X47950000Y-55515000D01*
G75*
G02*
X47800000Y-55665000I-150000J0D01*
G01*
X46150000Y-55665000D01*
G75*
G02*
X46000000Y-55515000I0J150000D01*
G01*
G37*
%TD.AperFunction*%
%TO.P,J4,14*%
%TO.N,Net-(J12-Pad15)*%
%TA.AperFunction,SMDPad,CuDef*%
G36*
G01*
X46000000Y-54245000D02*
X46000000Y-53945000D01*
G75*
G02*
X46150000Y-53795000I150000J0D01*
G01*
X47800000Y-53795000D01*
G75*
G02*
X47950000Y-53945000I0J-150000D01*
G01*
X47950000Y-54245000D01*
G75*
G02*
X47800000Y-54395000I-150000J0D01*
G01*
X46150000Y-54395000D01*
G75*
G02*
X46000000Y-54245000I0J150000D01*
G01*
G37*
%TD.AperFunction*%
%TO.P,J4,15*%
%TO.N,Net-(J12-Pad16)*%
%TA.AperFunction,SMDPad,CuDef*%
G36*
G01*
X46000000Y-52975000D02*
X46000000Y-52675000D01*
G75*
G02*
X46150000Y-52525000I150000J0D01*
G01*
X47800000Y-52525000D01*
G75*
G02*
X47950000Y-52675000I0J-150000D01*
G01*
X47950000Y-52975000D01*
G75*
G02*
X47800000Y-53125000I-150000J0D01*
G01*
X46150000Y-53125000D01*
G75*
G02*
X46000000Y-52975000I0J150000D01*
G01*
G37*
%TD.AperFunction*%
%TO.P,J4,16*%
%TO.N,Net-(J12-Pad17)*%
%TA.AperFunction,SMDPad,CuDef*%
G36*
G01*
X46000000Y-51705000D02*
X46000000Y-51405000D01*
G75*
G02*
X46150000Y-51255000I150000J0D01*
G01*
X47800000Y-51255000D01*
G75*
G02*
X47950000Y-51405000I0J-150000D01*
G01*
X47950000Y-51705000D01*
G75*
G02*
X47800000Y-51855000I-150000J0D01*
G01*
X46150000Y-51855000D01*
G75*
G02*
X46000000Y-51705000I0J150000D01*
G01*
G37*
%TD.AperFunction*%
%TD*%
%TO.P,J1,1*%
%TO.N,Net-(J1-Pad1)*%
%TA.AperFunction,SMDPad,CuDef*%
G36*
G01*
X75045000Y-79960000D02*
X75045000Y-79640000D01*
G75*
G02*
X75205000Y-79480000I160000J0D01*
G01*
X75650000Y-79480000D01*
G75*
G02*
X75810000Y-79640000I0J-160000D01*
G01*
X75810000Y-79960000D01*
G75*
G02*
X75650000Y-80120000I-160000J0D01*
G01*
X75205000Y-80120000D01*
G75*
G02*
X75045000Y-79960000I0J160000D01*
G01*
G37*
%TD.AperFunction*%
%TO.P,J1,2*%
%TO.N,Net-(J1-Pad2)*%
%TA.AperFunction,SMDPad,CuDef*%
G36*
G01*
X76190000Y-79960000D02*
X76190000Y-79640000D01*
G75*
G02*
X76350000Y-79480000I160000J0D01*
G01*
X76795000Y-79480000D01*
G75*
G02*
X76955000Y-79640000I0J-160000D01*
G01*
X76955000Y-79960000D01*
G75*
G02*
X76795000Y-80120000I-160000J0D01*
G01*
X76350000Y-80120000D01*
G75*
G02*
X76190000Y-79960000I0J160000D01*
G01*
G37*
%TD.AperFunction*%
%TD*%
D16*
%TO.N,Net-(J1-Pad2)*%
X80955001Y-79800000D02*
X81000000Y-79844999D01*
X76572500Y-79800000D02*
X80955001Y-79800000D01*
%TO.N,Net-(J1-Pad1)*%
X71084999Y-79800000D02*
X71000000Y-79884999D01*
X75427500Y-79800000D02*
X71084999Y-79800000D01*
%TO.N,Net-(J10-Pad2)*%
X80854999Y-64750000D02*
X81000000Y-64604999D01*
X76875000Y-64750000D02*
X80854999Y-64750000D01*
%TO.N,Net-(J10-Pad1)*%
X71105001Y-64750000D02*
X71000000Y-64644999D01*
X75125000Y-64750000D02*
X71105001Y-64750000D01*
%TO.N,Net-(J12-Pad6)*%
X49684991Y-73949990D02*
X50500000Y-74764999D01*
D17*
X46650000Y-73850000D02*
X46749990Y-73949990D01*
D16*
X46650000Y-73825000D02*
X46650000Y-73850000D01*
X49560001Y-73825000D02*
X50500000Y-74764999D01*
X46650000Y-73825000D02*
X49560001Y-73825000D01*
%TO.N,Net-(J12-Pad5)*%
X50204999Y-77304999D02*
X50500000Y-77304999D01*
X46650000Y-74475000D02*
X47375000Y-74475000D01*
X47670001Y-74475000D02*
X50500000Y-77304999D01*
X46650000Y-74475000D02*
X47670001Y-74475000D01*
%TO.N,Net-(J12-Pad4)*%
X46650000Y-75994999D02*
X50500000Y-79844999D01*
X46650000Y-75125000D02*
X46650000Y-75994999D01*
%TO.N,Net-(J12-Pad3)*%
X48884999Y-84000000D02*
X50500000Y-82384999D01*
X46100000Y-84000000D02*
X48884999Y-84000000D01*
%TO.N,Net-(J12-Pad2)*%
X50474999Y-84950000D02*
X50500000Y-84924999D01*
X46100000Y-84950000D02*
X50474999Y-84950000D01*
%TO.N,Net-(J12-Pad1)*%
X48935001Y-85900000D02*
X50500000Y-87464999D01*
X46100000Y-85900000D02*
X48935001Y-85900000D01*
%TO.N,Net-(J13-Pad12)*%
X54695001Y-75000000D02*
X54500000Y-74804999D01*
X59500000Y-75000000D02*
X54695001Y-75000000D01*
%TO.N,Net-(J13-Pad11)*%
X56285001Y-74050000D02*
X54500000Y-72264999D01*
X59500000Y-74050000D02*
X56285001Y-74050000D01*
%TO.N,Net-(J13-Pad10)*%
X56224999Y-68000000D02*
X54500000Y-69724999D01*
X59300000Y-68000000D02*
X56224999Y-68000000D01*
%TO.N,Net-(J13-Pad9)*%
X54634999Y-67050000D02*
X54500000Y-67184999D01*
X59300000Y-67050000D02*
X54634999Y-67050000D01*
%TO.N,Net-(J13-Pad8)*%
X55955001Y-66100000D02*
X54500000Y-64644999D01*
X59300000Y-66100000D02*
X55955001Y-66100000D01*
%TO.N,Net-(J13-Pad7)*%
X57800000Y-58804999D02*
X54500000Y-62104999D01*
X57800000Y-56600000D02*
X57800000Y-58804999D01*
%TO.N,Net-(J17-Pad2)*%
X80894999Y-67250000D02*
X81000000Y-67144999D01*
X76875000Y-67250000D02*
X80894999Y-67250000D01*
%TO.N,Net-(J18-Pad16)*%
X80864999Y-49500000D02*
X81000000Y-49364999D01*
X80964999Y-49400000D02*
X81000000Y-49364999D01*
X77125000Y-49400000D02*
X80964999Y-49400000D01*
%TO.N,Net-(J16-Pad2)*%
X71095001Y-49500000D02*
X71000000Y-49404999D01*
X71004999Y-49400000D02*
X71000000Y-49404999D01*
X75075000Y-49400000D02*
X71004999Y-49400000D01*
%TO.N,Net-(J18-Pad15)*%
X80904999Y-52000000D02*
X81000000Y-51904999D01*
X76572500Y-52000000D02*
X80904999Y-52000000D01*
%TO.N,Net-(J16-Pad3)*%
X71055001Y-52000000D02*
X71000000Y-51944999D01*
X75427500Y-52000000D02*
X71055001Y-52000000D01*
%TO.N,Net-(J12-Pad17)*%
X46975000Y-50349999D02*
X50500000Y-46824999D01*
X46975000Y-51555000D02*
X46975000Y-50349999D01*
%TO.N,Net-(J12-Pad16)*%
X50500000Y-49782834D02*
X50500000Y-49364999D01*
X47457834Y-52825000D02*
X50500000Y-49782834D01*
X46975000Y-52825000D02*
X47457834Y-52825000D01*
%TO.N,Net-(J12-Pad15)*%
X48309999Y-54095000D02*
X50500000Y-51904999D01*
X46975000Y-54095000D02*
X48309999Y-54095000D01*
%TO.N,Net-(J12-Pad14)*%
X49579999Y-55365000D02*
X50500000Y-54444999D01*
X46975000Y-55365000D02*
X49579999Y-55365000D01*
%TO.N,Net-(J12-Pad13)*%
X50150001Y-56635000D02*
X50500000Y-56984999D01*
X46975000Y-56635000D02*
X50150001Y-56635000D01*
%TO.N,Net-(J12-Pad12)*%
X48880001Y-57905000D02*
X50500000Y-59524999D01*
X46975000Y-57905000D02*
X48880001Y-57905000D01*
%TO.N,Net-(J12-Pad11)*%
X47950000Y-59175000D02*
X50500000Y-61725000D01*
X50500000Y-61725000D02*
X50500000Y-62064999D01*
X46975000Y-59175000D02*
X47950000Y-59175000D01*
%TO.N,Net-(J12-Pad10)*%
X46975000Y-61079999D02*
X50500000Y-64604999D01*
X46975000Y-60445000D02*
X46975000Y-61079999D01*
%TO.N,Net-(J11-Pad8)*%
X42025000Y-61119999D02*
X38500000Y-64644999D01*
X42025000Y-60445000D02*
X42025000Y-61119999D01*
%TO.N,Net-(J11-Pad7)*%
X38500000Y-61725000D02*
X38500000Y-62104999D01*
X41050000Y-59175000D02*
X38500000Y-61725000D01*
X42025000Y-59175000D02*
X41050000Y-59175000D01*
%TO.N,Net-(J11-Pad6)*%
X40159999Y-57905000D02*
X38500000Y-59564999D01*
X42025000Y-57905000D02*
X40159999Y-57905000D01*
%TO.N,Net-(J11-Pad5)*%
X38889999Y-56635000D02*
X38500000Y-57024999D01*
X42025000Y-56635000D02*
X38889999Y-56635000D01*
%TO.N,Net-(J11-Pad4)*%
X39380001Y-55365000D02*
X38500000Y-54484999D01*
X42025000Y-55365000D02*
X39380001Y-55365000D01*
%TO.N,Net-(J11-Pad3)*%
X40650001Y-54095000D02*
X38500000Y-51944999D01*
X42025000Y-54095000D02*
X40650001Y-54095000D01*
%TO.N,Net-(J11-Pad2)*%
X38500000Y-49782834D02*
X38500000Y-49404999D01*
X41542166Y-52825000D02*
X38500000Y-49782834D01*
X42025000Y-52825000D02*
X41542166Y-52825000D01*
D17*
%TO.N,Net-(J11-Pad1)*%
X42025000Y-51190997D02*
X38500000Y-47665997D01*
D16*
X38500000Y-47665997D02*
X38500000Y-46864999D01*
X42025000Y-51555000D02*
X42025000Y-51190997D01*
%TO.N,Net-(J15-Pad17)*%
X63700000Y-50124999D02*
X67000000Y-46824999D01*
X63700000Y-52700000D02*
X63700000Y-50124999D01*
%TO.N,Net-(J15-Pad16)*%
X65749999Y-52306458D02*
X65749999Y-50615000D01*
X64706457Y-53350000D02*
X65749999Y-52306458D01*
X65749999Y-50615000D02*
X67000000Y-49364999D01*
X63700000Y-53350000D02*
X64706457Y-53350000D01*
%TO.N,Net-(J15-Pad15)*%
X64904999Y-54000000D02*
X67000000Y-51904999D01*
X63700000Y-54000000D02*
X64904999Y-54000000D01*
%TO.N,Net-(J15-Pad14)*%
X66794999Y-54650000D02*
X67000000Y-54444999D01*
X63700000Y-54650000D02*
X66794999Y-54650000D01*
%TO.N,Net-(J15-Pad13)*%
X65315001Y-55300000D02*
X67000000Y-56984999D01*
X63700000Y-55300000D02*
X65315001Y-55300000D01*
%TO.N,Net-(J15-Pad12)*%
X65749999Y-58274998D02*
X67000000Y-59524999D01*
X65749999Y-56979997D02*
X65749999Y-58274998D01*
X64720002Y-55950000D02*
X65749999Y-56979997D01*
X63700000Y-55950000D02*
X64720002Y-55950000D01*
%TO.N,Net-(J15-Pad11)*%
X63700000Y-58764999D02*
X67000000Y-62064999D01*
X63700000Y-56600000D02*
X63700000Y-58764999D01*
%TO.N,Net-(J13-Pad6)*%
X55750001Y-56849999D02*
X55750001Y-58314998D01*
X55750001Y-58314998D02*
X54500000Y-59564999D01*
X56650000Y-55950000D02*
X55750001Y-56849999D01*
X57800000Y-55950000D02*
X56650000Y-55950000D01*
%TO.N,Net-(J13-Pad5)*%
X56224999Y-55300000D02*
X54500000Y-57024999D01*
X57800000Y-55300000D02*
X56224999Y-55300000D01*
%TO.N,Net-(J13-Pad4)*%
X54665001Y-54650000D02*
X54500000Y-54484999D01*
X57800000Y-54650000D02*
X54665001Y-54650000D01*
%TO.N,Net-(J13-Pad3)*%
X56555001Y-54000000D02*
X54500000Y-51944999D01*
X57800000Y-54000000D02*
X56555001Y-54000000D01*
%TO.N,Net-(J13-Pad2)*%
X55750001Y-50655000D02*
X54500000Y-49404999D01*
X55750001Y-52320003D02*
X55750001Y-50655000D01*
X56779998Y-53350000D02*
X55750001Y-52320003D01*
X57800000Y-53350000D02*
X56779998Y-53350000D01*
%TO.N,Net-(J13-Pad1)*%
X57800000Y-50164999D02*
X54500000Y-46864999D01*
X57800000Y-52700000D02*
X57800000Y-50164999D01*
%TO.N,Net-(J18-Pad14)*%
X80944999Y-54500000D02*
X81000000Y-54444999D01*
X76572500Y-54500000D02*
X80944999Y-54500000D01*
%TO.N,Net-(J16-Pad4)*%
X71015001Y-54500000D02*
X71000000Y-54484999D01*
X75427500Y-54500000D02*
X71015001Y-54500000D01*
%TO.N,Net-(J18-Pad13)*%
X80984999Y-57000000D02*
X81000000Y-56984999D01*
X76572500Y-57000000D02*
X80984999Y-57000000D01*
%TO.N,Net-(J16-Pad5)*%
X71024999Y-57000000D02*
X71000000Y-57024999D01*
X75427500Y-57000000D02*
X71024999Y-57000000D01*
%TO.N,Net-(J18-Pad12)*%
X80975001Y-59500000D02*
X81000000Y-59524999D01*
X76572500Y-59500000D02*
X80975001Y-59500000D01*
%TO.N,Net-(J16-Pad6)*%
X71064999Y-59500000D02*
X71000000Y-59564999D01*
X75427500Y-59500000D02*
X71064999Y-59500000D01*
%TO.N,Net-(J18-Pad11)*%
X80935001Y-62000000D02*
X81000000Y-62064999D01*
X76875000Y-62000000D02*
X80935001Y-62000000D01*
%TO.N,Net-(J16-Pad7)*%
X71104999Y-62000000D02*
X71000000Y-62104999D01*
X75125000Y-62000000D02*
X71104999Y-62000000D01*
%TO.N,Net-(J14-Pad5)*%
X66905001Y-67050000D02*
X67000000Y-67144999D01*
X62000000Y-67050000D02*
X66905001Y-67050000D01*
%TO.N,Net-(J14-Pad6)*%
X65504999Y-66100000D02*
X67000000Y-64604999D01*
X62000000Y-66100000D02*
X65504999Y-66100000D01*
%TO.N,Net-(J14-Pad4)*%
X65315001Y-68000000D02*
X67000000Y-69684999D01*
X62000000Y-68000000D02*
X65315001Y-68000000D01*
%TO.N,Net-(J16-Pad9)*%
X71065001Y-67250000D02*
X71000000Y-67184999D01*
X75125000Y-67250000D02*
X71065001Y-67250000D01*
%TO.N,Net-(J18-Pad8)*%
X80934999Y-69750000D02*
X81000000Y-69684999D01*
X76875000Y-69750000D02*
X80934999Y-69750000D01*
%TO.N,Net-(J16-Pad10)*%
X71025001Y-69750000D02*
X71000000Y-69724999D01*
X75125000Y-69750000D02*
X71025001Y-69750000D01*
%TO.N,Net-(J12-Pad9)*%
X46650000Y-70994999D02*
X50500000Y-67144999D01*
X46650000Y-71875000D02*
X46650000Y-70994999D01*
%TO.N,Net-(J12-Pad8)*%
X50215001Y-69684999D02*
X50500000Y-69684999D01*
X46650000Y-72525000D02*
X47375000Y-72525000D01*
X47659999Y-72525000D02*
X50500000Y-69684999D01*
X46650000Y-72525000D02*
X47659999Y-72525000D01*
%TO.N,Net-(J12-Pad7)*%
X49674989Y-73050010D02*
X50500000Y-72224999D01*
D17*
X46825000Y-73175000D02*
X46949990Y-73050010D01*
D16*
X49599989Y-73125010D02*
X50500000Y-72224999D01*
X46874990Y-73125010D02*
X49599989Y-73125010D01*
X46825000Y-73175000D02*
X46874990Y-73125010D01*
X46650000Y-73175000D02*
X46825000Y-73175000D01*
%TO.N,Net-(J11-Pad14)*%
X38500000Y-79175000D02*
X38500000Y-79884999D01*
X42350000Y-75325000D02*
X38500000Y-79175000D01*
X42350000Y-75125000D02*
X42350000Y-75325000D01*
%TO.N,Net-(J11-Pad13)*%
X41369999Y-74475000D02*
X38500000Y-77344999D01*
X42350000Y-74475000D02*
X41369999Y-74475000D01*
%TO.N,Net-(J11-Pad12)*%
X39479999Y-73825000D02*
X38500000Y-74804999D01*
X42350000Y-73825000D02*
X39479999Y-73825000D01*
%TO.N,Net-(J11-Pad11)*%
X39410001Y-73175000D02*
X38500000Y-72264999D01*
X42350000Y-73175000D02*
X39410001Y-73175000D01*
%TO.N,Net-(J11-Pad10)*%
X41300001Y-72525000D02*
X38500000Y-69724999D01*
X42350000Y-72525000D02*
X41300001Y-72525000D01*
%TO.N,Net-(J11-Pad9)*%
X42350000Y-71034999D02*
X38500000Y-67184999D01*
X42350000Y-71875000D02*
X42350000Y-71034999D01*
%TO.N,Net-(J18-Pad7)*%
X80974999Y-72250000D02*
X81000000Y-72224999D01*
X76875000Y-72250000D02*
X80974999Y-72250000D01*
%TO.N,Net-(J16-Pad11)*%
X71014999Y-72250000D02*
X71000000Y-72264999D01*
X75125000Y-72250000D02*
X71014999Y-72250000D01*
%TO.N,Net-(J15-Pad6)*%
X66764999Y-75000000D02*
X67000000Y-74764999D01*
X62200000Y-75000000D02*
X66764999Y-75000000D01*
%TO.N,Net-(J15-Pad7)*%
X65174999Y-74050000D02*
X67000000Y-72224999D01*
X62200000Y-74050000D02*
X65174999Y-74050000D01*
%TO.N,Net-(J15-Pad5)*%
X65645001Y-75950000D02*
X67000000Y-77304999D01*
X62200000Y-75950000D02*
X65645001Y-75950000D01*
%TO.N,Net-(J13-Pad13)*%
X55894999Y-75950000D02*
X54500000Y-77344999D01*
X59500000Y-75950000D02*
X55894999Y-75950000D01*
%TO.N,Net-(J18-Pad6)*%
X80985001Y-74750000D02*
X81000000Y-74764999D01*
X76875000Y-74750000D02*
X80985001Y-74750000D01*
%TO.N,Net-(J16-Pad12)*%
X71054999Y-74750000D02*
X71000000Y-74804999D01*
X75125000Y-74750000D02*
X71054999Y-74750000D01*
%TO.N,Net-(J18-Pad5)*%
X80904999Y-77400000D02*
X81000000Y-77304999D01*
X76875000Y-77400000D02*
X80904999Y-77400000D01*
%TO.N,Net-(J16-Pad13)*%
X71055001Y-77400000D02*
X71000000Y-77344999D01*
X75125000Y-77400000D02*
X71055001Y-77400000D01*
%TO.N,Net-(J15-Pad4)*%
X64749999Y-82095000D02*
X67000000Y-79844999D01*
X62975000Y-82095000D02*
X64749999Y-82095000D01*
%TO.N,Net-(J15-Pad3)*%
X66019999Y-83365000D02*
X67000000Y-82384999D01*
X62975000Y-83365000D02*
X66019999Y-83365000D01*
%TO.N,Net-(J15-Pad2)*%
X66710001Y-84635000D02*
X67000000Y-84924999D01*
X62975000Y-84635000D02*
X66710001Y-84635000D01*
%TO.N,Net-(J15-Pad1)*%
X65440001Y-85905000D02*
X67000000Y-87464999D01*
X62975000Y-85905000D02*
X65440001Y-85905000D01*
%TO.N,Net-(J13-Pad17)*%
X56099999Y-85905000D02*
X54500000Y-87504999D01*
X58025000Y-85905000D02*
X56099999Y-85905000D01*
%TO.N,Net-(J13-Pad16)*%
X54829999Y-84635000D02*
X54500000Y-84964999D01*
X58025000Y-84635000D02*
X54829999Y-84635000D01*
%TO.N,Net-(J13-Pad15)*%
X55440001Y-83365000D02*
X54500000Y-82424999D01*
X58025000Y-83365000D02*
X55440001Y-83365000D01*
%TO.N,Net-(J13-Pad14)*%
X56710001Y-82095000D02*
X54500000Y-79884999D01*
X58025000Y-82095000D02*
X56710001Y-82095000D01*
%TO.N,Net-(J18-Pad3)*%
X80215001Y-81600000D02*
X81000000Y-82384999D01*
X76572500Y-81600000D02*
X80215001Y-81600000D01*
%TO.N,Net-(J16-Pad15)*%
X71824999Y-81600000D02*
X71000000Y-82424999D01*
X75427500Y-81600000D02*
X71824999Y-81600000D01*
%TO.N,Net-(J11-Pad17)*%
X40104999Y-85900000D02*
X38500000Y-87504999D01*
X43400000Y-85900000D02*
X40104999Y-85900000D01*
%TO.N,Net-(J11-Pad16)*%
X38514999Y-84950000D02*
X38500000Y-84964999D01*
X43400000Y-84950000D02*
X38514999Y-84950000D01*
%TO.N,Net-(J11-Pad15)*%
X40075001Y-84000000D02*
X38500000Y-82424999D01*
X43400000Y-84000000D02*
X40075001Y-84000000D01*
%TO.N,Net-(J18-Pad2)*%
X80575001Y-84500000D02*
X81000000Y-84924999D01*
X77487500Y-84500000D02*
X80575001Y-84500000D01*
%TO.N,Net-(J16-Pad16)*%
X71464999Y-84500000D02*
X71000000Y-84964999D01*
X74512500Y-84500000D02*
X71464999Y-84500000D01*
%TO.N,Net-(J18-Pad1)*%
X80764999Y-87700000D02*
X81000000Y-87464999D01*
X77487500Y-87700000D02*
X80764999Y-87700000D01*
%TO.N,Net-(J16-Pad17)*%
X71195001Y-87700000D02*
X71000000Y-87504999D01*
X74512500Y-87700000D02*
X71195001Y-87700000D01*
%TO.N,Net-(J16-Pad1)*%
X71135001Y-47000000D02*
X71000000Y-46864999D01*
X71035001Y-46900000D02*
X71000000Y-46864999D01*
X75075000Y-46900000D02*
X71035001Y-46900000D01*
%TO.N,Net-(J18-Pad17)*%
X80824999Y-47000000D02*
X81000000Y-46824999D01*
X80924999Y-46900000D02*
X81000000Y-46824999D01*
X77125000Y-46900000D02*
X80924999Y-46900000D01*
%TD*%
D18*
X79513355Y-88740391D02*
X79608578Y-88856421D01*
X79724608Y-88951644D01*
X79856985Y-89022401D01*
X80000622Y-89065973D01*
X80150000Y-89080685D01*
X81850000Y-89080685D01*
X81999378Y-89065973D01*
X82143015Y-89022401D01*
X82213001Y-88984993D01*
X82213001Y-89213000D01*
X78862013Y-89213000D01*
X78888372Y-89163686D01*
X78946170Y-88973151D01*
X78965686Y-88775000D01*
X78965686Y-88662000D01*
X79471454Y-88662000D01*
X79513355Y-88740391D01*
%TA.AperFunction,NonConductor*%
D19*
G36*
X79513355Y-88740391D02*
G01*
X79608578Y-88856421D01*
X79724608Y-88951644D01*
X79856985Y-89022401D01*
X80000622Y-89065973D01*
X80150000Y-89080685D01*
X81850000Y-89080685D01*
X81999378Y-89065973D01*
X82143015Y-89022401D01*
X82213001Y-88984993D01*
X82213001Y-89213000D01*
X78862013Y-89213000D01*
X78888372Y-89163686D01*
X78946170Y-88973151D01*
X78965686Y-88775000D01*
X78965686Y-88662000D01*
X79471454Y-88662000D01*
X79513355Y-88740391D01*
G37*
%TD.AperFunction*%
D18*
X76169408Y-82667899D02*
X76334404Y-82684150D01*
X76306802Y-82706802D01*
X76180488Y-82860715D01*
X76086628Y-83036314D01*
X76028830Y-83226849D01*
X76009314Y-83425000D01*
X76009314Y-85575000D01*
X76028830Y-85773151D01*
X76086628Y-85963686D01*
X76159490Y-86100000D01*
X76086628Y-86236314D01*
X76028830Y-86426849D01*
X76009314Y-86625000D01*
X76009314Y-88775000D01*
X76028830Y-88973151D01*
X76086628Y-89163686D01*
X76112987Y-89213000D01*
X75887013Y-89213000D01*
X75913372Y-89163686D01*
X75971170Y-88973151D01*
X75990686Y-88775000D01*
X75990686Y-86625000D01*
X75971170Y-86426849D01*
X75913372Y-86236314D01*
X75840510Y-86100000D01*
X75913372Y-85963686D01*
X75971170Y-85773151D01*
X75990686Y-85575000D01*
X75990686Y-83425000D01*
X75971170Y-83226849D01*
X75913372Y-83036314D01*
X75819512Y-82860715D01*
X75693198Y-82706802D01*
X75665596Y-82684150D01*
X75830592Y-82667899D01*
X76000000Y-82616510D01*
X76169408Y-82667899D01*
%TA.AperFunction,NonConductor*%
D19*
G36*
X76169408Y-82667899D02*
G01*
X76334404Y-82684150D01*
X76306802Y-82706802D01*
X76180488Y-82860715D01*
X76086628Y-83036314D01*
X76028830Y-83226849D01*
X76009314Y-83425000D01*
X76009314Y-85575000D01*
X76028830Y-85773151D01*
X76086628Y-85963686D01*
X76159490Y-86100000D01*
X76086628Y-86236314D01*
X76028830Y-86426849D01*
X76009314Y-86625000D01*
X76009314Y-88775000D01*
X76028830Y-88973151D01*
X76086628Y-89163686D01*
X76112987Y-89213000D01*
X75887013Y-89213000D01*
X75913372Y-89163686D01*
X75971170Y-88973151D01*
X75990686Y-88775000D01*
X75990686Y-86625000D01*
X75971170Y-86426849D01*
X75913372Y-86236314D01*
X75840510Y-86100000D01*
X75913372Y-85963686D01*
X75971170Y-85773151D01*
X75990686Y-85575000D01*
X75990686Y-83425000D01*
X75971170Y-83226849D01*
X75913372Y-83036314D01*
X75819512Y-82860715D01*
X75693198Y-82706802D01*
X75665596Y-82684150D01*
X75830592Y-82667899D01*
X76000000Y-82616510D01*
X76169408Y-82667899D01*
G37*
%TD.AperFunction*%
D18*
X53356985Y-45307597D02*
X53224608Y-45378354D01*
X53108578Y-45473577D01*
X53013355Y-45589607D01*
X52942598Y-45721984D01*
X52899026Y-45865621D01*
X52884314Y-46014999D01*
X52884314Y-47714999D01*
X52899026Y-47864377D01*
X52942598Y-48008014D01*
X53013355Y-48140391D01*
X53108578Y-48256421D01*
X53224608Y-48351644D01*
X53256563Y-48368724D01*
X53247878Y-48377409D01*
X53071464Y-48641431D01*
X52949948Y-48934796D01*
X52888000Y-49246231D01*
X52888000Y-49563767D01*
X52949948Y-49875202D01*
X53071464Y-50168567D01*
X53247878Y-50432589D01*
X53472410Y-50657121D01*
X53499166Y-50674999D01*
X53472410Y-50692877D01*
X53247878Y-50917409D01*
X53071464Y-51181431D01*
X52949948Y-51474796D01*
X52888000Y-51786231D01*
X52888000Y-52103767D01*
X52949948Y-52415202D01*
X53071464Y-52708567D01*
X53247878Y-52972589D01*
X53472410Y-53197121D01*
X53499166Y-53214999D01*
X53472410Y-53232877D01*
X53247878Y-53457409D01*
X53071464Y-53721431D01*
X52949948Y-54014796D01*
X52888000Y-54326231D01*
X52888000Y-54643767D01*
X52949948Y-54955202D01*
X53071464Y-55248567D01*
X53247878Y-55512589D01*
X53472410Y-55737121D01*
X53499166Y-55754999D01*
X53472410Y-55772877D01*
X53247878Y-55997409D01*
X53071464Y-56261431D01*
X52949948Y-56554796D01*
X52888000Y-56866231D01*
X52888000Y-57183767D01*
X52949948Y-57495202D01*
X53071464Y-57788567D01*
X53247878Y-58052589D01*
X53472410Y-58277121D01*
X53499166Y-58294999D01*
X53472410Y-58312877D01*
X53247878Y-58537409D01*
X53071464Y-58801431D01*
X52949948Y-59094796D01*
X52888000Y-59406231D01*
X52888000Y-59723767D01*
X52949948Y-60035202D01*
X53071464Y-60328567D01*
X53247878Y-60592589D01*
X53472410Y-60817121D01*
X53499166Y-60834999D01*
X53472410Y-60852877D01*
X53247878Y-61077409D01*
X53071464Y-61341431D01*
X52949948Y-61634796D01*
X52888000Y-61946231D01*
X52888000Y-62263767D01*
X52949948Y-62575202D01*
X53071464Y-62868567D01*
X53247878Y-63132589D01*
X53472410Y-63357121D01*
X53499166Y-63374999D01*
X53472410Y-63392877D01*
X53247878Y-63617409D01*
X53071464Y-63881431D01*
X52949948Y-64174796D01*
X52888000Y-64486231D01*
X52888000Y-64803767D01*
X52949948Y-65115202D01*
X53071464Y-65408567D01*
X53247878Y-65672589D01*
X53472410Y-65897121D01*
X53499166Y-65914999D01*
X53472410Y-65932877D01*
X53247878Y-66157409D01*
X53071464Y-66421431D01*
X52949948Y-66714796D01*
X52888000Y-67026231D01*
X52888000Y-67343767D01*
X52949948Y-67655202D01*
X53071464Y-67948567D01*
X53247878Y-68212589D01*
X53472410Y-68437121D01*
X53499166Y-68454999D01*
X53472410Y-68472877D01*
X53247878Y-68697409D01*
X53071464Y-68961431D01*
X52949948Y-69254796D01*
X52888000Y-69566231D01*
X52888000Y-69883767D01*
X52949948Y-70195202D01*
X53071464Y-70488567D01*
X53247878Y-70752589D01*
X53472410Y-70977121D01*
X53499166Y-70994999D01*
X53472410Y-71012877D01*
X53247878Y-71237409D01*
X53071464Y-71501431D01*
X52949948Y-71794796D01*
X52888000Y-72106231D01*
X52888000Y-72423767D01*
X52949948Y-72735202D01*
X53071464Y-73028567D01*
X53247878Y-73292589D01*
X53472410Y-73517121D01*
X53499166Y-73534999D01*
X53472410Y-73552877D01*
X53247878Y-73777409D01*
X53071464Y-74041431D01*
X52949948Y-74334796D01*
X52888000Y-74646231D01*
X52888000Y-74963767D01*
X52949948Y-75275202D01*
X53071464Y-75568567D01*
X53247878Y-75832589D01*
X53472410Y-76057121D01*
X53499166Y-76074999D01*
X53472410Y-76092877D01*
X53247878Y-76317409D01*
X53071464Y-76581431D01*
X52949948Y-76874796D01*
X52888000Y-77186231D01*
X52888000Y-77503767D01*
X52949948Y-77815202D01*
X53071464Y-78108567D01*
X53247878Y-78372589D01*
X53472410Y-78597121D01*
X53499166Y-78614999D01*
X53472410Y-78632877D01*
X53247878Y-78857409D01*
X53071464Y-79121431D01*
X52949948Y-79414796D01*
X52888000Y-79726231D01*
X52888000Y-80043767D01*
X52949948Y-80355202D01*
X53071464Y-80648567D01*
X53247878Y-80912589D01*
X53472410Y-81137121D01*
X53499166Y-81154999D01*
X53472410Y-81172877D01*
X53247878Y-81397409D01*
X53071464Y-81661431D01*
X52949948Y-81954796D01*
X52888000Y-82266231D01*
X52888000Y-82583767D01*
X52949948Y-82895202D01*
X53071464Y-83188567D01*
X53247878Y-83452589D01*
X53472410Y-83677121D01*
X53499166Y-83694999D01*
X53472410Y-83712877D01*
X53247878Y-83937409D01*
X53071464Y-84201431D01*
X52949948Y-84494796D01*
X52888000Y-84806231D01*
X52888000Y-85123767D01*
X52949948Y-85435202D01*
X53071464Y-85728567D01*
X53247878Y-85992589D01*
X53472410Y-86217121D01*
X53499166Y-86234999D01*
X53472410Y-86252877D01*
X53247878Y-86477409D01*
X53071464Y-86741431D01*
X52949948Y-87034796D01*
X52888000Y-87346231D01*
X52888000Y-87663767D01*
X52949948Y-87975202D01*
X53071464Y-88268567D01*
X53247878Y-88532589D01*
X53472410Y-88757121D01*
X53736432Y-88933535D01*
X54029797Y-89055051D01*
X54341232Y-89116999D01*
X54658768Y-89116999D01*
X54970203Y-89055051D01*
X55263568Y-88933535D01*
X55527590Y-88757121D01*
X55752122Y-88532589D01*
X55928536Y-88268567D01*
X56050052Y-87975202D01*
X56112000Y-87663767D01*
X56112000Y-87346231D01*
X56096610Y-87268862D01*
X56498473Y-86867000D01*
X56786003Y-86867000D01*
X56849582Y-86900984D01*
X57021359Y-86953091D01*
X57200000Y-86970686D01*
X58850000Y-86970686D01*
X59028641Y-86953091D01*
X59200418Y-86900984D01*
X59358728Y-86816365D01*
X59497488Y-86702488D01*
X59611365Y-86563728D01*
X59695984Y-86405418D01*
X59748091Y-86233641D01*
X59765686Y-86055000D01*
X59765686Y-85755000D01*
X59748091Y-85576359D01*
X59695984Y-85404582D01*
X59624048Y-85270000D01*
X59695984Y-85135418D01*
X59748091Y-84963641D01*
X59765686Y-84785000D01*
X59765686Y-84485000D01*
X59748091Y-84306359D01*
X59695984Y-84134582D01*
X59624048Y-84000000D01*
X59695984Y-83865418D01*
X59748091Y-83693641D01*
X59765686Y-83515000D01*
X59765686Y-83215000D01*
X59748091Y-83036359D01*
X59695984Y-82864582D01*
X59624048Y-82730000D01*
X59695984Y-82595418D01*
X59748091Y-82423641D01*
X59765686Y-82245000D01*
X59765686Y-81945000D01*
X59748091Y-81766359D01*
X59695984Y-81594582D01*
X59611365Y-81436272D01*
X59497488Y-81297512D01*
X59358728Y-81183635D01*
X59200418Y-81099016D01*
X59028641Y-81046909D01*
X58850000Y-81029314D01*
X57200000Y-81029314D01*
X57022292Y-81046817D01*
X56096610Y-80121136D01*
X56112000Y-80043767D01*
X56112000Y-79726231D01*
X56050052Y-79414796D01*
X55928536Y-79121431D01*
X55752122Y-78857409D01*
X55527590Y-78632877D01*
X55500834Y-78614999D01*
X55527590Y-78597121D01*
X55752122Y-78372589D01*
X55928536Y-78108567D01*
X56050052Y-77815202D01*
X56112000Y-77503767D01*
X56112000Y-77186231D01*
X56096610Y-77108861D01*
X56293472Y-76912000D01*
X58295272Y-76912000D01*
X58426985Y-76982402D01*
X58570622Y-77025974D01*
X58720000Y-77040686D01*
X60280000Y-77040686D01*
X60429378Y-77025974D01*
X60573015Y-76982402D01*
X60705392Y-76911645D01*
X60821422Y-76816422D01*
X60850000Y-76781599D01*
X60878578Y-76816422D01*
X60994608Y-76911645D01*
X61126985Y-76982402D01*
X61270622Y-77025974D01*
X61420000Y-77040686D01*
X62980000Y-77040686D01*
X63129378Y-77025974D01*
X63273015Y-76982402D01*
X63404728Y-76912000D01*
X65246529Y-76912000D01*
X65403390Y-77068861D01*
X65388000Y-77146231D01*
X65388000Y-77463767D01*
X65449948Y-77775202D01*
X65571464Y-78068567D01*
X65747878Y-78332589D01*
X65972410Y-78557121D01*
X65999166Y-78574999D01*
X65972410Y-78592877D01*
X65747878Y-78817409D01*
X65571464Y-79081431D01*
X65449948Y-79374796D01*
X65388000Y-79686231D01*
X65388000Y-80003767D01*
X65403390Y-80081137D01*
X64351527Y-81133000D01*
X64213997Y-81133000D01*
X64150418Y-81099016D01*
X63978641Y-81046909D01*
X63800000Y-81029314D01*
X62150000Y-81029314D01*
X61971359Y-81046909D01*
X61799582Y-81099016D01*
X61641272Y-81183635D01*
X61502512Y-81297512D01*
X61388635Y-81436272D01*
X61304016Y-81594582D01*
X61251909Y-81766359D01*
X61234314Y-81945000D01*
X61234314Y-82245000D01*
X61251909Y-82423641D01*
X61304016Y-82595418D01*
X61375952Y-82730000D01*
X61304016Y-82864582D01*
X61251909Y-83036359D01*
X61234314Y-83215000D01*
X61234314Y-83515000D01*
X61251909Y-83693641D01*
X61304016Y-83865418D01*
X61375952Y-84000000D01*
X61304016Y-84134582D01*
X61251909Y-84306359D01*
X61234314Y-84485000D01*
X61234314Y-84785000D01*
X61251909Y-84963641D01*
X61304016Y-85135418D01*
X61375952Y-85270000D01*
X61304016Y-85404582D01*
X61251909Y-85576359D01*
X61234314Y-85755000D01*
X61234314Y-86055000D01*
X61251909Y-86233641D01*
X61304016Y-86405418D01*
X61388635Y-86563728D01*
X61502512Y-86702488D01*
X61641272Y-86816365D01*
X61799582Y-86900984D01*
X61971359Y-86953091D01*
X62150000Y-86970686D01*
X63800000Y-86970686D01*
X63978641Y-86953091D01*
X64150418Y-86900984D01*
X64213997Y-86867000D01*
X65041529Y-86867000D01*
X65384314Y-87209785D01*
X65384314Y-88314999D01*
X65399026Y-88464377D01*
X65442598Y-88608014D01*
X65513355Y-88740391D01*
X65608578Y-88856421D01*
X65724608Y-88951644D01*
X65856985Y-89022401D01*
X66000622Y-89065973D01*
X66150000Y-89080685D01*
X67850000Y-89080685D01*
X67999378Y-89065973D01*
X68143015Y-89022401D01*
X68275392Y-88951644D01*
X68391422Y-88856421D01*
X68486645Y-88740391D01*
X68557402Y-88608014D01*
X68600974Y-88464377D01*
X68615686Y-88314999D01*
X68615686Y-86614999D01*
X68600974Y-86465621D01*
X68557402Y-86321984D01*
X68486645Y-86189607D01*
X68391422Y-86073577D01*
X68275392Y-85978354D01*
X68243437Y-85961274D01*
X68252122Y-85952589D01*
X68428536Y-85688567D01*
X68550052Y-85395202D01*
X68612000Y-85083767D01*
X68612000Y-84766231D01*
X68550052Y-84454796D01*
X68428536Y-84161431D01*
X68252122Y-83897409D01*
X68027590Y-83672877D01*
X68000834Y-83654999D01*
X68027590Y-83637121D01*
X68252122Y-83412589D01*
X68428536Y-83148567D01*
X68550052Y-82855202D01*
X68612000Y-82543767D01*
X68612000Y-82226231D01*
X68550052Y-81914796D01*
X68428536Y-81621431D01*
X68252122Y-81357409D01*
X68027590Y-81132877D01*
X68000834Y-81114999D01*
X68027590Y-81097121D01*
X68252122Y-80872589D01*
X68428536Y-80608567D01*
X68550052Y-80315202D01*
X68612000Y-80003767D01*
X68612000Y-79686231D01*
X68550052Y-79374796D01*
X68428536Y-79081431D01*
X68252122Y-78817409D01*
X68027590Y-78592877D01*
X68000834Y-78574999D01*
X68027590Y-78557121D01*
X68252122Y-78332589D01*
X68428536Y-78068567D01*
X68550052Y-77775202D01*
X68612000Y-77463767D01*
X68612000Y-77146231D01*
X68550052Y-76834796D01*
X68428536Y-76541431D01*
X68252122Y-76277409D01*
X68027590Y-76052877D01*
X68000834Y-76034999D01*
X68027590Y-76017121D01*
X68252122Y-75792589D01*
X68428536Y-75528567D01*
X68550052Y-75235202D01*
X68612000Y-74923767D01*
X68612000Y-74606231D01*
X68550052Y-74294796D01*
X68428536Y-74001431D01*
X68252122Y-73737409D01*
X68027590Y-73512877D01*
X68000834Y-73494999D01*
X68027590Y-73477121D01*
X68252122Y-73252589D01*
X68428536Y-72988567D01*
X68550052Y-72695202D01*
X68612000Y-72383767D01*
X68612000Y-72066231D01*
X68550052Y-71754796D01*
X68428536Y-71461431D01*
X68252122Y-71197409D01*
X68027590Y-70972877D01*
X68000834Y-70954999D01*
X68027590Y-70937121D01*
X68252122Y-70712589D01*
X68428536Y-70448567D01*
X68550052Y-70155202D01*
X68612000Y-69843767D01*
X68612000Y-69526231D01*
X68550052Y-69214796D01*
X68428536Y-68921431D01*
X68252122Y-68657409D01*
X68027590Y-68432877D01*
X68000834Y-68414999D01*
X68027590Y-68397121D01*
X68252122Y-68172589D01*
X68428536Y-67908567D01*
X68550052Y-67615202D01*
X68612000Y-67303767D01*
X68612000Y-66986231D01*
X68550052Y-66674796D01*
X68428536Y-66381431D01*
X68252122Y-66117409D01*
X68027590Y-65892877D01*
X68000834Y-65874999D01*
X68027590Y-65857121D01*
X68252122Y-65632589D01*
X68428536Y-65368567D01*
X68550052Y-65075202D01*
X68612000Y-64763767D01*
X68612000Y-64446231D01*
X68550052Y-64134796D01*
X68428536Y-63841431D01*
X68252122Y-63577409D01*
X68027590Y-63352877D01*
X68000834Y-63334999D01*
X68027590Y-63317121D01*
X68252122Y-63092589D01*
X68428536Y-62828567D01*
X68550052Y-62535202D01*
X68612000Y-62223767D01*
X68612000Y-61906231D01*
X68550052Y-61594796D01*
X68428536Y-61301431D01*
X68252122Y-61037409D01*
X68027590Y-60812877D01*
X68000834Y-60794999D01*
X68027590Y-60777121D01*
X68252122Y-60552589D01*
X68428536Y-60288567D01*
X68550052Y-59995202D01*
X68612000Y-59683767D01*
X68612000Y-59366231D01*
X68550052Y-59054796D01*
X68428536Y-58761431D01*
X68252122Y-58497409D01*
X68027590Y-58272877D01*
X68000834Y-58254999D01*
X68027590Y-58237121D01*
X68252122Y-58012589D01*
X68428536Y-57748567D01*
X68550052Y-57455202D01*
X68612000Y-57143767D01*
X68612000Y-56826231D01*
X68550052Y-56514796D01*
X68428536Y-56221431D01*
X68252122Y-55957409D01*
X68027590Y-55732877D01*
X68000834Y-55714999D01*
X68027590Y-55697121D01*
X68252122Y-55472589D01*
X68428536Y-55208567D01*
X68550052Y-54915202D01*
X68612000Y-54603767D01*
X68612000Y-54286231D01*
X68550052Y-53974796D01*
X68428536Y-53681431D01*
X68252122Y-53417409D01*
X68027590Y-53192877D01*
X68000834Y-53174999D01*
X68027590Y-53157121D01*
X68252122Y-52932589D01*
X68428536Y-52668567D01*
X68550052Y-52375202D01*
X68612000Y-52063767D01*
X68612000Y-51746231D01*
X68550052Y-51434796D01*
X68428536Y-51141431D01*
X68252122Y-50877409D01*
X68027590Y-50652877D01*
X68000834Y-50634999D01*
X68027590Y-50617121D01*
X68252122Y-50392589D01*
X68428536Y-50128567D01*
X68550052Y-49835202D01*
X68612000Y-49523767D01*
X68612000Y-49206231D01*
X68550052Y-48894796D01*
X68428536Y-48601431D01*
X68252122Y-48337409D01*
X68027590Y-48112877D01*
X68000834Y-48094999D01*
X68027590Y-48077121D01*
X68252122Y-47852589D01*
X68428536Y-47588567D01*
X68550052Y-47295202D01*
X68612000Y-46983767D01*
X68612000Y-46666231D01*
X68550052Y-46354796D01*
X68428536Y-46061431D01*
X68252122Y-45797409D01*
X68027590Y-45572877D01*
X67763568Y-45396463D01*
X67499301Y-45287000D01*
X69924884Y-45287000D01*
X69856985Y-45307597D01*
X69724608Y-45378354D01*
X69608578Y-45473577D01*
X69513355Y-45589607D01*
X69442598Y-45721984D01*
X69399026Y-45865621D01*
X69384314Y-46014999D01*
X69384314Y-47714999D01*
X69399026Y-47864377D01*
X69442598Y-48008014D01*
X69513355Y-48140391D01*
X69608578Y-48256421D01*
X69724608Y-48351644D01*
X69756563Y-48368724D01*
X69747878Y-48377409D01*
X69571464Y-48641431D01*
X69449948Y-48934796D01*
X69388000Y-49246231D01*
X69388000Y-49563767D01*
X69449948Y-49875202D01*
X69571464Y-50168567D01*
X69747878Y-50432589D01*
X69972410Y-50657121D01*
X69999166Y-50674999D01*
X69972410Y-50692877D01*
X69747878Y-50917409D01*
X69571464Y-51181431D01*
X69449948Y-51474796D01*
X69388000Y-51786231D01*
X69388000Y-52103767D01*
X69449948Y-52415202D01*
X69571464Y-52708567D01*
X69747878Y-52972589D01*
X69972410Y-53197121D01*
X69999166Y-53214999D01*
X69972410Y-53232877D01*
X69747878Y-53457409D01*
X69571464Y-53721431D01*
X69449948Y-54014796D01*
X69388000Y-54326231D01*
X69388000Y-54643767D01*
X69449948Y-54955202D01*
X69571464Y-55248567D01*
X69747878Y-55512589D01*
X69972410Y-55737121D01*
X69999166Y-55754999D01*
X69972410Y-55772877D01*
X69747878Y-55997409D01*
X69571464Y-56261431D01*
X69449948Y-56554796D01*
X69388000Y-56866231D01*
X69388000Y-57183767D01*
X69449948Y-57495202D01*
X69571464Y-57788567D01*
X69747878Y-58052589D01*
X69972410Y-58277121D01*
X69999166Y-58294999D01*
X69972410Y-58312877D01*
X69747878Y-58537409D01*
X69571464Y-58801431D01*
X69449948Y-59094796D01*
X69388000Y-59406231D01*
X69388000Y-59723767D01*
X69449948Y-60035202D01*
X69571464Y-60328567D01*
X69747878Y-60592589D01*
X69972410Y-60817121D01*
X69999166Y-60834999D01*
X69972410Y-60852877D01*
X69747878Y-61077409D01*
X69571464Y-61341431D01*
X69449948Y-61634796D01*
X69388000Y-61946231D01*
X69388000Y-62263767D01*
X69449948Y-62575202D01*
X69571464Y-62868567D01*
X69747878Y-63132589D01*
X69972410Y-63357121D01*
X69999166Y-63374999D01*
X69972410Y-63392877D01*
X69747878Y-63617409D01*
X69571464Y-63881431D01*
X69449948Y-64174796D01*
X69388000Y-64486231D01*
X69388000Y-64803767D01*
X69449948Y-65115202D01*
X69571464Y-65408567D01*
X69747878Y-65672589D01*
X69972410Y-65897121D01*
X69999166Y-65914999D01*
X69972410Y-65932877D01*
X69747878Y-66157409D01*
X69571464Y-66421431D01*
X69449948Y-66714796D01*
X69388000Y-67026231D01*
X69388000Y-67343767D01*
X69449948Y-67655202D01*
X69571464Y-67948567D01*
X69747878Y-68212589D01*
X69972410Y-68437121D01*
X69999166Y-68454999D01*
X69972410Y-68472877D01*
X69747878Y-68697409D01*
X69571464Y-68961431D01*
X69449948Y-69254796D01*
X69388000Y-69566231D01*
X69388000Y-69883767D01*
X69449948Y-70195202D01*
X69571464Y-70488567D01*
X69747878Y-70752589D01*
X69972410Y-70977121D01*
X69999166Y-70994999D01*
X69972410Y-71012877D01*
X69747878Y-71237409D01*
X69571464Y-71501431D01*
X69449948Y-71794796D01*
X69388000Y-72106231D01*
X69388000Y-72423767D01*
X69449948Y-72735202D01*
X69571464Y-73028567D01*
X69747878Y-73292589D01*
X69972410Y-73517121D01*
X69999166Y-73534999D01*
X69972410Y-73552877D01*
X69747878Y-73777409D01*
X69571464Y-74041431D01*
X69449948Y-74334796D01*
X69388000Y-74646231D01*
X69388000Y-74963767D01*
X69449948Y-75275202D01*
X69571464Y-75568567D01*
X69747878Y-75832589D01*
X69972410Y-76057121D01*
X69999166Y-76074999D01*
X69972410Y-76092877D01*
X69747878Y-76317409D01*
X69571464Y-76581431D01*
X69449948Y-76874796D01*
X69388000Y-77186231D01*
X69388000Y-77503767D01*
X69449948Y-77815202D01*
X69571464Y-78108567D01*
X69747878Y-78372589D01*
X69972410Y-78597121D01*
X69999166Y-78614999D01*
X69972410Y-78632877D01*
X69747878Y-78857409D01*
X69571464Y-79121431D01*
X69449948Y-79414796D01*
X69388000Y-79726231D01*
X69388000Y-80043767D01*
X69449948Y-80355202D01*
X69571464Y-80648567D01*
X69747878Y-80912589D01*
X69972410Y-81137121D01*
X69999166Y-81154999D01*
X69972410Y-81172877D01*
X69747878Y-81397409D01*
X69571464Y-81661431D01*
X69449948Y-81954796D01*
X69388000Y-82266231D01*
X69388000Y-82583767D01*
X69449948Y-82895202D01*
X69571464Y-83188567D01*
X69747878Y-83452589D01*
X69972410Y-83677121D01*
X69999166Y-83694999D01*
X69972410Y-83712877D01*
X69747878Y-83937409D01*
X69571464Y-84201431D01*
X69449948Y-84494796D01*
X69388000Y-84806231D01*
X69388000Y-85123767D01*
X69449948Y-85435202D01*
X69571464Y-85728567D01*
X69747878Y-85992589D01*
X69972410Y-86217121D01*
X69999166Y-86234999D01*
X69972410Y-86252877D01*
X69747878Y-86477409D01*
X69571464Y-86741431D01*
X69449948Y-87034796D01*
X69388000Y-87346231D01*
X69388000Y-87663767D01*
X69449948Y-87975202D01*
X69571464Y-88268567D01*
X69747878Y-88532589D01*
X69972410Y-88757121D01*
X70236432Y-88933535D01*
X70529797Y-89055051D01*
X70841232Y-89116999D01*
X71158768Y-89116999D01*
X71470203Y-89055051D01*
X71763568Y-88933535D01*
X72027590Y-88757121D01*
X72122711Y-88662000D01*
X73034314Y-88662000D01*
X73034314Y-88775000D01*
X73053830Y-88973151D01*
X73111628Y-89163686D01*
X73137987Y-89213000D01*
X37287000Y-89213000D01*
X37287000Y-88571711D01*
X37472410Y-88757121D01*
X37736432Y-88933535D01*
X38029797Y-89055051D01*
X38341232Y-89116999D01*
X38658768Y-89116999D01*
X38970203Y-89055051D01*
X39263568Y-88933535D01*
X39527590Y-88757121D01*
X39752122Y-88532589D01*
X39928536Y-88268567D01*
X40050052Y-87975202D01*
X40112000Y-87663767D01*
X40112000Y-87346231D01*
X40096610Y-87268862D01*
X40503473Y-86862000D01*
X42195272Y-86862000D01*
X42326985Y-86932402D01*
X42470622Y-86975974D01*
X42620000Y-86990686D01*
X44180000Y-86990686D01*
X44329378Y-86975974D01*
X44473015Y-86932402D01*
X44605392Y-86861645D01*
X44721422Y-86766422D01*
X44750000Y-86731599D01*
X44778578Y-86766422D01*
X44894608Y-86861645D01*
X45026985Y-86932402D01*
X45170622Y-86975974D01*
X45320000Y-86990686D01*
X46880000Y-86990686D01*
X47029378Y-86975974D01*
X47173015Y-86932402D01*
X47304728Y-86862000D01*
X48536529Y-86862000D01*
X48884314Y-87209785D01*
X48884314Y-88314999D01*
X48899026Y-88464377D01*
X48942598Y-88608014D01*
X49013355Y-88740391D01*
X49108578Y-88856421D01*
X49224608Y-88951644D01*
X49356985Y-89022401D01*
X49500622Y-89065973D01*
X49650000Y-89080685D01*
X51350000Y-89080685D01*
X51499378Y-89065973D01*
X51643015Y-89022401D01*
X51775392Y-88951644D01*
X51891422Y-88856421D01*
X51986645Y-88740391D01*
X52057402Y-88608014D01*
X52100974Y-88464377D01*
X52115686Y-88314999D01*
X52115686Y-86614999D01*
X52100974Y-86465621D01*
X52057402Y-86321984D01*
X51986645Y-86189607D01*
X51891422Y-86073577D01*
X51775392Y-85978354D01*
X51743437Y-85961274D01*
X51752122Y-85952589D01*
X51928536Y-85688567D01*
X52050052Y-85395202D01*
X52112000Y-85083767D01*
X52112000Y-84766231D01*
X52050052Y-84454796D01*
X51928536Y-84161431D01*
X51752122Y-83897409D01*
X51527590Y-83672877D01*
X51500834Y-83654999D01*
X51527590Y-83637121D01*
X51752122Y-83412589D01*
X51928536Y-83148567D01*
X52050052Y-82855202D01*
X52112000Y-82543767D01*
X52112000Y-82226231D01*
X52050052Y-81914796D01*
X51928536Y-81621431D01*
X51752122Y-81357409D01*
X51527590Y-81132877D01*
X51500834Y-81114999D01*
X51527590Y-81097121D01*
X51752122Y-80872589D01*
X51928536Y-80608567D01*
X52050052Y-80315202D01*
X52112000Y-80003767D01*
X52112000Y-79686231D01*
X52050052Y-79374796D01*
X51928536Y-79081431D01*
X51752122Y-78817409D01*
X51527590Y-78592877D01*
X51500834Y-78574999D01*
X51527590Y-78557121D01*
X51752122Y-78332589D01*
X51928536Y-78068567D01*
X52050052Y-77775202D01*
X52112000Y-77463767D01*
X52112000Y-77146231D01*
X52050052Y-76834796D01*
X51928536Y-76541431D01*
X51752122Y-76277409D01*
X51527590Y-76052877D01*
X51500834Y-76034999D01*
X51527590Y-76017121D01*
X51752122Y-75792589D01*
X51928536Y-75528567D01*
X52050052Y-75235202D01*
X52112000Y-74923767D01*
X52112000Y-74606231D01*
X52050052Y-74294796D01*
X51928536Y-74001431D01*
X51752122Y-73737409D01*
X51527590Y-73512877D01*
X51500834Y-73494999D01*
X51527590Y-73477121D01*
X51752122Y-73252589D01*
X51928536Y-72988567D01*
X52050052Y-72695202D01*
X52112000Y-72383767D01*
X52112000Y-72066231D01*
X52050052Y-71754796D01*
X51928536Y-71461431D01*
X51752122Y-71197409D01*
X51527590Y-70972877D01*
X51500834Y-70954999D01*
X51527590Y-70937121D01*
X51752122Y-70712589D01*
X51928536Y-70448567D01*
X52050052Y-70155202D01*
X52112000Y-69843767D01*
X52112000Y-69526231D01*
X52050052Y-69214796D01*
X51928536Y-68921431D01*
X51752122Y-68657409D01*
X51527590Y-68432877D01*
X51500834Y-68414999D01*
X51527590Y-68397121D01*
X51752122Y-68172589D01*
X51928536Y-67908567D01*
X52050052Y-67615202D01*
X52112000Y-67303767D01*
X52112000Y-66986231D01*
X52050052Y-66674796D01*
X51928536Y-66381431D01*
X51752122Y-66117409D01*
X51527590Y-65892877D01*
X51500834Y-65874999D01*
X51527590Y-65857121D01*
X51752122Y-65632589D01*
X51928536Y-65368567D01*
X52050052Y-65075202D01*
X52112000Y-64763767D01*
X52112000Y-64446231D01*
X52050052Y-64134796D01*
X51928536Y-63841431D01*
X51752122Y-63577409D01*
X51527590Y-63352877D01*
X51500834Y-63334999D01*
X51527590Y-63317121D01*
X51752122Y-63092589D01*
X51928536Y-62828567D01*
X52050052Y-62535202D01*
X52112000Y-62223767D01*
X52112000Y-61906231D01*
X52050052Y-61594796D01*
X51928536Y-61301431D01*
X51752122Y-61037409D01*
X51527590Y-60812877D01*
X51500834Y-60794999D01*
X51527590Y-60777121D01*
X51752122Y-60552589D01*
X51928536Y-60288567D01*
X52050052Y-59995202D01*
X52112000Y-59683767D01*
X52112000Y-59366231D01*
X52050052Y-59054796D01*
X51928536Y-58761431D01*
X51752122Y-58497409D01*
X51527590Y-58272877D01*
X51500834Y-58254999D01*
X51527590Y-58237121D01*
X51752122Y-58012589D01*
X51928536Y-57748567D01*
X52050052Y-57455202D01*
X52112000Y-57143767D01*
X52112000Y-56826231D01*
X52050052Y-56514796D01*
X51928536Y-56221431D01*
X51752122Y-55957409D01*
X51527590Y-55732877D01*
X51500834Y-55714999D01*
X51527590Y-55697121D01*
X51752122Y-55472589D01*
X51928536Y-55208567D01*
X52050052Y-54915202D01*
X52112000Y-54603767D01*
X52112000Y-54286231D01*
X52050052Y-53974796D01*
X51928536Y-53681431D01*
X51752122Y-53417409D01*
X51527590Y-53192877D01*
X51500834Y-53174999D01*
X51527590Y-53157121D01*
X51752122Y-52932589D01*
X51928536Y-52668567D01*
X52050052Y-52375202D01*
X52112000Y-52063767D01*
X52112000Y-51746231D01*
X52050052Y-51434796D01*
X51928536Y-51141431D01*
X51752122Y-50877409D01*
X51527590Y-50652877D01*
X51500834Y-50634999D01*
X51527590Y-50617121D01*
X51752122Y-50392589D01*
X51928536Y-50128567D01*
X52050052Y-49835202D01*
X52112000Y-49523767D01*
X52112000Y-49206231D01*
X52050052Y-48894796D01*
X51928536Y-48601431D01*
X51752122Y-48337409D01*
X51527590Y-48112877D01*
X51500834Y-48094999D01*
X51527590Y-48077121D01*
X51752122Y-47852589D01*
X51928536Y-47588567D01*
X52050052Y-47295202D01*
X52112000Y-46983767D01*
X52112000Y-46666231D01*
X52050052Y-46354796D01*
X51928536Y-46061431D01*
X51752122Y-45797409D01*
X51527590Y-45572877D01*
X51263568Y-45396463D01*
X50999301Y-45287000D01*
X53424884Y-45287000D01*
X53356985Y-45307597D01*
%TA.AperFunction,NonConductor*%
D19*
G36*
X53356985Y-45307597D02*
G01*
X53224608Y-45378354D01*
X53108578Y-45473577D01*
X53013355Y-45589607D01*
X52942598Y-45721984D01*
X52899026Y-45865621D01*
X52884314Y-46014999D01*
X52884314Y-47714999D01*
X52899026Y-47864377D01*
X52942598Y-48008014D01*
X53013355Y-48140391D01*
X53108578Y-48256421D01*
X53224608Y-48351644D01*
X53256563Y-48368724D01*
X53247878Y-48377409D01*
X53071464Y-48641431D01*
X52949948Y-48934796D01*
X52888000Y-49246231D01*
X52888000Y-49563767D01*
X52949948Y-49875202D01*
X53071464Y-50168567D01*
X53247878Y-50432589D01*
X53472410Y-50657121D01*
X53499166Y-50674999D01*
X53472410Y-50692877D01*
X53247878Y-50917409D01*
X53071464Y-51181431D01*
X52949948Y-51474796D01*
X52888000Y-51786231D01*
X52888000Y-52103767D01*
X52949948Y-52415202D01*
X53071464Y-52708567D01*
X53247878Y-52972589D01*
X53472410Y-53197121D01*
X53499166Y-53214999D01*
X53472410Y-53232877D01*
X53247878Y-53457409D01*
X53071464Y-53721431D01*
X52949948Y-54014796D01*
X52888000Y-54326231D01*
X52888000Y-54643767D01*
X52949948Y-54955202D01*
X53071464Y-55248567D01*
X53247878Y-55512589D01*
X53472410Y-55737121D01*
X53499166Y-55754999D01*
X53472410Y-55772877D01*
X53247878Y-55997409D01*
X53071464Y-56261431D01*
X52949948Y-56554796D01*
X52888000Y-56866231D01*
X52888000Y-57183767D01*
X52949948Y-57495202D01*
X53071464Y-57788567D01*
X53247878Y-58052589D01*
X53472410Y-58277121D01*
X53499166Y-58294999D01*
X53472410Y-58312877D01*
X53247878Y-58537409D01*
X53071464Y-58801431D01*
X52949948Y-59094796D01*
X52888000Y-59406231D01*
X52888000Y-59723767D01*
X52949948Y-60035202D01*
X53071464Y-60328567D01*
X53247878Y-60592589D01*
X53472410Y-60817121D01*
X53499166Y-60834999D01*
X53472410Y-60852877D01*
X53247878Y-61077409D01*
X53071464Y-61341431D01*
X52949948Y-61634796D01*
X52888000Y-61946231D01*
X52888000Y-62263767D01*
X52949948Y-62575202D01*
X53071464Y-62868567D01*
X53247878Y-63132589D01*
X53472410Y-63357121D01*
X53499166Y-63374999D01*
X53472410Y-63392877D01*
X53247878Y-63617409D01*
X53071464Y-63881431D01*
X52949948Y-64174796D01*
X52888000Y-64486231D01*
X52888000Y-64803767D01*
X52949948Y-65115202D01*
X53071464Y-65408567D01*
X53247878Y-65672589D01*
X53472410Y-65897121D01*
X53499166Y-65914999D01*
X53472410Y-65932877D01*
X53247878Y-66157409D01*
X53071464Y-66421431D01*
X52949948Y-66714796D01*
X52888000Y-67026231D01*
X52888000Y-67343767D01*
X52949948Y-67655202D01*
X53071464Y-67948567D01*
X53247878Y-68212589D01*
X53472410Y-68437121D01*
X53499166Y-68454999D01*
X53472410Y-68472877D01*
X53247878Y-68697409D01*
X53071464Y-68961431D01*
X52949948Y-69254796D01*
X52888000Y-69566231D01*
X52888000Y-69883767D01*
X52949948Y-70195202D01*
X53071464Y-70488567D01*
X53247878Y-70752589D01*
X53472410Y-70977121D01*
X53499166Y-70994999D01*
X53472410Y-71012877D01*
X53247878Y-71237409D01*
X53071464Y-71501431D01*
X52949948Y-71794796D01*
X52888000Y-72106231D01*
X52888000Y-72423767D01*
X52949948Y-72735202D01*
X53071464Y-73028567D01*
X53247878Y-73292589D01*
X53472410Y-73517121D01*
X53499166Y-73534999D01*
X53472410Y-73552877D01*
X53247878Y-73777409D01*
X53071464Y-74041431D01*
X52949948Y-74334796D01*
X52888000Y-74646231D01*
X52888000Y-74963767D01*
X52949948Y-75275202D01*
X53071464Y-75568567D01*
X53247878Y-75832589D01*
X53472410Y-76057121D01*
X53499166Y-76074999D01*
X53472410Y-76092877D01*
X53247878Y-76317409D01*
X53071464Y-76581431D01*
X52949948Y-76874796D01*
X52888000Y-77186231D01*
X52888000Y-77503767D01*
X52949948Y-77815202D01*
X53071464Y-78108567D01*
X53247878Y-78372589D01*
X53472410Y-78597121D01*
X53499166Y-78614999D01*
X53472410Y-78632877D01*
X53247878Y-78857409D01*
X53071464Y-79121431D01*
X52949948Y-79414796D01*
X52888000Y-79726231D01*
X52888000Y-80043767D01*
X52949948Y-80355202D01*
X53071464Y-80648567D01*
X53247878Y-80912589D01*
X53472410Y-81137121D01*
X53499166Y-81154999D01*
X53472410Y-81172877D01*
X53247878Y-81397409D01*
X53071464Y-81661431D01*
X52949948Y-81954796D01*
X52888000Y-82266231D01*
X52888000Y-82583767D01*
X52949948Y-82895202D01*
X53071464Y-83188567D01*
X53247878Y-83452589D01*
X53472410Y-83677121D01*
X53499166Y-83694999D01*
X53472410Y-83712877D01*
X53247878Y-83937409D01*
X53071464Y-84201431D01*
X52949948Y-84494796D01*
X52888000Y-84806231D01*
X52888000Y-85123767D01*
X52949948Y-85435202D01*
X53071464Y-85728567D01*
X53247878Y-85992589D01*
X53472410Y-86217121D01*
X53499166Y-86234999D01*
X53472410Y-86252877D01*
X53247878Y-86477409D01*
X53071464Y-86741431D01*
X52949948Y-87034796D01*
X52888000Y-87346231D01*
X52888000Y-87663767D01*
X52949948Y-87975202D01*
X53071464Y-88268567D01*
X53247878Y-88532589D01*
X53472410Y-88757121D01*
X53736432Y-88933535D01*
X54029797Y-89055051D01*
X54341232Y-89116999D01*
X54658768Y-89116999D01*
X54970203Y-89055051D01*
X55263568Y-88933535D01*
X55527590Y-88757121D01*
X55752122Y-88532589D01*
X55928536Y-88268567D01*
X56050052Y-87975202D01*
X56112000Y-87663767D01*
X56112000Y-87346231D01*
X56096610Y-87268862D01*
X56498473Y-86867000D01*
X56786003Y-86867000D01*
X56849582Y-86900984D01*
X57021359Y-86953091D01*
X57200000Y-86970686D01*
X58850000Y-86970686D01*
X59028641Y-86953091D01*
X59200418Y-86900984D01*
X59358728Y-86816365D01*
X59497488Y-86702488D01*
X59611365Y-86563728D01*
X59695984Y-86405418D01*
X59748091Y-86233641D01*
X59765686Y-86055000D01*
X59765686Y-85755000D01*
X59748091Y-85576359D01*
X59695984Y-85404582D01*
X59624048Y-85270000D01*
X59695984Y-85135418D01*
X59748091Y-84963641D01*
X59765686Y-84785000D01*
X59765686Y-84485000D01*
X59748091Y-84306359D01*
X59695984Y-84134582D01*
X59624048Y-84000000D01*
X59695984Y-83865418D01*
X59748091Y-83693641D01*
X59765686Y-83515000D01*
X59765686Y-83215000D01*
X59748091Y-83036359D01*
X59695984Y-82864582D01*
X59624048Y-82730000D01*
X59695984Y-82595418D01*
X59748091Y-82423641D01*
X59765686Y-82245000D01*
X59765686Y-81945000D01*
X59748091Y-81766359D01*
X59695984Y-81594582D01*
X59611365Y-81436272D01*
X59497488Y-81297512D01*
X59358728Y-81183635D01*
X59200418Y-81099016D01*
X59028641Y-81046909D01*
X58850000Y-81029314D01*
X57200000Y-81029314D01*
X57022292Y-81046817D01*
X56096610Y-80121136D01*
X56112000Y-80043767D01*
X56112000Y-79726231D01*
X56050052Y-79414796D01*
X55928536Y-79121431D01*
X55752122Y-78857409D01*
X55527590Y-78632877D01*
X55500834Y-78614999D01*
X55527590Y-78597121D01*
X55752122Y-78372589D01*
X55928536Y-78108567D01*
X56050052Y-77815202D01*
X56112000Y-77503767D01*
X56112000Y-77186231D01*
X56096610Y-77108861D01*
X56293472Y-76912000D01*
X58295272Y-76912000D01*
X58426985Y-76982402D01*
X58570622Y-77025974D01*
X58720000Y-77040686D01*
X60280000Y-77040686D01*
X60429378Y-77025974D01*
X60573015Y-76982402D01*
X60705392Y-76911645D01*
X60821422Y-76816422D01*
X60850000Y-76781599D01*
X60878578Y-76816422D01*
X60994608Y-76911645D01*
X61126985Y-76982402D01*
X61270622Y-77025974D01*
X61420000Y-77040686D01*
X62980000Y-77040686D01*
X63129378Y-77025974D01*
X63273015Y-76982402D01*
X63404728Y-76912000D01*
X65246529Y-76912000D01*
X65403390Y-77068861D01*
X65388000Y-77146231D01*
X65388000Y-77463767D01*
X65449948Y-77775202D01*
X65571464Y-78068567D01*
X65747878Y-78332589D01*
X65972410Y-78557121D01*
X65999166Y-78574999D01*
X65972410Y-78592877D01*
X65747878Y-78817409D01*
X65571464Y-79081431D01*
X65449948Y-79374796D01*
X65388000Y-79686231D01*
X65388000Y-80003767D01*
X65403390Y-80081137D01*
X64351527Y-81133000D01*
X64213997Y-81133000D01*
X64150418Y-81099016D01*
X63978641Y-81046909D01*
X63800000Y-81029314D01*
X62150000Y-81029314D01*
X61971359Y-81046909D01*
X61799582Y-81099016D01*
X61641272Y-81183635D01*
X61502512Y-81297512D01*
X61388635Y-81436272D01*
X61304016Y-81594582D01*
X61251909Y-81766359D01*
X61234314Y-81945000D01*
X61234314Y-82245000D01*
X61251909Y-82423641D01*
X61304016Y-82595418D01*
X61375952Y-82730000D01*
X61304016Y-82864582D01*
X61251909Y-83036359D01*
X61234314Y-83215000D01*
X61234314Y-83515000D01*
X61251909Y-83693641D01*
X61304016Y-83865418D01*
X61375952Y-84000000D01*
X61304016Y-84134582D01*
X61251909Y-84306359D01*
X61234314Y-84485000D01*
X61234314Y-84785000D01*
X61251909Y-84963641D01*
X61304016Y-85135418D01*
X61375952Y-85270000D01*
X61304016Y-85404582D01*
X61251909Y-85576359D01*
X61234314Y-85755000D01*
X61234314Y-86055000D01*
X61251909Y-86233641D01*
X61304016Y-86405418D01*
X61388635Y-86563728D01*
X61502512Y-86702488D01*
X61641272Y-86816365D01*
X61799582Y-86900984D01*
X61971359Y-86953091D01*
X62150000Y-86970686D01*
X63800000Y-86970686D01*
X63978641Y-86953091D01*
X64150418Y-86900984D01*
X64213997Y-86867000D01*
X65041529Y-86867000D01*
X65384314Y-87209785D01*
X65384314Y-88314999D01*
X65399026Y-88464377D01*
X65442598Y-88608014D01*
X65513355Y-88740391D01*
X65608578Y-88856421D01*
X65724608Y-88951644D01*
X65856985Y-89022401D01*
X66000622Y-89065973D01*
X66150000Y-89080685D01*
X67850000Y-89080685D01*
X67999378Y-89065973D01*
X68143015Y-89022401D01*
X68275392Y-88951644D01*
X68391422Y-88856421D01*
X68486645Y-88740391D01*
X68557402Y-88608014D01*
X68600974Y-88464377D01*
X68615686Y-88314999D01*
X68615686Y-86614999D01*
X68600974Y-86465621D01*
X68557402Y-86321984D01*
X68486645Y-86189607D01*
X68391422Y-86073577D01*
X68275392Y-85978354D01*
X68243437Y-85961274D01*
X68252122Y-85952589D01*
X68428536Y-85688567D01*
X68550052Y-85395202D01*
X68612000Y-85083767D01*
X68612000Y-84766231D01*
X68550052Y-84454796D01*
X68428536Y-84161431D01*
X68252122Y-83897409D01*
X68027590Y-83672877D01*
X68000834Y-83654999D01*
X68027590Y-83637121D01*
X68252122Y-83412589D01*
X68428536Y-83148567D01*
X68550052Y-82855202D01*
X68612000Y-82543767D01*
X68612000Y-82226231D01*
X68550052Y-81914796D01*
X68428536Y-81621431D01*
X68252122Y-81357409D01*
X68027590Y-81132877D01*
X68000834Y-81114999D01*
X68027590Y-81097121D01*
X68252122Y-80872589D01*
X68428536Y-80608567D01*
X68550052Y-80315202D01*
X68612000Y-80003767D01*
X68612000Y-79686231D01*
X68550052Y-79374796D01*
X68428536Y-79081431D01*
X68252122Y-78817409D01*
X68027590Y-78592877D01*
X68000834Y-78574999D01*
X68027590Y-78557121D01*
X68252122Y-78332589D01*
X68428536Y-78068567D01*
X68550052Y-77775202D01*
X68612000Y-77463767D01*
X68612000Y-77146231D01*
X68550052Y-76834796D01*
X68428536Y-76541431D01*
X68252122Y-76277409D01*
X68027590Y-76052877D01*
X68000834Y-76034999D01*
X68027590Y-76017121D01*
X68252122Y-75792589D01*
X68428536Y-75528567D01*
X68550052Y-75235202D01*
X68612000Y-74923767D01*
X68612000Y-74606231D01*
X68550052Y-74294796D01*
X68428536Y-74001431D01*
X68252122Y-73737409D01*
X68027590Y-73512877D01*
X68000834Y-73494999D01*
X68027590Y-73477121D01*
X68252122Y-73252589D01*
X68428536Y-72988567D01*
X68550052Y-72695202D01*
X68612000Y-72383767D01*
X68612000Y-72066231D01*
X68550052Y-71754796D01*
X68428536Y-71461431D01*
X68252122Y-71197409D01*
X68027590Y-70972877D01*
X68000834Y-70954999D01*
X68027590Y-70937121D01*
X68252122Y-70712589D01*
X68428536Y-70448567D01*
X68550052Y-70155202D01*
X68612000Y-69843767D01*
X68612000Y-69526231D01*
X68550052Y-69214796D01*
X68428536Y-68921431D01*
X68252122Y-68657409D01*
X68027590Y-68432877D01*
X68000834Y-68414999D01*
X68027590Y-68397121D01*
X68252122Y-68172589D01*
X68428536Y-67908567D01*
X68550052Y-67615202D01*
X68612000Y-67303767D01*
X68612000Y-66986231D01*
X68550052Y-66674796D01*
X68428536Y-66381431D01*
X68252122Y-66117409D01*
X68027590Y-65892877D01*
X68000834Y-65874999D01*
X68027590Y-65857121D01*
X68252122Y-65632589D01*
X68428536Y-65368567D01*
X68550052Y-65075202D01*
X68612000Y-64763767D01*
X68612000Y-64446231D01*
X68550052Y-64134796D01*
X68428536Y-63841431D01*
X68252122Y-63577409D01*
X68027590Y-63352877D01*
X68000834Y-63334999D01*
X68027590Y-63317121D01*
X68252122Y-63092589D01*
X68428536Y-62828567D01*
X68550052Y-62535202D01*
X68612000Y-62223767D01*
X68612000Y-61906231D01*
X68550052Y-61594796D01*
X68428536Y-61301431D01*
X68252122Y-61037409D01*
X68027590Y-60812877D01*
X68000834Y-60794999D01*
X68027590Y-60777121D01*
X68252122Y-60552589D01*
X68428536Y-60288567D01*
X68550052Y-59995202D01*
X68612000Y-59683767D01*
X68612000Y-59366231D01*
X68550052Y-59054796D01*
X68428536Y-58761431D01*
X68252122Y-58497409D01*
X68027590Y-58272877D01*
X68000834Y-58254999D01*
X68027590Y-58237121D01*
X68252122Y-58012589D01*
X68428536Y-57748567D01*
X68550052Y-57455202D01*
X68612000Y-57143767D01*
X68612000Y-56826231D01*
X68550052Y-56514796D01*
X68428536Y-56221431D01*
X68252122Y-55957409D01*
X68027590Y-55732877D01*
X68000834Y-55714999D01*
X68027590Y-55697121D01*
X68252122Y-55472589D01*
X68428536Y-55208567D01*
X68550052Y-54915202D01*
X68612000Y-54603767D01*
X68612000Y-54286231D01*
X68550052Y-53974796D01*
X68428536Y-53681431D01*
X68252122Y-53417409D01*
X68027590Y-53192877D01*
X68000834Y-53174999D01*
X68027590Y-53157121D01*
X68252122Y-52932589D01*
X68428536Y-52668567D01*
X68550052Y-52375202D01*
X68612000Y-52063767D01*
X68612000Y-51746231D01*
X68550052Y-51434796D01*
X68428536Y-51141431D01*
X68252122Y-50877409D01*
X68027590Y-50652877D01*
X68000834Y-50634999D01*
X68027590Y-50617121D01*
X68252122Y-50392589D01*
X68428536Y-50128567D01*
X68550052Y-49835202D01*
X68612000Y-49523767D01*
X68612000Y-49206231D01*
X68550052Y-48894796D01*
X68428536Y-48601431D01*
X68252122Y-48337409D01*
X68027590Y-48112877D01*
X68000834Y-48094999D01*
X68027590Y-48077121D01*
X68252122Y-47852589D01*
X68428536Y-47588567D01*
X68550052Y-47295202D01*
X68612000Y-46983767D01*
X68612000Y-46666231D01*
X68550052Y-46354796D01*
X68428536Y-46061431D01*
X68252122Y-45797409D01*
X68027590Y-45572877D01*
X67763568Y-45396463D01*
X67499301Y-45287000D01*
X69924884Y-45287000D01*
X69856985Y-45307597D01*
X69724608Y-45378354D01*
X69608578Y-45473577D01*
X69513355Y-45589607D01*
X69442598Y-45721984D01*
X69399026Y-45865621D01*
X69384314Y-46014999D01*
X69384314Y-47714999D01*
X69399026Y-47864377D01*
X69442598Y-48008014D01*
X69513355Y-48140391D01*
X69608578Y-48256421D01*
X69724608Y-48351644D01*
X69756563Y-48368724D01*
X69747878Y-48377409D01*
X69571464Y-48641431D01*
X69449948Y-48934796D01*
X69388000Y-49246231D01*
X69388000Y-49563767D01*
X69449948Y-49875202D01*
X69571464Y-50168567D01*
X69747878Y-50432589D01*
X69972410Y-50657121D01*
X69999166Y-50674999D01*
X69972410Y-50692877D01*
X69747878Y-50917409D01*
X69571464Y-51181431D01*
X69449948Y-51474796D01*
X69388000Y-51786231D01*
X69388000Y-52103767D01*
X69449948Y-52415202D01*
X69571464Y-52708567D01*
X69747878Y-52972589D01*
X69972410Y-53197121D01*
X69999166Y-53214999D01*
X69972410Y-53232877D01*
X69747878Y-53457409D01*
X69571464Y-53721431D01*
X69449948Y-54014796D01*
X69388000Y-54326231D01*
X69388000Y-54643767D01*
X69449948Y-54955202D01*
X69571464Y-55248567D01*
X69747878Y-55512589D01*
X69972410Y-55737121D01*
X69999166Y-55754999D01*
X69972410Y-55772877D01*
X69747878Y-55997409D01*
X69571464Y-56261431D01*
X69449948Y-56554796D01*
X69388000Y-56866231D01*
X69388000Y-57183767D01*
X69449948Y-57495202D01*
X69571464Y-57788567D01*
X69747878Y-58052589D01*
X69972410Y-58277121D01*
X69999166Y-58294999D01*
X69972410Y-58312877D01*
X69747878Y-58537409D01*
X69571464Y-58801431D01*
X69449948Y-59094796D01*
X69388000Y-59406231D01*
X69388000Y-59723767D01*
X69449948Y-60035202D01*
X69571464Y-60328567D01*
X69747878Y-60592589D01*
X69972410Y-60817121D01*
X69999166Y-60834999D01*
X69972410Y-60852877D01*
X69747878Y-61077409D01*
X69571464Y-61341431D01*
X69449948Y-61634796D01*
X69388000Y-61946231D01*
X69388000Y-62263767D01*
X69449948Y-62575202D01*
X69571464Y-62868567D01*
X69747878Y-63132589D01*
X69972410Y-63357121D01*
X69999166Y-63374999D01*
X69972410Y-63392877D01*
X69747878Y-63617409D01*
X69571464Y-63881431D01*
X69449948Y-64174796D01*
X69388000Y-64486231D01*
X69388000Y-64803767D01*
X69449948Y-65115202D01*
X69571464Y-65408567D01*
X69747878Y-65672589D01*
X69972410Y-65897121D01*
X69999166Y-65914999D01*
X69972410Y-65932877D01*
X69747878Y-66157409D01*
X69571464Y-66421431D01*
X69449948Y-66714796D01*
X69388000Y-67026231D01*
X69388000Y-67343767D01*
X69449948Y-67655202D01*
X69571464Y-67948567D01*
X69747878Y-68212589D01*
X69972410Y-68437121D01*
X69999166Y-68454999D01*
X69972410Y-68472877D01*
X69747878Y-68697409D01*
X69571464Y-68961431D01*
X69449948Y-69254796D01*
X69388000Y-69566231D01*
X69388000Y-69883767D01*
X69449948Y-70195202D01*
X69571464Y-70488567D01*
X69747878Y-70752589D01*
X69972410Y-70977121D01*
X69999166Y-70994999D01*
X69972410Y-71012877D01*
X69747878Y-71237409D01*
X69571464Y-71501431D01*
X69449948Y-71794796D01*
X69388000Y-72106231D01*
X69388000Y-72423767D01*
X69449948Y-72735202D01*
X69571464Y-73028567D01*
X69747878Y-73292589D01*
X69972410Y-73517121D01*
X69999166Y-73534999D01*
X69972410Y-73552877D01*
X69747878Y-73777409D01*
X69571464Y-74041431D01*
X69449948Y-74334796D01*
X69388000Y-74646231D01*
X69388000Y-74963767D01*
X69449948Y-75275202D01*
X69571464Y-75568567D01*
X69747878Y-75832589D01*
X69972410Y-76057121D01*
X69999166Y-76074999D01*
X69972410Y-76092877D01*
X69747878Y-76317409D01*
X69571464Y-76581431D01*
X69449948Y-76874796D01*
X69388000Y-77186231D01*
X69388000Y-77503767D01*
X69449948Y-77815202D01*
X69571464Y-78108567D01*
X69747878Y-78372589D01*
X69972410Y-78597121D01*
X69999166Y-78614999D01*
X69972410Y-78632877D01*
X69747878Y-78857409D01*
X69571464Y-79121431D01*
X69449948Y-79414796D01*
X69388000Y-79726231D01*
X69388000Y-80043767D01*
X69449948Y-80355202D01*
X69571464Y-80648567D01*
X69747878Y-80912589D01*
X69972410Y-81137121D01*
X69999166Y-81154999D01*
X69972410Y-81172877D01*
X69747878Y-81397409D01*
X69571464Y-81661431D01*
X69449948Y-81954796D01*
X69388000Y-82266231D01*
X69388000Y-82583767D01*
X69449948Y-82895202D01*
X69571464Y-83188567D01*
X69747878Y-83452589D01*
X69972410Y-83677121D01*
X69999166Y-83694999D01*
X69972410Y-83712877D01*
X69747878Y-83937409D01*
X69571464Y-84201431D01*
X69449948Y-84494796D01*
X69388000Y-84806231D01*
X69388000Y-85123767D01*
X69449948Y-85435202D01*
X69571464Y-85728567D01*
X69747878Y-85992589D01*
X69972410Y-86217121D01*
X69999166Y-86234999D01*
X69972410Y-86252877D01*
X69747878Y-86477409D01*
X69571464Y-86741431D01*
X69449948Y-87034796D01*
X69388000Y-87346231D01*
X69388000Y-87663767D01*
X69449948Y-87975202D01*
X69571464Y-88268567D01*
X69747878Y-88532589D01*
X69972410Y-88757121D01*
X70236432Y-88933535D01*
X70529797Y-89055051D01*
X70841232Y-89116999D01*
X71158768Y-89116999D01*
X71470203Y-89055051D01*
X71763568Y-88933535D01*
X72027590Y-88757121D01*
X72122711Y-88662000D01*
X73034314Y-88662000D01*
X73034314Y-88775000D01*
X73053830Y-88973151D01*
X73111628Y-89163686D01*
X73137987Y-89213000D01*
X37287000Y-89213000D01*
X37287000Y-88571711D01*
X37472410Y-88757121D01*
X37736432Y-88933535D01*
X38029797Y-89055051D01*
X38341232Y-89116999D01*
X38658768Y-89116999D01*
X38970203Y-89055051D01*
X39263568Y-88933535D01*
X39527590Y-88757121D01*
X39752122Y-88532589D01*
X39928536Y-88268567D01*
X40050052Y-87975202D01*
X40112000Y-87663767D01*
X40112000Y-87346231D01*
X40096610Y-87268862D01*
X40503473Y-86862000D01*
X42195272Y-86862000D01*
X42326985Y-86932402D01*
X42470622Y-86975974D01*
X42620000Y-86990686D01*
X44180000Y-86990686D01*
X44329378Y-86975974D01*
X44473015Y-86932402D01*
X44605392Y-86861645D01*
X44721422Y-86766422D01*
X44750000Y-86731599D01*
X44778578Y-86766422D01*
X44894608Y-86861645D01*
X45026985Y-86932402D01*
X45170622Y-86975974D01*
X45320000Y-86990686D01*
X46880000Y-86990686D01*
X47029378Y-86975974D01*
X47173015Y-86932402D01*
X47304728Y-86862000D01*
X48536529Y-86862000D01*
X48884314Y-87209785D01*
X48884314Y-88314999D01*
X48899026Y-88464377D01*
X48942598Y-88608014D01*
X49013355Y-88740391D01*
X49108578Y-88856421D01*
X49224608Y-88951644D01*
X49356985Y-89022401D01*
X49500622Y-89065973D01*
X49650000Y-89080685D01*
X51350000Y-89080685D01*
X51499378Y-89065973D01*
X51643015Y-89022401D01*
X51775392Y-88951644D01*
X51891422Y-88856421D01*
X51986645Y-88740391D01*
X52057402Y-88608014D01*
X52100974Y-88464377D01*
X52115686Y-88314999D01*
X52115686Y-86614999D01*
X52100974Y-86465621D01*
X52057402Y-86321984D01*
X51986645Y-86189607D01*
X51891422Y-86073577D01*
X51775392Y-85978354D01*
X51743437Y-85961274D01*
X51752122Y-85952589D01*
X51928536Y-85688567D01*
X52050052Y-85395202D01*
X52112000Y-85083767D01*
X52112000Y-84766231D01*
X52050052Y-84454796D01*
X51928536Y-84161431D01*
X51752122Y-83897409D01*
X51527590Y-83672877D01*
X51500834Y-83654999D01*
X51527590Y-83637121D01*
X51752122Y-83412589D01*
X51928536Y-83148567D01*
X52050052Y-82855202D01*
X52112000Y-82543767D01*
X52112000Y-82226231D01*
X52050052Y-81914796D01*
X51928536Y-81621431D01*
X51752122Y-81357409D01*
X51527590Y-81132877D01*
X51500834Y-81114999D01*
X51527590Y-81097121D01*
X51752122Y-80872589D01*
X51928536Y-80608567D01*
X52050052Y-80315202D01*
X52112000Y-80003767D01*
X52112000Y-79686231D01*
X52050052Y-79374796D01*
X51928536Y-79081431D01*
X51752122Y-78817409D01*
X51527590Y-78592877D01*
X51500834Y-78574999D01*
X51527590Y-78557121D01*
X51752122Y-78332589D01*
X51928536Y-78068567D01*
X52050052Y-77775202D01*
X52112000Y-77463767D01*
X52112000Y-77146231D01*
X52050052Y-76834796D01*
X51928536Y-76541431D01*
X51752122Y-76277409D01*
X51527590Y-76052877D01*
X51500834Y-76034999D01*
X51527590Y-76017121D01*
X51752122Y-75792589D01*
X51928536Y-75528567D01*
X52050052Y-75235202D01*
X52112000Y-74923767D01*
X52112000Y-74606231D01*
X52050052Y-74294796D01*
X51928536Y-74001431D01*
X51752122Y-73737409D01*
X51527590Y-73512877D01*
X51500834Y-73494999D01*
X51527590Y-73477121D01*
X51752122Y-73252589D01*
X51928536Y-72988567D01*
X52050052Y-72695202D01*
X52112000Y-72383767D01*
X52112000Y-72066231D01*
X52050052Y-71754796D01*
X51928536Y-71461431D01*
X51752122Y-71197409D01*
X51527590Y-70972877D01*
X51500834Y-70954999D01*
X51527590Y-70937121D01*
X51752122Y-70712589D01*
X51928536Y-70448567D01*
X52050052Y-70155202D01*
X52112000Y-69843767D01*
X52112000Y-69526231D01*
X52050052Y-69214796D01*
X51928536Y-68921431D01*
X51752122Y-68657409D01*
X51527590Y-68432877D01*
X51500834Y-68414999D01*
X51527590Y-68397121D01*
X51752122Y-68172589D01*
X51928536Y-67908567D01*
X52050052Y-67615202D01*
X52112000Y-67303767D01*
X52112000Y-66986231D01*
X52050052Y-66674796D01*
X51928536Y-66381431D01*
X51752122Y-66117409D01*
X51527590Y-65892877D01*
X51500834Y-65874999D01*
X51527590Y-65857121D01*
X51752122Y-65632589D01*
X51928536Y-65368567D01*
X52050052Y-65075202D01*
X52112000Y-64763767D01*
X52112000Y-64446231D01*
X52050052Y-64134796D01*
X51928536Y-63841431D01*
X51752122Y-63577409D01*
X51527590Y-63352877D01*
X51500834Y-63334999D01*
X51527590Y-63317121D01*
X51752122Y-63092589D01*
X51928536Y-62828567D01*
X52050052Y-62535202D01*
X52112000Y-62223767D01*
X52112000Y-61906231D01*
X52050052Y-61594796D01*
X51928536Y-61301431D01*
X51752122Y-61037409D01*
X51527590Y-60812877D01*
X51500834Y-60794999D01*
X51527590Y-60777121D01*
X51752122Y-60552589D01*
X51928536Y-60288567D01*
X52050052Y-59995202D01*
X52112000Y-59683767D01*
X52112000Y-59366231D01*
X52050052Y-59054796D01*
X51928536Y-58761431D01*
X51752122Y-58497409D01*
X51527590Y-58272877D01*
X51500834Y-58254999D01*
X51527590Y-58237121D01*
X51752122Y-58012589D01*
X51928536Y-57748567D01*
X52050052Y-57455202D01*
X52112000Y-57143767D01*
X52112000Y-56826231D01*
X52050052Y-56514796D01*
X51928536Y-56221431D01*
X51752122Y-55957409D01*
X51527590Y-55732877D01*
X51500834Y-55714999D01*
X51527590Y-55697121D01*
X51752122Y-55472589D01*
X51928536Y-55208567D01*
X52050052Y-54915202D01*
X52112000Y-54603767D01*
X52112000Y-54286231D01*
X52050052Y-53974796D01*
X51928536Y-53681431D01*
X51752122Y-53417409D01*
X51527590Y-53192877D01*
X51500834Y-53174999D01*
X51527590Y-53157121D01*
X51752122Y-52932589D01*
X51928536Y-52668567D01*
X52050052Y-52375202D01*
X52112000Y-52063767D01*
X52112000Y-51746231D01*
X52050052Y-51434796D01*
X51928536Y-51141431D01*
X51752122Y-50877409D01*
X51527590Y-50652877D01*
X51500834Y-50634999D01*
X51527590Y-50617121D01*
X51752122Y-50392589D01*
X51928536Y-50128567D01*
X52050052Y-49835202D01*
X52112000Y-49523767D01*
X52112000Y-49206231D01*
X52050052Y-48894796D01*
X51928536Y-48601431D01*
X51752122Y-48337409D01*
X51527590Y-48112877D01*
X51500834Y-48094999D01*
X51527590Y-48077121D01*
X51752122Y-47852589D01*
X51928536Y-47588567D01*
X52050052Y-47295202D01*
X52112000Y-46983767D01*
X52112000Y-46666231D01*
X52050052Y-46354796D01*
X51928536Y-46061431D01*
X51752122Y-45797409D01*
X51527590Y-45572877D01*
X51263568Y-45396463D01*
X50999301Y-45287000D01*
X53424884Y-45287000D01*
X53356985Y-45307597D01*
G37*
%TD.AperFunction*%
D18*
X79571464Y-85688567D02*
X79747878Y-85952589D01*
X79756563Y-85961274D01*
X79724608Y-85978354D01*
X79608578Y-86073577D01*
X79513355Y-86189607D01*
X79442598Y-86321984D01*
X79399026Y-86465621D01*
X79384314Y-86614999D01*
X79384314Y-86738000D01*
X78965686Y-86738000D01*
X78965686Y-86625000D01*
X78946170Y-86426849D01*
X78888372Y-86236314D01*
X78815510Y-86100000D01*
X78888372Y-85963686D01*
X78946170Y-85773151D01*
X78965686Y-85575000D01*
X78965686Y-85462000D01*
X79477617Y-85462000D01*
X79571464Y-85688567D01*
%TA.AperFunction,NonConductor*%
D19*
G36*
X79571464Y-85688567D02*
G01*
X79747878Y-85952589D01*
X79756563Y-85961274D01*
X79724608Y-85978354D01*
X79608578Y-86073577D01*
X79513355Y-86189607D01*
X79442598Y-86321984D01*
X79399026Y-86465621D01*
X79384314Y-86614999D01*
X79384314Y-86738000D01*
X78965686Y-86738000D01*
X78965686Y-86625000D01*
X78946170Y-86426849D01*
X78888372Y-86236314D01*
X78815510Y-86100000D01*
X78888372Y-85963686D01*
X78946170Y-85773151D01*
X78965686Y-85575000D01*
X78965686Y-85462000D01*
X79477617Y-85462000D01*
X79571464Y-85688567D01*
G37*
%TD.AperFunction*%
D18*
X73034314Y-85575000D02*
X73053830Y-85773151D01*
X73111628Y-85963686D01*
X73184490Y-86100000D01*
X73111628Y-86236314D01*
X73053830Y-86426849D01*
X73034314Y-86625000D01*
X73034314Y-86738000D01*
X72426243Y-86738000D01*
X72252122Y-86477409D01*
X72027590Y-86252877D01*
X72000834Y-86234999D01*
X72027590Y-86217121D01*
X72252122Y-85992589D01*
X72428536Y-85728567D01*
X72538952Y-85462000D01*
X73034314Y-85462000D01*
X73034314Y-85575000D01*
%TA.AperFunction,NonConductor*%
D19*
G36*
X73034314Y-85575000D02*
G01*
X73053830Y-85773151D01*
X73111628Y-85963686D01*
X73184490Y-86100000D01*
X73111628Y-86236314D01*
X73053830Y-86426849D01*
X73034314Y-86625000D01*
X73034314Y-86738000D01*
X72426243Y-86738000D01*
X72252122Y-86477409D01*
X72027590Y-86252877D01*
X72000834Y-86234999D01*
X72027590Y-86217121D01*
X72252122Y-85992589D01*
X72428536Y-85728567D01*
X72538952Y-85462000D01*
X73034314Y-85462000D01*
X73034314Y-85575000D01*
G37*
%TD.AperFunction*%
D18*
X37472410Y-86217121D02*
X37499166Y-86234999D01*
X37472410Y-86252877D01*
X37287000Y-86438287D01*
X37287000Y-86031711D01*
X37472410Y-86217121D01*
%TA.AperFunction,NonConductor*%
D19*
G36*
X37472410Y-86217121D02*
G01*
X37499166Y-86234999D01*
X37472410Y-86252877D01*
X37287000Y-86438287D01*
X37287000Y-86031711D01*
X37472410Y-86217121D01*
G37*
%TD.AperFunction*%
D18*
X37472410Y-83677121D02*
X37499166Y-83694999D01*
X37472410Y-83712877D01*
X37287000Y-83898287D01*
X37287000Y-83491711D01*
X37472410Y-83677121D01*
%TA.AperFunction,NonConductor*%
D19*
G36*
X37472410Y-83677121D02*
G01*
X37499166Y-83694999D01*
X37472410Y-83712877D01*
X37287000Y-83898287D01*
X37287000Y-83491711D01*
X37472410Y-83677121D01*
G37*
%TD.AperFunction*%
D18*
X82213001Y-83858288D02*
X82027590Y-83672877D01*
X82000834Y-83654999D01*
X82027590Y-83637121D01*
X82213001Y-83451710D01*
X82213001Y-83858288D01*
%TA.AperFunction,NonConductor*%
D19*
G36*
X82213001Y-83858288D02*
G01*
X82027590Y-83672877D01*
X82000834Y-83654999D01*
X82027590Y-83637121D01*
X82213001Y-83451710D01*
X82213001Y-83858288D01*
G37*
%TD.AperFunction*%
D18*
X73485715Y-82580488D02*
X73331802Y-82706802D01*
X73205488Y-82860715D01*
X73111628Y-83036314D01*
X73053830Y-83226849D01*
X73034314Y-83425000D01*
X73034314Y-83538000D01*
X72166711Y-83538000D01*
X72252122Y-83452589D01*
X72428536Y-83188567D01*
X72550052Y-82895202D01*
X72612000Y-82583767D01*
X72612000Y-82562000D01*
X73520303Y-82562000D01*
X73485715Y-82580488D01*
%TA.AperFunction,NonConductor*%
D19*
G36*
X73485715Y-82580488D02*
G01*
X73331802Y-82706802D01*
X73205488Y-82860715D01*
X73111628Y-83036314D01*
X73053830Y-83226849D01*
X73034314Y-83425000D01*
X73034314Y-83538000D01*
X72166711Y-83538000D01*
X72252122Y-83452589D01*
X72428536Y-83188567D01*
X72550052Y-82895202D01*
X72612000Y-82583767D01*
X72612000Y-82562000D01*
X73520303Y-82562000D01*
X73485715Y-82580488D01*
G37*
%TD.AperFunction*%
D18*
X79449948Y-82855202D02*
X79571464Y-83148567D01*
X79747878Y-83412589D01*
X79873289Y-83538000D01*
X78965686Y-83538000D01*
X78965686Y-83425000D01*
X78946170Y-83226849D01*
X78888372Y-83036314D01*
X78794512Y-82860715D01*
X78668198Y-82706802D01*
X78514285Y-82580488D01*
X78479697Y-82562000D01*
X79391627Y-82562000D01*
X79449948Y-82855202D01*
%TA.AperFunction,NonConductor*%
D19*
G36*
X79449948Y-82855202D02*
G01*
X79571464Y-83148567D01*
X79747878Y-83412589D01*
X79873289Y-83538000D01*
X78965686Y-83538000D01*
X78965686Y-83425000D01*
X78946170Y-83226849D01*
X78888372Y-83036314D01*
X78794512Y-82860715D01*
X78668198Y-82706802D01*
X78514285Y-82580488D01*
X78479697Y-82562000D01*
X79391627Y-82562000D01*
X79449948Y-82855202D01*
G37*
%TD.AperFunction*%
D18*
X45305208Y-75705949D02*
X45412868Y-75837132D01*
X45544051Y-75944792D01*
X45685867Y-76020595D01*
X45688000Y-76042249D01*
X45688000Y-76042252D01*
X45701921Y-76183584D01*
X45717723Y-76235677D01*
X45756929Y-76364921D01*
X45846257Y-76532043D01*
X45853962Y-76541431D01*
X45966473Y-76678527D01*
X46003182Y-76708653D01*
X48903390Y-79608861D01*
X48888000Y-79686231D01*
X48888000Y-80003767D01*
X48949948Y-80315202D01*
X49071464Y-80608567D01*
X49247878Y-80872589D01*
X49472410Y-81097121D01*
X49499166Y-81114999D01*
X49472410Y-81132877D01*
X49247878Y-81357409D01*
X49071464Y-81621431D01*
X48949948Y-81914796D01*
X48888000Y-82226231D01*
X48888000Y-82543767D01*
X48903390Y-82621136D01*
X48486527Y-83038000D01*
X47304728Y-83038000D01*
X47173015Y-82967598D01*
X47029378Y-82924026D01*
X46880000Y-82909314D01*
X45320000Y-82909314D01*
X45170622Y-82924026D01*
X45026985Y-82967598D01*
X44894608Y-83038355D01*
X44778578Y-83133578D01*
X44750000Y-83168401D01*
X44721422Y-83133578D01*
X44605392Y-83038355D01*
X44473015Y-82967598D01*
X44329378Y-82924026D01*
X44180000Y-82909314D01*
X42620000Y-82909314D01*
X42470622Y-82924026D01*
X42326985Y-82967598D01*
X42195272Y-83038000D01*
X40473474Y-83038000D01*
X40096610Y-82661137D01*
X40112000Y-82583767D01*
X40112000Y-82266231D01*
X40050052Y-81954796D01*
X39928536Y-81661431D01*
X39752122Y-81397409D01*
X39527590Y-81172877D01*
X39500834Y-81154999D01*
X39527590Y-81137121D01*
X39752122Y-80912589D01*
X39928536Y-80648567D01*
X40050052Y-80355202D01*
X40112000Y-80043767D01*
X40112000Y-79726231D01*
X40050052Y-79414796D01*
X39928536Y-79121431D01*
X39922730Y-79112742D01*
X42944787Y-76090686D01*
X42975000Y-76090686D01*
X43143887Y-76074052D01*
X43306284Y-76024790D01*
X43455949Y-75944792D01*
X43587132Y-75837132D01*
X43694792Y-75705949D01*
X43702950Y-75690686D01*
X45297050Y-75690686D01*
X45305208Y-75705949D01*
%TA.AperFunction,NonConductor*%
D19*
G36*
X45305208Y-75705949D02*
G01*
X45412868Y-75837132D01*
X45544051Y-75944792D01*
X45685867Y-76020595D01*
X45688000Y-76042249D01*
X45688000Y-76042252D01*
X45701921Y-76183584D01*
X45717723Y-76235677D01*
X45756929Y-76364921D01*
X45846257Y-76532043D01*
X45853962Y-76541431D01*
X45966473Y-76678527D01*
X46003182Y-76708653D01*
X48903390Y-79608861D01*
X48888000Y-79686231D01*
X48888000Y-80003767D01*
X48949948Y-80315202D01*
X49071464Y-80608567D01*
X49247878Y-80872589D01*
X49472410Y-81097121D01*
X49499166Y-81114999D01*
X49472410Y-81132877D01*
X49247878Y-81357409D01*
X49071464Y-81621431D01*
X48949948Y-81914796D01*
X48888000Y-82226231D01*
X48888000Y-82543767D01*
X48903390Y-82621136D01*
X48486527Y-83038000D01*
X47304728Y-83038000D01*
X47173015Y-82967598D01*
X47029378Y-82924026D01*
X46880000Y-82909314D01*
X45320000Y-82909314D01*
X45170622Y-82924026D01*
X45026985Y-82967598D01*
X44894608Y-83038355D01*
X44778578Y-83133578D01*
X44750000Y-83168401D01*
X44721422Y-83133578D01*
X44605392Y-83038355D01*
X44473015Y-82967598D01*
X44329378Y-82924026D01*
X44180000Y-82909314D01*
X42620000Y-82909314D01*
X42470622Y-82924026D01*
X42326985Y-82967598D01*
X42195272Y-83038000D01*
X40473474Y-83038000D01*
X40096610Y-82661137D01*
X40112000Y-82583767D01*
X40112000Y-82266231D01*
X40050052Y-81954796D01*
X39928536Y-81661431D01*
X39752122Y-81397409D01*
X39527590Y-81172877D01*
X39500834Y-81154999D01*
X39527590Y-81137121D01*
X39752122Y-80912589D01*
X39928536Y-80648567D01*
X40050052Y-80355202D01*
X40112000Y-80043767D01*
X40112000Y-79726231D01*
X40050052Y-79414796D01*
X39928536Y-79121431D01*
X39922730Y-79112742D01*
X42944787Y-76090686D01*
X42975000Y-76090686D01*
X43143887Y-76074052D01*
X43306284Y-76024790D01*
X43455949Y-75944792D01*
X43587132Y-75837132D01*
X43694792Y-75705949D01*
X43702950Y-75690686D01*
X45297050Y-75690686D01*
X45305208Y-75705949D01*
G37*
%TD.AperFunction*%
D18*
X37472410Y-81137121D02*
X37499166Y-81154999D01*
X37472410Y-81172877D01*
X37287000Y-81358287D01*
X37287000Y-80951711D01*
X37472410Y-81137121D01*
%TA.AperFunction,NonConductor*%
D19*
G36*
X37472410Y-81137121D02*
G01*
X37499166Y-81154999D01*
X37472410Y-81172877D01*
X37287000Y-81358287D01*
X37287000Y-80951711D01*
X37472410Y-81137121D01*
G37*
%TD.AperFunction*%
D18*
X82213001Y-81318288D02*
X82027590Y-81132877D01*
X82000834Y-81114999D01*
X82027590Y-81097121D01*
X82213001Y-80911710D01*
X82213001Y-81318288D01*
%TA.AperFunction,NonConductor*%
D19*
G36*
X82213001Y-81318288D02*
G01*
X82027590Y-81132877D01*
X82000834Y-81114999D01*
X82027590Y-81097121D01*
X82213001Y-80911710D01*
X82213001Y-81318288D01*
G37*
%TD.AperFunction*%
D18*
X74280160Y-78471619D02*
X74453597Y-78564323D01*
X74641788Y-78621410D01*
X74837500Y-78640686D01*
X75412500Y-78640686D01*
X75608212Y-78621410D01*
X75796403Y-78564323D01*
X75969840Y-78471619D01*
X76000000Y-78446867D01*
X76030160Y-78471619D01*
X76203597Y-78564323D01*
X76391788Y-78621410D01*
X76587500Y-78640686D01*
X77162500Y-78640686D01*
X77358212Y-78621410D01*
X77546403Y-78564323D01*
X77719840Y-78471619D01*
X77853412Y-78362000D01*
X79777289Y-78362000D01*
X79972410Y-78557121D01*
X79999166Y-78574999D01*
X79972410Y-78592877D01*
X79747878Y-78817409D01*
X79734120Y-78838000D01*
X77248817Y-78838000D01*
X77149245Y-78784778D01*
X76975592Y-78732101D01*
X76795000Y-78714314D01*
X76350000Y-78714314D01*
X76169408Y-78732101D01*
X76000000Y-78783490D01*
X75830592Y-78732101D01*
X75650000Y-78714314D01*
X75205000Y-78714314D01*
X75024408Y-78732101D01*
X74850755Y-78784778D01*
X74751183Y-78838000D01*
X72232713Y-78838000D01*
X72027590Y-78632877D01*
X72000834Y-78614999D01*
X72027590Y-78597121D01*
X72252122Y-78372589D01*
X72259197Y-78362000D01*
X74146588Y-78362000D01*
X74280160Y-78471619D01*
%TA.AperFunction,NonConductor*%
D19*
G36*
X74280160Y-78471619D02*
G01*
X74453597Y-78564323D01*
X74641788Y-78621410D01*
X74837500Y-78640686D01*
X75412500Y-78640686D01*
X75608212Y-78621410D01*
X75796403Y-78564323D01*
X75969840Y-78471619D01*
X76000000Y-78446867D01*
X76030160Y-78471619D01*
X76203597Y-78564323D01*
X76391788Y-78621410D01*
X76587500Y-78640686D01*
X77162500Y-78640686D01*
X77358212Y-78621410D01*
X77546403Y-78564323D01*
X77719840Y-78471619D01*
X77853412Y-78362000D01*
X79777289Y-78362000D01*
X79972410Y-78557121D01*
X79999166Y-78574999D01*
X79972410Y-78592877D01*
X79747878Y-78817409D01*
X79734120Y-78838000D01*
X77248817Y-78838000D01*
X77149245Y-78784778D01*
X76975592Y-78732101D01*
X76795000Y-78714314D01*
X76350000Y-78714314D01*
X76169408Y-78732101D01*
X76000000Y-78783490D01*
X75830592Y-78732101D01*
X75650000Y-78714314D01*
X75205000Y-78714314D01*
X75024408Y-78732101D01*
X74850755Y-78784778D01*
X74751183Y-78838000D01*
X72232713Y-78838000D01*
X72027590Y-78632877D01*
X72000834Y-78614999D01*
X72027590Y-78597121D01*
X72252122Y-78372589D01*
X72259197Y-78362000D01*
X74146588Y-78362000D01*
X74280160Y-78471619D01*
G37*
%TD.AperFunction*%
D18*
X37472410Y-78597121D02*
X37499166Y-78614999D01*
X37472410Y-78632877D01*
X37287000Y-78818287D01*
X37287000Y-78411711D01*
X37472410Y-78597121D01*
%TA.AperFunction,NonConductor*%
D19*
G36*
X37472410Y-78597121D02*
G01*
X37499166Y-78614999D01*
X37472410Y-78632877D01*
X37287000Y-78818287D01*
X37287000Y-78411711D01*
X37472410Y-78597121D01*
G37*
%TD.AperFunction*%
D18*
X82213001Y-78778288D02*
X82027590Y-78592877D01*
X82000834Y-78574999D01*
X82027590Y-78557121D01*
X82213001Y-78371710D01*
X82213001Y-78778288D01*
%TA.AperFunction,NonConductor*%
D19*
G36*
X82213001Y-78778288D02*
G01*
X82027590Y-78592877D01*
X82000834Y-78574999D01*
X82027590Y-78557121D01*
X82213001Y-78371710D01*
X82213001Y-78778288D01*
G37*
%TD.AperFunction*%
D18*
X74280160Y-75821619D02*
X74453597Y-75914323D01*
X74641788Y-75971410D01*
X74837500Y-75990686D01*
X75412500Y-75990686D01*
X75608212Y-75971410D01*
X75796403Y-75914323D01*
X75969840Y-75821619D01*
X76000000Y-75796867D01*
X76030160Y-75821619D01*
X76203597Y-75914323D01*
X76391788Y-75971410D01*
X76587500Y-75990686D01*
X77162500Y-75990686D01*
X77358212Y-75971410D01*
X77546403Y-75914323D01*
X77719840Y-75821619D01*
X77853412Y-75712000D01*
X79694030Y-75712000D01*
X79747878Y-75792589D01*
X79972410Y-76017121D01*
X79999166Y-76034999D01*
X79972410Y-76052877D01*
X79747878Y-76277409D01*
X79640574Y-76438000D01*
X77853412Y-76438000D01*
X77719840Y-76328381D01*
X77546403Y-76235677D01*
X77358212Y-76178590D01*
X77162500Y-76159314D01*
X76587500Y-76159314D01*
X76391788Y-76178590D01*
X76203597Y-76235677D01*
X76030160Y-76328381D01*
X76000000Y-76353133D01*
X75969840Y-76328381D01*
X75796403Y-76235677D01*
X75608212Y-76178590D01*
X75412500Y-76159314D01*
X74837500Y-76159314D01*
X74641788Y-76178590D01*
X74453597Y-76235677D01*
X74280160Y-76328381D01*
X74146588Y-76438000D01*
X72332698Y-76438000D01*
X72252122Y-76317409D01*
X72027590Y-76092877D01*
X72000834Y-76074999D01*
X72027590Y-76057121D01*
X72252122Y-75832589D01*
X72332697Y-75712000D01*
X74146588Y-75712000D01*
X74280160Y-75821619D01*
%TA.AperFunction,NonConductor*%
D19*
G36*
X74280160Y-75821619D02*
G01*
X74453597Y-75914323D01*
X74641788Y-75971410D01*
X74837500Y-75990686D01*
X75412500Y-75990686D01*
X75608212Y-75971410D01*
X75796403Y-75914323D01*
X75969840Y-75821619D01*
X76000000Y-75796867D01*
X76030160Y-75821619D01*
X76203597Y-75914323D01*
X76391788Y-75971410D01*
X76587500Y-75990686D01*
X77162500Y-75990686D01*
X77358212Y-75971410D01*
X77546403Y-75914323D01*
X77719840Y-75821619D01*
X77853412Y-75712000D01*
X79694030Y-75712000D01*
X79747878Y-75792589D01*
X79972410Y-76017121D01*
X79999166Y-76034999D01*
X79972410Y-76052877D01*
X79747878Y-76277409D01*
X79640574Y-76438000D01*
X77853412Y-76438000D01*
X77719840Y-76328381D01*
X77546403Y-76235677D01*
X77358212Y-76178590D01*
X77162500Y-76159314D01*
X76587500Y-76159314D01*
X76391788Y-76178590D01*
X76203597Y-76235677D01*
X76030160Y-76328381D01*
X76000000Y-76353133D01*
X75969840Y-76328381D01*
X75796403Y-76235677D01*
X75608212Y-76178590D01*
X75412500Y-76159314D01*
X74837500Y-76159314D01*
X74641788Y-76178590D01*
X74453597Y-76235677D01*
X74280160Y-76328381D01*
X74146588Y-76438000D01*
X72332698Y-76438000D01*
X72252122Y-76317409D01*
X72027590Y-76092877D01*
X72000834Y-76074999D01*
X72027590Y-76057121D01*
X72252122Y-75832589D01*
X72332697Y-75712000D01*
X74146588Y-75712000D01*
X74280160Y-75821619D01*
G37*
%TD.AperFunction*%
D18*
X37472410Y-76057121D02*
X37499166Y-76074999D01*
X37472410Y-76092877D01*
X37287000Y-76278287D01*
X37287000Y-75871711D01*
X37472410Y-76057121D01*
%TA.AperFunction,NonConductor*%
D19*
G36*
X37472410Y-76057121D02*
G01*
X37499166Y-76074999D01*
X37472410Y-76092877D01*
X37287000Y-76278287D01*
X37287000Y-75871711D01*
X37472410Y-76057121D01*
G37*
%TD.AperFunction*%
D18*
X82213001Y-76238288D02*
X82027590Y-76052877D01*
X82000834Y-76034999D01*
X82027590Y-76017121D01*
X82213001Y-75831710D01*
X82213001Y-76238288D01*
%TA.AperFunction,NonConductor*%
D19*
G36*
X82213001Y-76238288D02*
G01*
X82027590Y-76052877D01*
X82000834Y-76034999D01*
X82027590Y-76017121D01*
X82213001Y-75831710D01*
X82213001Y-76238288D01*
G37*
%TD.AperFunction*%
D18*
X74280160Y-73321619D02*
X74453597Y-73414323D01*
X74641788Y-73471410D01*
X74837500Y-73490686D01*
X75412500Y-73490686D01*
X75608212Y-73471410D01*
X75796403Y-73414323D01*
X75969840Y-73321619D01*
X76000000Y-73296867D01*
X76030160Y-73321619D01*
X76203597Y-73414323D01*
X76391788Y-73471410D01*
X76587500Y-73490686D01*
X77162500Y-73490686D01*
X77358212Y-73471410D01*
X77546403Y-73414323D01*
X77719840Y-73321619D01*
X77853412Y-73212000D01*
X79720757Y-73212000D01*
X79747878Y-73252589D01*
X79972410Y-73477121D01*
X79999166Y-73494999D01*
X79972410Y-73512877D01*
X79747878Y-73737409D01*
X79714074Y-73788000D01*
X77853412Y-73788000D01*
X77719840Y-73678381D01*
X77546403Y-73585677D01*
X77358212Y-73528590D01*
X77162500Y-73509314D01*
X76587500Y-73509314D01*
X76391788Y-73528590D01*
X76203597Y-73585677D01*
X76030160Y-73678381D01*
X76000000Y-73703133D01*
X75969840Y-73678381D01*
X75796403Y-73585677D01*
X75608212Y-73528590D01*
X75412500Y-73509314D01*
X74837500Y-73509314D01*
X74641788Y-73528590D01*
X74453597Y-73585677D01*
X74280160Y-73678381D01*
X74146588Y-73788000D01*
X72259199Y-73788000D01*
X72252122Y-73777409D01*
X72027590Y-73552877D01*
X72000834Y-73534999D01*
X72027590Y-73517121D01*
X72252122Y-73292589D01*
X72305970Y-73212000D01*
X74146588Y-73212000D01*
X74280160Y-73321619D01*
%TA.AperFunction,NonConductor*%
D19*
G36*
X74280160Y-73321619D02*
G01*
X74453597Y-73414323D01*
X74641788Y-73471410D01*
X74837500Y-73490686D01*
X75412500Y-73490686D01*
X75608212Y-73471410D01*
X75796403Y-73414323D01*
X75969840Y-73321619D01*
X76000000Y-73296867D01*
X76030160Y-73321619D01*
X76203597Y-73414323D01*
X76391788Y-73471410D01*
X76587500Y-73490686D01*
X77162500Y-73490686D01*
X77358212Y-73471410D01*
X77546403Y-73414323D01*
X77719840Y-73321619D01*
X77853412Y-73212000D01*
X79720757Y-73212000D01*
X79747878Y-73252589D01*
X79972410Y-73477121D01*
X79999166Y-73494999D01*
X79972410Y-73512877D01*
X79747878Y-73737409D01*
X79714074Y-73788000D01*
X77853412Y-73788000D01*
X77719840Y-73678381D01*
X77546403Y-73585677D01*
X77358212Y-73528590D01*
X77162500Y-73509314D01*
X76587500Y-73509314D01*
X76391788Y-73528590D01*
X76203597Y-73585677D01*
X76030160Y-73678381D01*
X76000000Y-73703133D01*
X75969840Y-73678381D01*
X75796403Y-73585677D01*
X75608212Y-73528590D01*
X75412500Y-73509314D01*
X74837500Y-73509314D01*
X74641788Y-73528590D01*
X74453597Y-73585677D01*
X74280160Y-73678381D01*
X74146588Y-73788000D01*
X72259199Y-73788000D01*
X72252122Y-73777409D01*
X72027590Y-73552877D01*
X72000834Y-73534999D01*
X72027590Y-73517121D01*
X72252122Y-73292589D01*
X72305970Y-73212000D01*
X74146588Y-73212000D01*
X74280160Y-73321619D01*
G37*
%TD.AperFunction*%
D18*
X37472410Y-73517121D02*
X37499166Y-73534999D01*
X37472410Y-73552877D01*
X37287000Y-73738287D01*
X37287000Y-73331711D01*
X37472410Y-73517121D01*
%TA.AperFunction,NonConductor*%
D19*
G36*
X37472410Y-73517121D02*
G01*
X37499166Y-73534999D01*
X37472410Y-73552877D01*
X37287000Y-73738287D01*
X37287000Y-73331711D01*
X37472410Y-73517121D01*
G37*
%TD.AperFunction*%
D18*
X82213001Y-73698288D02*
X82027590Y-73512877D01*
X82000834Y-73494999D01*
X82027590Y-73477121D01*
X82213001Y-73291710D01*
X82213001Y-73698288D01*
%TA.AperFunction,NonConductor*%
D19*
G36*
X82213001Y-73698288D02*
G01*
X82027590Y-73512877D01*
X82000834Y-73494999D01*
X82027590Y-73477121D01*
X82213001Y-73291710D01*
X82213001Y-73698288D01*
G37*
%TD.AperFunction*%
D18*
X60678578Y-68866422D02*
X60794608Y-68961645D01*
X60926985Y-69032402D01*
X61070622Y-69075974D01*
X61220000Y-69090686D01*
X62780000Y-69090686D01*
X62929378Y-69075974D01*
X63073015Y-69032402D01*
X63204728Y-68962000D01*
X64916529Y-68962000D01*
X65403390Y-69448862D01*
X65388000Y-69526231D01*
X65388000Y-69843767D01*
X65449948Y-70155202D01*
X65571464Y-70448567D01*
X65747878Y-70712589D01*
X65972410Y-70937121D01*
X65999166Y-70954999D01*
X65972410Y-70972877D01*
X65747878Y-71197409D01*
X65571464Y-71461431D01*
X65449948Y-71754796D01*
X65388000Y-72066231D01*
X65388000Y-72383767D01*
X65403390Y-72461137D01*
X64776527Y-73088000D01*
X63404728Y-73088000D01*
X63273015Y-73017598D01*
X63129378Y-72974026D01*
X62980000Y-72959314D01*
X61420000Y-72959314D01*
X61270622Y-72974026D01*
X61126985Y-73017598D01*
X60994608Y-73088355D01*
X60878578Y-73183578D01*
X60850000Y-73218401D01*
X60821422Y-73183578D01*
X60705392Y-73088355D01*
X60573015Y-73017598D01*
X60429378Y-72974026D01*
X60280000Y-72959314D01*
X58720000Y-72959314D01*
X58570622Y-72974026D01*
X58426985Y-73017598D01*
X58295272Y-73088000D01*
X56683474Y-73088000D01*
X56096610Y-72501137D01*
X56112000Y-72423767D01*
X56112000Y-72106231D01*
X56050052Y-71794796D01*
X55928536Y-71501431D01*
X55752122Y-71237409D01*
X55527590Y-71012877D01*
X55500834Y-70994999D01*
X55527590Y-70977121D01*
X55752122Y-70752589D01*
X55928536Y-70488567D01*
X56050052Y-70195202D01*
X56112000Y-69883767D01*
X56112000Y-69566231D01*
X56096610Y-69488861D01*
X56623472Y-68962000D01*
X58095272Y-68962000D01*
X58226985Y-69032402D01*
X58370622Y-69075974D01*
X58520000Y-69090686D01*
X60080000Y-69090686D01*
X60229378Y-69075974D01*
X60373015Y-69032402D01*
X60505392Y-68961645D01*
X60621422Y-68866422D01*
X60650000Y-68831599D01*
X60678578Y-68866422D01*
%TA.AperFunction,NonConductor*%
D19*
G36*
X60678578Y-68866422D02*
G01*
X60794608Y-68961645D01*
X60926985Y-69032402D01*
X61070622Y-69075974D01*
X61220000Y-69090686D01*
X62780000Y-69090686D01*
X62929378Y-69075974D01*
X63073015Y-69032402D01*
X63204728Y-68962000D01*
X64916529Y-68962000D01*
X65403390Y-69448862D01*
X65388000Y-69526231D01*
X65388000Y-69843767D01*
X65449948Y-70155202D01*
X65571464Y-70448567D01*
X65747878Y-70712589D01*
X65972410Y-70937121D01*
X65999166Y-70954999D01*
X65972410Y-70972877D01*
X65747878Y-71197409D01*
X65571464Y-71461431D01*
X65449948Y-71754796D01*
X65388000Y-72066231D01*
X65388000Y-72383767D01*
X65403390Y-72461137D01*
X64776527Y-73088000D01*
X63404728Y-73088000D01*
X63273015Y-73017598D01*
X63129378Y-72974026D01*
X62980000Y-72959314D01*
X61420000Y-72959314D01*
X61270622Y-72974026D01*
X61126985Y-73017598D01*
X60994608Y-73088355D01*
X60878578Y-73183578D01*
X60850000Y-73218401D01*
X60821422Y-73183578D01*
X60705392Y-73088355D01*
X60573015Y-73017598D01*
X60429378Y-72974026D01*
X60280000Y-72959314D01*
X58720000Y-72959314D01*
X58570622Y-72974026D01*
X58426985Y-73017598D01*
X58295272Y-73088000D01*
X56683474Y-73088000D01*
X56096610Y-72501137D01*
X56112000Y-72423767D01*
X56112000Y-72106231D01*
X56050052Y-71794796D01*
X55928536Y-71501431D01*
X55752122Y-71237409D01*
X55527590Y-71012877D01*
X55500834Y-70994999D01*
X55527590Y-70977121D01*
X55752122Y-70752589D01*
X55928536Y-70488567D01*
X56050052Y-70195202D01*
X56112000Y-69883767D01*
X56112000Y-69566231D01*
X56096610Y-69488861D01*
X56623472Y-68962000D01*
X58095272Y-68962000D01*
X58226985Y-69032402D01*
X58370622Y-69075974D01*
X58520000Y-69090686D01*
X60080000Y-69090686D01*
X60229378Y-69075974D01*
X60373015Y-69032402D01*
X60505392Y-68961645D01*
X60621422Y-68866422D01*
X60650000Y-68831599D01*
X60678578Y-68866422D01*
G37*
%TD.AperFunction*%
D18*
X49736432Y-45396463D02*
X49472410Y-45572877D01*
X49247878Y-45797409D01*
X49071464Y-46061431D01*
X48949948Y-46354796D01*
X48888000Y-46666231D01*
X48888000Y-46983767D01*
X48903390Y-47061137D01*
X46328182Y-49636345D01*
X46291473Y-49666471D01*
X46235297Y-49734923D01*
X46171257Y-49812955D01*
X46088290Y-49968177D01*
X46081929Y-49980077D01*
X46026921Y-50161414D01*
X46025227Y-50178615D01*
X46008346Y-50349999D01*
X46013001Y-50397258D01*
X46013001Y-50502808D01*
X45971359Y-50506909D01*
X45799582Y-50559016D01*
X45641272Y-50643635D01*
X45502512Y-50757512D01*
X45388635Y-50896272D01*
X45304016Y-51054582D01*
X45251909Y-51226359D01*
X45234314Y-51405000D01*
X45234314Y-51705000D01*
X45251909Y-51883641D01*
X45304016Y-52055418D01*
X45375952Y-52190000D01*
X45304016Y-52324582D01*
X45251909Y-52496359D01*
X45234314Y-52675000D01*
X45234314Y-52975000D01*
X45251909Y-53153641D01*
X45304016Y-53325418D01*
X45375952Y-53460000D01*
X45304016Y-53594582D01*
X45251909Y-53766359D01*
X45234314Y-53945000D01*
X45234314Y-54245000D01*
X45251909Y-54423641D01*
X45304016Y-54595418D01*
X45375952Y-54730000D01*
X45304016Y-54864582D01*
X45251909Y-55036359D01*
X45234314Y-55215000D01*
X45234314Y-55515000D01*
X45251909Y-55693641D01*
X45304016Y-55865418D01*
X45375952Y-56000000D01*
X45304016Y-56134582D01*
X45251909Y-56306359D01*
X45234314Y-56485000D01*
X45234314Y-56785000D01*
X45251909Y-56963641D01*
X45304016Y-57135418D01*
X45375952Y-57270000D01*
X45304016Y-57404582D01*
X45251909Y-57576359D01*
X45234314Y-57755000D01*
X45234314Y-58055000D01*
X45251909Y-58233641D01*
X45304016Y-58405418D01*
X45375952Y-58540000D01*
X45304016Y-58674582D01*
X45251909Y-58846359D01*
X45234314Y-59025000D01*
X45234314Y-59325000D01*
X45251909Y-59503641D01*
X45304016Y-59675418D01*
X45375952Y-59810000D01*
X45304016Y-59944582D01*
X45251909Y-60116359D01*
X45234314Y-60295000D01*
X45234314Y-60595000D01*
X45251909Y-60773641D01*
X45304016Y-60945418D01*
X45388635Y-61103728D01*
X45502512Y-61242488D01*
X45641272Y-61356365D01*
X45799582Y-61440984D01*
X45971359Y-61493091D01*
X46112430Y-61506986D01*
X46171257Y-61617043D01*
X46221076Y-61677747D01*
X46291473Y-61763527D01*
X46328182Y-61793653D01*
X48903390Y-64368861D01*
X48888000Y-64446231D01*
X48888000Y-64763767D01*
X48949948Y-65075202D01*
X49071464Y-65368567D01*
X49247878Y-65632589D01*
X49472410Y-65857121D01*
X49499166Y-65874999D01*
X49472410Y-65892877D01*
X49247878Y-66117409D01*
X49071464Y-66381431D01*
X48949948Y-66674796D01*
X48888000Y-66986231D01*
X48888000Y-67303767D01*
X48903390Y-67381137D01*
X46003182Y-70281345D01*
X45966473Y-70311471D01*
X45919650Y-70368526D01*
X45846257Y-70457955D01*
X45795058Y-70553743D01*
X45756929Y-70625077D01*
X45701921Y-70806414D01*
X45691786Y-70909314D01*
X45684827Y-70979961D01*
X45544051Y-71055208D01*
X45412868Y-71162868D01*
X45305208Y-71294051D01*
X45297050Y-71309314D01*
X43702950Y-71309314D01*
X43694792Y-71294051D01*
X43587132Y-71162868D01*
X43455949Y-71055208D01*
X43311014Y-70977738D01*
X43308060Y-70947746D01*
X43298080Y-70846414D01*
X43243072Y-70665077D01*
X43231310Y-70643072D01*
X43153743Y-70497954D01*
X43109896Y-70444527D01*
X43033528Y-70351471D01*
X42996819Y-70321345D01*
X40096610Y-67421137D01*
X40112000Y-67343767D01*
X40112000Y-67026231D01*
X40050052Y-66714796D01*
X39928536Y-66421431D01*
X39752122Y-66157409D01*
X39527590Y-65932877D01*
X39500834Y-65914999D01*
X39527590Y-65897121D01*
X39752122Y-65672589D01*
X39928536Y-65408567D01*
X40050052Y-65115202D01*
X40112000Y-64803767D01*
X40112000Y-64486231D01*
X40096610Y-64408861D01*
X42671819Y-61833653D01*
X42708528Y-61803527D01*
X42828743Y-61657043D01*
X42910139Y-61504763D01*
X43028641Y-61493091D01*
X43200418Y-61440984D01*
X43358728Y-61356365D01*
X43497488Y-61242488D01*
X43611365Y-61103728D01*
X43695984Y-60945418D01*
X43748091Y-60773641D01*
X43765686Y-60595000D01*
X43765686Y-60295000D01*
X43748091Y-60116359D01*
X43695984Y-59944582D01*
X43624048Y-59810000D01*
X43695984Y-59675418D01*
X43748091Y-59503641D01*
X43765686Y-59325000D01*
X43765686Y-59025000D01*
X43748091Y-58846359D01*
X43695984Y-58674582D01*
X43624048Y-58540000D01*
X43695984Y-58405418D01*
X43748091Y-58233641D01*
X43765686Y-58055000D01*
X43765686Y-57755000D01*
X43748091Y-57576359D01*
X43695984Y-57404582D01*
X43624048Y-57270000D01*
X43695984Y-57135418D01*
X43748091Y-56963641D01*
X43765686Y-56785000D01*
X43765686Y-56485000D01*
X43748091Y-56306359D01*
X43695984Y-56134582D01*
X43624048Y-56000000D01*
X43695984Y-55865418D01*
X43748091Y-55693641D01*
X43765686Y-55515000D01*
X43765686Y-55215000D01*
X43748091Y-55036359D01*
X43695984Y-54864582D01*
X43624048Y-54730000D01*
X43695984Y-54595418D01*
X43748091Y-54423641D01*
X43765686Y-54245000D01*
X43765686Y-53945000D01*
X43748091Y-53766359D01*
X43695984Y-53594582D01*
X43624048Y-53460000D01*
X43695984Y-53325418D01*
X43748091Y-53153641D01*
X43765686Y-52975000D01*
X43765686Y-52675000D01*
X43748091Y-52496359D01*
X43695984Y-52324582D01*
X43624048Y-52190000D01*
X43695984Y-52055418D01*
X43748091Y-51883641D01*
X43765686Y-51705000D01*
X43765686Y-51405000D01*
X43748091Y-51226359D01*
X43695984Y-51054582D01*
X43611365Y-50896272D01*
X43497488Y-50757512D01*
X43358728Y-50643635D01*
X43200418Y-50559016D01*
X43028641Y-50506909D01*
X42850000Y-50489314D01*
X42686406Y-50489314D01*
X42562044Y-50387254D01*
X42394922Y-50297925D01*
X42382597Y-50294186D01*
X40066484Y-47978074D01*
X40100974Y-47864377D01*
X40115686Y-47714999D01*
X40115686Y-46014999D01*
X40100974Y-45865621D01*
X40057402Y-45721984D01*
X39986645Y-45589607D01*
X39891422Y-45473577D01*
X39775392Y-45378354D01*
X39643015Y-45307597D01*
X39575116Y-45287000D01*
X50000699Y-45287000D01*
X49736432Y-45396463D01*
%TA.AperFunction,NonConductor*%
D19*
G36*
X49736432Y-45396463D02*
G01*
X49472410Y-45572877D01*
X49247878Y-45797409D01*
X49071464Y-46061431D01*
X48949948Y-46354796D01*
X48888000Y-46666231D01*
X48888000Y-46983767D01*
X48903390Y-47061137D01*
X46328182Y-49636345D01*
X46291473Y-49666471D01*
X46235297Y-49734923D01*
X46171257Y-49812955D01*
X46088290Y-49968177D01*
X46081929Y-49980077D01*
X46026921Y-50161414D01*
X46025227Y-50178615D01*
X46008346Y-50349999D01*
X46013001Y-50397258D01*
X46013001Y-50502808D01*
X45971359Y-50506909D01*
X45799582Y-50559016D01*
X45641272Y-50643635D01*
X45502512Y-50757512D01*
X45388635Y-50896272D01*
X45304016Y-51054582D01*
X45251909Y-51226359D01*
X45234314Y-51405000D01*
X45234314Y-51705000D01*
X45251909Y-51883641D01*
X45304016Y-52055418D01*
X45375952Y-52190000D01*
X45304016Y-52324582D01*
X45251909Y-52496359D01*
X45234314Y-52675000D01*
X45234314Y-52975000D01*
X45251909Y-53153641D01*
X45304016Y-53325418D01*
X45375952Y-53460000D01*
X45304016Y-53594582D01*
X45251909Y-53766359D01*
X45234314Y-53945000D01*
X45234314Y-54245000D01*
X45251909Y-54423641D01*
X45304016Y-54595418D01*
X45375952Y-54730000D01*
X45304016Y-54864582D01*
X45251909Y-55036359D01*
X45234314Y-55215000D01*
X45234314Y-55515000D01*
X45251909Y-55693641D01*
X45304016Y-55865418D01*
X45375952Y-56000000D01*
X45304016Y-56134582D01*
X45251909Y-56306359D01*
X45234314Y-56485000D01*
X45234314Y-56785000D01*
X45251909Y-56963641D01*
X45304016Y-57135418D01*
X45375952Y-57270000D01*
X45304016Y-57404582D01*
X45251909Y-57576359D01*
X45234314Y-57755000D01*
X45234314Y-58055000D01*
X45251909Y-58233641D01*
X45304016Y-58405418D01*
X45375952Y-58540000D01*
X45304016Y-58674582D01*
X45251909Y-58846359D01*
X45234314Y-59025000D01*
X45234314Y-59325000D01*
X45251909Y-59503641D01*
X45304016Y-59675418D01*
X45375952Y-59810000D01*
X45304016Y-59944582D01*
X45251909Y-60116359D01*
X45234314Y-60295000D01*
X45234314Y-60595000D01*
X45251909Y-60773641D01*
X45304016Y-60945418D01*
X45388635Y-61103728D01*
X45502512Y-61242488D01*
X45641272Y-61356365D01*
X45799582Y-61440984D01*
X45971359Y-61493091D01*
X46112430Y-61506986D01*
X46171257Y-61617043D01*
X46221076Y-61677747D01*
X46291473Y-61763527D01*
X46328182Y-61793653D01*
X48903390Y-64368861D01*
X48888000Y-64446231D01*
X48888000Y-64763767D01*
X48949948Y-65075202D01*
X49071464Y-65368567D01*
X49247878Y-65632589D01*
X49472410Y-65857121D01*
X49499166Y-65874999D01*
X49472410Y-65892877D01*
X49247878Y-66117409D01*
X49071464Y-66381431D01*
X48949948Y-66674796D01*
X48888000Y-66986231D01*
X48888000Y-67303767D01*
X48903390Y-67381137D01*
X46003182Y-70281345D01*
X45966473Y-70311471D01*
X45919650Y-70368526D01*
X45846257Y-70457955D01*
X45795058Y-70553743D01*
X45756929Y-70625077D01*
X45701921Y-70806414D01*
X45691786Y-70909314D01*
X45684827Y-70979961D01*
X45544051Y-71055208D01*
X45412868Y-71162868D01*
X45305208Y-71294051D01*
X45297050Y-71309314D01*
X43702950Y-71309314D01*
X43694792Y-71294051D01*
X43587132Y-71162868D01*
X43455949Y-71055208D01*
X43311014Y-70977738D01*
X43308060Y-70947746D01*
X43298080Y-70846414D01*
X43243072Y-70665077D01*
X43231310Y-70643072D01*
X43153743Y-70497954D01*
X43109896Y-70444527D01*
X43033528Y-70351471D01*
X42996819Y-70321345D01*
X40096610Y-67421137D01*
X40112000Y-67343767D01*
X40112000Y-67026231D01*
X40050052Y-66714796D01*
X39928536Y-66421431D01*
X39752122Y-66157409D01*
X39527590Y-65932877D01*
X39500834Y-65914999D01*
X39527590Y-65897121D01*
X39752122Y-65672589D01*
X39928536Y-65408567D01*
X40050052Y-65115202D01*
X40112000Y-64803767D01*
X40112000Y-64486231D01*
X40096610Y-64408861D01*
X42671819Y-61833653D01*
X42708528Y-61803527D01*
X42828743Y-61657043D01*
X42910139Y-61504763D01*
X43028641Y-61493091D01*
X43200418Y-61440984D01*
X43358728Y-61356365D01*
X43497488Y-61242488D01*
X43611365Y-61103728D01*
X43695984Y-60945418D01*
X43748091Y-60773641D01*
X43765686Y-60595000D01*
X43765686Y-60295000D01*
X43748091Y-60116359D01*
X43695984Y-59944582D01*
X43624048Y-59810000D01*
X43695984Y-59675418D01*
X43748091Y-59503641D01*
X43765686Y-59325000D01*
X43765686Y-59025000D01*
X43748091Y-58846359D01*
X43695984Y-58674582D01*
X43624048Y-58540000D01*
X43695984Y-58405418D01*
X43748091Y-58233641D01*
X43765686Y-58055000D01*
X43765686Y-57755000D01*
X43748091Y-57576359D01*
X43695984Y-57404582D01*
X43624048Y-57270000D01*
X43695984Y-57135418D01*
X43748091Y-56963641D01*
X43765686Y-56785000D01*
X43765686Y-56485000D01*
X43748091Y-56306359D01*
X43695984Y-56134582D01*
X43624048Y-56000000D01*
X43695984Y-55865418D01*
X43748091Y-55693641D01*
X43765686Y-55515000D01*
X43765686Y-55215000D01*
X43748091Y-55036359D01*
X43695984Y-54864582D01*
X43624048Y-54730000D01*
X43695984Y-54595418D01*
X43748091Y-54423641D01*
X43765686Y-54245000D01*
X43765686Y-53945000D01*
X43748091Y-53766359D01*
X43695984Y-53594582D01*
X43624048Y-53460000D01*
X43695984Y-53325418D01*
X43748091Y-53153641D01*
X43765686Y-52975000D01*
X43765686Y-52675000D01*
X43748091Y-52496359D01*
X43695984Y-52324582D01*
X43624048Y-52190000D01*
X43695984Y-52055418D01*
X43748091Y-51883641D01*
X43765686Y-51705000D01*
X43765686Y-51405000D01*
X43748091Y-51226359D01*
X43695984Y-51054582D01*
X43611365Y-50896272D01*
X43497488Y-50757512D01*
X43358728Y-50643635D01*
X43200418Y-50559016D01*
X43028641Y-50506909D01*
X42850000Y-50489314D01*
X42686406Y-50489314D01*
X42562044Y-50387254D01*
X42394922Y-50297925D01*
X42382597Y-50294186D01*
X40066484Y-47978074D01*
X40100974Y-47864377D01*
X40115686Y-47714999D01*
X40115686Y-46014999D01*
X40100974Y-45865621D01*
X40057402Y-45721984D01*
X39986645Y-45589607D01*
X39891422Y-45473577D01*
X39775392Y-45378354D01*
X39643015Y-45307597D01*
X39575116Y-45287000D01*
X50000699Y-45287000D01*
X49736432Y-45396463D01*
G37*
%TD.AperFunction*%
D18*
X74280160Y-70821619D02*
X74453597Y-70914323D01*
X74641788Y-70971410D01*
X74837500Y-70990686D01*
X75412500Y-70990686D01*
X75608212Y-70971410D01*
X75796403Y-70914323D01*
X75969840Y-70821619D01*
X76000000Y-70796867D01*
X76030160Y-70821619D01*
X76203597Y-70914323D01*
X76391788Y-70971410D01*
X76587500Y-70990686D01*
X77162500Y-70990686D01*
X77358212Y-70971410D01*
X77546403Y-70914323D01*
X77719840Y-70821619D01*
X77853412Y-70712000D01*
X79747484Y-70712000D01*
X79747878Y-70712589D01*
X79972410Y-70937121D01*
X79999166Y-70954999D01*
X79972410Y-70972877D01*
X79747878Y-71197409D01*
X79687347Y-71288000D01*
X77853412Y-71288000D01*
X77719840Y-71178381D01*
X77546403Y-71085677D01*
X77358212Y-71028590D01*
X77162500Y-71009314D01*
X76587500Y-71009314D01*
X76391788Y-71028590D01*
X76203597Y-71085677D01*
X76030160Y-71178381D01*
X76000000Y-71203133D01*
X75969840Y-71178381D01*
X75796403Y-71085677D01*
X75608212Y-71028590D01*
X75412500Y-71009314D01*
X74837500Y-71009314D01*
X74641788Y-71028590D01*
X74453597Y-71085677D01*
X74280160Y-71178381D01*
X74146588Y-71288000D01*
X72285926Y-71288000D01*
X72252122Y-71237409D01*
X72027590Y-71012877D01*
X72000834Y-70994999D01*
X72027590Y-70977121D01*
X72252122Y-70752589D01*
X72279243Y-70712000D01*
X74146588Y-70712000D01*
X74280160Y-70821619D01*
%TA.AperFunction,NonConductor*%
D19*
G36*
X74280160Y-70821619D02*
G01*
X74453597Y-70914323D01*
X74641788Y-70971410D01*
X74837500Y-70990686D01*
X75412500Y-70990686D01*
X75608212Y-70971410D01*
X75796403Y-70914323D01*
X75969840Y-70821619D01*
X76000000Y-70796867D01*
X76030160Y-70821619D01*
X76203597Y-70914323D01*
X76391788Y-70971410D01*
X76587500Y-70990686D01*
X77162500Y-70990686D01*
X77358212Y-70971410D01*
X77546403Y-70914323D01*
X77719840Y-70821619D01*
X77853412Y-70712000D01*
X79747484Y-70712000D01*
X79747878Y-70712589D01*
X79972410Y-70937121D01*
X79999166Y-70954999D01*
X79972410Y-70972877D01*
X79747878Y-71197409D01*
X79687347Y-71288000D01*
X77853412Y-71288000D01*
X77719840Y-71178381D01*
X77546403Y-71085677D01*
X77358212Y-71028590D01*
X77162500Y-71009314D01*
X76587500Y-71009314D01*
X76391788Y-71028590D01*
X76203597Y-71085677D01*
X76030160Y-71178381D01*
X76000000Y-71203133D01*
X75969840Y-71178381D01*
X75796403Y-71085677D01*
X75608212Y-71028590D01*
X75412500Y-71009314D01*
X74837500Y-71009314D01*
X74641788Y-71028590D01*
X74453597Y-71085677D01*
X74280160Y-71178381D01*
X74146588Y-71288000D01*
X72285926Y-71288000D01*
X72252122Y-71237409D01*
X72027590Y-71012877D01*
X72000834Y-70994999D01*
X72027590Y-70977121D01*
X72252122Y-70752589D01*
X72279243Y-70712000D01*
X74146588Y-70712000D01*
X74280160Y-70821619D01*
G37*
%TD.AperFunction*%
D18*
X37472410Y-70977121D02*
X37499166Y-70994999D01*
X37472410Y-71012877D01*
X37287000Y-71198287D01*
X37287000Y-70791711D01*
X37472410Y-70977121D01*
%TA.AperFunction,NonConductor*%
D19*
G36*
X37472410Y-70977121D02*
G01*
X37499166Y-70994999D01*
X37472410Y-71012877D01*
X37287000Y-71198287D01*
X37287000Y-70791711D01*
X37472410Y-70977121D01*
G37*
%TD.AperFunction*%
D18*
X82213001Y-71158288D02*
X82027590Y-70972877D01*
X82000834Y-70954999D01*
X82027590Y-70937121D01*
X82213001Y-70751710D01*
X82213001Y-71158288D01*
%TA.AperFunction,NonConductor*%
D19*
G36*
X82213001Y-71158288D02*
G01*
X82027590Y-70972877D01*
X82000834Y-70954999D01*
X82027590Y-70937121D01*
X82213001Y-70751710D01*
X82213001Y-71158288D01*
G37*
%TD.AperFunction*%
D18*
X74280160Y-68321619D02*
X74453597Y-68414323D01*
X74641788Y-68471410D01*
X74837500Y-68490686D01*
X75412500Y-68490686D01*
X75608212Y-68471410D01*
X75796403Y-68414323D01*
X75969840Y-68321619D01*
X76000000Y-68296867D01*
X76030160Y-68321619D01*
X76203597Y-68414323D01*
X76391788Y-68471410D01*
X76587500Y-68490686D01*
X77162500Y-68490686D01*
X77358212Y-68471410D01*
X77546403Y-68414323D01*
X77719840Y-68321619D01*
X77853412Y-68212000D01*
X79787289Y-68212000D01*
X79972410Y-68397121D01*
X79999166Y-68414999D01*
X79972410Y-68432877D01*
X79747878Y-68657409D01*
X79660620Y-68788000D01*
X77853412Y-68788000D01*
X77719840Y-68678381D01*
X77546403Y-68585677D01*
X77358212Y-68528590D01*
X77162500Y-68509314D01*
X76587500Y-68509314D01*
X76391788Y-68528590D01*
X76203597Y-68585677D01*
X76030160Y-68678381D01*
X76000000Y-68703133D01*
X75969840Y-68678381D01*
X75796403Y-68585677D01*
X75608212Y-68528590D01*
X75412500Y-68509314D01*
X74837500Y-68509314D01*
X74641788Y-68528590D01*
X74453597Y-68585677D01*
X74280160Y-68678381D01*
X74146588Y-68788000D01*
X72312653Y-68788000D01*
X72252122Y-68697409D01*
X72027590Y-68472877D01*
X72000834Y-68454999D01*
X72027590Y-68437121D01*
X72252122Y-68212589D01*
X72252516Y-68212000D01*
X74146588Y-68212000D01*
X74280160Y-68321619D01*
%TA.AperFunction,NonConductor*%
D19*
G36*
X74280160Y-68321619D02*
G01*
X74453597Y-68414323D01*
X74641788Y-68471410D01*
X74837500Y-68490686D01*
X75412500Y-68490686D01*
X75608212Y-68471410D01*
X75796403Y-68414323D01*
X75969840Y-68321619D01*
X76000000Y-68296867D01*
X76030160Y-68321619D01*
X76203597Y-68414323D01*
X76391788Y-68471410D01*
X76587500Y-68490686D01*
X77162500Y-68490686D01*
X77358212Y-68471410D01*
X77546403Y-68414323D01*
X77719840Y-68321619D01*
X77853412Y-68212000D01*
X79787289Y-68212000D01*
X79972410Y-68397121D01*
X79999166Y-68414999D01*
X79972410Y-68432877D01*
X79747878Y-68657409D01*
X79660620Y-68788000D01*
X77853412Y-68788000D01*
X77719840Y-68678381D01*
X77546403Y-68585677D01*
X77358212Y-68528590D01*
X77162500Y-68509314D01*
X76587500Y-68509314D01*
X76391788Y-68528590D01*
X76203597Y-68585677D01*
X76030160Y-68678381D01*
X76000000Y-68703133D01*
X75969840Y-68678381D01*
X75796403Y-68585677D01*
X75608212Y-68528590D01*
X75412500Y-68509314D01*
X74837500Y-68509314D01*
X74641788Y-68528590D01*
X74453597Y-68585677D01*
X74280160Y-68678381D01*
X74146588Y-68788000D01*
X72312653Y-68788000D01*
X72252122Y-68697409D01*
X72027590Y-68472877D01*
X72000834Y-68454999D01*
X72027590Y-68437121D01*
X72252122Y-68212589D01*
X72252516Y-68212000D01*
X74146588Y-68212000D01*
X74280160Y-68321619D01*
G37*
%TD.AperFunction*%
D18*
X37472410Y-68437121D02*
X37499166Y-68454999D01*
X37472410Y-68472877D01*
X37287000Y-68658287D01*
X37287000Y-68251711D01*
X37472410Y-68437121D01*
%TA.AperFunction,NonConductor*%
D19*
G36*
X37472410Y-68437121D02*
G01*
X37499166Y-68454999D01*
X37472410Y-68472877D01*
X37287000Y-68658287D01*
X37287000Y-68251711D01*
X37472410Y-68437121D01*
G37*
%TD.AperFunction*%
D18*
X82213001Y-68618288D02*
X82027590Y-68432877D01*
X82000834Y-68414999D01*
X82027590Y-68397121D01*
X82213001Y-68211710D01*
X82213001Y-68618288D01*
%TA.AperFunction,NonConductor*%
D19*
G36*
X82213001Y-68618288D02*
G01*
X82027590Y-68432877D01*
X82000834Y-68414999D01*
X82027590Y-68397121D01*
X82213001Y-68211710D01*
X82213001Y-68618288D01*
G37*
%TD.AperFunction*%
D18*
X74280160Y-65821619D02*
X74453597Y-65914323D01*
X74641788Y-65971410D01*
X74837500Y-65990686D01*
X75412500Y-65990686D01*
X75608212Y-65971410D01*
X75796403Y-65914323D01*
X75969840Y-65821619D01*
X76000000Y-65796867D01*
X76030160Y-65821619D01*
X76203597Y-65914323D01*
X76391788Y-65971410D01*
X76587500Y-65990686D01*
X77162500Y-65990686D01*
X77358212Y-65971410D01*
X77546403Y-65914323D01*
X77719840Y-65821619D01*
X77853412Y-65712000D01*
X79827289Y-65712000D01*
X79972410Y-65857121D01*
X79999166Y-65874999D01*
X79972410Y-65892877D01*
X79747878Y-66117409D01*
X79633893Y-66288000D01*
X77853412Y-66288000D01*
X77719840Y-66178381D01*
X77546403Y-66085677D01*
X77358212Y-66028590D01*
X77162500Y-66009314D01*
X76587500Y-66009314D01*
X76391788Y-66028590D01*
X76203597Y-66085677D01*
X76030160Y-66178381D01*
X76000000Y-66203133D01*
X75969840Y-66178381D01*
X75796403Y-66085677D01*
X75608212Y-66028590D01*
X75412500Y-66009314D01*
X74837500Y-66009314D01*
X74641788Y-66028590D01*
X74453597Y-66085677D01*
X74280160Y-66178381D01*
X74146588Y-66288000D01*
X72339380Y-66288000D01*
X72252122Y-66157409D01*
X72027590Y-65932877D01*
X72000834Y-65914999D01*
X72027590Y-65897121D01*
X72212711Y-65712000D01*
X74146588Y-65712000D01*
X74280160Y-65821619D01*
%TA.AperFunction,NonConductor*%
D19*
G36*
X74280160Y-65821619D02*
G01*
X74453597Y-65914323D01*
X74641788Y-65971410D01*
X74837500Y-65990686D01*
X75412500Y-65990686D01*
X75608212Y-65971410D01*
X75796403Y-65914323D01*
X75969840Y-65821619D01*
X76000000Y-65796867D01*
X76030160Y-65821619D01*
X76203597Y-65914323D01*
X76391788Y-65971410D01*
X76587500Y-65990686D01*
X77162500Y-65990686D01*
X77358212Y-65971410D01*
X77546403Y-65914323D01*
X77719840Y-65821619D01*
X77853412Y-65712000D01*
X79827289Y-65712000D01*
X79972410Y-65857121D01*
X79999166Y-65874999D01*
X79972410Y-65892877D01*
X79747878Y-66117409D01*
X79633893Y-66288000D01*
X77853412Y-66288000D01*
X77719840Y-66178381D01*
X77546403Y-66085677D01*
X77358212Y-66028590D01*
X77162500Y-66009314D01*
X76587500Y-66009314D01*
X76391788Y-66028590D01*
X76203597Y-66085677D01*
X76030160Y-66178381D01*
X76000000Y-66203133D01*
X75969840Y-66178381D01*
X75796403Y-66085677D01*
X75608212Y-66028590D01*
X75412500Y-66009314D01*
X74837500Y-66009314D01*
X74641788Y-66028590D01*
X74453597Y-66085677D01*
X74280160Y-66178381D01*
X74146588Y-66288000D01*
X72339380Y-66288000D01*
X72252122Y-66157409D01*
X72027590Y-65932877D01*
X72000834Y-65914999D01*
X72027590Y-65897121D01*
X72212711Y-65712000D01*
X74146588Y-65712000D01*
X74280160Y-65821619D01*
G37*
%TD.AperFunction*%
D18*
X37472410Y-65897121D02*
X37499166Y-65914999D01*
X37472410Y-65932877D01*
X37287000Y-66118287D01*
X37287000Y-65711711D01*
X37472410Y-65897121D01*
%TA.AperFunction,NonConductor*%
D19*
G36*
X37472410Y-65897121D02*
G01*
X37499166Y-65914999D01*
X37472410Y-65932877D01*
X37287000Y-66118287D01*
X37287000Y-65711711D01*
X37472410Y-65897121D01*
G37*
%TD.AperFunction*%
D18*
X82213000Y-66078287D02*
X82027590Y-65892877D01*
X82000834Y-65874999D01*
X82027590Y-65857121D01*
X82213000Y-65671711D01*
X82213000Y-66078287D01*
%TA.AperFunction,NonConductor*%
D19*
G36*
X82213000Y-66078287D02*
G01*
X82027590Y-65892877D01*
X82000834Y-65874999D01*
X82027590Y-65857121D01*
X82213000Y-65671711D01*
X82213000Y-66078287D01*
G37*
%TD.AperFunction*%
D18*
X62338355Y-57250392D02*
X62433578Y-57366422D01*
X62549608Y-57461645D01*
X62681985Y-57532402D01*
X62738000Y-57549394D01*
X62738001Y-58717739D01*
X62733346Y-58764999D01*
X62744494Y-58878175D01*
X62751921Y-58953584D01*
X62764055Y-58993584D01*
X62806929Y-59134921D01*
X62896257Y-59302043D01*
X62946763Y-59363584D01*
X63016473Y-59448527D01*
X63053182Y-59478653D01*
X65403390Y-61828861D01*
X65388000Y-61906231D01*
X65388000Y-62223767D01*
X65449948Y-62535202D01*
X65571464Y-62828567D01*
X65747878Y-63092589D01*
X65972410Y-63317121D01*
X65999166Y-63334999D01*
X65972410Y-63352877D01*
X65747878Y-63577409D01*
X65571464Y-63841431D01*
X65449948Y-64134796D01*
X65388000Y-64446231D01*
X65388000Y-64763767D01*
X65403390Y-64841137D01*
X65106527Y-65138000D01*
X63204728Y-65138000D01*
X63073015Y-65067598D01*
X62929378Y-65024026D01*
X62780000Y-65009314D01*
X61220000Y-65009314D01*
X61070622Y-65024026D01*
X60926985Y-65067598D01*
X60794608Y-65138355D01*
X60678578Y-65233578D01*
X60650000Y-65268401D01*
X60621422Y-65233578D01*
X60505392Y-65138355D01*
X60373015Y-65067598D01*
X60229378Y-65024026D01*
X60080000Y-65009314D01*
X58520000Y-65009314D01*
X58370622Y-65024026D01*
X58226985Y-65067598D01*
X58095272Y-65138000D01*
X56353474Y-65138000D01*
X56096610Y-64881137D01*
X56112000Y-64803767D01*
X56112000Y-64486231D01*
X56050052Y-64174796D01*
X55928536Y-63881431D01*
X55752122Y-63617409D01*
X55527590Y-63392877D01*
X55500834Y-63374999D01*
X55527590Y-63357121D01*
X55752122Y-63132589D01*
X55928536Y-62868567D01*
X56050052Y-62575202D01*
X56112000Y-62263767D01*
X56112000Y-61946231D01*
X56096610Y-61868861D01*
X58446819Y-59518653D01*
X58483528Y-59488527D01*
X58603743Y-59342043D01*
X58693072Y-59174921D01*
X58748080Y-58993584D01*
X58762000Y-58852252D01*
X58762000Y-58852249D01*
X58766654Y-58804999D01*
X58762000Y-58757749D01*
X58762000Y-57549394D01*
X58818015Y-57532402D01*
X58950392Y-57461645D01*
X59066422Y-57366422D01*
X59161645Y-57250392D01*
X59183687Y-57209155D01*
X59250000Y-57215686D01*
X62250000Y-57215686D01*
X62316313Y-57209155D01*
X62338355Y-57250392D01*
%TA.AperFunction,NonConductor*%
D19*
G36*
X62338355Y-57250392D02*
G01*
X62433578Y-57366422D01*
X62549608Y-57461645D01*
X62681985Y-57532402D01*
X62738000Y-57549394D01*
X62738001Y-58717739D01*
X62733346Y-58764999D01*
X62744494Y-58878175D01*
X62751921Y-58953584D01*
X62764055Y-58993584D01*
X62806929Y-59134921D01*
X62896257Y-59302043D01*
X62946763Y-59363584D01*
X63016473Y-59448527D01*
X63053182Y-59478653D01*
X65403390Y-61828861D01*
X65388000Y-61906231D01*
X65388000Y-62223767D01*
X65449948Y-62535202D01*
X65571464Y-62828567D01*
X65747878Y-63092589D01*
X65972410Y-63317121D01*
X65999166Y-63334999D01*
X65972410Y-63352877D01*
X65747878Y-63577409D01*
X65571464Y-63841431D01*
X65449948Y-64134796D01*
X65388000Y-64446231D01*
X65388000Y-64763767D01*
X65403390Y-64841137D01*
X65106527Y-65138000D01*
X63204728Y-65138000D01*
X63073015Y-65067598D01*
X62929378Y-65024026D01*
X62780000Y-65009314D01*
X61220000Y-65009314D01*
X61070622Y-65024026D01*
X60926985Y-65067598D01*
X60794608Y-65138355D01*
X60678578Y-65233578D01*
X60650000Y-65268401D01*
X60621422Y-65233578D01*
X60505392Y-65138355D01*
X60373015Y-65067598D01*
X60229378Y-65024026D01*
X60080000Y-65009314D01*
X58520000Y-65009314D01*
X58370622Y-65024026D01*
X58226985Y-65067598D01*
X58095272Y-65138000D01*
X56353474Y-65138000D01*
X56096610Y-64881137D01*
X56112000Y-64803767D01*
X56112000Y-64486231D01*
X56050052Y-64174796D01*
X55928536Y-63881431D01*
X55752122Y-63617409D01*
X55527590Y-63392877D01*
X55500834Y-63374999D01*
X55527590Y-63357121D01*
X55752122Y-63132589D01*
X55928536Y-62868567D01*
X56050052Y-62575202D01*
X56112000Y-62263767D01*
X56112000Y-61946231D01*
X56096610Y-61868861D01*
X58446819Y-59518653D01*
X58483528Y-59488527D01*
X58603743Y-59342043D01*
X58693072Y-59174921D01*
X58748080Y-58993584D01*
X58762000Y-58852252D01*
X58762000Y-58852249D01*
X58766654Y-58804999D01*
X58762000Y-58757749D01*
X58762000Y-57549394D01*
X58818015Y-57532402D01*
X58950392Y-57461645D01*
X59066422Y-57366422D01*
X59161645Y-57250392D01*
X59183687Y-57209155D01*
X59250000Y-57215686D01*
X62250000Y-57215686D01*
X62316313Y-57209155D01*
X62338355Y-57250392D01*
G37*
%TD.AperFunction*%
D18*
X74280160Y-63071619D02*
X74453597Y-63164323D01*
X74641788Y-63221410D01*
X74837500Y-63240686D01*
X75412500Y-63240686D01*
X75608212Y-63221410D01*
X75796403Y-63164323D01*
X75969840Y-63071619D01*
X76000000Y-63046867D01*
X76030160Y-63071619D01*
X76203597Y-63164323D01*
X76391788Y-63221410D01*
X76587500Y-63240686D01*
X77162500Y-63240686D01*
X77358212Y-63221410D01*
X77546403Y-63164323D01*
X77719840Y-63071619D01*
X77853412Y-62962000D01*
X79660621Y-62962000D01*
X79747878Y-63092589D01*
X79972410Y-63317121D01*
X79999166Y-63334999D01*
X79972410Y-63352877D01*
X79747878Y-63577409D01*
X79607165Y-63788000D01*
X77853412Y-63788000D01*
X77719840Y-63678381D01*
X77546403Y-63585677D01*
X77358212Y-63528590D01*
X77162500Y-63509314D01*
X76587500Y-63509314D01*
X76391788Y-63528590D01*
X76203597Y-63585677D01*
X76030160Y-63678381D01*
X76000000Y-63703133D01*
X75969840Y-63678381D01*
X75796403Y-63585677D01*
X75608212Y-63528590D01*
X75412500Y-63509314D01*
X74837500Y-63509314D01*
X74641788Y-63528590D01*
X74453597Y-63585677D01*
X74280160Y-63678381D01*
X74146588Y-63788000D01*
X72366107Y-63788000D01*
X72252122Y-63617409D01*
X72027590Y-63392877D01*
X72000834Y-63374999D01*
X72027590Y-63357121D01*
X72252122Y-63132589D01*
X72366106Y-62962000D01*
X74146588Y-62962000D01*
X74280160Y-63071619D01*
%TA.AperFunction,NonConductor*%
D19*
G36*
X74280160Y-63071619D02*
G01*
X74453597Y-63164323D01*
X74641788Y-63221410D01*
X74837500Y-63240686D01*
X75412500Y-63240686D01*
X75608212Y-63221410D01*
X75796403Y-63164323D01*
X75969840Y-63071619D01*
X76000000Y-63046867D01*
X76030160Y-63071619D01*
X76203597Y-63164323D01*
X76391788Y-63221410D01*
X76587500Y-63240686D01*
X77162500Y-63240686D01*
X77358212Y-63221410D01*
X77546403Y-63164323D01*
X77719840Y-63071619D01*
X77853412Y-62962000D01*
X79660621Y-62962000D01*
X79747878Y-63092589D01*
X79972410Y-63317121D01*
X79999166Y-63334999D01*
X79972410Y-63352877D01*
X79747878Y-63577409D01*
X79607165Y-63788000D01*
X77853412Y-63788000D01*
X77719840Y-63678381D01*
X77546403Y-63585677D01*
X77358212Y-63528590D01*
X77162500Y-63509314D01*
X76587500Y-63509314D01*
X76391788Y-63528590D01*
X76203597Y-63585677D01*
X76030160Y-63678381D01*
X76000000Y-63703133D01*
X75969840Y-63678381D01*
X75796403Y-63585677D01*
X75608212Y-63528590D01*
X75412500Y-63509314D01*
X74837500Y-63509314D01*
X74641788Y-63528590D01*
X74453597Y-63585677D01*
X74280160Y-63678381D01*
X74146588Y-63788000D01*
X72366107Y-63788000D01*
X72252122Y-63617409D01*
X72027590Y-63392877D01*
X72000834Y-63374999D01*
X72027590Y-63357121D01*
X72252122Y-63132589D01*
X72366106Y-62962000D01*
X74146588Y-62962000D01*
X74280160Y-63071619D01*
G37*
%TD.AperFunction*%
D18*
X37472410Y-63357121D02*
X37499166Y-63374999D01*
X37472410Y-63392877D01*
X37287000Y-63578287D01*
X37287000Y-63171711D01*
X37472410Y-63357121D01*
%TA.AperFunction,NonConductor*%
D19*
G36*
X37472410Y-63357121D02*
G01*
X37499166Y-63374999D01*
X37472410Y-63392877D01*
X37287000Y-63578287D01*
X37287000Y-63171711D01*
X37472410Y-63357121D01*
G37*
%TD.AperFunction*%
D18*
X82213000Y-63538287D02*
X82027590Y-63352877D01*
X82000834Y-63334999D01*
X82027590Y-63317121D01*
X82213000Y-63131711D01*
X82213000Y-63538287D01*
%TA.AperFunction,NonConductor*%
D19*
G36*
X82213000Y-63538287D02*
G01*
X82027590Y-63352877D01*
X82000834Y-63334999D01*
X82027590Y-63317121D01*
X82213000Y-63131711D01*
X82213000Y-63538287D01*
G37*
%TD.AperFunction*%
D18*
X40547791Y-61236735D02*
X40066590Y-61717937D01*
X40050052Y-61634796D01*
X40020946Y-61564527D01*
X40458067Y-61127406D01*
X40547791Y-61236735D01*
%TA.AperFunction,NonConductor*%
D19*
G36*
X40547791Y-61236735D02*
G01*
X40066590Y-61717937D01*
X40050052Y-61634796D01*
X40020946Y-61564527D01*
X40458067Y-61127406D01*
X40547791Y-61236735D01*
G37*
%TD.AperFunction*%
D18*
X48967339Y-61552811D02*
X48949948Y-61594796D01*
X48933410Y-61677937D01*
X48470239Y-61214766D01*
X48541933Y-61127406D01*
X48967339Y-61552811D01*
%TA.AperFunction,NonConductor*%
D19*
G36*
X48967339Y-61552811D02*
G01*
X48949948Y-61594796D01*
X48933410Y-61677937D01*
X48470239Y-61214766D01*
X48541933Y-61127406D01*
X48967339Y-61552811D01*
G37*
%TD.AperFunction*%
D18*
X37472410Y-60817121D02*
X37499166Y-60834999D01*
X37472410Y-60852877D01*
X37287000Y-61038287D01*
X37287000Y-60631711D01*
X37472410Y-60817121D01*
%TA.AperFunction,NonConductor*%
D19*
G36*
X37472410Y-60817121D02*
G01*
X37499166Y-60834999D01*
X37472410Y-60852877D01*
X37287000Y-61038287D01*
X37287000Y-60631711D01*
X37472410Y-60817121D01*
G37*
%TD.AperFunction*%
D18*
X74850755Y-60515222D02*
X75024408Y-60567899D01*
X75205000Y-60585686D01*
X75650000Y-60585686D01*
X75830592Y-60567899D01*
X76000000Y-60516510D01*
X76169408Y-60567899D01*
X76350000Y-60585686D01*
X76795000Y-60585686D01*
X76975592Y-60567899D01*
X77149245Y-60515222D01*
X77248817Y-60462000D01*
X79687348Y-60462000D01*
X79747878Y-60552589D01*
X79972410Y-60777121D01*
X79999166Y-60794999D01*
X79972410Y-60812877D01*
X79747878Y-61037409D01*
X79747483Y-61038000D01*
X77853412Y-61038000D01*
X77719840Y-60928381D01*
X77546403Y-60835677D01*
X77358212Y-60778590D01*
X77162500Y-60759314D01*
X76587500Y-60759314D01*
X76391788Y-60778590D01*
X76203597Y-60835677D01*
X76030160Y-60928381D01*
X76000000Y-60953133D01*
X75969840Y-60928381D01*
X75796403Y-60835677D01*
X75608212Y-60778590D01*
X75412500Y-60759314D01*
X74837500Y-60759314D01*
X74641788Y-60778590D01*
X74453597Y-60835677D01*
X74280160Y-60928381D01*
X74146588Y-61038000D01*
X72212713Y-61038000D01*
X72027590Y-60852877D01*
X72000834Y-60834999D01*
X72027590Y-60817121D01*
X72252122Y-60592589D01*
X72339379Y-60462000D01*
X74751183Y-60462000D01*
X74850755Y-60515222D01*
%TA.AperFunction,NonConductor*%
D19*
G36*
X74850755Y-60515222D02*
G01*
X75024408Y-60567899D01*
X75205000Y-60585686D01*
X75650000Y-60585686D01*
X75830592Y-60567899D01*
X76000000Y-60516510D01*
X76169408Y-60567899D01*
X76350000Y-60585686D01*
X76795000Y-60585686D01*
X76975592Y-60567899D01*
X77149245Y-60515222D01*
X77248817Y-60462000D01*
X79687348Y-60462000D01*
X79747878Y-60552589D01*
X79972410Y-60777121D01*
X79999166Y-60794999D01*
X79972410Y-60812877D01*
X79747878Y-61037409D01*
X79747483Y-61038000D01*
X77853412Y-61038000D01*
X77719840Y-60928381D01*
X77546403Y-60835677D01*
X77358212Y-60778590D01*
X77162500Y-60759314D01*
X76587500Y-60759314D01*
X76391788Y-60778590D01*
X76203597Y-60835677D01*
X76030160Y-60928381D01*
X76000000Y-60953133D01*
X75969840Y-60928381D01*
X75796403Y-60835677D01*
X75608212Y-60778590D01*
X75412500Y-60759314D01*
X74837500Y-60759314D01*
X74641788Y-60778590D01*
X74453597Y-60835677D01*
X74280160Y-60928381D01*
X74146588Y-61038000D01*
X72212713Y-61038000D01*
X72027590Y-60852877D01*
X72000834Y-60834999D01*
X72027590Y-60817121D01*
X72252122Y-60592589D01*
X72339379Y-60462000D01*
X74751183Y-60462000D01*
X74850755Y-60515222D01*
G37*
%TD.AperFunction*%
D18*
X82213000Y-60998287D02*
X82027590Y-60812877D01*
X82000834Y-60794999D01*
X82027590Y-60777121D01*
X82213000Y-60591711D01*
X82213000Y-60998287D01*
%TA.AperFunction,NonConductor*%
D19*
G36*
X82213000Y-60998287D02*
G01*
X82027590Y-60812877D01*
X82000834Y-60794999D01*
X82027590Y-60777121D01*
X82213000Y-60591711D01*
X82213000Y-60998287D01*
G37*
%TD.AperFunction*%
D18*
X56781985Y-57532402D02*
X56838000Y-57549394D01*
X56838001Y-58406525D01*
X56679417Y-58565109D01*
X56698081Y-58503583D01*
X56712001Y-58362251D01*
X56712001Y-58362249D01*
X56716655Y-58314999D01*
X56712001Y-58267749D01*
X56712001Y-57494995D01*
X56781985Y-57532402D01*
%TA.AperFunction,NonConductor*%
D19*
G36*
X56781985Y-57532402D02*
G01*
X56838000Y-57549394D01*
X56838001Y-58406525D01*
X56679417Y-58565109D01*
X56698081Y-58503583D01*
X56712001Y-58362251D01*
X56712001Y-58362249D01*
X56716655Y-58314999D01*
X56712001Y-58267749D01*
X56712001Y-57494995D01*
X56781985Y-57532402D01*
G37*
%TD.AperFunction*%
D18*
X74850755Y-58015222D02*
X75024408Y-58067899D01*
X75205000Y-58085686D01*
X75650000Y-58085686D01*
X75830592Y-58067899D01*
X76000000Y-58016510D01*
X76169408Y-58067899D01*
X76350000Y-58085686D01*
X76795000Y-58085686D01*
X76975592Y-58067899D01*
X77149245Y-58015222D01*
X77248817Y-57962000D01*
X79714075Y-57962000D01*
X79747878Y-58012589D01*
X79972410Y-58237121D01*
X79999166Y-58254999D01*
X79972410Y-58272877D01*
X79747878Y-58497409D01*
X79720756Y-58538000D01*
X77248817Y-58538000D01*
X77149245Y-58484778D01*
X76975592Y-58432101D01*
X76795000Y-58414314D01*
X76350000Y-58414314D01*
X76169408Y-58432101D01*
X76000000Y-58483490D01*
X75830592Y-58432101D01*
X75650000Y-58414314D01*
X75205000Y-58414314D01*
X75024408Y-58432101D01*
X74850755Y-58484778D01*
X74751183Y-58538000D01*
X72252517Y-58538000D01*
X72252122Y-58537409D01*
X72027590Y-58312877D01*
X72000834Y-58294999D01*
X72027590Y-58277121D01*
X72252122Y-58052589D01*
X72312652Y-57962000D01*
X74751183Y-57962000D01*
X74850755Y-58015222D01*
%TA.AperFunction,NonConductor*%
D19*
G36*
X74850755Y-58015222D02*
G01*
X75024408Y-58067899D01*
X75205000Y-58085686D01*
X75650000Y-58085686D01*
X75830592Y-58067899D01*
X76000000Y-58016510D01*
X76169408Y-58067899D01*
X76350000Y-58085686D01*
X76795000Y-58085686D01*
X76975592Y-58067899D01*
X77149245Y-58015222D01*
X77248817Y-57962000D01*
X79714075Y-57962000D01*
X79747878Y-58012589D01*
X79972410Y-58237121D01*
X79999166Y-58254999D01*
X79972410Y-58272877D01*
X79747878Y-58497409D01*
X79720756Y-58538000D01*
X77248817Y-58538000D01*
X77149245Y-58484778D01*
X76975592Y-58432101D01*
X76795000Y-58414314D01*
X76350000Y-58414314D01*
X76169408Y-58432101D01*
X76000000Y-58483490D01*
X75830592Y-58432101D01*
X75650000Y-58414314D01*
X75205000Y-58414314D01*
X75024408Y-58432101D01*
X74850755Y-58484778D01*
X74751183Y-58538000D01*
X72252517Y-58538000D01*
X72252122Y-58537409D01*
X72027590Y-58312877D01*
X72000834Y-58294999D01*
X72027590Y-58277121D01*
X72252122Y-58052589D01*
X72312652Y-57962000D01*
X74751183Y-57962000D01*
X74850755Y-58015222D01*
G37*
%TD.AperFunction*%
D18*
X64788000Y-58227738D02*
X64783345Y-58274998D01*
X64796191Y-58405418D01*
X64801920Y-58463583D01*
X64820584Y-58525111D01*
X64662000Y-58366527D01*
X64662000Y-57549394D01*
X64718015Y-57532402D01*
X64787999Y-57494995D01*
X64788000Y-58227738D01*
%TA.AperFunction,NonConductor*%
D19*
G36*
X64788000Y-58227738D02*
G01*
X64783345Y-58274998D01*
X64796191Y-58405418D01*
X64801920Y-58463583D01*
X64820584Y-58525111D01*
X64662000Y-58366527D01*
X64662000Y-57549394D01*
X64718015Y-57532402D01*
X64787999Y-57494995D01*
X64788000Y-58227738D01*
G37*
%TD.AperFunction*%
D18*
X37472410Y-58277121D02*
X37499166Y-58294999D01*
X37472410Y-58312877D01*
X37287000Y-58498287D01*
X37287000Y-58091711D01*
X37472410Y-58277121D01*
%TA.AperFunction,NonConductor*%
D19*
G36*
X37472410Y-58277121D02*
G01*
X37499166Y-58294999D01*
X37472410Y-58312877D01*
X37287000Y-58498287D01*
X37287000Y-58091711D01*
X37472410Y-58277121D01*
G37*
%TD.AperFunction*%
D18*
X82213000Y-58458287D02*
X82027590Y-58272877D01*
X82000834Y-58254999D01*
X82027590Y-58237121D01*
X82213000Y-58051711D01*
X82213000Y-58458287D01*
%TA.AperFunction,NonConductor*%
D19*
G36*
X82213000Y-58458287D02*
G01*
X82027590Y-58272877D01*
X82000834Y-58254999D01*
X82027590Y-58237121D01*
X82213000Y-58051711D01*
X82213000Y-58458287D01*
G37*
%TD.AperFunction*%
D18*
X74850755Y-55515222D02*
X75024408Y-55567899D01*
X75205000Y-55585686D01*
X75650000Y-55585686D01*
X75830592Y-55567899D01*
X76000000Y-55516510D01*
X76169408Y-55567899D01*
X76350000Y-55585686D01*
X76795000Y-55585686D01*
X76975592Y-55567899D01*
X77149245Y-55515222D01*
X77248817Y-55462000D01*
X79740803Y-55462000D01*
X79747878Y-55472589D01*
X79972410Y-55697121D01*
X79999166Y-55714999D01*
X79972410Y-55732877D01*
X79747878Y-55957409D01*
X79694029Y-56038000D01*
X77248817Y-56038000D01*
X77149245Y-55984778D01*
X76975592Y-55932101D01*
X76795000Y-55914314D01*
X76350000Y-55914314D01*
X76169408Y-55932101D01*
X76000000Y-55983490D01*
X75830592Y-55932101D01*
X75650000Y-55914314D01*
X75205000Y-55914314D01*
X75024408Y-55932101D01*
X74850755Y-55984778D01*
X74751183Y-56038000D01*
X72279244Y-56038000D01*
X72252122Y-55997409D01*
X72027590Y-55772877D01*
X72000834Y-55754999D01*
X72027590Y-55737121D01*
X72252122Y-55512589D01*
X72285925Y-55462000D01*
X74751183Y-55462000D01*
X74850755Y-55515222D01*
%TA.AperFunction,NonConductor*%
D19*
G36*
X74850755Y-55515222D02*
G01*
X75024408Y-55567899D01*
X75205000Y-55585686D01*
X75650000Y-55585686D01*
X75830592Y-55567899D01*
X76000000Y-55516510D01*
X76169408Y-55567899D01*
X76350000Y-55585686D01*
X76795000Y-55585686D01*
X76975592Y-55567899D01*
X77149245Y-55515222D01*
X77248817Y-55462000D01*
X79740803Y-55462000D01*
X79747878Y-55472589D01*
X79972410Y-55697121D01*
X79999166Y-55714999D01*
X79972410Y-55732877D01*
X79747878Y-55957409D01*
X79694029Y-56038000D01*
X77248817Y-56038000D01*
X77149245Y-55984778D01*
X76975592Y-55932101D01*
X76795000Y-55914314D01*
X76350000Y-55914314D01*
X76169408Y-55932101D01*
X76000000Y-55983490D01*
X75830592Y-55932101D01*
X75650000Y-55914314D01*
X75205000Y-55914314D01*
X75024408Y-55932101D01*
X74850755Y-55984778D01*
X74751183Y-56038000D01*
X72279244Y-56038000D01*
X72252122Y-55997409D01*
X72027590Y-55772877D01*
X72000834Y-55754999D01*
X72027590Y-55737121D01*
X72252122Y-55512589D01*
X72285925Y-55462000D01*
X74751183Y-55462000D01*
X74850755Y-55515222D01*
G37*
%TD.AperFunction*%
D18*
X37472410Y-55737121D02*
X37499166Y-55754999D01*
X37472410Y-55772877D01*
X37287000Y-55958287D01*
X37287000Y-55551711D01*
X37472410Y-55737121D01*
%TA.AperFunction,NonConductor*%
D19*
G36*
X37472410Y-55737121D02*
G01*
X37499166Y-55754999D01*
X37472410Y-55772877D01*
X37287000Y-55958287D01*
X37287000Y-55551711D01*
X37472410Y-55737121D01*
G37*
%TD.AperFunction*%
D18*
X82213000Y-55918287D02*
X82027590Y-55732877D01*
X82000834Y-55714999D01*
X82027590Y-55697121D01*
X82213000Y-55511711D01*
X82213000Y-55918287D01*
%TA.AperFunction,NonConductor*%
D19*
G36*
X82213000Y-55918287D02*
G01*
X82027590Y-55732877D01*
X82000834Y-55714999D01*
X82027590Y-55697121D01*
X82213000Y-55511711D01*
X82213000Y-55918287D01*
G37*
%TD.AperFunction*%
D18*
X74850755Y-53015222D02*
X75024408Y-53067899D01*
X75205000Y-53085686D01*
X75650000Y-53085686D01*
X75830592Y-53067899D01*
X76000000Y-53016510D01*
X76169408Y-53067899D01*
X76350000Y-53085686D01*
X76795000Y-53085686D01*
X76975592Y-53067899D01*
X77149245Y-53015222D01*
X77248817Y-52962000D01*
X79777289Y-52962000D01*
X79972410Y-53157121D01*
X79999166Y-53174999D01*
X79972410Y-53192877D01*
X79747878Y-53417409D01*
X79667302Y-53538000D01*
X77248817Y-53538000D01*
X77149245Y-53484778D01*
X76975592Y-53432101D01*
X76795000Y-53414314D01*
X76350000Y-53414314D01*
X76169408Y-53432101D01*
X76000000Y-53483490D01*
X75830592Y-53432101D01*
X75650000Y-53414314D01*
X75205000Y-53414314D01*
X75024408Y-53432101D01*
X74850755Y-53484778D01*
X74751183Y-53538000D01*
X72305971Y-53538000D01*
X72252122Y-53457409D01*
X72027590Y-53232877D01*
X72000834Y-53214999D01*
X72027590Y-53197121D01*
X72252122Y-52972589D01*
X72259197Y-52962000D01*
X74751183Y-52962000D01*
X74850755Y-53015222D01*
%TA.AperFunction,NonConductor*%
D19*
G36*
X74850755Y-53015222D02*
G01*
X75024408Y-53067899D01*
X75205000Y-53085686D01*
X75650000Y-53085686D01*
X75830592Y-53067899D01*
X76000000Y-53016510D01*
X76169408Y-53067899D01*
X76350000Y-53085686D01*
X76795000Y-53085686D01*
X76975592Y-53067899D01*
X77149245Y-53015222D01*
X77248817Y-52962000D01*
X79777289Y-52962000D01*
X79972410Y-53157121D01*
X79999166Y-53174999D01*
X79972410Y-53192877D01*
X79747878Y-53417409D01*
X79667302Y-53538000D01*
X77248817Y-53538000D01*
X77149245Y-53484778D01*
X76975592Y-53432101D01*
X76795000Y-53414314D01*
X76350000Y-53414314D01*
X76169408Y-53432101D01*
X76000000Y-53483490D01*
X75830592Y-53432101D01*
X75650000Y-53414314D01*
X75205000Y-53414314D01*
X75024408Y-53432101D01*
X74850755Y-53484778D01*
X74751183Y-53538000D01*
X72305971Y-53538000D01*
X72252122Y-53457409D01*
X72027590Y-53232877D01*
X72000834Y-53214999D01*
X72027590Y-53197121D01*
X72252122Y-52972589D01*
X72259197Y-52962000D01*
X74751183Y-52962000D01*
X74850755Y-53015222D01*
G37*
%TD.AperFunction*%
D18*
X37472410Y-53197121D02*
X37499166Y-53214999D01*
X37472410Y-53232877D01*
X37287000Y-53418287D01*
X37287000Y-53011711D01*
X37472410Y-53197121D01*
%TA.AperFunction,NonConductor*%
D19*
G36*
X37472410Y-53197121D02*
G01*
X37499166Y-53214999D01*
X37472410Y-53232877D01*
X37287000Y-53418287D01*
X37287000Y-53011711D01*
X37472410Y-53197121D01*
G37*
%TD.AperFunction*%
D18*
X82213000Y-53378287D02*
X82027590Y-53192877D01*
X82000834Y-53174999D01*
X82027590Y-53157121D01*
X82213000Y-52971711D01*
X82213000Y-53378287D01*
%TA.AperFunction,NonConductor*%
D19*
G36*
X82213000Y-53378287D02*
G01*
X82027590Y-53192877D01*
X82000834Y-53174999D01*
X82027590Y-53157121D01*
X82213000Y-52971711D01*
X82213000Y-53378287D01*
G37*
%TD.AperFunction*%
D18*
X66236432Y-45396463D02*
X65972410Y-45572877D01*
X65747878Y-45797409D01*
X65571464Y-46061431D01*
X65449948Y-46354796D01*
X65388000Y-46666231D01*
X65388000Y-46983767D01*
X65403390Y-47061137D01*
X63053182Y-49411345D01*
X63016473Y-49441471D01*
X62968440Y-49500000D01*
X62896257Y-49587955D01*
X62806929Y-49755077D01*
X62762348Y-49902043D01*
X62751921Y-49936415D01*
X62733346Y-50124999D01*
X62738001Y-50172259D01*
X62738000Y-51750606D01*
X62681985Y-51767598D01*
X62549608Y-51838355D01*
X62433578Y-51933578D01*
X62338355Y-52049608D01*
X62316313Y-52090845D01*
X62250000Y-52084314D01*
X59250000Y-52084314D01*
X59183687Y-52090845D01*
X59161645Y-52049608D01*
X59066422Y-51933578D01*
X58950392Y-51838355D01*
X58818015Y-51767598D01*
X58762000Y-51750606D01*
X58762000Y-50212249D01*
X58766654Y-50164999D01*
X58759122Y-50088526D01*
X58748080Y-49976414D01*
X58693072Y-49795077D01*
X58603743Y-49627955D01*
X58483528Y-49481471D01*
X58446819Y-49451345D01*
X56115686Y-47120213D01*
X56115686Y-46014999D01*
X56100974Y-45865621D01*
X56057402Y-45721984D01*
X55986645Y-45589607D01*
X55891422Y-45473577D01*
X55775392Y-45378354D01*
X55643015Y-45307597D01*
X55575116Y-45287000D01*
X66500699Y-45287000D01*
X66236432Y-45396463D01*
%TA.AperFunction,NonConductor*%
D19*
G36*
X66236432Y-45396463D02*
G01*
X65972410Y-45572877D01*
X65747878Y-45797409D01*
X65571464Y-46061431D01*
X65449948Y-46354796D01*
X65388000Y-46666231D01*
X65388000Y-46983767D01*
X65403390Y-47061137D01*
X63053182Y-49411345D01*
X63016473Y-49441471D01*
X62968440Y-49500000D01*
X62896257Y-49587955D01*
X62806929Y-49755077D01*
X62762348Y-49902043D01*
X62751921Y-49936415D01*
X62733346Y-50124999D01*
X62738001Y-50172259D01*
X62738000Y-51750606D01*
X62681985Y-51767598D01*
X62549608Y-51838355D01*
X62433578Y-51933578D01*
X62338355Y-52049608D01*
X62316313Y-52090845D01*
X62250000Y-52084314D01*
X59250000Y-52084314D01*
X59183687Y-52090845D01*
X59161645Y-52049608D01*
X59066422Y-51933578D01*
X58950392Y-51838355D01*
X58818015Y-51767598D01*
X58762000Y-51750606D01*
X58762000Y-50212249D01*
X58766654Y-50164999D01*
X58759122Y-50088526D01*
X58748080Y-49976414D01*
X58693072Y-49795077D01*
X58603743Y-49627955D01*
X58483528Y-49481471D01*
X58446819Y-49451345D01*
X56115686Y-47120213D01*
X56115686Y-46014999D01*
X56100974Y-45865621D01*
X56057402Y-45721984D01*
X55986645Y-45589607D01*
X55891422Y-45473577D01*
X55775392Y-45378354D01*
X55643015Y-45307597D01*
X55575116Y-45287000D01*
X66500699Y-45287000D01*
X66236432Y-45396463D01*
G37*
%TD.AperFunction*%
D18*
X64801920Y-50426415D02*
X64801312Y-50432589D01*
X64783345Y-50615000D01*
X64788000Y-50662260D01*
X64787999Y-51805005D01*
X64718015Y-51767598D01*
X64662000Y-51750606D01*
X64662000Y-50523471D01*
X64820584Y-50364887D01*
X64801920Y-50426415D01*
%TA.AperFunction,NonConductor*%
D19*
G36*
X64801920Y-50426415D02*
G01*
X64801312Y-50432589D01*
X64783345Y-50615000D01*
X64788000Y-50662260D01*
X64787999Y-51805005D01*
X64718015Y-51767598D01*
X64662000Y-51750606D01*
X64662000Y-50523471D01*
X64820584Y-50364887D01*
X64801920Y-50426415D01*
G37*
%TD.AperFunction*%
D18*
X56838001Y-50563473D02*
X56838000Y-51750606D01*
X56781985Y-51767598D01*
X56712001Y-51805005D01*
X56712001Y-50702249D01*
X56716655Y-50654999D01*
X56709916Y-50586577D01*
X56698081Y-50466415D01*
X56679417Y-50404889D01*
X56838001Y-50563473D01*
%TA.AperFunction,NonConductor*%
D19*
G36*
X56838001Y-50563473D02*
G01*
X56838000Y-51750606D01*
X56781985Y-51767598D01*
X56712001Y-51805005D01*
X56712001Y-50702249D01*
X56716655Y-50654999D01*
X56709916Y-50586577D01*
X56698081Y-50466415D01*
X56679417Y-50404889D01*
X56838001Y-50563473D01*
G37*
%TD.AperFunction*%
D18*
X73905488Y-50414285D02*
X74031801Y-50568199D01*
X74185715Y-50694512D01*
X74361313Y-50788372D01*
X74551849Y-50846170D01*
X74749999Y-50865686D01*
X75400001Y-50865686D01*
X75598151Y-50846170D01*
X75788687Y-50788372D01*
X75964285Y-50694512D01*
X76100000Y-50583134D01*
X76235715Y-50694512D01*
X76411313Y-50788372D01*
X76601849Y-50846170D01*
X76799999Y-50865686D01*
X77450001Y-50865686D01*
X77648151Y-50846170D01*
X77838687Y-50788372D01*
X78014285Y-50694512D01*
X78168199Y-50568199D01*
X78294512Y-50414285D01*
X78322459Y-50362000D01*
X79727439Y-50362000D01*
X79747878Y-50392589D01*
X79972410Y-50617121D01*
X79999166Y-50634999D01*
X79972410Y-50652877D01*
X79747878Y-50877409D01*
X79640574Y-51038000D01*
X77248817Y-51038000D01*
X77149245Y-50984778D01*
X76975592Y-50932101D01*
X76795000Y-50914314D01*
X76350000Y-50914314D01*
X76169408Y-50932101D01*
X76000000Y-50983490D01*
X75830592Y-50932101D01*
X75650000Y-50914314D01*
X75205000Y-50914314D01*
X75024408Y-50932101D01*
X74850755Y-50984778D01*
X74751183Y-51038000D01*
X72332698Y-51038000D01*
X72252122Y-50917409D01*
X72027590Y-50692877D01*
X72000834Y-50674999D01*
X72027590Y-50657121D01*
X72252122Y-50432589D01*
X72299288Y-50362000D01*
X73877541Y-50362000D01*
X73905488Y-50414285D01*
%TA.AperFunction,NonConductor*%
D19*
G36*
X73905488Y-50414285D02*
G01*
X74031801Y-50568199D01*
X74185715Y-50694512D01*
X74361313Y-50788372D01*
X74551849Y-50846170D01*
X74749999Y-50865686D01*
X75400001Y-50865686D01*
X75598151Y-50846170D01*
X75788687Y-50788372D01*
X75964285Y-50694512D01*
X76100000Y-50583134D01*
X76235715Y-50694512D01*
X76411313Y-50788372D01*
X76601849Y-50846170D01*
X76799999Y-50865686D01*
X77450001Y-50865686D01*
X77648151Y-50846170D01*
X77838687Y-50788372D01*
X78014285Y-50694512D01*
X78168199Y-50568199D01*
X78294512Y-50414285D01*
X78322459Y-50362000D01*
X79727439Y-50362000D01*
X79747878Y-50392589D01*
X79972410Y-50617121D01*
X79999166Y-50634999D01*
X79972410Y-50652877D01*
X79747878Y-50877409D01*
X79640574Y-51038000D01*
X77248817Y-51038000D01*
X77149245Y-50984778D01*
X76975592Y-50932101D01*
X76795000Y-50914314D01*
X76350000Y-50914314D01*
X76169408Y-50932101D01*
X76000000Y-50983490D01*
X75830592Y-50932101D01*
X75650000Y-50914314D01*
X75205000Y-50914314D01*
X75024408Y-50932101D01*
X74850755Y-50984778D01*
X74751183Y-51038000D01*
X72332698Y-51038000D01*
X72252122Y-50917409D01*
X72027590Y-50692877D01*
X72000834Y-50674999D01*
X72027590Y-50657121D01*
X72252122Y-50432589D01*
X72299288Y-50362000D01*
X73877541Y-50362000D01*
X73905488Y-50414285D01*
G37*
%TD.AperFunction*%
D18*
X37472410Y-50657121D02*
X37499166Y-50674999D01*
X37472410Y-50692877D01*
X37287000Y-50878287D01*
X37287000Y-50471711D01*
X37472410Y-50657121D01*
%TA.AperFunction,NonConductor*%
D19*
G36*
X37472410Y-50657121D02*
G01*
X37499166Y-50674999D01*
X37472410Y-50692877D01*
X37287000Y-50878287D01*
X37287000Y-50471711D01*
X37472410Y-50657121D01*
G37*
%TD.AperFunction*%
D18*
X82213000Y-50838287D02*
X82027590Y-50652877D01*
X82000834Y-50634999D01*
X82027590Y-50617121D01*
X82213000Y-50431711D01*
X82213000Y-50838287D01*
%TA.AperFunction,NonConductor*%
D19*
G36*
X82213000Y-50838287D02*
G01*
X82027590Y-50652877D01*
X82000834Y-50634999D01*
X82027590Y-50617121D01*
X82213000Y-50431711D01*
X82213000Y-50838287D01*
G37*
%TD.AperFunction*%
D18*
X48949948Y-49835202D02*
X48990136Y-49932224D01*
X48289177Y-50633184D01*
X48150418Y-50559016D01*
X48132032Y-50553439D01*
X48933410Y-49752061D01*
X48949948Y-49835202D01*
%TA.AperFunction,NonConductor*%
D19*
G36*
X48949948Y-49835202D02*
G01*
X48990136Y-49932224D01*
X48289177Y-50633184D01*
X48150418Y-50559016D01*
X48132032Y-50553439D01*
X48933410Y-49752061D01*
X48949948Y-49835202D01*
G37*
%TD.AperFunction*%
D18*
X79972410Y-48077121D02*
X79999166Y-48094999D01*
X79972410Y-48112877D01*
X79747878Y-48337409D01*
X79680665Y-48438000D01*
X78322459Y-48438000D01*
X78294512Y-48385715D01*
X78168199Y-48231801D01*
X78068523Y-48150000D01*
X78168199Y-48068199D01*
X78294512Y-47914285D01*
X78322459Y-47862000D01*
X79757289Y-47862000D01*
X79972410Y-48077121D01*
%TA.AperFunction,NonConductor*%
D19*
G36*
X79972410Y-48077121D02*
G01*
X79999166Y-48094999D01*
X79972410Y-48112877D01*
X79747878Y-48337409D01*
X79680665Y-48438000D01*
X78322459Y-48438000D01*
X78294512Y-48385715D01*
X78168199Y-48231801D01*
X78068523Y-48150000D01*
X78168199Y-48068199D01*
X78294512Y-47914285D01*
X78322459Y-47862000D01*
X79757289Y-47862000D01*
X79972410Y-48077121D01*
G37*
%TD.AperFunction*%
D18*
X73905488Y-47914285D02*
X74031801Y-48068199D01*
X74131477Y-48150000D01*
X74031801Y-48231801D01*
X73905488Y-48385715D01*
X73877541Y-48438000D01*
X72292608Y-48438000D01*
X72252122Y-48377409D01*
X72243437Y-48368724D01*
X72275392Y-48351644D01*
X72391422Y-48256421D01*
X72486645Y-48140391D01*
X72557402Y-48008014D01*
X72600974Y-47864377D01*
X72601208Y-47862000D01*
X73877541Y-47862000D01*
X73905488Y-47914285D01*
%TA.AperFunction,NonConductor*%
D19*
G36*
X73905488Y-47914285D02*
G01*
X74031801Y-48068199D01*
X74131477Y-48150000D01*
X74031801Y-48231801D01*
X73905488Y-48385715D01*
X73877541Y-48438000D01*
X72292608Y-48438000D01*
X72252122Y-48377409D01*
X72243437Y-48368724D01*
X72275392Y-48351644D01*
X72391422Y-48256421D01*
X72486645Y-48140391D01*
X72557402Y-48008014D01*
X72600974Y-47864377D01*
X72601208Y-47862000D01*
X73877541Y-47862000D01*
X73905488Y-47914285D01*
G37*
%TD.AperFunction*%
D18*
X82213000Y-48298287D02*
X82027590Y-48112877D01*
X82000834Y-48094999D01*
X82027590Y-48077121D01*
X82213000Y-47891711D01*
X82213000Y-48298287D01*
%TA.AperFunction,NonConductor*%
D19*
G36*
X82213000Y-48298287D02*
G01*
X82027590Y-48112877D01*
X82000834Y-48094999D01*
X82027590Y-48077121D01*
X82213000Y-47891711D01*
X82213000Y-48298287D01*
G37*
%TD.AperFunction*%
D18*
X76181477Y-48150000D02*
X76100000Y-48216866D01*
X76018523Y-48150000D01*
X76100000Y-48083134D01*
X76181477Y-48150000D01*
%TA.AperFunction,NonConductor*%
D19*
G36*
X76181477Y-48150000D02*
G01*
X76100000Y-48216866D01*
X76018523Y-48150000D01*
X76100000Y-48083134D01*
X76181477Y-48150000D01*
G37*
%TD.AperFunction*%
D18*
X80236432Y-45396463D02*
X79972410Y-45572877D01*
X79747878Y-45797409D01*
X79653938Y-45938000D01*
X78322459Y-45938000D01*
X78294512Y-45885715D01*
X78168199Y-45731801D01*
X78014285Y-45605488D01*
X77838687Y-45511628D01*
X77648151Y-45453830D01*
X77450001Y-45434314D01*
X76799999Y-45434314D01*
X76601849Y-45453830D01*
X76411313Y-45511628D01*
X76235715Y-45605488D01*
X76100000Y-45716866D01*
X75964285Y-45605488D01*
X75788687Y-45511628D01*
X75598151Y-45453830D01*
X75400001Y-45434314D01*
X74749999Y-45434314D01*
X74551849Y-45453830D01*
X74361313Y-45511628D01*
X74185715Y-45605488D01*
X74031801Y-45731801D01*
X73905488Y-45885715D01*
X73877541Y-45938000D01*
X72608102Y-45938000D01*
X72600974Y-45865621D01*
X72557402Y-45721984D01*
X72486645Y-45589607D01*
X72391422Y-45473577D01*
X72275392Y-45378354D01*
X72143015Y-45307597D01*
X72075116Y-45287000D01*
X80500699Y-45287000D01*
X80236432Y-45396463D01*
%TA.AperFunction,NonConductor*%
D19*
G36*
X80236432Y-45396463D02*
G01*
X79972410Y-45572877D01*
X79747878Y-45797409D01*
X79653938Y-45938000D01*
X78322459Y-45938000D01*
X78294512Y-45885715D01*
X78168199Y-45731801D01*
X78014285Y-45605488D01*
X77838687Y-45511628D01*
X77648151Y-45453830D01*
X77450001Y-45434314D01*
X76799999Y-45434314D01*
X76601849Y-45453830D01*
X76411313Y-45511628D01*
X76235715Y-45605488D01*
X76100000Y-45716866D01*
X75964285Y-45605488D01*
X75788687Y-45511628D01*
X75598151Y-45453830D01*
X75400001Y-45434314D01*
X74749999Y-45434314D01*
X74551849Y-45453830D01*
X74361313Y-45511628D01*
X74185715Y-45605488D01*
X74031801Y-45731801D01*
X73905488Y-45885715D01*
X73877541Y-45938000D01*
X72608102Y-45938000D01*
X72600974Y-45865621D01*
X72557402Y-45721984D01*
X72486645Y-45589607D01*
X72391422Y-45473577D01*
X72275392Y-45378354D01*
X72143015Y-45307597D01*
X72075116Y-45287000D01*
X80500699Y-45287000D01*
X80236432Y-45396463D01*
G37*
%TD.AperFunction*%
D18*
X82213000Y-45758287D02*
X82027590Y-45572877D01*
X81763568Y-45396463D01*
X81499301Y-45287000D01*
X82213000Y-45287000D01*
X82213000Y-45758287D01*
%TA.AperFunction,NonConductor*%
D19*
G36*
X82213000Y-45758287D02*
G01*
X82027590Y-45572877D01*
X81763568Y-45396463D01*
X81499301Y-45287000D01*
X82213000Y-45287000D01*
X82213000Y-45758287D01*
G37*
%TD.AperFunction*%
D18*
X37356985Y-45307597D02*
X37287000Y-45345005D01*
X37287000Y-45287000D01*
X37424884Y-45287000D01*
X37356985Y-45307597D01*
%TA.AperFunction,NonConductor*%
D19*
G36*
X37356985Y-45307597D02*
G01*
X37287000Y-45345005D01*
X37287000Y-45287000D01*
X37424884Y-45287000D01*
X37356985Y-45307597D01*
G37*
%TD.AperFunction*%
M02*
