%TF.GenerationSoftware,KiCad,Pcbnew,5.1.10*%
%TF.CreationDate,2021-10-22T01:18:59+03:00*%
%TF.ProjectId,breakouts,62726561-6b6f-4757-9473-2e6b69636164,rev?*%
%TF.SameCoordinates,Original*%
%TF.FileFunction,Legend,Top*%
%TF.FilePolarity,Positive*%
%FSLAX46Y46*%
G04 Gerber Fmt 4.6, Leading zero omitted, Abs format (unit mm)*
G04 Created by KiCad (PCBNEW 5.1.10) date 2021-10-22 01:18:59*
%MOMM*%
%LPD*%
G01*
G04 APERTURE LIST*
%ADD10C,0.120000*%
%ADD11C,0.100000*%
%ADD12C,0.150000*%
%ADD13C,0.160000*%
%ADD14R,1.650000X2.850000*%
%ADD15O,1.700000X1.700000*%
%ADD16R,1.700000X1.700000*%
%ADD17R,1.560000X0.650000*%
%ADD18R,1.500000X1.800000*%
%ADD19R,1.450000X0.450000*%
G04 APERTURE END LIST*
D10*
X78740000Y-82550000D02*
X80010000Y-83820000D01*
X73660000Y-82550000D02*
X78740000Y-82550000D01*
X72390000Y-83820000D02*
X73660000Y-82550000D01*
X71120000Y-78740000D02*
X81280000Y-78740000D01*
X71120000Y-60960000D02*
X81280000Y-60960000D01*
X71120000Y-50800000D02*
X81280000Y-50800000D01*
X54610000Y-63500000D02*
X67310000Y-63500000D01*
X54610000Y-71120000D02*
X67310000Y-71120000D01*
X54610000Y-78740000D02*
X67310000Y-78740000D01*
X38100000Y-81280000D02*
X50800000Y-81280000D01*
X38100000Y-66040000D02*
X50800000Y-66040000D01*
%TO.C,J20*%
X44500000Y-71390000D02*
X41625000Y-71390000D01*
X44500000Y-71390000D02*
X46000000Y-71390000D01*
X44500000Y-75610000D02*
X43000000Y-75610000D01*
X44500000Y-75610000D02*
X46000000Y-75610000D01*
%TO.C,J18*%
X81000000Y-88794999D02*
X79670000Y-88794999D01*
X79670000Y-88794999D02*
X79670000Y-87464999D01*
X79670000Y-86194999D02*
X79670000Y-45494999D01*
X82330000Y-45494999D02*
X79670000Y-45494999D01*
X82330000Y-86194999D02*
X82330000Y-45494999D01*
X82330000Y-86194999D02*
X79670000Y-86194999D01*
%TO.C,J16*%
X71000000Y-45534999D02*
X72330000Y-45534999D01*
X72330000Y-45534999D02*
X72330000Y-46864999D01*
X72330000Y-48134999D02*
X72330000Y-88834999D01*
X69670000Y-88834999D02*
X72330000Y-88834999D01*
X69670000Y-48134999D02*
X69670000Y-88834999D01*
X69670000Y-48134999D02*
X72330000Y-48134999D01*
%TO.C,J15*%
X67000000Y-88794999D02*
X65670000Y-88794999D01*
X65670000Y-88794999D02*
X65670000Y-87464999D01*
X65670000Y-86194999D02*
X65670000Y-45494999D01*
X68330000Y-45494999D02*
X65670000Y-45494999D01*
X68330000Y-86194999D02*
X68330000Y-45494999D01*
X68330000Y-86194999D02*
X65670000Y-86194999D01*
%TO.C,J13*%
X54500000Y-45534999D02*
X55830000Y-45534999D01*
X55830000Y-45534999D02*
X55830000Y-46864999D01*
X55830000Y-48134999D02*
X55830000Y-88834999D01*
X53170000Y-88834999D02*
X55830000Y-88834999D01*
X53170000Y-48134999D02*
X53170000Y-88834999D01*
X53170000Y-48134999D02*
X55830000Y-48134999D01*
%TO.C,J12*%
X50500000Y-88794999D02*
X49170000Y-88794999D01*
X49170000Y-88794999D02*
X49170000Y-87464999D01*
X49170000Y-86194999D02*
X49170000Y-45494999D01*
X51830000Y-45494999D02*
X49170000Y-45494999D01*
X51830000Y-86194999D02*
X51830000Y-45494999D01*
X51830000Y-86194999D02*
X49170000Y-86194999D01*
%TO.C,J11*%
X38500000Y-45534999D02*
X39830000Y-45534999D01*
X39830000Y-45534999D02*
X39830000Y-46864999D01*
X39830000Y-48134999D02*
X39830000Y-88834999D01*
X37170000Y-88834999D02*
X39830000Y-88834999D01*
X37170000Y-48134999D02*
X37170000Y-88834999D01*
X37170000Y-48134999D02*
X39830000Y-48134999D01*
%TO.C,J28*%
X45650000Y-83340000D02*
X42700000Y-83340000D01*
X43850000Y-86560000D02*
X45650000Y-86560000D01*
%TO.C,J26*%
X60500000Y-81440000D02*
X57050000Y-81440000D01*
X60500000Y-81440000D02*
X62450000Y-81440000D01*
X60500000Y-86560000D02*
X58550000Y-86560000D01*
X60500000Y-86560000D02*
X62450000Y-86560000D01*
%TO.C,J22*%
X61750000Y-73390000D02*
X58800000Y-73390000D01*
X59950000Y-76610000D02*
X61750000Y-76610000D01*
%TO.C,J21*%
X74340000Y-72985000D02*
X76800000Y-72985000D01*
X74340000Y-71515000D02*
X74340000Y-72985000D01*
X76800000Y-71515000D02*
X74340000Y-71515000D01*
%TO.C,J19*%
X74340000Y-70485000D02*
X76800000Y-70485000D01*
X74340000Y-69015000D02*
X74340000Y-70485000D01*
X76800000Y-69015000D02*
X74340000Y-69015000D01*
%TO.C,J17*%
X74340000Y-67985000D02*
X76800000Y-67985000D01*
X74340000Y-66515000D02*
X74340000Y-67985000D01*
X76800000Y-66515000D02*
X74340000Y-66515000D01*
D11*
%TO.C,J8*%
X74785000Y-59500000D02*
G75*
G03*
X74785000Y-59500000I-50000J0D01*
G01*
%TO.C,J7*%
X74785000Y-57000000D02*
G75*
G03*
X74785000Y-57000000I-50000J0D01*
G01*
D10*
%TO.C,J30*%
X73540000Y-89285000D02*
X77600000Y-89285000D01*
X73540000Y-86115000D02*
X73540000Y-89285000D01*
X77600000Y-86115000D02*
X73540000Y-86115000D01*
%TO.C,J29*%
X73540000Y-86085000D02*
X77600000Y-86085000D01*
X73540000Y-82915000D02*
X73540000Y-86085000D01*
X77600000Y-82915000D02*
X73540000Y-82915000D01*
%TO.C,J14*%
X61550000Y-65440000D02*
X58600000Y-65440000D01*
X59750000Y-68660000D02*
X61550000Y-68660000D01*
%TO.C,J27*%
X74240000Y-50360000D02*
X77100000Y-50360000D01*
X74240000Y-48440000D02*
X74240000Y-50360000D01*
X77100000Y-48440000D02*
X74240000Y-48440000D01*
%TO.C,J25*%
X74240000Y-47860000D02*
X77100000Y-47860000D01*
X74240000Y-45940000D02*
X74240000Y-47860000D01*
X77100000Y-45940000D02*
X74240000Y-45940000D01*
D12*
%TO.C,J5*%
X58425000Y-52150000D02*
X57075000Y-52150000D01*
X58425000Y-57275000D02*
X63075000Y-57275000D01*
X58425000Y-52025000D02*
X63075000Y-52025000D01*
X58425000Y-57275000D02*
X58425000Y-57050000D01*
X63075000Y-57275000D02*
X63075000Y-57050000D01*
X63075000Y-52025000D02*
X63075000Y-52250000D01*
X58425000Y-52025000D02*
X58425000Y-52150000D01*
D10*
%TO.C,J24*%
X74340000Y-78135000D02*
X76800000Y-78135000D01*
X74340000Y-76665000D02*
X74340000Y-78135000D01*
X76800000Y-76665000D02*
X74340000Y-76665000D01*
%TO.C,J23*%
X74340000Y-75485000D02*
X76800000Y-75485000D01*
X74340000Y-74015000D02*
X74340000Y-75485000D01*
X76800000Y-74015000D02*
X74340000Y-74015000D01*
%TO.C,J10*%
X74340000Y-65485000D02*
X76800000Y-65485000D01*
X74340000Y-64015000D02*
X74340000Y-65485000D01*
X76800000Y-64015000D02*
X74340000Y-64015000D01*
%TO.C,J9*%
X74340000Y-62735000D02*
X76800000Y-62735000D01*
X74340000Y-61265000D02*
X74340000Y-62735000D01*
X76800000Y-61265000D02*
X74340000Y-61265000D01*
D11*
%TO.C,J6*%
X74785000Y-54500000D02*
G75*
G03*
X74785000Y-54500000I-50000J0D01*
G01*
%TO.C,J3*%
X74785000Y-52000000D02*
G75*
G03*
X74785000Y-52000000I-50000J0D01*
G01*
%TO.C,J2*%
X74785000Y-81600000D02*
G75*
G03*
X74785000Y-81600000I-50000J0D01*
G01*
D10*
%TO.C,J4*%
X44500000Y-61060000D02*
X46450000Y-61060000D01*
X44500000Y-61060000D02*
X42550000Y-61060000D01*
X44500000Y-50940000D02*
X46450000Y-50940000D01*
X44500000Y-50940000D02*
X41050000Y-50940000D01*
D11*
%TO.C,J1*%
X74785000Y-79800000D02*
G75*
G03*
X74785000Y-79800000I-50000J0D01*
G01*
%TO.C,J20*%
D12*
X40233333Y-76902380D02*
X40233333Y-75902380D01*
X40566666Y-76616666D01*
X40900000Y-75902380D01*
X40900000Y-76902380D01*
X41328571Y-76854761D02*
X41471428Y-76902380D01*
X41709523Y-76902380D01*
X41804761Y-76854761D01*
X41852380Y-76807142D01*
X41900000Y-76711904D01*
X41900000Y-76616666D01*
X41852380Y-76521428D01*
X41804761Y-76473809D01*
X41709523Y-76426190D01*
X41519047Y-76378571D01*
X41423809Y-76330952D01*
X41376190Y-76283333D01*
X41328571Y-76188095D01*
X41328571Y-76092857D01*
X41376190Y-75997619D01*
X41423809Y-75950000D01*
X41519047Y-75902380D01*
X41757142Y-75902380D01*
X41900000Y-75950000D01*
X42519047Y-75902380D02*
X42709523Y-75902380D01*
X42804761Y-75950000D01*
X42900000Y-76045238D01*
X42947619Y-76235714D01*
X42947619Y-76569047D01*
X42900000Y-76759523D01*
X42804761Y-76854761D01*
X42709523Y-76902380D01*
X42519047Y-76902380D01*
X42423809Y-76854761D01*
X42328571Y-76759523D01*
X42280952Y-76569047D01*
X42280952Y-76235714D01*
X42328571Y-76045238D01*
X42423809Y-75950000D01*
X42519047Y-75902380D01*
X43376190Y-76902380D02*
X43376190Y-75902380D01*
X43757142Y-75902380D01*
X43852380Y-75950000D01*
X43900000Y-75997619D01*
X43947619Y-76092857D01*
X43947619Y-76235714D01*
X43900000Y-76330952D01*
X43852380Y-76378571D01*
X43757142Y-76426190D01*
X43376190Y-76426190D01*
X44376190Y-76521428D02*
X45138095Y-76521428D01*
X46138095Y-76902380D02*
X45566666Y-76902380D01*
X45852380Y-76902380D02*
X45852380Y-75902380D01*
X45757142Y-76045238D01*
X45661904Y-76140476D01*
X45566666Y-76188095D01*
X46519047Y-75997619D02*
X46566666Y-75950000D01*
X46661904Y-75902380D01*
X46900000Y-75902380D01*
X46995238Y-75950000D01*
X47042857Y-75997619D01*
X47090476Y-76092857D01*
X47090476Y-76188095D01*
X47042857Y-76330952D01*
X46471428Y-76902380D01*
X47090476Y-76902380D01*
X47519047Y-76521428D02*
X48280952Y-76521428D01*
X48661904Y-75902380D02*
X49280952Y-75902380D01*
X48947619Y-76283333D01*
X49090476Y-76283333D01*
X49185714Y-76330952D01*
X49233333Y-76378571D01*
X49280952Y-76473809D01*
X49280952Y-76711904D01*
X49233333Y-76807142D01*
X49185714Y-76854761D01*
X49090476Y-76902380D01*
X48804761Y-76902380D01*
X48709523Y-76854761D01*
X48661904Y-76807142D01*
X49709523Y-76902380D02*
X49709523Y-75902380D01*
X50090476Y-75902380D01*
X50185714Y-75950000D01*
X50233333Y-75997619D01*
X50280952Y-76092857D01*
X50280952Y-76235714D01*
X50233333Y-76330952D01*
X50185714Y-76378571D01*
X50090476Y-76426190D01*
X49709523Y-76426190D01*
X50900000Y-75902380D02*
X50995238Y-75902380D01*
X51090476Y-75950000D01*
X51138095Y-75997619D01*
X51185714Y-76092857D01*
X51233333Y-76283333D01*
X51233333Y-76521428D01*
X51185714Y-76711904D01*
X51138095Y-76807142D01*
X51090476Y-76854761D01*
X50995238Y-76902380D01*
X50900000Y-76902380D01*
X50804761Y-76854761D01*
X50757142Y-76807142D01*
X50709523Y-76711904D01*
X50661904Y-76521428D01*
X50661904Y-76283333D01*
X50709523Y-76092857D01*
X50757142Y-75997619D01*
X50804761Y-75950000D01*
X50900000Y-75902380D01*
X51661904Y-76807142D02*
X51709523Y-76854761D01*
X51661904Y-76902380D01*
X51614285Y-76854761D01*
X51661904Y-76807142D01*
X51661904Y-76902380D01*
X52566666Y-75902380D02*
X52376190Y-75902380D01*
X52280952Y-75950000D01*
X52233333Y-75997619D01*
X52138095Y-76140476D01*
X52090476Y-76330952D01*
X52090476Y-76711904D01*
X52138095Y-76807142D01*
X52185714Y-76854761D01*
X52280952Y-76902380D01*
X52471428Y-76902380D01*
X52566666Y-76854761D01*
X52614285Y-76807142D01*
X52661904Y-76711904D01*
X52661904Y-76473809D01*
X52614285Y-76378571D01*
X52566666Y-76330952D01*
X52471428Y-76283333D01*
X52280952Y-76283333D01*
X52185714Y-76330952D01*
X52138095Y-76378571D01*
X52090476Y-76473809D01*
X53566666Y-75902380D02*
X53090476Y-75902380D01*
X53042857Y-76378571D01*
X53090476Y-76330952D01*
X53185714Y-76283333D01*
X53423809Y-76283333D01*
X53519047Y-76330952D01*
X53566666Y-76378571D01*
X53614285Y-76473809D01*
X53614285Y-76711904D01*
X53566666Y-76807142D01*
X53519047Y-76854761D01*
X53423809Y-76902380D01*
X53185714Y-76902380D01*
X53090476Y-76854761D01*
X53042857Y-76807142D01*
%TO.C,J28*%
D13*
X42540476Y-88173809D02*
X42654761Y-88211904D01*
X42845238Y-88211904D01*
X42921428Y-88173809D01*
X42959523Y-88135714D01*
X42997619Y-88059523D01*
X42997619Y-87983333D01*
X42959523Y-87907142D01*
X42921428Y-87869047D01*
X42845238Y-87830952D01*
X42692857Y-87792857D01*
X42616666Y-87754761D01*
X42578571Y-87716666D01*
X42540476Y-87640476D01*
X42540476Y-87564285D01*
X42578571Y-87488095D01*
X42616666Y-87450000D01*
X42692857Y-87411904D01*
X42883333Y-87411904D01*
X42997619Y-87450000D01*
X43492857Y-87411904D02*
X43645238Y-87411904D01*
X43721428Y-87450000D01*
X43797619Y-87526190D01*
X43835714Y-87678571D01*
X43835714Y-87945238D01*
X43797619Y-88097619D01*
X43721428Y-88173809D01*
X43645238Y-88211904D01*
X43492857Y-88211904D01*
X43416666Y-88173809D01*
X43340476Y-88097619D01*
X43302380Y-87945238D01*
X43302380Y-87678571D01*
X43340476Y-87526190D01*
X43416666Y-87450000D01*
X43492857Y-87411904D01*
X44064285Y-87411904D02*
X44521428Y-87411904D01*
X44292857Y-88211904D02*
X44292857Y-87411904D01*
X44788095Y-87907142D02*
X45397619Y-87907142D01*
X45740476Y-87488095D02*
X45778571Y-87450000D01*
X45854761Y-87411904D01*
X46045238Y-87411904D01*
X46121428Y-87450000D01*
X46159523Y-87488095D01*
X46197619Y-87564285D01*
X46197619Y-87640476D01*
X46159523Y-87754761D01*
X45702380Y-88211904D01*
X46197619Y-88211904D01*
X46464285Y-87411904D02*
X46959523Y-87411904D01*
X46692857Y-87716666D01*
X46807142Y-87716666D01*
X46883333Y-87754761D01*
X46921428Y-87792857D01*
X46959523Y-87869047D01*
X46959523Y-88059523D01*
X46921428Y-88135714D01*
X46883333Y-88173809D01*
X46807142Y-88211904D01*
X46578571Y-88211904D01*
X46502380Y-88173809D01*
X46464285Y-88135714D01*
%TO.C,J26*%
X56204761Y-87723809D02*
X56319047Y-87761904D01*
X56509523Y-87761904D01*
X56585714Y-87723809D01*
X56623809Y-87685714D01*
X56661904Y-87609523D01*
X56661904Y-87533333D01*
X56623809Y-87457142D01*
X56585714Y-87419047D01*
X56509523Y-87380952D01*
X56357142Y-87342857D01*
X56280952Y-87304761D01*
X56242857Y-87266666D01*
X56204761Y-87190476D01*
X56204761Y-87114285D01*
X56242857Y-87038095D01*
X56280952Y-87000000D01*
X56357142Y-86961904D01*
X56547619Y-86961904D01*
X56661904Y-87000000D01*
X57157142Y-86961904D02*
X57309523Y-86961904D01*
X57385714Y-87000000D01*
X57461904Y-87076190D01*
X57500000Y-87228571D01*
X57500000Y-87495238D01*
X57461904Y-87647619D01*
X57385714Y-87723809D01*
X57309523Y-87761904D01*
X57157142Y-87761904D01*
X57080952Y-87723809D01*
X57004761Y-87647619D01*
X56966666Y-87495238D01*
X56966666Y-87228571D01*
X57004761Y-87076190D01*
X57080952Y-87000000D01*
X57157142Y-86961904D01*
X57842857Y-87761904D02*
X57842857Y-86961904D01*
X58680952Y-87685714D02*
X58642857Y-87723809D01*
X58528571Y-87761904D01*
X58452380Y-87761904D01*
X58338095Y-87723809D01*
X58261904Y-87647619D01*
X58223809Y-87571428D01*
X58185714Y-87419047D01*
X58185714Y-87304761D01*
X58223809Y-87152380D01*
X58261904Y-87076190D01*
X58338095Y-87000000D01*
X58452380Y-86961904D01*
X58528571Y-86961904D01*
X58642857Y-87000000D01*
X58680952Y-87038095D01*
X59023809Y-87457142D02*
X59633333Y-87457142D01*
X60128571Y-87304761D02*
X60052380Y-87266666D01*
X60014285Y-87228571D01*
X59976190Y-87152380D01*
X59976190Y-87114285D01*
X60014285Y-87038095D01*
X60052380Y-87000000D01*
X60128571Y-86961904D01*
X60280952Y-86961904D01*
X60357142Y-87000000D01*
X60395238Y-87038095D01*
X60433333Y-87114285D01*
X60433333Y-87152380D01*
X60395238Y-87228571D01*
X60357142Y-87266666D01*
X60280952Y-87304761D01*
X60128571Y-87304761D01*
X60052380Y-87342857D01*
X60014285Y-87380952D01*
X59976190Y-87457142D01*
X59976190Y-87609523D01*
X60014285Y-87685714D01*
X60052380Y-87723809D01*
X60128571Y-87761904D01*
X60280952Y-87761904D01*
X60357142Y-87723809D01*
X60395238Y-87685714D01*
X60433333Y-87609523D01*
X60433333Y-87457142D01*
X60395238Y-87380952D01*
X60357142Y-87342857D01*
X60280952Y-87304761D01*
X60776190Y-87457142D02*
X61385714Y-87457142D01*
X61690476Y-86961904D02*
X62185714Y-86961904D01*
X61919047Y-87266666D01*
X62033333Y-87266666D01*
X62109523Y-87304761D01*
X62147619Y-87342857D01*
X62185714Y-87419047D01*
X62185714Y-87609523D01*
X62147619Y-87685714D01*
X62109523Y-87723809D01*
X62033333Y-87761904D01*
X61804761Y-87761904D01*
X61728571Y-87723809D01*
X61690476Y-87685714D01*
X62528571Y-87685714D02*
X62566666Y-87723809D01*
X62528571Y-87761904D01*
X62490476Y-87723809D01*
X62528571Y-87685714D01*
X62528571Y-87761904D01*
X62947619Y-87761904D02*
X63100000Y-87761904D01*
X63176190Y-87723809D01*
X63214285Y-87685714D01*
X63290476Y-87571428D01*
X63328571Y-87419047D01*
X63328571Y-87114285D01*
X63290476Y-87038095D01*
X63252380Y-87000000D01*
X63176190Y-86961904D01*
X63023809Y-86961904D01*
X62947619Y-87000000D01*
X62909523Y-87038095D01*
X62871428Y-87114285D01*
X62871428Y-87304761D01*
X62909523Y-87380952D01*
X62947619Y-87419047D01*
X63023809Y-87457142D01*
X63176190Y-87457142D01*
X63252380Y-87419047D01*
X63290476Y-87380952D01*
X63328571Y-87304761D01*
X63671428Y-87761904D02*
X63671428Y-86961904D01*
X63976190Y-86961904D01*
X64052380Y-87000000D01*
X64090476Y-87038095D01*
X64128571Y-87114285D01*
X64128571Y-87228571D01*
X64090476Y-87304761D01*
X64052380Y-87342857D01*
X63976190Y-87380952D01*
X63671428Y-87380952D01*
X64890476Y-87761904D02*
X64433333Y-87761904D01*
X64661904Y-87761904D02*
X64661904Y-86961904D01*
X64585714Y-87076190D01*
X64509523Y-87152380D01*
X64433333Y-87190476D01*
X65233333Y-87685714D02*
X65271428Y-87723809D01*
X65233333Y-87761904D01*
X65195238Y-87723809D01*
X65233333Y-87685714D01*
X65233333Y-87761904D01*
X65576190Y-87038095D02*
X65614285Y-87000000D01*
X65690476Y-86961904D01*
X65880952Y-86961904D01*
X65957142Y-87000000D01*
X65995238Y-87038095D01*
X66033333Y-87114285D01*
X66033333Y-87190476D01*
X65995238Y-87304761D01*
X65538095Y-87761904D01*
X66033333Y-87761904D01*
X66300000Y-86961904D02*
X66833333Y-86961904D01*
X66490476Y-87761904D01*
%TO.C,J22*%
X58640476Y-78223809D02*
X58754761Y-78261904D01*
X58945238Y-78261904D01*
X59021428Y-78223809D01*
X59059523Y-78185714D01*
X59097619Y-78109523D01*
X59097619Y-78033333D01*
X59059523Y-77957142D01*
X59021428Y-77919047D01*
X58945238Y-77880952D01*
X58792857Y-77842857D01*
X58716666Y-77804761D01*
X58678571Y-77766666D01*
X58640476Y-77690476D01*
X58640476Y-77614285D01*
X58678571Y-77538095D01*
X58716666Y-77500000D01*
X58792857Y-77461904D01*
X58983333Y-77461904D01*
X59097619Y-77500000D01*
X59592857Y-77461904D02*
X59745238Y-77461904D01*
X59821428Y-77500000D01*
X59897619Y-77576190D01*
X59935714Y-77728571D01*
X59935714Y-77995238D01*
X59897619Y-78147619D01*
X59821428Y-78223809D01*
X59745238Y-78261904D01*
X59592857Y-78261904D01*
X59516666Y-78223809D01*
X59440476Y-78147619D01*
X59402380Y-77995238D01*
X59402380Y-77728571D01*
X59440476Y-77576190D01*
X59516666Y-77500000D01*
X59592857Y-77461904D01*
X60164285Y-77461904D02*
X60621428Y-77461904D01*
X60392857Y-78261904D02*
X60392857Y-77461904D01*
X60888095Y-77957142D02*
X61497619Y-77957142D01*
X61840476Y-77538095D02*
X61878571Y-77500000D01*
X61954761Y-77461904D01*
X62145238Y-77461904D01*
X62221428Y-77500000D01*
X62259523Y-77538095D01*
X62297619Y-77614285D01*
X62297619Y-77690476D01*
X62259523Y-77804761D01*
X61802380Y-78261904D01*
X62297619Y-78261904D01*
X62564285Y-77461904D02*
X63059523Y-77461904D01*
X62792857Y-77766666D01*
X62907142Y-77766666D01*
X62983333Y-77804761D01*
X63021428Y-77842857D01*
X63059523Y-77919047D01*
X63059523Y-78109523D01*
X63021428Y-78185714D01*
X62983333Y-78223809D01*
X62907142Y-78261904D01*
X62678571Y-78261904D01*
X62602380Y-78223809D01*
X62564285Y-78185714D01*
%TO.C,J14*%
X58440476Y-70273809D02*
X58554761Y-70311904D01*
X58745238Y-70311904D01*
X58821428Y-70273809D01*
X58859523Y-70235714D01*
X58897619Y-70159523D01*
X58897619Y-70083333D01*
X58859523Y-70007142D01*
X58821428Y-69969047D01*
X58745238Y-69930952D01*
X58592857Y-69892857D01*
X58516666Y-69854761D01*
X58478571Y-69816666D01*
X58440476Y-69740476D01*
X58440476Y-69664285D01*
X58478571Y-69588095D01*
X58516666Y-69550000D01*
X58592857Y-69511904D01*
X58783333Y-69511904D01*
X58897619Y-69550000D01*
X59392857Y-69511904D02*
X59545238Y-69511904D01*
X59621428Y-69550000D01*
X59697619Y-69626190D01*
X59735714Y-69778571D01*
X59735714Y-70045238D01*
X59697619Y-70197619D01*
X59621428Y-70273809D01*
X59545238Y-70311904D01*
X59392857Y-70311904D01*
X59316666Y-70273809D01*
X59240476Y-70197619D01*
X59202380Y-70045238D01*
X59202380Y-69778571D01*
X59240476Y-69626190D01*
X59316666Y-69550000D01*
X59392857Y-69511904D01*
X59964285Y-69511904D02*
X60421428Y-69511904D01*
X60192857Y-70311904D02*
X60192857Y-69511904D01*
X60688095Y-70007142D02*
X61297619Y-70007142D01*
X61640476Y-69588095D02*
X61678571Y-69550000D01*
X61754761Y-69511904D01*
X61945238Y-69511904D01*
X62021428Y-69550000D01*
X62059523Y-69588095D01*
X62097619Y-69664285D01*
X62097619Y-69740476D01*
X62059523Y-69854761D01*
X61602380Y-70311904D01*
X62097619Y-70311904D01*
X62364285Y-69511904D02*
X62859523Y-69511904D01*
X62592857Y-69816666D01*
X62707142Y-69816666D01*
X62783333Y-69854761D01*
X62821428Y-69892857D01*
X62859523Y-69969047D01*
X62859523Y-70159523D01*
X62821428Y-70235714D01*
X62783333Y-70273809D01*
X62707142Y-70311904D01*
X62478571Y-70311904D01*
X62402380Y-70273809D01*
X62364285Y-70235714D01*
%TO.C,J5*%
X56252380Y-57761904D02*
X56709523Y-57761904D01*
X56480952Y-58561904D02*
X56480952Y-57761904D01*
X56938095Y-58523809D02*
X57052380Y-58561904D01*
X57242857Y-58561904D01*
X57319047Y-58523809D01*
X57357142Y-58485714D01*
X57395238Y-58409523D01*
X57395238Y-58333333D01*
X57357142Y-58257142D01*
X57319047Y-58219047D01*
X57242857Y-58180952D01*
X57090476Y-58142857D01*
X57014285Y-58104761D01*
X56976190Y-58066666D01*
X56938095Y-57990476D01*
X56938095Y-57914285D01*
X56976190Y-57838095D01*
X57014285Y-57800000D01*
X57090476Y-57761904D01*
X57280952Y-57761904D01*
X57395238Y-57800000D01*
X57700000Y-58523809D02*
X57814285Y-58561904D01*
X58004761Y-58561904D01*
X58080952Y-58523809D01*
X58119047Y-58485714D01*
X58157142Y-58409523D01*
X58157142Y-58333333D01*
X58119047Y-58257142D01*
X58080952Y-58219047D01*
X58004761Y-58180952D01*
X57852380Y-58142857D01*
X57776190Y-58104761D01*
X57738095Y-58066666D01*
X57700000Y-57990476D01*
X57700000Y-57914285D01*
X57738095Y-57838095D01*
X57776190Y-57800000D01*
X57852380Y-57761904D01*
X58042857Y-57761904D01*
X58157142Y-57800000D01*
X58652380Y-57761904D02*
X58804761Y-57761904D01*
X58880952Y-57800000D01*
X58957142Y-57876190D01*
X58995238Y-58028571D01*
X58995238Y-58295238D01*
X58957142Y-58447619D01*
X58880952Y-58523809D01*
X58804761Y-58561904D01*
X58652380Y-58561904D01*
X58576190Y-58523809D01*
X58500000Y-58447619D01*
X58461904Y-58295238D01*
X58461904Y-58028571D01*
X58500000Y-57876190D01*
X58576190Y-57800000D01*
X58652380Y-57761904D01*
X59338095Y-58561904D02*
X59338095Y-57761904D01*
X59642857Y-57761904D01*
X59719047Y-57800000D01*
X59757142Y-57838095D01*
X59795238Y-57914285D01*
X59795238Y-58028571D01*
X59757142Y-58104761D01*
X59719047Y-58142857D01*
X59642857Y-58180952D01*
X59338095Y-58180952D01*
X60138095Y-58257142D02*
X60747619Y-58257142D01*
X61547619Y-58561904D02*
X61090476Y-58561904D01*
X61319047Y-58561904D02*
X61319047Y-57761904D01*
X61242857Y-57876190D01*
X61166666Y-57952380D01*
X61090476Y-57990476D01*
X62233333Y-58028571D02*
X62233333Y-58561904D01*
X62042857Y-57723809D02*
X61852380Y-58295238D01*
X62347619Y-58295238D01*
X62652380Y-58257142D02*
X63261904Y-58257142D01*
X63985714Y-58028571D02*
X63985714Y-58561904D01*
X63795238Y-57723809D02*
X63604761Y-58295238D01*
X64100000Y-58295238D01*
X64404761Y-58485714D02*
X64442857Y-58523809D01*
X64404761Y-58561904D01*
X64366666Y-58523809D01*
X64404761Y-58485714D01*
X64404761Y-58561904D01*
X65128571Y-58028571D02*
X65128571Y-58561904D01*
X64938095Y-57723809D02*
X64747619Y-58295238D01*
X65242857Y-58295238D01*
X65547619Y-58561904D02*
X65547619Y-57761904D01*
X65852380Y-57761904D01*
X65928571Y-57800000D01*
X65966666Y-57838095D01*
X66004761Y-57914285D01*
X66004761Y-58028571D01*
X65966666Y-58104761D01*
X65928571Y-58142857D01*
X65852380Y-58180952D01*
X65547619Y-58180952D01*
X66500000Y-57761904D02*
X66576190Y-57761904D01*
X66652380Y-57800000D01*
X66690476Y-57838095D01*
X66728571Y-57914285D01*
X66766666Y-58066666D01*
X66766666Y-58257142D01*
X66728571Y-58409523D01*
X66690476Y-58485714D01*
X66652380Y-58523809D01*
X66576190Y-58561904D01*
X66500000Y-58561904D01*
X66423809Y-58523809D01*
X66385714Y-58485714D01*
X66347619Y-58409523D01*
X66309523Y-58257142D01*
X66309523Y-58066666D01*
X66347619Y-57914285D01*
X66385714Y-57838095D01*
X66423809Y-57800000D01*
X66500000Y-57761904D01*
X67109523Y-58485714D02*
X67147619Y-58523809D01*
X67109523Y-58561904D01*
X67071428Y-58523809D01*
X67109523Y-58485714D01*
X67109523Y-58561904D01*
X67833333Y-57761904D02*
X67680952Y-57761904D01*
X67604761Y-57800000D01*
X67566666Y-57838095D01*
X67490476Y-57952380D01*
X67452380Y-58104761D01*
X67452380Y-58409523D01*
X67490476Y-58485714D01*
X67528571Y-58523809D01*
X67604761Y-58561904D01*
X67757142Y-58561904D01*
X67833333Y-58523809D01*
X67871428Y-58485714D01*
X67909523Y-58409523D01*
X67909523Y-58219047D01*
X67871428Y-58142857D01*
X67833333Y-58104761D01*
X67757142Y-58066666D01*
X67604761Y-58066666D01*
X67528571Y-58104761D01*
X67490476Y-58142857D01*
X67452380Y-58219047D01*
X68633333Y-57761904D02*
X68252380Y-57761904D01*
X68214285Y-58142857D01*
X68252380Y-58104761D01*
X68328571Y-58066666D01*
X68519047Y-58066666D01*
X68595238Y-58104761D01*
X68633333Y-58142857D01*
X68671428Y-58219047D01*
X68671428Y-58409523D01*
X68633333Y-58485714D01*
X68595238Y-58523809D01*
X68519047Y-58561904D01*
X68328571Y-58561904D01*
X68252380Y-58523809D01*
X68214285Y-58485714D01*
%TO.C,J4*%
X40323809Y-62323809D02*
X40438095Y-62361904D01*
X40628571Y-62361904D01*
X40704761Y-62323809D01*
X40742857Y-62285714D01*
X40780952Y-62209523D01*
X40780952Y-62133333D01*
X40742857Y-62057142D01*
X40704761Y-62019047D01*
X40628571Y-61980952D01*
X40476190Y-61942857D01*
X40400000Y-61904761D01*
X40361904Y-61866666D01*
X40323809Y-61790476D01*
X40323809Y-61714285D01*
X40361904Y-61638095D01*
X40400000Y-61600000D01*
X40476190Y-61561904D01*
X40666666Y-61561904D01*
X40780952Y-61600000D01*
X41276190Y-61561904D02*
X41428571Y-61561904D01*
X41504761Y-61600000D01*
X41580952Y-61676190D01*
X41619047Y-61828571D01*
X41619047Y-62095238D01*
X41580952Y-62247619D01*
X41504761Y-62323809D01*
X41428571Y-62361904D01*
X41276190Y-62361904D01*
X41200000Y-62323809D01*
X41123809Y-62247619D01*
X41085714Y-62095238D01*
X41085714Y-61828571D01*
X41123809Y-61676190D01*
X41200000Y-61600000D01*
X41276190Y-61561904D01*
X41961904Y-62361904D02*
X41961904Y-61561904D01*
X42800000Y-62285714D02*
X42761904Y-62323809D01*
X42647619Y-62361904D01*
X42571428Y-62361904D01*
X42457142Y-62323809D01*
X42380952Y-62247619D01*
X42342857Y-62171428D01*
X42304761Y-62019047D01*
X42304761Y-61904761D01*
X42342857Y-61752380D01*
X42380952Y-61676190D01*
X42457142Y-61600000D01*
X42571428Y-61561904D01*
X42647619Y-61561904D01*
X42761904Y-61600000D01*
X42800000Y-61638095D01*
X43142857Y-62057142D02*
X43752380Y-62057142D01*
X44552380Y-62361904D02*
X44095238Y-62361904D01*
X44323809Y-62361904D02*
X44323809Y-61561904D01*
X44247619Y-61676190D01*
X44171428Y-61752380D01*
X44095238Y-61790476D01*
X45238095Y-61561904D02*
X45085714Y-61561904D01*
X45009523Y-61600000D01*
X44971428Y-61638095D01*
X44895238Y-61752380D01*
X44857142Y-61904761D01*
X44857142Y-62209523D01*
X44895238Y-62285714D01*
X44933333Y-62323809D01*
X45009523Y-62361904D01*
X45161904Y-62361904D01*
X45238095Y-62323809D01*
X45276190Y-62285714D01*
X45314285Y-62209523D01*
X45314285Y-62019047D01*
X45276190Y-61942857D01*
X45238095Y-61904761D01*
X45161904Y-61866666D01*
X45009523Y-61866666D01*
X44933333Y-61904761D01*
X44895238Y-61942857D01*
X44857142Y-62019047D01*
X45657142Y-62057142D02*
X46266666Y-62057142D01*
X46571428Y-61561904D02*
X47066666Y-61561904D01*
X46800000Y-61866666D01*
X46914285Y-61866666D01*
X46990476Y-61904761D01*
X47028571Y-61942857D01*
X47066666Y-62019047D01*
X47066666Y-62209523D01*
X47028571Y-62285714D01*
X46990476Y-62323809D01*
X46914285Y-62361904D01*
X46685714Y-62361904D01*
X46609523Y-62323809D01*
X46571428Y-62285714D01*
X47409523Y-62285714D02*
X47447619Y-62323809D01*
X47409523Y-62361904D01*
X47371428Y-62323809D01*
X47409523Y-62285714D01*
X47409523Y-62361904D01*
X47828571Y-62361904D02*
X47980952Y-62361904D01*
X48057142Y-62323809D01*
X48095238Y-62285714D01*
X48171428Y-62171428D01*
X48209523Y-62019047D01*
X48209523Y-61714285D01*
X48171428Y-61638095D01*
X48133333Y-61600000D01*
X48057142Y-61561904D01*
X47904761Y-61561904D01*
X47828571Y-61600000D01*
X47790476Y-61638095D01*
X47752380Y-61714285D01*
X47752380Y-61904761D01*
X47790476Y-61980952D01*
X47828571Y-62019047D01*
X47904761Y-62057142D01*
X48057142Y-62057142D01*
X48133333Y-62019047D01*
X48171428Y-61980952D01*
X48209523Y-61904761D01*
X48552380Y-62361904D02*
X48552380Y-61561904D01*
X48857142Y-61561904D01*
X48933333Y-61600000D01*
X48971428Y-61638095D01*
X49009523Y-61714285D01*
X49009523Y-61828571D01*
X48971428Y-61904761D01*
X48933333Y-61942857D01*
X48857142Y-61980952D01*
X48552380Y-61980952D01*
X49771428Y-62361904D02*
X49314285Y-62361904D01*
X49542857Y-62361904D02*
X49542857Y-61561904D01*
X49466666Y-61676190D01*
X49390476Y-61752380D01*
X49314285Y-61790476D01*
X50114285Y-62285714D02*
X50152380Y-62323809D01*
X50114285Y-62361904D01*
X50076190Y-62323809D01*
X50114285Y-62285714D01*
X50114285Y-62361904D01*
X50457142Y-61638095D02*
X50495238Y-61600000D01*
X50571428Y-61561904D01*
X50761904Y-61561904D01*
X50838095Y-61600000D01*
X50876190Y-61638095D01*
X50914285Y-61714285D01*
X50914285Y-61790476D01*
X50876190Y-61904761D01*
X50419047Y-62361904D01*
X50914285Y-62361904D01*
X51180952Y-61561904D02*
X51714285Y-61561904D01*
X51371428Y-62361904D01*
%TD*%
%LPC*%
D14*
%TO.C,J20*%
X44500000Y-73500000D03*
G36*
G01*
X45925000Y-71975000D02*
X45925000Y-71775000D01*
G75*
G02*
X46025000Y-71675000I100000J0D01*
G01*
X47275000Y-71675000D01*
G75*
G02*
X47375000Y-71775000I0J-100000D01*
G01*
X47375000Y-71975000D01*
G75*
G02*
X47275000Y-72075000I-100000J0D01*
G01*
X46025000Y-72075000D01*
G75*
G02*
X45925000Y-71975000I0J100000D01*
G01*
G37*
G36*
G01*
X45925000Y-72625000D02*
X45925000Y-72425000D01*
G75*
G02*
X46025000Y-72325000I100000J0D01*
G01*
X47275000Y-72325000D01*
G75*
G02*
X47375000Y-72425000I0J-100000D01*
G01*
X47375000Y-72625000D01*
G75*
G02*
X47275000Y-72725000I-100000J0D01*
G01*
X46025000Y-72725000D01*
G75*
G02*
X45925000Y-72625000I0J100000D01*
G01*
G37*
G36*
G01*
X45925000Y-73275000D02*
X45925000Y-73075000D01*
G75*
G02*
X46025000Y-72975000I100000J0D01*
G01*
X47275000Y-72975000D01*
G75*
G02*
X47375000Y-73075000I0J-100000D01*
G01*
X47375000Y-73275000D01*
G75*
G02*
X47275000Y-73375000I-100000J0D01*
G01*
X46025000Y-73375000D01*
G75*
G02*
X45925000Y-73275000I0J100000D01*
G01*
G37*
G36*
G01*
X45925000Y-73925000D02*
X45925000Y-73725000D01*
G75*
G02*
X46025000Y-73625000I100000J0D01*
G01*
X47275000Y-73625000D01*
G75*
G02*
X47375000Y-73725000I0J-100000D01*
G01*
X47375000Y-73925000D01*
G75*
G02*
X47275000Y-74025000I-100000J0D01*
G01*
X46025000Y-74025000D01*
G75*
G02*
X45925000Y-73925000I0J100000D01*
G01*
G37*
G36*
G01*
X45925000Y-74575000D02*
X45925000Y-74375000D01*
G75*
G02*
X46025000Y-74275000I100000J0D01*
G01*
X47275000Y-74275000D01*
G75*
G02*
X47375000Y-74375000I0J-100000D01*
G01*
X47375000Y-74575000D01*
G75*
G02*
X47275000Y-74675000I-100000J0D01*
G01*
X46025000Y-74675000D01*
G75*
G02*
X45925000Y-74575000I0J100000D01*
G01*
G37*
G36*
G01*
X45925000Y-75225000D02*
X45925000Y-75025000D01*
G75*
G02*
X46025000Y-74925000I100000J0D01*
G01*
X47275000Y-74925000D01*
G75*
G02*
X47375000Y-75025000I0J-100000D01*
G01*
X47375000Y-75225000D01*
G75*
G02*
X47275000Y-75325000I-100000J0D01*
G01*
X46025000Y-75325000D01*
G75*
G02*
X45925000Y-75225000I0J100000D01*
G01*
G37*
G36*
G01*
X41625000Y-75225000D02*
X41625000Y-75025000D01*
G75*
G02*
X41725000Y-74925000I100000J0D01*
G01*
X42975000Y-74925000D01*
G75*
G02*
X43075000Y-75025000I0J-100000D01*
G01*
X43075000Y-75225000D01*
G75*
G02*
X42975000Y-75325000I-100000J0D01*
G01*
X41725000Y-75325000D01*
G75*
G02*
X41625000Y-75225000I0J100000D01*
G01*
G37*
G36*
G01*
X41625000Y-74575000D02*
X41625000Y-74375000D01*
G75*
G02*
X41725000Y-74275000I100000J0D01*
G01*
X42975000Y-74275000D01*
G75*
G02*
X43075000Y-74375000I0J-100000D01*
G01*
X43075000Y-74575000D01*
G75*
G02*
X42975000Y-74675000I-100000J0D01*
G01*
X41725000Y-74675000D01*
G75*
G02*
X41625000Y-74575000I0J100000D01*
G01*
G37*
G36*
G01*
X41625000Y-73925000D02*
X41625000Y-73725000D01*
G75*
G02*
X41725000Y-73625000I100000J0D01*
G01*
X42975000Y-73625000D01*
G75*
G02*
X43075000Y-73725000I0J-100000D01*
G01*
X43075000Y-73925000D01*
G75*
G02*
X42975000Y-74025000I-100000J0D01*
G01*
X41725000Y-74025000D01*
G75*
G02*
X41625000Y-73925000I0J100000D01*
G01*
G37*
G36*
G01*
X41625000Y-73275000D02*
X41625000Y-73075000D01*
G75*
G02*
X41725000Y-72975000I100000J0D01*
G01*
X42975000Y-72975000D01*
G75*
G02*
X43075000Y-73075000I0J-100000D01*
G01*
X43075000Y-73275000D01*
G75*
G02*
X42975000Y-73375000I-100000J0D01*
G01*
X41725000Y-73375000D01*
G75*
G02*
X41625000Y-73275000I0J100000D01*
G01*
G37*
G36*
G01*
X41625000Y-72625000D02*
X41625000Y-72425000D01*
G75*
G02*
X41725000Y-72325000I100000J0D01*
G01*
X42975000Y-72325000D01*
G75*
G02*
X43075000Y-72425000I0J-100000D01*
G01*
X43075000Y-72625000D01*
G75*
G02*
X42975000Y-72725000I-100000J0D01*
G01*
X41725000Y-72725000D01*
G75*
G02*
X41625000Y-72625000I0J100000D01*
G01*
G37*
G36*
G01*
X41625000Y-71975000D02*
X41625000Y-71775000D01*
G75*
G02*
X41725000Y-71675000I100000J0D01*
G01*
X42975000Y-71675000D01*
G75*
G02*
X43075000Y-71775000I0J-100000D01*
G01*
X43075000Y-71975000D01*
G75*
G02*
X42975000Y-72075000I-100000J0D01*
G01*
X41725000Y-72075000D01*
G75*
G02*
X41625000Y-71975000I0J100000D01*
G01*
G37*
%TD*%
D15*
%TO.C,J18*%
X81000000Y-46824999D03*
X81000000Y-49364999D03*
X81000000Y-51904999D03*
X81000000Y-54444999D03*
X81000000Y-56984999D03*
X81000000Y-59524999D03*
X81000000Y-62064999D03*
X81000000Y-64604999D03*
X81000000Y-67144999D03*
X81000000Y-69684999D03*
X81000000Y-72224999D03*
X81000000Y-74764999D03*
X81000000Y-77304999D03*
X81000000Y-79844999D03*
X81000000Y-82384999D03*
X81000000Y-84924999D03*
D16*
X81000000Y-87464999D03*
%TD*%
D15*
%TO.C,J16*%
X71000000Y-87504999D03*
X71000000Y-84964999D03*
X71000000Y-82424999D03*
X71000000Y-79884999D03*
X71000000Y-77344999D03*
X71000000Y-74804999D03*
X71000000Y-72264999D03*
X71000000Y-69724999D03*
X71000000Y-67184999D03*
X71000000Y-64644999D03*
X71000000Y-62104999D03*
X71000000Y-59564999D03*
X71000000Y-57024999D03*
X71000000Y-54484999D03*
X71000000Y-51944999D03*
X71000000Y-49404999D03*
D16*
X71000000Y-46864999D03*
%TD*%
D15*
%TO.C,J15*%
X67000000Y-46824999D03*
X67000000Y-49364999D03*
X67000000Y-51904999D03*
X67000000Y-54444999D03*
X67000000Y-56984999D03*
X67000000Y-59524999D03*
X67000000Y-62064999D03*
X67000000Y-64604999D03*
X67000000Y-67144999D03*
X67000000Y-69684999D03*
X67000000Y-72224999D03*
X67000000Y-74764999D03*
X67000000Y-77304999D03*
X67000000Y-79844999D03*
X67000000Y-82384999D03*
X67000000Y-84924999D03*
D16*
X67000000Y-87464999D03*
%TD*%
D15*
%TO.C,J13*%
X54500000Y-87504999D03*
X54500000Y-84964999D03*
X54500000Y-82424999D03*
X54500000Y-79884999D03*
X54500000Y-77344999D03*
X54500000Y-74804999D03*
X54500000Y-72264999D03*
X54500000Y-69724999D03*
X54500000Y-67184999D03*
X54500000Y-64644999D03*
X54500000Y-62104999D03*
X54500000Y-59564999D03*
X54500000Y-57024999D03*
X54500000Y-54484999D03*
X54500000Y-51944999D03*
X54500000Y-49404999D03*
D16*
X54500000Y-46864999D03*
%TD*%
D15*
%TO.C,J12*%
X50500000Y-46824999D03*
X50500000Y-49364999D03*
X50500000Y-51904999D03*
X50500000Y-54444999D03*
X50500000Y-56984999D03*
X50500000Y-59524999D03*
X50500000Y-62064999D03*
X50500000Y-64604999D03*
X50500000Y-67144999D03*
X50500000Y-69684999D03*
X50500000Y-72224999D03*
X50500000Y-74764999D03*
X50500000Y-77304999D03*
X50500000Y-79844999D03*
X50500000Y-82384999D03*
X50500000Y-84924999D03*
D16*
X50500000Y-87464999D03*
%TD*%
D15*
%TO.C,J11*%
X38500000Y-87504999D03*
X38500000Y-84964999D03*
X38500000Y-82424999D03*
X38500000Y-79884999D03*
X38500000Y-77344999D03*
X38500000Y-74804999D03*
X38500000Y-72264999D03*
X38500000Y-69724999D03*
X38500000Y-67184999D03*
X38500000Y-64644999D03*
X38500000Y-62104999D03*
X38500000Y-59564999D03*
X38500000Y-57024999D03*
X38500000Y-54484999D03*
X38500000Y-51944999D03*
X38500000Y-49404999D03*
D16*
X38500000Y-46864999D03*
%TD*%
D17*
%TO.C,J28*%
X46100000Y-84950000D03*
X46100000Y-84000000D03*
X46100000Y-85900000D03*
X43400000Y-85900000D03*
X43400000Y-84950000D03*
X43400000Y-84000000D03*
%TD*%
%TO.C,J26*%
G36*
G01*
X62000000Y-82245000D02*
X62000000Y-81945000D01*
G75*
G02*
X62150000Y-81795000I150000J0D01*
G01*
X63800000Y-81795000D01*
G75*
G02*
X63950000Y-81945000I0J-150000D01*
G01*
X63950000Y-82245000D01*
G75*
G02*
X63800000Y-82395000I-150000J0D01*
G01*
X62150000Y-82395000D01*
G75*
G02*
X62000000Y-82245000I0J150000D01*
G01*
G37*
G36*
G01*
X62000000Y-83515000D02*
X62000000Y-83215000D01*
G75*
G02*
X62150000Y-83065000I150000J0D01*
G01*
X63800000Y-83065000D01*
G75*
G02*
X63950000Y-83215000I0J-150000D01*
G01*
X63950000Y-83515000D01*
G75*
G02*
X63800000Y-83665000I-150000J0D01*
G01*
X62150000Y-83665000D01*
G75*
G02*
X62000000Y-83515000I0J150000D01*
G01*
G37*
G36*
G01*
X62000000Y-84785000D02*
X62000000Y-84485000D01*
G75*
G02*
X62150000Y-84335000I150000J0D01*
G01*
X63800000Y-84335000D01*
G75*
G02*
X63950000Y-84485000I0J-150000D01*
G01*
X63950000Y-84785000D01*
G75*
G02*
X63800000Y-84935000I-150000J0D01*
G01*
X62150000Y-84935000D01*
G75*
G02*
X62000000Y-84785000I0J150000D01*
G01*
G37*
G36*
G01*
X62000000Y-86055000D02*
X62000000Y-85755000D01*
G75*
G02*
X62150000Y-85605000I150000J0D01*
G01*
X63800000Y-85605000D01*
G75*
G02*
X63950000Y-85755000I0J-150000D01*
G01*
X63950000Y-86055000D01*
G75*
G02*
X63800000Y-86205000I-150000J0D01*
G01*
X62150000Y-86205000D01*
G75*
G02*
X62000000Y-86055000I0J150000D01*
G01*
G37*
G36*
G01*
X57050000Y-86055000D02*
X57050000Y-85755000D01*
G75*
G02*
X57200000Y-85605000I150000J0D01*
G01*
X58850000Y-85605000D01*
G75*
G02*
X59000000Y-85755000I0J-150000D01*
G01*
X59000000Y-86055000D01*
G75*
G02*
X58850000Y-86205000I-150000J0D01*
G01*
X57200000Y-86205000D01*
G75*
G02*
X57050000Y-86055000I0J150000D01*
G01*
G37*
G36*
G01*
X57050000Y-84785000D02*
X57050000Y-84485000D01*
G75*
G02*
X57200000Y-84335000I150000J0D01*
G01*
X58850000Y-84335000D01*
G75*
G02*
X59000000Y-84485000I0J-150000D01*
G01*
X59000000Y-84785000D01*
G75*
G02*
X58850000Y-84935000I-150000J0D01*
G01*
X57200000Y-84935000D01*
G75*
G02*
X57050000Y-84785000I0J150000D01*
G01*
G37*
G36*
G01*
X57050000Y-83515000D02*
X57050000Y-83215000D01*
G75*
G02*
X57200000Y-83065000I150000J0D01*
G01*
X58850000Y-83065000D01*
G75*
G02*
X59000000Y-83215000I0J-150000D01*
G01*
X59000000Y-83515000D01*
G75*
G02*
X58850000Y-83665000I-150000J0D01*
G01*
X57200000Y-83665000D01*
G75*
G02*
X57050000Y-83515000I0J150000D01*
G01*
G37*
G36*
G01*
X57050000Y-82245000D02*
X57050000Y-81945000D01*
G75*
G02*
X57200000Y-81795000I150000J0D01*
G01*
X58850000Y-81795000D01*
G75*
G02*
X59000000Y-81945000I0J-150000D01*
G01*
X59000000Y-82245000D01*
G75*
G02*
X58850000Y-82395000I-150000J0D01*
G01*
X57200000Y-82395000D01*
G75*
G02*
X57050000Y-82245000I0J150000D01*
G01*
G37*
%TD*%
%TO.C,J22*%
X62200000Y-75000000D03*
X62200000Y-74050000D03*
X62200000Y-75950000D03*
X59500000Y-75950000D03*
X59500000Y-75000000D03*
X59500000Y-74050000D03*
%TD*%
%TO.C,J21*%
G36*
G01*
X76350000Y-72487500D02*
X76350000Y-72012500D01*
G75*
G02*
X76587500Y-71775000I237500J0D01*
G01*
X77162500Y-71775000D01*
G75*
G02*
X77400000Y-72012500I0J-237500D01*
G01*
X77400000Y-72487500D01*
G75*
G02*
X77162500Y-72725000I-237500J0D01*
G01*
X76587500Y-72725000D01*
G75*
G02*
X76350000Y-72487500I0J237500D01*
G01*
G37*
G36*
G01*
X74600000Y-72487500D02*
X74600000Y-72012500D01*
G75*
G02*
X74837500Y-71775000I237500J0D01*
G01*
X75412500Y-71775000D01*
G75*
G02*
X75650000Y-72012500I0J-237500D01*
G01*
X75650000Y-72487500D01*
G75*
G02*
X75412500Y-72725000I-237500J0D01*
G01*
X74837500Y-72725000D01*
G75*
G02*
X74600000Y-72487500I0J237500D01*
G01*
G37*
%TD*%
%TO.C,J19*%
G36*
G01*
X76350000Y-69987500D02*
X76350000Y-69512500D01*
G75*
G02*
X76587500Y-69275000I237500J0D01*
G01*
X77162500Y-69275000D01*
G75*
G02*
X77400000Y-69512500I0J-237500D01*
G01*
X77400000Y-69987500D01*
G75*
G02*
X77162500Y-70225000I-237500J0D01*
G01*
X76587500Y-70225000D01*
G75*
G02*
X76350000Y-69987500I0J237500D01*
G01*
G37*
G36*
G01*
X74600000Y-69987500D02*
X74600000Y-69512500D01*
G75*
G02*
X74837500Y-69275000I237500J0D01*
G01*
X75412500Y-69275000D01*
G75*
G02*
X75650000Y-69512500I0J-237500D01*
G01*
X75650000Y-69987500D01*
G75*
G02*
X75412500Y-70225000I-237500J0D01*
G01*
X74837500Y-70225000D01*
G75*
G02*
X74600000Y-69987500I0J237500D01*
G01*
G37*
%TD*%
%TO.C,J17*%
G36*
G01*
X76350000Y-67487500D02*
X76350000Y-67012500D01*
G75*
G02*
X76587500Y-66775000I237500J0D01*
G01*
X77162500Y-66775000D01*
G75*
G02*
X77400000Y-67012500I0J-237500D01*
G01*
X77400000Y-67487500D01*
G75*
G02*
X77162500Y-67725000I-237500J0D01*
G01*
X76587500Y-67725000D01*
G75*
G02*
X76350000Y-67487500I0J237500D01*
G01*
G37*
G36*
G01*
X74600000Y-67487500D02*
X74600000Y-67012500D01*
G75*
G02*
X74837500Y-66775000I237500J0D01*
G01*
X75412500Y-66775000D01*
G75*
G02*
X75650000Y-67012500I0J-237500D01*
G01*
X75650000Y-67487500D01*
G75*
G02*
X75412500Y-67725000I-237500J0D01*
G01*
X74837500Y-67725000D01*
G75*
G02*
X74600000Y-67487500I0J237500D01*
G01*
G37*
%TD*%
%TO.C,J8*%
G36*
G01*
X75045000Y-59660000D02*
X75045000Y-59340000D01*
G75*
G02*
X75205000Y-59180000I160000J0D01*
G01*
X75650000Y-59180000D01*
G75*
G02*
X75810000Y-59340000I0J-160000D01*
G01*
X75810000Y-59660000D01*
G75*
G02*
X75650000Y-59820000I-160000J0D01*
G01*
X75205000Y-59820000D01*
G75*
G02*
X75045000Y-59660000I0J160000D01*
G01*
G37*
G36*
G01*
X76190000Y-59660000D02*
X76190000Y-59340000D01*
G75*
G02*
X76350000Y-59180000I160000J0D01*
G01*
X76795000Y-59180000D01*
G75*
G02*
X76955000Y-59340000I0J-160000D01*
G01*
X76955000Y-59660000D01*
G75*
G02*
X76795000Y-59820000I-160000J0D01*
G01*
X76350000Y-59820000D01*
G75*
G02*
X76190000Y-59660000I0J160000D01*
G01*
G37*
%TD*%
%TO.C,J7*%
G36*
G01*
X75045000Y-57160000D02*
X75045000Y-56840000D01*
G75*
G02*
X75205000Y-56680000I160000J0D01*
G01*
X75650000Y-56680000D01*
G75*
G02*
X75810000Y-56840000I0J-160000D01*
G01*
X75810000Y-57160000D01*
G75*
G02*
X75650000Y-57320000I-160000J0D01*
G01*
X75205000Y-57320000D01*
G75*
G02*
X75045000Y-57160000I0J160000D01*
G01*
G37*
G36*
G01*
X76190000Y-57160000D02*
X76190000Y-56840000D01*
G75*
G02*
X76350000Y-56680000I160000J0D01*
G01*
X76795000Y-56680000D01*
G75*
G02*
X76955000Y-56840000I0J-160000D01*
G01*
X76955000Y-57160000D01*
G75*
G02*
X76795000Y-57320000I-160000J0D01*
G01*
X76350000Y-57320000D01*
G75*
G02*
X76190000Y-57160000I0J160000D01*
G01*
G37*
%TD*%
%TO.C,J30*%
G36*
G01*
X76775000Y-88775000D02*
X76775000Y-86625000D01*
G75*
G02*
X77025000Y-86375000I250000J0D01*
G01*
X77950000Y-86375000D01*
G75*
G02*
X78200000Y-86625000I0J-250000D01*
G01*
X78200000Y-88775000D01*
G75*
G02*
X77950000Y-89025000I-250000J0D01*
G01*
X77025000Y-89025000D01*
G75*
G02*
X76775000Y-88775000I0J250000D01*
G01*
G37*
G36*
G01*
X73800000Y-88775000D02*
X73800000Y-86625000D01*
G75*
G02*
X74050000Y-86375000I250000J0D01*
G01*
X74975000Y-86375000D01*
G75*
G02*
X75225000Y-86625000I0J-250000D01*
G01*
X75225000Y-88775000D01*
G75*
G02*
X74975000Y-89025000I-250000J0D01*
G01*
X74050000Y-89025000D01*
G75*
G02*
X73800000Y-88775000I0J250000D01*
G01*
G37*
%TD*%
%TO.C,J29*%
G36*
G01*
X76775000Y-85575000D02*
X76775000Y-83425000D01*
G75*
G02*
X77025000Y-83175000I250000J0D01*
G01*
X77950000Y-83175000D01*
G75*
G02*
X78200000Y-83425000I0J-250000D01*
G01*
X78200000Y-85575000D01*
G75*
G02*
X77950000Y-85825000I-250000J0D01*
G01*
X77025000Y-85825000D01*
G75*
G02*
X76775000Y-85575000I0J250000D01*
G01*
G37*
G36*
G01*
X73800000Y-85575000D02*
X73800000Y-83425000D01*
G75*
G02*
X74050000Y-83175000I250000J0D01*
G01*
X74975000Y-83175000D01*
G75*
G02*
X75225000Y-83425000I0J-250000D01*
G01*
X75225000Y-85575000D01*
G75*
G02*
X74975000Y-85825000I-250000J0D01*
G01*
X74050000Y-85825000D01*
G75*
G02*
X73800000Y-85575000I0J250000D01*
G01*
G37*
%TD*%
%TO.C,J14*%
X62000000Y-67050000D03*
X62000000Y-66100000D03*
X62000000Y-68000000D03*
X59300000Y-68000000D03*
X59300000Y-67050000D03*
X59300000Y-66100000D03*
%TD*%
%TO.C,J27*%
G36*
G01*
X76550000Y-49850001D02*
X76550000Y-48949999D01*
G75*
G02*
X76799999Y-48700000I249999J0D01*
G01*
X77450001Y-48700000D01*
G75*
G02*
X77700000Y-48949999I0J-249999D01*
G01*
X77700000Y-49850001D01*
G75*
G02*
X77450001Y-50100000I-249999J0D01*
G01*
X76799999Y-50100000D01*
G75*
G02*
X76550000Y-49850001I0J249999D01*
G01*
G37*
G36*
G01*
X74500000Y-49850001D02*
X74500000Y-48949999D01*
G75*
G02*
X74749999Y-48700000I249999J0D01*
G01*
X75400001Y-48700000D01*
G75*
G02*
X75650000Y-48949999I0J-249999D01*
G01*
X75650000Y-49850001D01*
G75*
G02*
X75400001Y-50100000I-249999J0D01*
G01*
X74749999Y-50100000D01*
G75*
G02*
X74500000Y-49850001I0J249999D01*
G01*
G37*
%TD*%
%TO.C,J25*%
G36*
G01*
X76550000Y-47350001D02*
X76550000Y-46449999D01*
G75*
G02*
X76799999Y-46200000I249999J0D01*
G01*
X77450001Y-46200000D01*
G75*
G02*
X77700000Y-46449999I0J-249999D01*
G01*
X77700000Y-47350001D01*
G75*
G02*
X77450001Y-47600000I-249999J0D01*
G01*
X76799999Y-47600000D01*
G75*
G02*
X76550000Y-47350001I0J249999D01*
G01*
G37*
G36*
G01*
X74500000Y-47350001D02*
X74500000Y-46449999D01*
G75*
G02*
X74749999Y-46200000I249999J0D01*
G01*
X75400001Y-46200000D01*
G75*
G02*
X75650000Y-46449999I0J-249999D01*
G01*
X75650000Y-47350001D01*
G75*
G02*
X75400001Y-47600000I-249999J0D01*
G01*
X74749999Y-47600000D01*
G75*
G02*
X74500000Y-47350001I0J249999D01*
G01*
G37*
%TD*%
D18*
%TO.C,J5*%
X60000000Y-53750000D03*
D19*
X63700000Y-52700000D03*
X63700000Y-53350000D03*
X63700000Y-54000000D03*
X63700000Y-54650000D03*
X63700000Y-55300000D03*
X63700000Y-55950000D03*
X63700000Y-56600000D03*
X57800000Y-56600000D03*
X57800000Y-55950000D03*
X57800000Y-55300000D03*
X57800000Y-54650000D03*
X57800000Y-54000000D03*
X57800000Y-53350000D03*
X57800000Y-52700000D03*
D18*
X61500000Y-53750000D03*
X61500000Y-55550000D03*
X60000000Y-55550000D03*
%TD*%
%TO.C,J24*%
G36*
G01*
X76350000Y-77637500D02*
X76350000Y-77162500D01*
G75*
G02*
X76587500Y-76925000I237500J0D01*
G01*
X77162500Y-76925000D01*
G75*
G02*
X77400000Y-77162500I0J-237500D01*
G01*
X77400000Y-77637500D01*
G75*
G02*
X77162500Y-77875000I-237500J0D01*
G01*
X76587500Y-77875000D01*
G75*
G02*
X76350000Y-77637500I0J237500D01*
G01*
G37*
G36*
G01*
X74600000Y-77637500D02*
X74600000Y-77162500D01*
G75*
G02*
X74837500Y-76925000I237500J0D01*
G01*
X75412500Y-76925000D01*
G75*
G02*
X75650000Y-77162500I0J-237500D01*
G01*
X75650000Y-77637500D01*
G75*
G02*
X75412500Y-77875000I-237500J0D01*
G01*
X74837500Y-77875000D01*
G75*
G02*
X74600000Y-77637500I0J237500D01*
G01*
G37*
%TD*%
%TO.C,J23*%
G36*
G01*
X76350000Y-74987500D02*
X76350000Y-74512500D01*
G75*
G02*
X76587500Y-74275000I237500J0D01*
G01*
X77162500Y-74275000D01*
G75*
G02*
X77400000Y-74512500I0J-237500D01*
G01*
X77400000Y-74987500D01*
G75*
G02*
X77162500Y-75225000I-237500J0D01*
G01*
X76587500Y-75225000D01*
G75*
G02*
X76350000Y-74987500I0J237500D01*
G01*
G37*
G36*
G01*
X74600000Y-74987500D02*
X74600000Y-74512500D01*
G75*
G02*
X74837500Y-74275000I237500J0D01*
G01*
X75412500Y-74275000D01*
G75*
G02*
X75650000Y-74512500I0J-237500D01*
G01*
X75650000Y-74987500D01*
G75*
G02*
X75412500Y-75225000I-237500J0D01*
G01*
X74837500Y-75225000D01*
G75*
G02*
X74600000Y-74987500I0J237500D01*
G01*
G37*
%TD*%
%TO.C,J10*%
G36*
G01*
X76350000Y-64987500D02*
X76350000Y-64512500D01*
G75*
G02*
X76587500Y-64275000I237500J0D01*
G01*
X77162500Y-64275000D01*
G75*
G02*
X77400000Y-64512500I0J-237500D01*
G01*
X77400000Y-64987500D01*
G75*
G02*
X77162500Y-65225000I-237500J0D01*
G01*
X76587500Y-65225000D01*
G75*
G02*
X76350000Y-64987500I0J237500D01*
G01*
G37*
G36*
G01*
X74600000Y-64987500D02*
X74600000Y-64512500D01*
G75*
G02*
X74837500Y-64275000I237500J0D01*
G01*
X75412500Y-64275000D01*
G75*
G02*
X75650000Y-64512500I0J-237500D01*
G01*
X75650000Y-64987500D01*
G75*
G02*
X75412500Y-65225000I-237500J0D01*
G01*
X74837500Y-65225000D01*
G75*
G02*
X74600000Y-64987500I0J237500D01*
G01*
G37*
%TD*%
%TO.C,J9*%
G36*
G01*
X76350000Y-62237500D02*
X76350000Y-61762500D01*
G75*
G02*
X76587500Y-61525000I237500J0D01*
G01*
X77162500Y-61525000D01*
G75*
G02*
X77400000Y-61762500I0J-237500D01*
G01*
X77400000Y-62237500D01*
G75*
G02*
X77162500Y-62475000I-237500J0D01*
G01*
X76587500Y-62475000D01*
G75*
G02*
X76350000Y-62237500I0J237500D01*
G01*
G37*
G36*
G01*
X74600000Y-62237500D02*
X74600000Y-61762500D01*
G75*
G02*
X74837500Y-61525000I237500J0D01*
G01*
X75412500Y-61525000D01*
G75*
G02*
X75650000Y-61762500I0J-237500D01*
G01*
X75650000Y-62237500D01*
G75*
G02*
X75412500Y-62475000I-237500J0D01*
G01*
X74837500Y-62475000D01*
G75*
G02*
X74600000Y-62237500I0J237500D01*
G01*
G37*
%TD*%
%TO.C,J6*%
G36*
G01*
X75045000Y-54660000D02*
X75045000Y-54340000D01*
G75*
G02*
X75205000Y-54180000I160000J0D01*
G01*
X75650000Y-54180000D01*
G75*
G02*
X75810000Y-54340000I0J-160000D01*
G01*
X75810000Y-54660000D01*
G75*
G02*
X75650000Y-54820000I-160000J0D01*
G01*
X75205000Y-54820000D01*
G75*
G02*
X75045000Y-54660000I0J160000D01*
G01*
G37*
G36*
G01*
X76190000Y-54660000D02*
X76190000Y-54340000D01*
G75*
G02*
X76350000Y-54180000I160000J0D01*
G01*
X76795000Y-54180000D01*
G75*
G02*
X76955000Y-54340000I0J-160000D01*
G01*
X76955000Y-54660000D01*
G75*
G02*
X76795000Y-54820000I-160000J0D01*
G01*
X76350000Y-54820000D01*
G75*
G02*
X76190000Y-54660000I0J160000D01*
G01*
G37*
%TD*%
%TO.C,J3*%
G36*
G01*
X75045000Y-52160000D02*
X75045000Y-51840000D01*
G75*
G02*
X75205000Y-51680000I160000J0D01*
G01*
X75650000Y-51680000D01*
G75*
G02*
X75810000Y-51840000I0J-160000D01*
G01*
X75810000Y-52160000D01*
G75*
G02*
X75650000Y-52320000I-160000J0D01*
G01*
X75205000Y-52320000D01*
G75*
G02*
X75045000Y-52160000I0J160000D01*
G01*
G37*
G36*
G01*
X76190000Y-52160000D02*
X76190000Y-51840000D01*
G75*
G02*
X76350000Y-51680000I160000J0D01*
G01*
X76795000Y-51680000D01*
G75*
G02*
X76955000Y-51840000I0J-160000D01*
G01*
X76955000Y-52160000D01*
G75*
G02*
X76795000Y-52320000I-160000J0D01*
G01*
X76350000Y-52320000D01*
G75*
G02*
X76190000Y-52160000I0J160000D01*
G01*
G37*
%TD*%
%TO.C,J2*%
G36*
G01*
X75045000Y-81760000D02*
X75045000Y-81440000D01*
G75*
G02*
X75205000Y-81280000I160000J0D01*
G01*
X75650000Y-81280000D01*
G75*
G02*
X75810000Y-81440000I0J-160000D01*
G01*
X75810000Y-81760000D01*
G75*
G02*
X75650000Y-81920000I-160000J0D01*
G01*
X75205000Y-81920000D01*
G75*
G02*
X75045000Y-81760000I0J160000D01*
G01*
G37*
G36*
G01*
X76190000Y-81760000D02*
X76190000Y-81440000D01*
G75*
G02*
X76350000Y-81280000I160000J0D01*
G01*
X76795000Y-81280000D01*
G75*
G02*
X76955000Y-81440000I0J-160000D01*
G01*
X76955000Y-81760000D01*
G75*
G02*
X76795000Y-81920000I-160000J0D01*
G01*
X76350000Y-81920000D01*
G75*
G02*
X76190000Y-81760000I0J160000D01*
G01*
G37*
%TD*%
%TO.C,J4*%
G36*
G01*
X41050000Y-51705000D02*
X41050000Y-51405000D01*
G75*
G02*
X41200000Y-51255000I150000J0D01*
G01*
X42850000Y-51255000D01*
G75*
G02*
X43000000Y-51405000I0J-150000D01*
G01*
X43000000Y-51705000D01*
G75*
G02*
X42850000Y-51855000I-150000J0D01*
G01*
X41200000Y-51855000D01*
G75*
G02*
X41050000Y-51705000I0J150000D01*
G01*
G37*
G36*
G01*
X41050000Y-52975000D02*
X41050000Y-52675000D01*
G75*
G02*
X41200000Y-52525000I150000J0D01*
G01*
X42850000Y-52525000D01*
G75*
G02*
X43000000Y-52675000I0J-150000D01*
G01*
X43000000Y-52975000D01*
G75*
G02*
X42850000Y-53125000I-150000J0D01*
G01*
X41200000Y-53125000D01*
G75*
G02*
X41050000Y-52975000I0J150000D01*
G01*
G37*
G36*
G01*
X41050000Y-54245000D02*
X41050000Y-53945000D01*
G75*
G02*
X41200000Y-53795000I150000J0D01*
G01*
X42850000Y-53795000D01*
G75*
G02*
X43000000Y-53945000I0J-150000D01*
G01*
X43000000Y-54245000D01*
G75*
G02*
X42850000Y-54395000I-150000J0D01*
G01*
X41200000Y-54395000D01*
G75*
G02*
X41050000Y-54245000I0J150000D01*
G01*
G37*
G36*
G01*
X41050000Y-55515000D02*
X41050000Y-55215000D01*
G75*
G02*
X41200000Y-55065000I150000J0D01*
G01*
X42850000Y-55065000D01*
G75*
G02*
X43000000Y-55215000I0J-150000D01*
G01*
X43000000Y-55515000D01*
G75*
G02*
X42850000Y-55665000I-150000J0D01*
G01*
X41200000Y-55665000D01*
G75*
G02*
X41050000Y-55515000I0J150000D01*
G01*
G37*
G36*
G01*
X41050000Y-56785000D02*
X41050000Y-56485000D01*
G75*
G02*
X41200000Y-56335000I150000J0D01*
G01*
X42850000Y-56335000D01*
G75*
G02*
X43000000Y-56485000I0J-150000D01*
G01*
X43000000Y-56785000D01*
G75*
G02*
X42850000Y-56935000I-150000J0D01*
G01*
X41200000Y-56935000D01*
G75*
G02*
X41050000Y-56785000I0J150000D01*
G01*
G37*
G36*
G01*
X41050000Y-58055000D02*
X41050000Y-57755000D01*
G75*
G02*
X41200000Y-57605000I150000J0D01*
G01*
X42850000Y-57605000D01*
G75*
G02*
X43000000Y-57755000I0J-150000D01*
G01*
X43000000Y-58055000D01*
G75*
G02*
X42850000Y-58205000I-150000J0D01*
G01*
X41200000Y-58205000D01*
G75*
G02*
X41050000Y-58055000I0J150000D01*
G01*
G37*
G36*
G01*
X41050000Y-59325000D02*
X41050000Y-59025000D01*
G75*
G02*
X41200000Y-58875000I150000J0D01*
G01*
X42850000Y-58875000D01*
G75*
G02*
X43000000Y-59025000I0J-150000D01*
G01*
X43000000Y-59325000D01*
G75*
G02*
X42850000Y-59475000I-150000J0D01*
G01*
X41200000Y-59475000D01*
G75*
G02*
X41050000Y-59325000I0J150000D01*
G01*
G37*
G36*
G01*
X41050000Y-60595000D02*
X41050000Y-60295000D01*
G75*
G02*
X41200000Y-60145000I150000J0D01*
G01*
X42850000Y-60145000D01*
G75*
G02*
X43000000Y-60295000I0J-150000D01*
G01*
X43000000Y-60595000D01*
G75*
G02*
X42850000Y-60745000I-150000J0D01*
G01*
X41200000Y-60745000D01*
G75*
G02*
X41050000Y-60595000I0J150000D01*
G01*
G37*
G36*
G01*
X46000000Y-60595000D02*
X46000000Y-60295000D01*
G75*
G02*
X46150000Y-60145000I150000J0D01*
G01*
X47800000Y-60145000D01*
G75*
G02*
X47950000Y-60295000I0J-150000D01*
G01*
X47950000Y-60595000D01*
G75*
G02*
X47800000Y-60745000I-150000J0D01*
G01*
X46150000Y-60745000D01*
G75*
G02*
X46000000Y-60595000I0J150000D01*
G01*
G37*
G36*
G01*
X46000000Y-59325000D02*
X46000000Y-59025000D01*
G75*
G02*
X46150000Y-58875000I150000J0D01*
G01*
X47800000Y-58875000D01*
G75*
G02*
X47950000Y-59025000I0J-150000D01*
G01*
X47950000Y-59325000D01*
G75*
G02*
X47800000Y-59475000I-150000J0D01*
G01*
X46150000Y-59475000D01*
G75*
G02*
X46000000Y-59325000I0J150000D01*
G01*
G37*
G36*
G01*
X46000000Y-58055000D02*
X46000000Y-57755000D01*
G75*
G02*
X46150000Y-57605000I150000J0D01*
G01*
X47800000Y-57605000D01*
G75*
G02*
X47950000Y-57755000I0J-150000D01*
G01*
X47950000Y-58055000D01*
G75*
G02*
X47800000Y-58205000I-150000J0D01*
G01*
X46150000Y-58205000D01*
G75*
G02*
X46000000Y-58055000I0J150000D01*
G01*
G37*
G36*
G01*
X46000000Y-56785000D02*
X46000000Y-56485000D01*
G75*
G02*
X46150000Y-56335000I150000J0D01*
G01*
X47800000Y-56335000D01*
G75*
G02*
X47950000Y-56485000I0J-150000D01*
G01*
X47950000Y-56785000D01*
G75*
G02*
X47800000Y-56935000I-150000J0D01*
G01*
X46150000Y-56935000D01*
G75*
G02*
X46000000Y-56785000I0J150000D01*
G01*
G37*
G36*
G01*
X46000000Y-55515000D02*
X46000000Y-55215000D01*
G75*
G02*
X46150000Y-55065000I150000J0D01*
G01*
X47800000Y-55065000D01*
G75*
G02*
X47950000Y-55215000I0J-150000D01*
G01*
X47950000Y-55515000D01*
G75*
G02*
X47800000Y-55665000I-150000J0D01*
G01*
X46150000Y-55665000D01*
G75*
G02*
X46000000Y-55515000I0J150000D01*
G01*
G37*
G36*
G01*
X46000000Y-54245000D02*
X46000000Y-53945000D01*
G75*
G02*
X46150000Y-53795000I150000J0D01*
G01*
X47800000Y-53795000D01*
G75*
G02*
X47950000Y-53945000I0J-150000D01*
G01*
X47950000Y-54245000D01*
G75*
G02*
X47800000Y-54395000I-150000J0D01*
G01*
X46150000Y-54395000D01*
G75*
G02*
X46000000Y-54245000I0J150000D01*
G01*
G37*
G36*
G01*
X46000000Y-52975000D02*
X46000000Y-52675000D01*
G75*
G02*
X46150000Y-52525000I150000J0D01*
G01*
X47800000Y-52525000D01*
G75*
G02*
X47950000Y-52675000I0J-150000D01*
G01*
X47950000Y-52975000D01*
G75*
G02*
X47800000Y-53125000I-150000J0D01*
G01*
X46150000Y-53125000D01*
G75*
G02*
X46000000Y-52975000I0J150000D01*
G01*
G37*
G36*
G01*
X46000000Y-51705000D02*
X46000000Y-51405000D01*
G75*
G02*
X46150000Y-51255000I150000J0D01*
G01*
X47800000Y-51255000D01*
G75*
G02*
X47950000Y-51405000I0J-150000D01*
G01*
X47950000Y-51705000D01*
G75*
G02*
X47800000Y-51855000I-150000J0D01*
G01*
X46150000Y-51855000D01*
G75*
G02*
X46000000Y-51705000I0J150000D01*
G01*
G37*
%TD*%
%TO.C,J1*%
G36*
G01*
X75045000Y-79960000D02*
X75045000Y-79640000D01*
G75*
G02*
X75205000Y-79480000I160000J0D01*
G01*
X75650000Y-79480000D01*
G75*
G02*
X75810000Y-79640000I0J-160000D01*
G01*
X75810000Y-79960000D01*
G75*
G02*
X75650000Y-80120000I-160000J0D01*
G01*
X75205000Y-80120000D01*
G75*
G02*
X75045000Y-79960000I0J160000D01*
G01*
G37*
G36*
G01*
X76190000Y-79960000D02*
X76190000Y-79640000D01*
G75*
G02*
X76350000Y-79480000I160000J0D01*
G01*
X76795000Y-79480000D01*
G75*
G02*
X76955000Y-79640000I0J-160000D01*
G01*
X76955000Y-79960000D01*
G75*
G02*
X76795000Y-80120000I-160000J0D01*
G01*
X76350000Y-80120000D01*
G75*
G02*
X76190000Y-79960000I0J160000D01*
G01*
G37*
%TD*%
M02*
